<svg xmlns="http://www.w3.org/2000/svg" viewBox="0 0 752.07 819"><defs><style>.cls-1{isolation:isolate;}.cls-2{fill:#d5dee6;}.cls-3{fill:#d6e3ee;}.cls-4{fill:#beccd6;}.cls-5{fill:#e4ebed;}.cls-6{fill:#dfe6ea;}.cls-7{fill:#e9eeef;}.cls-8{fill:#e1e7ed;}.cls-9{fill:#d4dde3;}.cls-10{fill:#fd9d09;}.cls-11{fill:#fbcb08;}.cls-12{fill:#00595d;}.cls-13{fill:#ffa18d;}.cls-14{fill:#061535;}.cls-15{fill:#fa0;}.cls-16{fill:#1b2f42;}.cls-17{fill:#1a1a1a;}.cls-18,.cls-23{fill:#feb9a5;}.cls-19{fill:#fff;}.cls-20{fill:#ffcebf;}.cls-21{fill:#e5a13e;}.cls-22{fill:#5de995;}.cls-23,.cls-27{mix-blend-mode:multiply;}.cls-24{fill:#163539;}.cls-25{fill:#3b516c;}.cls-26{fill:#1f65ff;}.cls-27,.cls-29{fill:#a66753;}.cls-27{opacity:0.5;}.cls-28{fill:#c77662;}.cls-30{fill:#ffe432;}.cls-31{fill:#231f20;}.cls-32{fill:#292c37;}.cls-33{fill:#2b3990;}</style></defs><title>allset</title><g class="cls-1"><g id="Layer_2" data-name="Layer 2"><g id="Layer_1-2" data-name="Layer 1"><path class="cls-2" d="M141.73,582.19,13.39,570.54c-3.58-.33-7.86-.18-9.83,4.18-1,2.26-1.13,5.14-1.2,7.85Q-.4,697.27,4.54,812L125,815.19c7,.18,14,3.11,17.62-6.58,3.4-9.16.87-31.74,1-42.2q.65-44.08.23-88.2C143.8,670.19,142.69,582.19,141.73,582.19Z"/><path class="cls-3" d="M286.83,766.71c0-2-.08-4.29-1.41-5.38a4.09,4.09,0,0,0-2.67-.69l-95.42-1.46c-1.77,0-3.69,0-5.09,1.32-1.82,1.7-2.13,4.86-2.26,7.67-.7,14.79-.66,29.62.12,44.4,21.11,2.14,42.3-2.07,63.48-2.1a214.52,214.52,0,0,1,22.65,1.31c4.62.49,13.55,4.06,17.48-.14,3.46-3.69,2.59-12.22,2.67-17.13Z"/><path class="cls-4" d="M170.87,534.76a8,8,0,0,0-.87-4.11c-.89-1.27-2.32-1.14-3.57-.88-6.73,1.39-13.37,3.7-20.1,5.19-10.81,2.39-21.79,2.65-32.72,2.9l-25.8.58c-3.13.07-6.63-.06-8.86-3.25C81,582,81.42,629,80.17,675.93c-1.14,42.81-3.64,85.62-2.45,128.42a6,6,0,0,0,.7,3.23,2.47,2.47,0,0,0,2,.81l57.19,4.08c8.57.61,19.72,4.25,28.13,2,7.45-2,4.59-15.56,4.3-23.86-2-54.59.25-109.22,1.26-163.79C171.83,596.13,172,565.41,170.87,534.76Z"/><path class="cls-5" d="M137.67,810.55a5,5,0,0,1-3.26-1.26c-1-1-1.29-2.78-1.5-4.38-2.42-18.35-2.75-37-3.07-55.6q-.42-24.69-.85-49.38c-.06-3.63,0-7.68,2.06-10.29s5.4-2.8,8.37-2.79l56.62.08q-1.09,28.61-2.18,57.22c-.46,12.15-.91,24.35-.19,36.5.44,7.36,6.09,24.55,2.41,30.8-3.9,6.62-20.52,2.3-26.4,2Q153.65,812.49,137.67,810.55Z"/><path class="cls-2" d="M307.29,809.84a244.15,244.15,0,0,1-52.33-.58q-2.53-105.48-5.08-211a388.06,388.06,0,0,1,46.35-2c5.34.14,9.93-.47,11.77,6.53,1.88,7.19-.47,19.61-.65,27.22-.91,38.55-1,77.13-.68,115.69C306.7,751.13,307.73,809.8,307.29,809.84Z"/><path class="cls-6" d="M44.71,647.49c-.08,1.82-.34,4-1.66,4.77a3.42,3.42,0,0,1-1.35.38,102.67,102.67,0,0,1-11.47.92,3.89,3.89,0,0,1-3.27-1,6.52,6.52,0,0,1-1-3.79q-.4-7-.83-13.92a1.25,1.25,0,0,1,.16-.87.73.73,0,0,1,.68-.15c5.15.65,10.89.52,15.91,2C46.58,637.26,44.92,642.38,44.71,647.49Z"/><path class="cls-6" d="M26.45,661.44a1.63,1.63,0,0,0-1.08.2,2.13,2.13,0,0,0-.58.91,18.34,18.34,0,0,0-.84,6.93c0,3.9.06,7.81.08,11.71,5.09,0,10.57.07,15.58-1.08,4.39-1,4.75-5.16,4-10.23C42.18,659.82,32.76,661.72,26.45,661.44Z"/><path class="cls-6" d="M27.5,690a67.78,67.78,0,0,0-.5,17,1.54,1.54,0,0,0,.25.84,1,1,0,0,0,.7.27l12,1.15c4.69.45,4.73-12.15,2.63-15.91a6.86,6.86,0,0,0-5.05-3.33C36.58,689.87,27.68,689.13,27.5,690Z"/><path class="cls-6" d="M26.81,720a56.58,56.58,0,0,0,0,19.81,1.47,1.47,0,0,0,.25.7,1,1,0,0,0,.76.23l11-.06c1.31,0,2.76-.08,3.72-1.19s1.08-2.9,1.15-4.52L44,725.7c.18-3.87.84-4.53-2.13-5.4C37.3,718.94,31.51,719.72,26.81,720Z"/><path class="cls-7" d="M171.76,706.79c-4.55-.4-9-1.85-13.6-1.66a2.21,2.21,0,0,0-2.13,1.08,3.65,3.65,0,0,0-.21,1.52c0,1.88,0,3.76,0,5.64a2.49,2.49,0,0,0,.19,1.19,1.57,1.57,0,0,0,1.59.6l12.7-.61c2.86-.13,10,1.17,12.37-.62,2.57-1.92.69-4.77-1.25-6.06C178.57,706,174.86,707.06,171.76,706.79Z"/><path class="cls-7" d="M158.34,720.2a.91.91,0,0,0-.73.21,1.52,1.52,0,0,0-.27.94,47.06,47.06,0,0,0,.2,8.31,1.49,1.49,0,0,0,.31.91.93.93,0,0,0,.79.17,157.7,157.7,0,0,1,23.9-.68c.5,0,1.11,0,1.37-.54a2.12,2.12,0,0,0,.15-.94c0-2.08.66-5.48-.84-6.9s-6.42-.7-8.24-.83C169.44,720.47,163.88,720.2,158.34,720.2Z"/><path class="cls-7" d="M158.25,734.38a.79.79,0,0,0-.47.2,1.07,1.07,0,0,0-.17.65,41.5,41.5,0,0,0,.28,7.8l22.51,1a1.66,1.66,0,0,0,1-.2,2.27,2.27,0,0,0,.71-1.37c2.13-8.18-2.29-7.68-7.83-8.3A64.59,64.59,0,0,0,158.25,734.38Z"/><path class="cls-8" d="M301.52,612.49c0,.59-.1,1.28-.53,1.54a1.16,1.16,0,0,1-.44.12,32.75,32.75,0,0,1-3.7.3,1.26,1.26,0,0,1-1.06-.33,2.18,2.18,0,0,1-.32-1.22l-.27-4.49c0-.1,0-.22.06-.28s.14-.06.21,0a32.84,32.84,0,0,1,5.14.65C302.13,609.19,301.59,610.84,301.52,612.49Z"/><path class="cls-8" d="M295.63,617a.48.48,0,0,0-.35.07.61.61,0,0,0-.19.29,6.16,6.16,0,0,0-.27,2.24l0,3.77a23.57,23.57,0,0,0,5-.34c1.41-.33,1.53-1.67,1.29-3.31C300.71,616.47,297.67,617.08,295.63,617Z"/><path class="cls-8" d="M296,626.22a21.45,21.45,0,0,0-.16,5.49.48.48,0,0,0,.08.27.33.33,0,0,0,.22.09l3.88.37c1.52.15,1.53-3.92.85-5.14a2.21,2.21,0,0,0-1.63-1.07C298.9,626.16,296,625.93,296,626.22Z"/><path class="cls-8" d="M295.74,635.89a18.29,18.29,0,0,0,0,6.39.39.39,0,0,0,.08.22.29.29,0,0,0,.25.08l3.53,0a1.47,1.47,0,0,0,1.2-.38,2.42,2.42,0,0,0,.37-1.46c.05-1,.09-2,.13-3,.06-1.25.28-1.47-.68-1.74A15.07,15.07,0,0,0,295.74,635.89Z"/><path class="cls-8" d="M301.52,649.21c0,.59-.1,1.28-.53,1.54a1.16,1.16,0,0,1-.44.12,32.75,32.75,0,0,1-3.7.3,1.28,1.28,0,0,1-1.06-.32,2.22,2.22,0,0,1-.32-1.22l-.27-4.5a.38.38,0,0,1,.06-.28.23.23,0,0,1,.21-.05,32.84,32.84,0,0,1,5.14.65C302.13,645.91,301.59,647.56,301.52,649.21Z"/><path class="cls-8" d="M295.63,653.71a.53.53,0,0,0-.35.07.67.67,0,0,0-.19.29,6.16,6.16,0,0,0-.27,2.24l0,3.78a24.24,24.24,0,0,0,5-.35c1.41-.32,1.53-1.67,1.29-3.3C300.71,653.19,297.67,653.8,295.63,653.71Z"/><path class="cls-8" d="M296,662.94a21.48,21.48,0,0,0-.16,5.49.46.46,0,0,0,.08.27.33.33,0,0,0,.22.09l3.88.37c1.52.15,1.53-3.92.85-5.13a2.19,2.19,0,0,0-1.63-1.07C298.9,662.89,296,662.65,296,662.94Z"/><path class="cls-8" d="M295.74,672.61a18.29,18.29,0,0,0,0,6.39.42.42,0,0,0,.08.23.31.31,0,0,0,.25.07l3.53,0a1.47,1.47,0,0,0,1.2-.38,2.42,2.42,0,0,0,.37-1.46c.05-1,.09-2,.13-3,.06-1.24.28-1.46-.68-1.74A15.07,15.07,0,0,0,295.74,672.61Z"/><path class="cls-8" d="M292.21,612.49c0,.59-.11,1.28-.54,1.54a1.06,1.06,0,0,1-.43.12,32.94,32.94,0,0,1-3.7.3,1.25,1.25,0,0,1-1.06-.33,2.1,2.1,0,0,1-.32-1.22l-.27-4.49a.37.37,0,0,1,.05-.28.23.23,0,0,1,.22,0,32.71,32.71,0,0,1,5.13.65C292.81,609.19,292.28,610.84,292.21,612.49Z"/><path class="cls-8" d="M286.32,617a.48.48,0,0,0-.35.07.55.55,0,0,0-.19.29,6.16,6.16,0,0,0-.27,2.24l0,3.77a23.43,23.43,0,0,0,5-.34c1.42-.33,1.54-1.67,1.3-3.31C291.4,616.47,288.36,617.08,286.32,617Z"/><path class="cls-8" d="M286.66,626.22a21.45,21.45,0,0,0-.16,5.49.41.41,0,0,0,.08.27.29.29,0,0,0,.22.09l3.88.37c1.51.15,1.53-3.92.85-5.14a2.23,2.23,0,0,0-1.63-1.07C289.59,626.16,286.72,625.93,286.66,626.22Z"/><path class="cls-8" d="M286.43,635.89a18.05,18.05,0,0,0,0,6.39.39.39,0,0,0,.08.22.27.27,0,0,0,.24.08l3.54,0a1.47,1.47,0,0,0,1.2-.38,2.56,2.56,0,0,0,.37-1.46c.05-1,.09-2,.13-3,.06-1.25.28-1.47-.68-1.74A15.07,15.07,0,0,0,286.43,635.89Z"/><path class="cls-8" d="M292.21,649.21c0,.59-.11,1.28-.54,1.54a1.06,1.06,0,0,1-.43.12,32.94,32.94,0,0,1-3.7.3,1.27,1.27,0,0,1-1.06-.32,2.14,2.14,0,0,1-.32-1.22l-.27-4.5a.38.38,0,0,1,.05-.28.25.25,0,0,1,.22-.05,32.71,32.71,0,0,1,5.13.65C292.81,645.91,292.28,647.56,292.21,649.21Z"/><path class="cls-8" d="M286.32,653.71a.53.53,0,0,0-.35.07.59.59,0,0,0-.19.29,6.16,6.16,0,0,0-.27,2.24l0,3.78a24.1,24.1,0,0,0,5-.35c1.42-.32,1.54-1.67,1.3-3.3C291.4,653.19,288.36,653.8,286.32,653.71Z"/><path class="cls-8" d="M286.66,662.94a21.48,21.48,0,0,0-.16,5.49.4.4,0,0,0,.08.27.29.29,0,0,0,.22.09l3.88.37c1.51.15,1.53-3.92.85-5.13A2.2,2.2,0,0,0,289.9,663C289.59,662.89,286.72,662.65,286.66,662.94Z"/><path class="cls-8" d="M286.43,672.61a18.05,18.05,0,0,0,0,6.39.42.42,0,0,0,.08.23.3.3,0,0,0,.24.07l3.54,0a1.47,1.47,0,0,0,1.2-.38,2.56,2.56,0,0,0,.37-1.46c.05-1,.09-2,.13-3,.06-1.24.28-1.46-.68-1.74A15.07,15.07,0,0,0,286.43,672.61Z"/><path class="cls-9" d="M159.82,548.63a2.5,2.5,0,0,1-2.09,2.46,9.3,9.3,0,0,1-1.7.2c-4.81.27-9.65.43-14.49.48a10.33,10.33,0,0,1-4.14-.52,2.22,2.22,0,0,1-1.27-2l-1-7.21c0-.16,0-.35.2-.45a1.85,1.85,0,0,1,.86-.08c6.51.34,13.76.27,20.1,1.05C162.19,543.33,160.1,546,159.82,548.63Z"/><path class="cls-9" d="M136.76,555.85a4.71,4.71,0,0,0-1.37.1,1.78,1.78,0,0,0-.74.47,4.53,4.53,0,0,0-1.05,3.6c0,2,.07,4,.11,6.06,6.43,0,13.34,0,19.68-.56,5.54-.52,6-2.67,5.08-5.3C156.64,555,144.74,556,136.76,555.85Z"/><path class="cls-9" d="M138.09,570.66a14.57,14.57,0,0,0-.63,8.81.53.53,0,0,0,.31.44,2.85,2.85,0,0,0,.88.14l15.18.59c5.93.24,6-6.29,3.33-8.24-1.52-1.11-3.86-1.5-6.38-1.72C149.57,570.57,138.32,570.19,138.09,570.66Z"/><path class="cls-9" d="M137.21,586.18a12.42,12.42,0,0,0,0,10.25.58.58,0,0,0,.32.36,2.35,2.35,0,0,0,1,.13l13.84,0a12.08,12.08,0,0,0,4.7-.62,2.53,2.53,0,0,0,1.46-2.34c.17-1.6.34-3.2.52-4.8.23-2,1.07-2.35-2.68-2.8C150.47,585.63,143.15,586,137.21,586.18Z"/><path class="cls-9" d="M159.82,607.56a2.52,2.52,0,0,1-2.09,2.47,10.28,10.28,0,0,1-1.7.19c-4.81.27-9.65.43-14.49.48a10.15,10.15,0,0,1-4.14-.52,2.22,2.22,0,0,1-1.27-2l-1-7.21a.37.37,0,0,1,.2-.45,2.16,2.16,0,0,1,.86-.08c6.51.34,13.76.27,20.1,1C162.19,602.26,160.1,604.91,159.82,607.56Z"/><path class="cls-9" d="M123.36,548.63a2.49,2.49,0,0,1-2.09,2.46,9.3,9.3,0,0,1-1.7.2q-7.23.4-14.49.48a10.33,10.33,0,0,1-4.14-.52,2.22,2.22,0,0,1-1.27-2l-1-7.21c0-.16,0-.35.2-.45a1.84,1.84,0,0,1,.86-.08c6.5.34,13.76.27,20.1,1.05C125.73,543.33,123.64,546,123.36,548.63Z"/><path class="cls-9" d="M100.3,555.85a4.71,4.71,0,0,0-1.37.1,1.78,1.78,0,0,0-.74.47,4.53,4.53,0,0,0-1,3.6c0,2,.07,4,.11,6.06,6.43,0,13.34,0,19.68-.56,5.54-.52,6-2.67,5.08-5.3C120.18,555,108.27,556,100.3,555.85Z"/><path class="cls-9" d="M101.63,570.66a14.57,14.57,0,0,0-.63,8.81.53.53,0,0,0,.31.44,2.85,2.85,0,0,0,.88.14l15.18.59c5.93.24,6-6.29,3.33-8.24-1.52-1.11-3.87-1.5-6.38-1.72C113.11,570.57,101.86,570.19,101.63,570.66Z"/><path class="cls-9" d="M100.75,586.18a12.42,12.42,0,0,0,0,10.25.58.58,0,0,0,.32.36,2.35,2.35,0,0,0,1,.13l13.84,0a12,12,0,0,0,4.69-.62,2.53,2.53,0,0,0,1.47-2.34c.17-1.6.34-3.2.52-4.8.23-2,1.06-2.35-2.68-2.8C114,585.63,106.69,586,100.75,586.18Z"/><path class="cls-9" d="M123.36,607.56a2.51,2.51,0,0,1-2.09,2.47,10.28,10.28,0,0,1-1.7.19q-7.23.4-14.49.48a10.15,10.15,0,0,1-4.14-.52,2.22,2.22,0,0,1-1.27-2l-1-7.21a.37.37,0,0,1,.2-.45,2.14,2.14,0,0,1,.86-.08c6.5.34,13.76.27,20.1,1C125.73,602.26,123.64,604.91,123.36,607.56Z"/><path class="cls-3" d="M354.79,788.84c0-1.21-.05-2.64-.86-3.32a2.51,2.51,0,0,0-1.64-.41l-58.71-.91a4.24,4.24,0,0,0-3.13.82c-1.12,1-1.31,3-1.39,4.71-.42,9.1-.4,18.23.08,27.32,13,1.31,26-1.28,39.05-1.29a132.44,132.44,0,0,1,13.93.8c2.84.3,8.34,2.5,10.76-.08,2.12-2.28,1.59-7.52,1.64-10.54Z"/><path class="cls-4" d="M241.7,642.15a3.82,3.82,0,0,0-.54-2.16,2.2,2.2,0,0,0-2.19-.46c-4.15.73-8.23,1.94-12.37,2.72-6.66,1.25-13.41,1.39-20.14,1.52l-15.86.3c-1.93,0-4.08,0-5.45-1.7,1.28,24.53,1.51,49.15.74,73.71-.69,22.42-2.23,44.85-1.5,67.26a2.72,2.72,0,0,0,.43,1.69,1.64,1.64,0,0,0,1.21.42l35.18,2.14c5.27.32,12.13,2.23,17.3,1,4.59-1,2.83-8.15,2.65-12.5-1.22-28.59.15-57.2.77-85.78C242.28,674.28,242.4,658.2,241.7,642.15Z"/><path class="cls-2" d="M265.54,697.29l-79-6.07c-2.21-.17-4.84-.09-6.05,2.18a9.35,9.35,0,0,0-.73,4.09q-1.71,59.78,1.33,119.56l74.1,1.66c4.3.1,8.62,1.62,10.84-3.43,2.1-4.77.54-16.54.63-22q.39-23,.14-46C266.81,743.15,266.13,697.29,265.54,697.29Z"/><path class="cls-5" d="M263,815.8a3.08,3.08,0,0,1-2-.77,4.87,4.87,0,0,1-.92-2.69c-1.49-11.29-1.69-22.77-1.89-34.21Q258,763,257.7,747.76c0-2.23,0-4.73,1.26-6.33s3.33-1.72,5.16-1.72l34.82,0q-.66,17.6-1.34,35.2c-.28,7.47-.55,15-.11,22.45.27,4.53,3.75,15.11,1.48,19-2.4,4.07-12.63,1.41-16.24,1.21Q272.88,817,263,815.8Z"/><path class="cls-2" d="M367.39,815.37a150.8,150.8,0,0,1-32.21-.36q-1.55-64.89-3.11-129.77a240.2,240.2,0,0,1,28.5-1.22c3.29.08,6.11-.3,7.24,4s-.29,12.07-.39,16.75c-.56,23.71-.59,47.44-.42,71.16C367,779.25,367.65,815.34,367.39,815.37Z"/><path class="cls-6" d="M205.85,715.5c0,1.12-.2,2.44-1,2.93a2.15,2.15,0,0,1-.83.24,64.18,64.18,0,0,1-7.05.56,2.41,2.41,0,0,1-2-.61,4,4,0,0,1-.62-2.33l-.51-8.57a.77.77,0,0,1,.1-.53.43.43,0,0,1,.42-.1c3.16.41,6.7.33,9.79,1.25C207,709.21,206,712.35,205.85,715.5Z"/><path class="cls-6" d="M194.62,724.08a1,1,0,0,0-.67.13,1.24,1.24,0,0,0-.35.55,11.23,11.23,0,0,0-.52,4.27q0,3.6,0,7.2a45.35,45.35,0,0,0,9.59-.66c2.69-.62,2.92-3.18,2.47-6.3C204.3,723.08,198.51,724.26,194.62,724.08Z"/><path class="cls-6" d="M195.26,741.67a41.69,41.69,0,0,0-.3,10.47,1,1,0,0,0,.15.51.63.63,0,0,0,.43.17l7.39.71c2.89.28,2.91-7.47,1.62-9.79a4.2,4.2,0,0,0-3.1-2C200.85,741.57,195.38,741.11,195.26,741.67Z"/><path class="cls-6" d="M194.84,760.1a34.61,34.61,0,0,0,0,12.18,1,1,0,0,0,.15.43.57.57,0,0,0,.47.15l6.74,0a2.85,2.85,0,0,0,2.29-.73,4.77,4.77,0,0,0,.71-2.78c.08-1.9.16-3.8.25-5.7.11-2.38.52-2.79-1.31-3.32C201.3,759.45,197.73,759.93,194.84,760.1Z"/><path class="cls-7" d="M284,752c-2.8-.25-5.56-1.14-8.37-1a1.4,1.4,0,0,0-1.31.67,2.41,2.41,0,0,0-.13.93c0,1.16,0,2.32,0,3.47a1.46,1.46,0,0,0,.12.73.94.94,0,0,0,1,.37l7.81-.37c1.77-.08,6.14.72,7.61-.38s.44-2.93-.76-3.73C288.2,751.48,285.92,752.15,284,752Z"/><path class="cls-7" d="M275.75,760.23a.54.54,0,0,0-.44.12.93.93,0,0,0-.18.58,30.19,30.19,0,0,0,.13,5.12.94.94,0,0,0,.19.56.57.57,0,0,0,.49.1,97.56,97.56,0,0,1,14.7-.42c.31,0,.68,0,.84-.33a1.25,1.25,0,0,0,.1-.58c0-1.28.4-3.37-.52-4.24s-3.95-.44-5.07-.51C282.58,760.4,279.17,760.23,275.75,760.23Z"/><path class="cls-7" d="M275.7,769a.47.47,0,0,0-.29.12.76.76,0,0,0-.11.41,26.44,26.44,0,0,0,.17,4.79l13.85.61a1,1,0,0,0,.65-.12,1.51,1.51,0,0,0,.44-.85c1.31-5-1.41-4.72-4.82-5.1A39.44,39.44,0,0,0,275.7,769Z"/><path class="cls-8" d="M363.83,694c0,.36-.06.79-.33.94a.65.65,0,0,1-.26.08,21.88,21.88,0,0,1-2.28.18.74.74,0,0,1-.65-.2,1.29,1.29,0,0,1-.2-.75c-.05-.92-.11-1.84-.17-2.76a.28.28,0,0,1,0-.18s.08,0,.13,0a19.81,19.81,0,0,1,3.16.41C364.2,691.94,363.88,693,363.83,694Z"/><path class="cls-8" d="M360.21,696.74a.29.29,0,0,0-.22,0,.46.46,0,0,0-.11.18,3.69,3.69,0,0,0-.17,1.37c0,.78,0,1.55,0,2.33a14.52,14.52,0,0,0,3.09-.22c.87-.19.94-1,.8-2C363.33,696.41,361.46,696.79,360.21,696.74Z"/><path class="cls-8" d="M360.42,702.41a13.19,13.19,0,0,0-.1,3.38.25.25,0,0,0,.05.17.16.16,0,0,0,.14,0l2.38.23c.93.09.94-2.41.52-3.16a1.37,1.37,0,0,0-1-.66C362.22,702.38,360.45,702.23,360.42,702.41Z"/><path class="cls-8" d="M360.28,708.36a11.28,11.28,0,0,0,0,3.93.22.22,0,0,0,.06.14.17.17,0,0,0,.15.05h2.17a.92.92,0,0,0,.74-.24,1.55,1.55,0,0,0,.23-.9c0-.61.05-1.22.08-1.84s.17-.9-.42-1.07A9.43,9.43,0,0,0,360.28,708.36Z"/><path class="cls-8" d="M363.83,716.56c0,.36-.06.79-.33.94a.65.65,0,0,1-.26.08,21.88,21.88,0,0,1-2.28.18.74.74,0,0,1-.65-.2,1.29,1.29,0,0,1-.2-.75c-.05-.92-.11-1.84-.17-2.76a.28.28,0,0,1,0-.18.14.14,0,0,1,.13,0,19.79,19.79,0,0,1,3.16.4C364.2,714.53,363.88,715.54,363.83,716.56Z"/><path class="cls-8" d="M360.21,719.33a.29.29,0,0,0-.22,0,.46.46,0,0,0-.11.18,3.66,3.66,0,0,0-.17,1.37c0,.78,0,1.55,0,2.33a15.2,15.2,0,0,0,3.09-.21c.87-.2.94-1,.8-2C363.33,719,361.46,719.38,360.21,719.33Z"/><path class="cls-8" d="M360.42,725a13.19,13.19,0,0,0-.1,3.38.25.25,0,0,0,.05.17.16.16,0,0,0,.14.05l2.38.23c.93.09.94-2.41.52-3.16a1.37,1.37,0,0,0-1-.66C362.22,725,360.45,724.82,360.42,725Z"/><path class="cls-8" d="M360.28,731a11.28,11.28,0,0,0,0,3.93.2.2,0,0,0,.06.14.17.17,0,0,0,.15.05h2.17a.92.92,0,0,0,.74-.24,1.53,1.53,0,0,0,.23-.9c0-.61.05-1.22.08-1.83,0-.77.17-.91-.42-1.08A9.43,9.43,0,0,0,360.28,731Z"/><path class="cls-8" d="M358.1,694c0,.36-.06.79-.32.94a.7.7,0,0,1-.27.08,21.88,21.88,0,0,1-2.28.18.74.74,0,0,1-.65-.2,1.29,1.29,0,0,1-.2-.75c-.05-.92-.11-1.84-.16-2.76a.23.23,0,0,1,0-.18s.08,0,.13,0a19.81,19.81,0,0,1,3.16.41C358.47,691.94,358.15,693,358.1,694Z"/><path class="cls-8" d="M354.48,696.74a.26.26,0,0,0-.21,0,.32.32,0,0,0-.12.18,3.69,3.69,0,0,0-.17,1.37c0,.78,0,1.55,0,2.33a14.57,14.57,0,0,0,3.09-.22c.87-.19.94-1,.8-2C357.6,696.41,355.74,696.79,354.48,696.74Z"/><path class="cls-8" d="M354.69,702.41a13.19,13.19,0,0,0-.1,3.38.42.42,0,0,0,.05.17.17.17,0,0,0,.14,0l2.38.23c.94.09.94-2.41.52-3.16a1.37,1.37,0,0,0-1-.66C356.49,702.38,354.73,702.23,354.69,702.41Z"/><path class="cls-8" d="M354.55,708.36a11.28,11.28,0,0,0,0,3.93.29.29,0,0,0,.05.14.17.17,0,0,0,.15.05h2.17a.92.92,0,0,0,.74-.24,1.55,1.55,0,0,0,.23-.9c0-.61.05-1.22.08-1.84s.17-.9-.42-1.07A9.43,9.43,0,0,0,354.55,708.36Z"/><path class="cls-8" d="M358.1,716.56c0,.36-.06.79-.32.94a.7.7,0,0,1-.27.08,21.88,21.88,0,0,1-2.28.18.74.74,0,0,1-.65-.2,1.29,1.29,0,0,1-.2-.75c-.05-.92-.11-1.84-.16-2.76a.23.23,0,0,1,0-.18.14.14,0,0,1,.13,0,19.79,19.79,0,0,1,3.16.4C358.47,714.53,358.15,715.54,358.1,716.56Z"/><path class="cls-8" d="M354.48,719.33a.26.26,0,0,0-.21,0,.32.32,0,0,0-.12.18,3.66,3.66,0,0,0-.17,1.37c0,.78,0,1.55,0,2.33a15.25,15.25,0,0,0,3.09-.21c.87-.2.94-1,.8-2C357.6,719,355.74,719.38,354.48,719.33Z"/><path class="cls-8" d="M354.69,725a13.19,13.19,0,0,0-.1,3.38.42.42,0,0,0,.05.17.17.17,0,0,0,.14.05l2.38.23c.94.09.94-2.41.52-3.16a1.37,1.37,0,0,0-1-.66C356.49,725,354.73,724.82,354.69,725Z"/><path class="cls-8" d="M354.55,731a11.28,11.28,0,0,0,0,3.93.26.26,0,0,0,.05.14.17.17,0,0,0,.15.05h2.17a.92.92,0,0,0,.74-.24,1.53,1.53,0,0,0,.23-.9c0-.61.05-1.22.08-1.83,0-.77.17-.91-.42-1.08A9.43,9.43,0,0,0,354.55,731Z"/><path class="cls-9" d="M234.9,651.15a1.54,1.54,0,0,1-1.29,1.51,5.8,5.8,0,0,1-1.05.13q-4.44.24-8.91.29a6.31,6.31,0,0,1-2.54-.32,1.35,1.35,0,0,1-.79-1.21c-.21-1.47-.43-2.95-.64-4.43a.22.22,0,0,1,.12-.28,1.3,1.3,0,0,1,.53-.05c4,.21,8.46.17,12.36.65C236.35,647.89,235.06,649.52,234.9,651.15Z"/><path class="cls-9" d="M220.71,655.59a2.56,2.56,0,0,0-.84.07,1.09,1.09,0,0,0-.46.28,2.75,2.75,0,0,0-.64,2.21l.06,3.73c3.95,0,8.21,0,12.11-.34,3.41-.32,3.69-1.65,3.12-3.26C232.94,655.07,225.62,655.68,220.71,655.59Z"/><path class="cls-9" d="M221.53,664.7a9,9,0,0,0-.39,5.42.33.33,0,0,0,.19.27,1.31,1.31,0,0,0,.54.08l9.34.37c3.65.15,3.68-3.87,2-5.07a8.16,8.16,0,0,0-3.93-1.06C228.59,664.65,221.66,664.41,221.53,664.7Z"/><path class="cls-9" d="M221,674.24a7.7,7.7,0,0,0,0,6.32.42.42,0,0,0,.2.22,1.54,1.54,0,0,0,.59.07h8.51a7.42,7.42,0,0,0,2.89-.39,1.56,1.56,0,0,0,.9-1.44c.11-1,.21-2,.32-3,.14-1.23.65-1.44-1.65-1.72A90.08,90.08,0,0,0,221,674.24Z"/><path class="cls-9" d="M234.9,687.4a1.55,1.55,0,0,1-1.29,1.52,5.81,5.81,0,0,1-1.05.12q-4.44.24-8.91.29a6.14,6.14,0,0,1-2.54-.32,1.35,1.35,0,0,1-.79-1.2c-.21-1.48-.43-3-.64-4.44a.22.22,0,0,1,.12-.28,1.3,1.3,0,0,1,.53-.05c4,.21,8.46.17,12.36.65C236.35,684.14,235.06,685.77,234.9,687.4Z"/><path class="cls-9" d="M212.47,651.15a1.54,1.54,0,0,1-1.29,1.51,5.8,5.8,0,0,1-1.05.13q-4.44.24-8.91.29a6.38,6.38,0,0,1-2.55-.32,1.36,1.36,0,0,1-.77-1.21c-.22-1.47-.44-2.95-.65-4.43a.22.22,0,0,1,.12-.28,1.3,1.3,0,0,1,.53-.05c4,.21,8.46.17,12.37.65C213.92,647.89,212.64,649.52,212.47,651.15Z"/><path class="cls-9" d="M198.28,655.59a2.59,2.59,0,0,0-.84.07.94.94,0,0,0-.45.28,2.79,2.79,0,0,0-.65,2.21l.06,3.73c4,0,8.21,0,12.11-.34,3.41-.32,3.69-1.65,3.12-3.26C210.51,655.07,203.19,655.68,198.28,655.59Z"/><path class="cls-9" d="M199.1,664.7a9,9,0,0,0-.39,5.42.35.35,0,0,0,.2.27,1.23,1.23,0,0,0,.53.08l9.34.37c3.65.15,3.68-3.87,2.05-5.07a8.16,8.16,0,0,0-3.93-1.06C206.16,664.65,199.24,664.41,199.1,664.7Z"/><path class="cls-9" d="M198.56,674.24a7.66,7.66,0,0,0,0,6.32.36.36,0,0,0,.19.22,1.54,1.54,0,0,0,.59.07h8.51a7.42,7.42,0,0,0,2.89-.39,1.56,1.56,0,0,0,.9-1.44c.11-1,.21-2,.32-3,.14-1.23.65-1.44-1.65-1.72A90.08,90.08,0,0,0,198.56,674.24Z"/><path class="cls-9" d="M212.47,687.4a1.55,1.55,0,0,1-1.29,1.52,5.81,5.81,0,0,1-1.05.12q-4.44.24-8.91.29a6.21,6.21,0,0,1-2.55-.32,1.36,1.36,0,0,1-.77-1.2c-.22-1.48-.44-3-.65-4.44a.22.22,0,0,1,.12-.28,1.3,1.3,0,0,1,.53-.05c4,.21,8.46.17,12.37.65C213.92,684.14,212.64,685.77,212.47,687.4Z"/><path class="cls-3" d="M446.76,772.34c0-1.69.08-3.68,1.49-4.62a5.1,5.1,0,0,1,2.82-.59L552,765.88c1.87,0,3.89,0,5.39,1.13,1.92,1.46,2.24,4.17,2.38,6.58a310.31,310.31,0,0,1-.12,38.09c-22.33,1.84-44.74-1.78-67.15-1.8-8,0-16,.45-23.94,1.12-4.88.42-14.33,3.49-18.48-.11-3.67-3.18-2.75-10.49-2.83-14.71Q447,784.27,446.76,772.34Z"/><path class="cls-4" d="M641.18,567.76a4.45,4.45,0,0,1,.93-3c.94-.94,2.46-.84,3.77-.65,7.12,1,14.14,2.7,21.26,3.79,11.43,1.75,23,1.93,34.61,2.12l27.28.43c3.31,0,7-.05,9.36-2.38a1001.46,1001.46,0,0,0-1.28,102.8c1.2,31.27,3.85,62.54,2.58,93.8A3.23,3.23,0,0,1,739,767a3.29,3.29,0,0,1-2.07.59l-60.48,3c-9.06.45-20.85,3.1-29.74,1.45-7.89-1.47-4.87-11.37-4.55-17.43,2.09-39.87-.27-79.77-1.33-119.63C640.18,612.58,640,590.15,641.18,567.76Z"/><path class="cls-2" d="M600.2,644.67l135.72-8.47c3.78-.24,8.31-.13,10.39,3,1.09,1.65,1.2,3.74,1.27,5.71q2.92,83.35-2.3,166.74L617.89,814c-7.38.14-14.82,2.26-18.63-4.78-3.61-6.66-.92-23.07-1.08-30.67q-.67-32-.25-64.1C598,708.62,599.18,644.67,600.2,644.67Z"/><path class="cls-5" d="M604.49,809.94a6.13,6.13,0,0,0,3.45-1.07,6,6,0,0,0,1.58-3.76c2.57-15.75,2.92-31.76,3.25-47.7l.9-42.36c.07-3.12,0-6.6-2.18-8.83s-5.71-2.4-8.85-2.4l-59.87.07q1.15,24.55,2.3,49.09c.49,10.42,1,20.89.2,31.31-.46,6.32-6.44,21.07-2.55,26.43,4.13,5.68,21.7,2,27.92,1.69Q587.59,811.62,604.49,809.94Z"/><path class="cls-2" d="M425.11,809.34a318.75,318.75,0,0,0,55.35-.5q2.69-90.49,5.36-181c-16.27-1.25-32.69-2-49-1.71-5.65.12-10.5-.41-12.45,5.6-2,6.17.5,16.83.68,23.35,1,33.08,1,66.17.73,99.26C425.74,759,424.65,809.3,425.11,809.34Z"/><path class="cls-6" d="M702.8,670.06c.09,1.56.35,3.41,1.76,4.09a4.26,4.26,0,0,0,1.42.32q6,.67,12.13.8a3.61,3.61,0,0,0,4.52-4.11q.45-6,.88-11.94a.88.88,0,0,0-.17-.75.89.89,0,0,0-.72-.14c-5.44.57-11.51.46-16.82,1.75C700.82,661.28,702.57,665.67,702.8,670.06Z"/><path class="cls-6" d="M722.1,682a2.12,2.12,0,0,1,1.15.18,1.74,1.74,0,0,1,.62.77,13,13,0,0,1,.88,6l-.09,10c-5.38,0-11.17.06-16.47-.92-4.64-.86-5-4.44-4.25-8.78C705.47,680.63,715.43,682.27,722.1,682Z"/><path class="cls-6" d="M721,706.55a47.06,47.06,0,0,1,.52,14.6,1.13,1.13,0,0,1-.26.72,1.18,1.18,0,0,1-.73.23l-12.71,1c-5,.38-5-10.43-2.79-13.65,1.27-1.84,3.24-2.49,5.35-2.86C711.39,706.42,720.81,705.78,721,706.55Z"/><path class="cls-6" d="M721.73,732.26a39.42,39.42,0,0,1,0,17,.85.85,0,0,1-1.07.8l-11.58,0c-1.39,0-2.92-.07-3.93-1s-1.15-2.49-1.23-3.88q-.21-4-.43-7.94c-.19-3.32-.89-3.89,2.24-4.64C710.63,731.36,716.76,732,721.73,732.26Z"/><path class="cls-7" d="M568.44,720.93c4.81-.35,9.56-1.59,14.38-1.42a2.55,2.55,0,0,1,2.26.92,2.75,2.75,0,0,1,.22,1.31c0,1.61,0,3.22,0,4.83a1.86,1.86,0,0,1-.2,1,1.87,1.87,0,0,1-1.68.52L570,727.59c-3-.12-10.54,1-13.08-.53-2.72-1.65-.74-4.1,1.32-5.2C561.24,720.24,565.16,721.16,568.44,720.93Z"/><path class="cls-7" d="M582.64,732.43a.86.86,0,0,1,1.06,1,33.35,33.35,0,0,1-.22,7.13,1.16,1.16,0,0,1-.33.79,1.21,1.21,0,0,1-.84.14,206.76,206.76,0,0,0-25.26-.59c-.54,0-1.18,0-1.46-.46a1.69,1.69,0,0,1-.16-.8c0-1.79-.69-4.71.9-5.92s6.79-.61,8.7-.71C570.89,732.67,576.77,732.43,582.64,732.43Z"/><path class="cls-7" d="M582.73,744.6a.63.63,0,0,1,.68.73,28.82,28.82,0,0,1-.3,6.69l-23.81.85a2.09,2.09,0,0,1-1.11-.17,2,2,0,0,1-.76-1.17c-2.24-7,2.43-6.59,8.29-7.12A84.08,84.08,0,0,1,582.73,744.6Z"/><path class="cls-8" d="M431.22,640c0,.5.11,1.1.56,1.32a1.19,1.19,0,0,0,.46.1c1.3.15,2.61.23,3.92.26a1.56,1.56,0,0,0,1.12-.28,1.58,1.58,0,0,0,.34-1c.09-1.28.19-2.56.28-3.85a.28.28,0,0,0,0-.24.29.29,0,0,0-.24,0,41.12,41.12,0,0,0-5.43.56C430.58,637.2,431.14,638.61,431.22,640Z"/><path class="cls-8" d="M437.45,643.89a.68.68,0,0,1,.37.06.56.56,0,0,1,.2.25,4.4,4.4,0,0,1,.28,1.92l0,3.24a30.58,30.58,0,0,1-5.32-.3c-1.49-.27-1.62-1.43-1.37-2.83C432.08,643.44,435.3,644,437.45,643.89Z"/><path class="cls-8" d="M437.09,651.81a15.19,15.19,0,0,1,.17,4.71.42.42,0,0,1-.08.23.43.43,0,0,1-.24.08l-4.1.32c-1.61.12-1.62-3.37-.9-4.41a2.44,2.44,0,0,1,1.72-.92C434,651.76,437,651.56,437.09,651.81Z"/><path class="cls-8" d="M437.33,660.1a12.71,12.71,0,0,1,0,5.49.41.41,0,0,1-.08.19.39.39,0,0,1-.26.07l-3.74,0a1.8,1.8,0,0,1-1.27-.33,1.86,1.86,0,0,1-.4-1.25c0-.86-.09-1.71-.13-2.57-.06-1.07-.29-1.25.72-1.49A19.79,19.79,0,0,1,437.33,660.1Z"/><path class="cls-8" d="M431.22,671.54c0,.5.11,1.1.56,1.32a1.71,1.71,0,0,0,.46.1c1.3.14,2.61.23,3.92.26a1.16,1.16,0,0,0,1.46-1.33c.09-1.28.19-2.57.28-3.85a.3.3,0,0,0,0-.25.33.33,0,0,0-.24,0,42.88,42.88,0,0,0-5.43.56C430.58,668.7,431.14,670.12,431.22,671.54Z"/><path class="cls-8" d="M437.45,675.4a.67.67,0,0,1,.37.05.69.69,0,0,1,.2.25,4.47,4.47,0,0,1,.28,1.93l0,3.23a31.59,31.59,0,0,1-5.32-.29c-1.49-.28-1.62-1.43-1.37-2.84C432.08,675,435.3,675.47,437.45,675.4Z"/><path class="cls-8" d="M437.09,683.31a15.2,15.2,0,0,1,.17,4.71.46.46,0,0,1-.08.24.51.51,0,0,1-.24.07l-4.1.32c-1.61.13-1.62-3.36-.9-4.4a2.37,2.37,0,0,1,1.72-.92C434,683.27,437,683.06,437.09,683.31Z"/><path class="cls-8" d="M437.33,691.61a12.66,12.66,0,0,1,0,5.48.44.44,0,0,1-.08.2.39.39,0,0,1-.26.06h-3.74a1.37,1.37,0,0,1-1.67-1.59c0-.85-.09-1.71-.13-2.56-.06-1.07-.29-1.26.72-1.5A19.79,19.79,0,0,1,437.33,691.61Z"/><path class="cls-8" d="M441.07,640c0,.5.11,1.1.56,1.32a1.19,1.19,0,0,0,.46.1c1.3.15,2.61.23,3.92.26a1.52,1.52,0,0,0,1.11-.28,1.54,1.54,0,0,0,.35-1c.09-1.28.19-2.56.28-3.85a.26.26,0,0,0-.06-.24c-.05-.06-.15,0-.23,0a41.12,41.12,0,0,0-5.43.56C440.43,637.2,441,638.61,441.07,640Z"/><path class="cls-8" d="M447.3,643.89a.68.68,0,0,1,.37.06.54.54,0,0,1,.19.25,4.26,4.26,0,0,1,.29,1.92l0,3.24a30.41,30.41,0,0,1-5.31-.3c-1.5-.27-1.63-1.43-1.37-2.83C441.93,643.44,445.14,644,447.3,643.89Z"/><path class="cls-8" d="M446.94,651.81a15.19,15.19,0,0,1,.17,4.71.29.29,0,0,1-.33.31l-4.1.32c-1.6.12-1.61-3.37-.89-4.41a2.42,2.42,0,0,1,1.72-.92C443.84,651.76,446.87,651.56,446.94,651.81Z"/><path class="cls-8" d="M447.17,660.1a12.56,12.56,0,0,1,0,5.49.41.41,0,0,1-.08.19.39.39,0,0,1-.26.07l-3.74,0a1.79,1.79,0,0,1-1.27-.33,1.76,1.76,0,0,1-.39-1.25l-.15-2.57c-.05-1.07-.28-1.25.73-1.49A19.72,19.72,0,0,1,447.17,660.1Z"/><path class="cls-8" d="M441.07,671.54c0,.5.11,1.1.56,1.32a1.71,1.71,0,0,0,.46.1c1.3.14,2.61.23,3.92.26a1.17,1.17,0,0,0,1.46-1.33c.09-1.28.19-2.57.28-3.85a.28.28,0,0,0-.06-.25.29.29,0,0,0-.23,0,42.88,42.88,0,0,0-5.43.56C440.43,668.7,441,670.12,441.07,671.54Z"/><path class="cls-8" d="M447.3,675.4a.45.45,0,0,1,.56.3,4.33,4.33,0,0,1,.29,1.93l0,3.23a31.41,31.41,0,0,1-5.31-.29c-1.5-.28-1.63-1.43-1.37-2.84C441.93,675,445.14,675.47,447.3,675.4Z"/><path class="cls-8" d="M446.94,683.31a15.2,15.2,0,0,1,.17,4.71.39.39,0,0,1-.09.24.43.43,0,0,1-.24.07l-4.1.32c-1.6.13-1.61-3.36-.89-4.4a2.35,2.35,0,0,1,1.72-.92C443.84,683.27,446.87,683.06,446.94,683.31Z"/><path class="cls-8" d="M447.17,691.61a12.51,12.51,0,0,1,0,5.48.44.44,0,0,1-.08.2.39.39,0,0,1-.26.06H443.1a1.84,1.84,0,0,1-1.27-.34,1.74,1.74,0,0,1-.39-1.25l-.15-2.56c-.05-1.07-.28-1.26.73-1.5A19.72,19.72,0,0,1,447.17,691.61Z"/><path class="cls-9" d="M652.87,580.31c.1.81.44,1.77,2.21,2.12a12.93,12.93,0,0,0,1.81.17c5.08.23,10.2.36,15.31.41a13.21,13.21,0,0,0,4.38-.45,1.92,1.92,0,0,0,1.35-1.68q.54-3.09,1.11-6.19a.31.31,0,0,0-.22-.39,3,3,0,0,0-.91-.06c-6.88.29-14.55.23-21.25.9C650.37,575.77,652.58,578,652.87,580.31Z"/><path class="cls-9" d="M677.25,586.51a6.14,6.14,0,0,1,1.45.09,1.82,1.82,0,0,1,.79.4,3.39,3.39,0,0,1,1.11,3.08c0,1.73-.07,3.47-.11,5.2-6.8,0-14.11,0-20.82-.47-5.86-.45-6.34-2.3-5.36-4.55C656.24,585.79,668.82,586.63,677.25,586.51Z"/><path class="cls-9" d="M675.86,599.21a10.38,10.38,0,0,1,.66,7.56.5.5,0,0,1-.33.38,3.62,3.62,0,0,1-.93.12l-16.06.51c-6.26.2-6.32-5.4-3.51-7.07,1.6-1,4.09-1.29,6.75-1.48C663.72,599.14,675.61,598.81,675.86,599.21Z"/><path class="cls-9" d="M676.78,612.53a8.83,8.83,0,0,1,0,8.8.59.59,0,0,1-.33.31,3.21,3.21,0,0,1-1,.1l-14.62,0a15.2,15.2,0,0,1-5-.53,2.16,2.16,0,0,1-1.55-2c-.18-1.38-.36-2.75-.55-4.12-.24-1.72-1.13-2,2.84-2.4C662.76,612.06,670.5,612.4,676.78,612.53Z"/><path class="cls-9" d="M652.87,630.87c.1.81.44,1.76,2.21,2.12a12.93,12.93,0,0,0,1.81.17c5.08.23,10.2.36,15.31.41a13.21,13.21,0,0,0,4.38-.45,1.92,1.92,0,0,0,1.35-1.68c.36-2.06.73-4.13,1.11-6.19a.31.31,0,0,0-.22-.39,2.67,2.67,0,0,0-.91-.06c-6.88.29-14.55.23-21.25.9C650.37,626.32,652.58,628.6,652.87,630.87Z"/><path class="cls-9" d="M691.43,580.31c.1.81.44,1.77,2.21,2.12a12.79,12.79,0,0,0,1.8.17q7.63.35,15.32.41a13.18,13.18,0,0,0,4.38-.45,1.92,1.92,0,0,0,1.34-1.68l1.11-6.19a.31.31,0,0,0-.21-.39,2.92,2.92,0,0,0-.91-.06c-6.88.29-14.55.23-21.25.9C688.92,575.77,691.14,578,691.43,580.31Z"/><path class="cls-9" d="M715.81,586.51a6.14,6.14,0,0,1,1.45.09,1.78,1.78,0,0,1,.78.4,3.34,3.34,0,0,1,1.11,3.08c0,1.73-.07,3.47-.11,5.2-6.79,0-14.11,0-20.81-.47-5.86-.45-6.34-2.3-5.37-4.55C694.79,585.79,707.38,586.63,715.81,586.51Z"/><path class="cls-9" d="M714.41,599.21a10.39,10.39,0,0,1,.67,7.56.52.52,0,0,1-.34.38,3.48,3.48,0,0,1-.92.12l-16.06.51c-6.27.2-6.32-5.4-3.51-7.07,1.6-1,4.08-1.29,6.74-1.48C702.27,599.14,714.17,598.81,714.41,599.21Z"/><path class="cls-9" d="M715.34,612.53a8.83,8.83,0,0,1,0,8.8.58.58,0,0,1-.34.31,3.15,3.15,0,0,1-1,.1l-14.63,0a15.17,15.17,0,0,1-5-.53,2.17,2.17,0,0,1-1.55-2c-.18-1.38-.37-2.75-.56-4.12-.23-1.72-1.12-2,2.84-2.4C701.31,612.06,709.06,612.4,715.34,612.53Z"/><path class="cls-9" d="M691.43,630.87c.1.81.44,1.76,2.21,2.12a12.79,12.79,0,0,0,1.8.17q7.63.35,15.32.41a13.18,13.18,0,0,0,4.38-.45,1.92,1.92,0,0,0,1.34-1.68l1.11-6.19a.31.31,0,0,0-.21-.39,2.65,2.65,0,0,0-.91-.06c-6.88.29-14.55.23-21.25.9C688.92,626.32,691.14,628.6,691.43,630.87Z"/><path class="cls-3" d="M378.34,780.43c0-1.43.07-3.11,1.26-3.91A4.37,4.37,0,0,1,382,776L467.24,775c1.59,0,3.3,0,4.55,1,1.63,1.23,1.9,3.52,2,5.56a263.74,263.74,0,0,1-.1,32.18c-18.87,1.56-37.8-1.5-56.73-1.52-6.76,0-13.51.38-20.23,1-4.13.35-12.11,2.94-15.62-.1-3.1-2.68-2.32-8.86-2.39-12.42Q378.53,790.5,378.34,780.43Z"/><path class="cls-2" d="M467.73,672.56c38.23-2.39,32.11-4.72,70.33-7.11,3.2-.2,7-.11,8.79,2.57a9.19,9.19,0,0,1,1.07,4.82q2.46,70.44-1.95,140.89c-35.87.65-27.42,1.25-63.29,1.9-6.24.12-12.53,1.91-15.75-4-3-5.62-.77-19.49-.91-25.91q-.57-27.07-.21-54.16C465.88,726.6,466.87,672.56,467.73,672.56Z"/><path class="cls-5" d="M471.36,812.21a5.25,5.25,0,0,0,2.91-.91,5.07,5.07,0,0,0,1.33-3.18c2.18-13.3,2.46-26.83,2.75-40.31q.38-17.89.76-35.79c.05-2.63,0-5.57-1.84-7.45s-4.82-2-7.48-2l-50.59.06,1.95,41.48a222.31,222.31,0,0,1,.17,26.45c-.39,5.34-5.45,17.8-2.16,22.33,3.49,4.8,18.34,1.67,23.6,1.42Q457.07,813.62,471.36,812.21Z"/><path class="cls-2" d="M360.06,811.69a267.51,267.51,0,0,0,46.76-.42c1.5-51,3-55.65,4.53-106.62-13.75-1-27.62-1.73-41.41-1.44-4.78.09-8.87-.35-10.52,4.73s.42,14.22.58,19.73c.81,28,.85,9.62.61,37.57C360.58,769.13,359.66,811.66,360.06,811.69Z"/><path class="cls-6" d="M510.08,694.07c.07,1.31.3,2.87,1.48,3.45a3.5,3.5,0,0,0,1.21.27c3.4.38,6.82.6,10.24.67a4,4,0,0,0,2.93-.72,4.11,4.11,0,0,0,.9-2.75c.25-3.36.49-6.72.74-10.09a.58.58,0,0,0-.75-.74c-4.6.47-9.73.38-14.21,1.47C508.41,686.65,509.89,690.36,510.08,694.07Z"/><path class="cls-6" d="M526.39,704.17a1.77,1.77,0,0,1,1,.15,1.48,1.48,0,0,1,.52.66,11.07,11.07,0,0,1,.75,5q0,4.23-.08,8.48c-4.54,0-9.44,0-13.92-.78-3.91-.72-4.24-3.74-3.58-7.42C512.33,703,520.75,704.38,526.39,704.17Z"/><path class="cls-6" d="M525.45,724.9a39.55,39.55,0,0,1,.45,12.33,1,1,0,0,1-.22.61,1,1,0,0,1-.62.2l-10.74.84c-4.19.32-4.22-8.81-2.35-11.54a6.37,6.37,0,0,1,4.51-2.41C517.34,724.78,525.29,724.25,525.45,724.9Z"/><path class="cls-6" d="M526.07,746.62a33.28,33.28,0,0,1,0,14.36.71.71,0,0,1-.9.67l-9.79,0a4.76,4.76,0,0,1-3.32-.87,4.69,4.69,0,0,1-1-3.27c-.12-2.24-.25-4.48-.37-6.71-.16-2.81-.75-3.29,1.9-3.92C516.69,745.86,521.87,746.42,526.07,746.62Z"/><path class="cls-7" d="M440.9,737c4.06-.29,8.07-1.34,12.15-1.2a2.17,2.17,0,0,1,1.9.79,2.25,2.25,0,0,1,.19,1.1c0,1.36,0,2.72,0,4.08a1.16,1.16,0,0,1-1.59,1.3l-11.35-.44c-2.56-.1-8.91.85-11.05-.45-2.3-1.39-.62-3.45,1.12-4.39C434.81,736.42,438.12,737.19,440.9,737Z"/><path class="cls-7" d="M452.89,746.71a1,1,0,0,1,.65.16,1,1,0,0,1,.24.68,27.56,27.56,0,0,1-.18,6,1,1,0,0,1-.28.67,1.06,1.06,0,0,1-.71.12,172.67,172.67,0,0,0-21.34-.5c-.46,0-1,0-1.23-.39a1.3,1.3,0,0,1-.14-.68c0-1.5-.58-4,.76-5s5.73-.51,7.36-.6C443,746.91,447.93,746.71,452.89,746.71Z"/><path class="cls-7" d="M453,757a.73.73,0,0,1,.42.14.7.7,0,0,1,.15.47,24.26,24.26,0,0,1-.25,5.65l-20.12.72a1.78,1.78,0,0,1-.94-.14,1.63,1.63,0,0,1-.63-1c-1.9-5.94,2-5.57,7-6A70.43,70.43,0,0,1,453,757Z"/><path class="cls-8" d="M365.21,714.93c0,.43.1.93.48,1.12a1.59,1.59,0,0,0,.39.09c1.09.12,2.2.19,3.3.21a1,1,0,0,0,1.23-1.12c.08-1.08.17-2.17.24-3.26a.23.23,0,0,0,0-.2.23.23,0,0,0-.2,0,34.84,34.84,0,0,0-4.58.47C364.67,712.54,365.15,713.74,365.21,714.93Z"/><path class="cls-8" d="M370.47,718.2a.58.58,0,0,1,.32,0,.56.56,0,0,1,.16.21,3.45,3.45,0,0,1,.24,1.63c0,.91,0,1.82,0,2.74a25.85,25.85,0,0,1-4.49-.26c-1.27-.23-1.37-1.2-1.16-2.39C365.94,717.82,368.66,718.26,370.47,718.2Z"/><path class="cls-8" d="M370.17,724.88a12.72,12.72,0,0,1,.15,4,.29.29,0,0,1-.08.19.28.28,0,0,1-.2.06l-3.46.28c-1.35.1-1.37-2.85-.76-3.73a2,2,0,0,1,1.45-.78A11.26,11.26,0,0,1,370.17,724.88Z"/><path class="cls-8" d="M370.37,731.89a10.84,10.84,0,0,1,0,4.64.3.3,0,0,1-.08.16.32.32,0,0,1-.22.06l-3.15,0a1.15,1.15,0,0,1-1.41-1.33l-.12-2.17c0-.9-.24-1.06.62-1.27A17.1,17.1,0,0,1,370.37,731.89Z"/><path class="cls-8" d="M365.21,741.55c0,.43.1.93.48,1.12a1,1,0,0,0,.39.08,33,33,0,0,0,3.3.22,1,1,0,0,0,1.23-1.12c.08-1.08.17-2.17.24-3.26a.23.23,0,0,0,0-.2.23.23,0,0,0-.2,0,34.84,34.84,0,0,0-4.58.47C364.67,739.16,365.15,740.36,365.21,741.55Z"/><path class="cls-8" d="M370.47,744.81a.7.7,0,0,1,.32.05.56.56,0,0,1,.16.21,3.47,3.47,0,0,1,.24,1.63c0,.91,0,1.82,0,2.74a25.85,25.85,0,0,1-4.49-.26c-1.27-.23-1.37-1.2-1.16-2.39C365.94,744.43,368.66,744.88,370.47,744.81Z"/><path class="cls-8" d="M370.17,751.5a12.67,12.67,0,0,1,.15,4,.3.3,0,0,1-.08.2.28.28,0,0,1-.2.06l-3.46.28c-1.35.1-1.37-2.85-.76-3.73a2.08,2.08,0,0,1,1.45-.78A11.26,11.26,0,0,1,370.17,751.5Z"/><path class="cls-8" d="M370.37,758.51a10.84,10.84,0,0,1,0,4.64.3.3,0,0,1-.08.16.32.32,0,0,1-.22.06l-3.15,0a1.15,1.15,0,0,1-1.41-1.33l-.12-2.17c0-.9-.24-1.06.62-1.27A17.1,17.1,0,0,1,370.37,758.51Z"/><path class="cls-8" d="M373.53,714.93c0,.43.1.93.48,1.12a1.59,1.59,0,0,0,.39.09c1.09.12,2.2.19,3.3.21a1.29,1.29,0,0,0,.95-.23,1.31,1.31,0,0,0,.29-.89c.08-1.08.15-2.17.24-3.26,0-.07,0-.15-.05-.2a.21.21,0,0,0-.19,0,35,35,0,0,0-4.59.47C373,712.54,373.47,713.74,373.53,714.93Z"/><path class="cls-8" d="M378.8,718.2a.55.55,0,0,1,.31,0,.5.5,0,0,1,.17.21,3.58,3.58,0,0,1,.23,1.63c0,.91,0,1.82,0,2.74a26,26,0,0,1-4.49-.26c-1.26-.23-1.37-1.2-1.16-2.39C374.26,717.82,377,718.26,378.8,718.2Z"/><path class="cls-8" d="M378.49,724.88a12.72,12.72,0,0,1,.15,4,.29.29,0,0,1-.08.19.26.26,0,0,1-.19.06l-3.47.28c-1.35.1-1.37-2.85-.76-3.73a2.07,2.07,0,0,1,1.46-.78A11.18,11.18,0,0,1,378.49,724.88Z"/><path class="cls-8" d="M378.69,731.89a10.84,10.84,0,0,1,0,4.64.3.3,0,0,1-.08.16.32.32,0,0,1-.22.06l-3.15,0a1.51,1.51,0,0,1-1.07-.28,1.49,1.49,0,0,1-.33-1.05c0-.73-.08-1.45-.13-2.17-.05-.9-.24-1.06.62-1.27A17.11,17.11,0,0,1,378.69,731.89Z"/><path class="cls-8" d="M373.53,741.55c0,.43.1.93.48,1.12a1,1,0,0,0,.39.08,33,33,0,0,0,3.3.22,1.29,1.29,0,0,0,.95-.23,1.31,1.31,0,0,0,.29-.89c.08-1.08.15-2.17.24-3.26,0-.07,0-.15-.05-.2a.21.21,0,0,0-.19,0,35,35,0,0,0-4.59.47C373,739.16,373.47,740.36,373.53,741.55Z"/><path class="cls-8" d="M378.8,744.81a.65.65,0,0,1,.31.05.5.5,0,0,1,.17.21,3.6,3.6,0,0,1,.23,1.63c0,.91,0,1.82,0,2.74a26,26,0,0,1-4.49-.26c-1.26-.23-1.37-1.2-1.16-2.39C374.26,744.43,377,744.88,378.8,744.81Z"/><path class="cls-8" d="M378.49,751.5a12.67,12.67,0,0,1,.15,4,.3.3,0,0,1-.08.2.26.26,0,0,1-.19.06l-3.47.28c-1.35.1-1.37-2.85-.76-3.73a2.1,2.1,0,0,1,1.46-.78A11.18,11.18,0,0,1,378.49,751.5Z"/><path class="cls-8" d="M378.69,758.51a10.84,10.84,0,0,1,0,4.64.3.3,0,0,1-.08.16.32.32,0,0,1-.22.06l-3.15,0a1.51,1.51,0,0,1-1.07-.28,1.49,1.49,0,0,1-.33-1.05c0-.73-.08-1.45-.13-2.17-.05-.9-.24-1.06.62-1.27A17.11,17.11,0,0,1,378.69,758.51Z"/><path class="cls-10" d="M752.07,66.84,751,67.92v3.84Q648.81,72,546.62,71.7h-.17l-8.8,0c-3.17,0-3.17-4.92,0-4.91l7.58,0,5.71,0q97,.28,194.08,0h7.05Z"/><path class="cls-10" d="M483.82,71.63h32.07c3.16,0,3.16-4.91,0-4.91H483.82c-3.17,0-3.17,4.91,0,4.91Z"/><path class="cls-10" d="M549.05,70.08c-.45,1.08.79-1.47,1-1.87a28.27,28.27,0,0,1,4.17-5.44c5.6-5.81,13.29-7.16,20.94-5.31a2.5,2.5,0,0,0,2.77-1.13A60.71,60.71,0,0,1,604.75,33.4c8.52-3.59,19.35-4.7,28.26-1.95a13.53,13.53,0,0,1,5.5,3.24c.43.43,1.4,2.28,1.08,1.41,1.07,2.95,5.83,1.68,4.74-1.31C639.72,22.14,618,24.52,608.46,27c-14.06,3.6-27.08,14.72-34.75,26.88l2.77-1.13c-13.54-3.28-26.73,3.12-32.17,16-1.22,2.92,3.53,4.18,4.74,1.31Z"/><path class="cls-10" d="M740.65,40.33A40.56,40.56,0,0,0,729,47.17c-2,1.7-5.58-.57-3.85-3,4.67-6.5,2-18.07-1.19-24.58-6-12-17.72-16.81-30.66-13.8-18.44,4.3-35.86,15.82-48.83,30.24-.45.49-.89,1-1.31,1.49h0a102.82,102.82,0,0,0-7.07,9.13c-1.78,2.59-6,.14-4.24-2.48a99.14,99.14,0,0,1,7-9c1.14-1.3,2.32-2.57,3.52-3.82,3-3.08,6.08-6,9.28-8.73C664.74,11.44,682.07.45,699.85,0c13.27-.33,24.2,7,29.26,19.21,2.23,5.4,4.07,13,3.18,19.61a36.07,36.07,0,0,1,10.4-4.26A28.9,28.9,0,0,1,751,34v4.85A25.74,25.74,0,0,0,740.65,40.33Z"/><path class="cls-10" d="M752.07,66.84,751,67.92c-1.09,1.08-2.14,2.09-3.1,3-2.32,2.16-5.8-1.3-3.48-3.47l.6-.58a70.13,70.13,0,0,0,6-6.44v6.43Z"/><path class="cls-11" d="M429.43,216a1,1,0,0,1-1-1v-5.66a1,1,0,1,1,2,0V215A1,1,0,0,1,429.43,216Z"/><path class="cls-11" d="M435.55,219a1,1,0,0,1-.61-1.82l4.51-3.42a1,1,0,1,1,1.22,1.61l-4.51,3.43A1.06,1.06,0,0,1,435.55,219Z"/><path class="cls-11" d="M442.29,227.27l-.27,0-5.46-1.52a1,1,0,0,1-.7-1.25,1,1,0,0,1,1.25-.7l5.45,1.52a1,1,0,0,1-.27,2Z"/><path class="cls-11" d="M434.36,236.1a1,1,0,0,1-.94-.64l-2.09-5.26a1,1,0,0,1,.56-1.32,1,1,0,0,1,1.32.57l2.08,5.26a1,1,0,0,1-.56,1.32A1,1,0,0,1,434.36,236.1Z"/><path class="cls-11" d="M422.53,235.12A1,1,0,0,1,422,235a1,1,0,0,1-.35-1.39l2.93-4.84a1,1,0,1,1,1.73,1l-2.93,4.85A1,1,0,0,1,422.53,235.12Z"/><path class="cls-11" d="M416.15,225.11a1,1,0,0,1-.11-2l5.64-.6a1,1,0,1,1,.21,2l-5.63.6Z"/><path class="cls-11" d="M424.16,218.1a1,1,0,0,1-.74-.32l-3.88-4.12a1,1,0,1,1,1.47-1.39l3.88,4.12a1,1,0,0,1,0,1.43A1,1,0,0,1,424.16,218.1Z"/><path class="cls-12" d="M343.58,145a1,1,0,0,1-1-1v-5.67a1,1,0,0,1,2,0v5.67A1,1,0,0,1,343.58,145Z"/><path class="cls-12" d="M349.7,148a1,1,0,0,1-.62-1.82l4.51-3.43a1,1,0,0,1,1.23,1.62l-4.51,3.42A1,1,0,0,1,349.7,148Z"/><path class="cls-12" d="M356.44,156.22a.84.84,0,0,1-.27,0l-5.46-1.52a1,1,0,1,1,.54-1.95l5.46,1.52a1,1,0,0,1-.27,2Z"/><path class="cls-12" d="M348.5,165.05a1,1,0,0,1-.94-.64l-2.09-5.27a1,1,0,0,1,1.88-.74l2.09,5.26a1,1,0,0,1-.57,1.31A1,1,0,0,1,348.5,165.05Z"/><path class="cls-12" d="M336.67,164.07a1,1,0,0,1-.52-.15,1,1,0,0,1-.34-1.39l2.93-4.85a1,1,0,1,1,1.73,1l-2.93,4.85A1,1,0,0,1,336.67,164.07Z"/><path class="cls-12" d="M330.3,154.05a1,1,0,0,1-.11-2l5.64-.6a1,1,0,0,1,1.11.89,1,1,0,0,1-.9,1.12l-5.63.6Z"/><path class="cls-12" d="M338.3,147.05a1,1,0,0,1-.73-.32l-3.89-4.13a1,1,0,0,1,1.47-1.38l3.89,4.12a1,1,0,0,1,0,1.43A1.05,1.05,0,0,1,338.3,147.05Z"/><path class="cls-13" d="M350.18,378.77a1,1,0,0,1-1-1v-5.67a1,1,0,0,1,2,0v5.67A1,1,0,0,1,350.18,378.77Z"/><path class="cls-13" d="M356.3,381.81a1,1,0,0,1-.61-1.82l4.51-3.43a1,1,0,0,1,1.41.2,1,1,0,0,1-.19,1.41l-4.51,3.43A1,1,0,0,1,356.3,381.81Z"/><path class="cls-13" d="M363,390a.84.84,0,0,1-.27,0l-5.46-1.52a1,1,0,0,1,.54-2l5.46,1.52a1,1,0,0,1-.27,2Z"/><path class="cls-13" d="M355.1,398.87a1,1,0,0,1-.94-.64L352.08,393a1,1,0,1,1,1.87-.74l2.09,5.26a1,1,0,0,1-.56,1.31A1,1,0,0,1,355.1,398.87Z"/><path class="cls-13" d="M343.27,397.88a1,1,0,0,1-.86-1.53l2.93-4.85a1,1,0,1,1,1.73,1.05l-2.93,4.84A1,1,0,0,1,343.27,397.88Z"/><path class="cls-13" d="M336.9,387.87a1,1,0,0,1-.11-2l5.64-.6a1,1,0,0,1,1.11.9,1,1,0,0,1-.9,1.11l-5.63.6Z"/><path class="cls-13" d="M344.91,380.86a1,1,0,0,1-.74-.32l-3.89-4.12a1,1,0,0,1,.05-1.43,1,1,0,0,1,1.42.05l3.89,4.12a1,1,0,0,1,0,1.43A1,1,0,0,1,344.91,380.86Z"/><path class="cls-10" d="M709.42,124.43l-.21-1.59c2-.27,3.18-.4,3.18-.4l.18,1.59S711.46,124.16,709.42,124.43Z"/><path class="cls-10" d="M702.87,123.73q-2.83.4-6.35,1l.25,1.58,6.33-1Zm-12.69,2c-2,.34-4.12.7-6.33,1.1l.28,1.57,6.32-1.1ZM677.54,128q-3.07.58-6.3,1.23l.32,1.57c2.14-.43,4.24-.84,6.28-1.23ZM665,130.51l-6.26,1.37.35,1.56q3.16-.7,6.25-1.36Zm-12.52,2.82q-3.09.73-6.23,1.52l.39,1.55q3.12-.78,6.21-1.52ZM640,136.46q-3.09.82-6.18,1.7l.44,1.54c2-.58,4.1-1.15,6.15-1.69ZM627.65,140c-2,.62-4.1,1.25-6.13,1.91l.49,1.52c2-.65,4.06-1.29,6.1-1.9Zm-12.22,3.95c-2,.71-4,1.43-6,2.18l.56,1.49c2-.73,4-1.46,6-2.16Zm-12,4.51c-2,.82-4,1.65-5.92,2.51l.65,1.46q2.88-1.28,5.87-2.49Zm-336.79,4.86c-2.21.07-4.38.21-6.44.43l.17,1.59c2-.22,4.15-.36,6.32-.42Zm11,.61c-.47-.08-.94-.15-1.42-.21-1-.14-2.05-.25-3.1-.32L273,155l1.18.1c.37,0,.74.07,1.1.12,1.34.15,2.66.37,3.92.64l.35-1.56C278.89,154.14,278.25,154,277.6,153.9Zm-23.83.77a58.53,58.53,0,0,0-6.27,1.61l.49,1.53a52.71,52.71,0,0,1,6.1-1.57Zm337.88-1c-2,1-3.9,2-5.72,3l.77,1.4c1.8-1,3.7-2,5.65-2.93Zm31.05,2.72,0,1.6a50,50,0,0,1,6.27.47l.22-1.59A53.4,53.4,0,0,0,622.7,156.39Zm-6.46.32a61.08,61.08,0,0,0-6.37,1l.34,1.57a60.55,60.55,0,0,1,6.2-1Zm-327.16,1c-.47-.26-.95-.5-1.44-.73s-1.25-.58-1.89-.84l-.6,1.49a32.21,32.21,0,0,1,4.29,2.11c.42.24.83.5,1.23.76l.49-.76.38-.58C290.75,158.69,289.93,158.2,289.08,157.75Zm346.45.43-.42,1.55a49.79,49.79,0,0,1,5.95,2l.61-1.48A54.32,54.32,0,0,0,635.53,158.18Zm-31.9,1.22c-2,.61-4,1.34-6.07,2.15l.59,1.49c2-.8,4-1.51,6-2.12Zm-362.17-.69a34.1,34.1,0,0,0-5.57,3.42l1,1.27a33.44,33.44,0,0,1,5.31-3.26Zm338.91,1.17c-1.89,1.18-3.7,2.39-5.36,3.6l.94,1.3c1.63-1.19,3.41-2.38,5.26-3.54Zm67.36,3.35a1.71,1.71,0,0,0-.23-.13l-.21.4-.55,1c1.94,1.05,3.78,2.12,5.48,3.19l.85-1.35C651.41,165.3,649.62,164.26,647.73,163.23Zm-56.08.9c-1.88.9-3.81,1.88-5.73,2.92l.76,1.41c1.9-1,3.8-2,5.66-2.88Zm-295-.83-1.12,1.14a32.33,32.33,0,0,1,4,4.77l1.32-.9A33.92,33.92,0,0,0,296.64,163.3Zm-65.47,3.4a24.09,24.09,0,0,0-3.39,5.65l1.47.62a22.52,22.52,0,0,1,3.17-5.27Zm338.79.82-.55.49a52,52,0,0,0-4.07,4.06l1.2,1.06a51.33,51.33,0,0,1,4.25-4.21l.22-.2Zm10.37,2.72-.81.49-.67.41c-.55.33-1.09.67-1.65,1l-.73.46-1.59,1,.87,1.34c.74-.48,1.47-1,2.2-1.4.25-.16.49-.32.73-.46l1.15-.72.67-.4.65-.4ZM658.4,170l-1,1.28a49.44,49.44,0,0,1,4.78,4.08l1.12-1.14A50.17,50.17,0,0,0,658.4,170ZM305,176.28c-.21-.56-.43-1.1-.67-1.63-.09-.22-.19-.44-.29-.66l-1.45.66c.24.53.48,1.08.7,1.63a43.52,43.52,0,0,1,1.46,4.26l1.54-.45A39.65,39.65,0,0,0,305,176.28Zm264.56,1-1.36.95q-1.92,1.35-3.86,2.77l.94,1.29c1.37-1,2.73-2,4.09-2.92q.55-.41,1.11-.78Zm-8.14,0a30.85,30.85,0,0,0-2.92,5.83l1.5.55a29.1,29.1,0,0,1,2.77-5.52Zm-333.77,1.67-1.58-.21a27.25,27.25,0,0,0-.25,3.75c0,.91,0,1.85.12,2.8l1.6-.14c-.08-.9-.12-1.8-.12-2.66A25.78,25.78,0,0,1,227.64,178.91Zm439.9.33-1.34.88a16.23,16.23,0,0,1,2.42,5.55l1.57-.33A18.07,18.07,0,0,0,667.54,179.24Zm-108.35,5.57q-2.52,1.94-5.05,3.94l1,1.26q2.52-2,5-3.93ZM307.87,188.1c-.06-.55-.14-1.09-.22-1.63v0l-.2,0-1.38.21c.07.47.13.94.19,1.42.2,1.58.33,3.21.39,4.85l1.6-.06C308.19,191.27,308.06,189.67,307.87,188.1ZM558.48,192a24.06,24.06,0,0,1,.12-2.42l-1.59-.16c-.08.84-.13,1.71-.13,2.69a21.67,21.67,0,0,0,.37,3.9l1.57-.3A20.53,20.53,0,0,1,558.48,192Zm-329.83-.76-1.54.42a47.76,47.76,0,0,0,2.13,6.14l1.47-.63A47.62,47.62,0,0,1,228.65,191.24Zm439.75.34a15.66,15.66,0,0,1-2.88,5.3l1.24,1a17.15,17.15,0,0,0,3.17-5.84Zm-119.26,1.19c-1.65,1.34-3.29,2.7-4.95,4.08l1,1.23c1.64-1.38,3.29-2.73,4.93-4.07Zm-242.57,6.5c-.12,2.07-.35,4.18-.67,6.29l1.59.24c.32-2.16.55-4.32.68-6.43Zm354.49,1.91a42,42,0,0,1-5.23,3.46l.8,1.4a46.76,46.76,0,0,0,5.42-3.6ZM539.29,201l-4.88,4.15,1,1.22q2.44-2.1,4.87-4.15Zm21.68.42-1.38.81a22.07,22.07,0,0,0,4.22,5.08l1.07-1.19A20.41,20.41,0,0,1,561,201.39Zm-327.5,1.45-1.39.77c1,1.82,2.13,3.68,3.36,5.52l1.33-.89C235.56,206.44,234.45,204.62,233.47,202.84Zm416.72,4.63c-1.85.82-3.83,1.61-5.89,2.34l.53,1.5c2.1-.74,4.12-1.54,6-2.37Zm-78.89,2.9c-.46-.23-.91-.47-1.34-.71l-.78,1.4.53.29a44,44,0,0,0,5.39,2.41l.56-1.5A41.72,41.72,0,0,1,571.3,210.37Zm-41.74-1.07-4.84,4.19,1,1.21,4.84-4.19Zm108.69,2.43c-2,.56-4.06,1.09-6.16,1.56l.35,1.56c2.13-.48,4.23-1,6.24-1.58Zm-56.56,2.37-.39,1.55c2,.5,4.14.92,6.34,1.27l.25-1.58C585.74,215,583.65,214.58,581.69,214.1Zm44.16.44c-2.07.35-4.19.67-6.29.93l.2,1.59c2.13-.26,4.27-.58,6.36-.95Zm-12.62,1.57c-2.12.16-4.26.27-6.35.33l0,1.6c2.12-.06,4.28-.17,6.43-.33Zm-17.15.13-1.89-.14-.14,1.59c.81.07,1.64.13,2.48.18,1.3.08,2.62.14,4,.18l0-1.6C599,216.41,597.54,216.34,596.08,216.24Zm-291.37-4.46q-.31,1.36-.69,2.73c-.07.26-.14.52-.22.79-.24.86-.5,1.73-.77,2.59l1.53.48c.32-1,.62-2,.9-3.07l.21-.79q.31-1.19.6-2.37Zm-64.25,1.61-1.26,1c1.28,1.67,2.65,3.34,4.08,5l1.2-1C243.08,216.68,241.72,215,240.46,213.39Zm279.42,4.29L515,221.87l1.05,1.21,4.84-4.19ZM249.76,224l-.55-.57c-.11-.1-.21-.21-.3-.31l-.14-.14-1.16,1.1.79.81c1.21,1.25,2.48,2.5,3.76,3.73l1.11-1.15C252.07,226.33,250.89,225.17,249.76,224Zm51.15-.15c-.76,1.94-1.62,3.89-2.53,5.81l1.45.69c.93-2,1.79-3.94,2.57-5.91ZM510.2,226l-4.85,4.14,1,1.22,4.87-4.15ZM258,231.79l-1.06,1.2c1.55,1.38,3.19,2.79,4.87,4.18l1-1.23C261.11,234.56,259.49,233.16,258,231.79Zm242.51,2.5c-1.64,1.36-3.28,2.73-4.93,4.08l1,1.24q2.47-2,4.94-4.09Zm-205,1c-1,1.84-2.13,3.67-3.28,5.44l1.34.87c1.17-1.8,2.29-3.65,3.34-5.52Zm-27.73,4.63-1,1.26c1.65,1.28,3.36,2.58,5.12,3.87l.95-1.29C271.08,242.49,269.39,241.21,267.74,239.93Zm222.81,2.47c-1.67,1.35-3.34,2.67-5,4l1,1.25c1.69-1.31,3.37-2.65,5-4Zm-202,3.55c-1.25,1.68-2.57,3.35-3.94,5l1.22,1c1.39-1.64,2.74-3.34,4-5ZM278,247.48l-.91,1.32c1.72,1.19,3.49,2.4,5.3,3.6l.88-1.33C281.48,249.87,279.72,248.68,278,247.48Zm202.46,2.81c-1.69,1.29-3.4,2.56-5.11,3.82l.94,1.29q2.58-1.89,5.14-3.84Zm-191.83,4.24-.86,1.35c1.78,1.13,3.59,2.25,5.45,3.38l.83-1.37Q291.28,256.21,288.64,254.53Zm-8.26,1.1c-1.46,1.51-3,3-4.54,4.42l1.08,1.19c1.58-1.45,3.13-3,4.61-4.51Zm189.8,2.21q-2.62,1.85-5.25,3.62l.36.54.53.79c.51-.35,1-.69,1.54-1.05q1.88-1.28,3.74-2.6Zm-165.29,6.33q-2.73-1.51-5.34-3l-.8,1.38c.87.51,1.72,1,2.61,1.51h0l2.94,1.65.78-1.39Zm-33.86,0c-1.63,1.31-3.34,2.6-5.06,3.82l.92,1.3c1.75-1.23,3.48-2.54,5.14-3.88ZM459.6,265c-1.8,1.16-3.6,2.28-5.41,3.38l.83,1.37q2.73-1.67,5.44-3.4Zm-148.9,2.37-.75,1.41q2.79,1.5,5.67,3l.73-1.42C314.44,269.32,312.55,268.33,310.7,267.34Zm138,4.23q-2.78,1.59-5.59,3.06l.75,1.42q2.82-1.49,5.63-3.09Zm-188-.07c-1.8,1.11-3.65,2.17-5.5,3.16l.75,1.41c1.88-1,3.76-2.08,5.59-3.2Zm61.37,1.68-.71,1.43q2.84,1.41,5.76,2.81l.69-1.44C325.85,275,323.93,274.12,322.05,273.18Zm-72.56,4.29c-1.91.87-3.87,1.7-5.85,2.45l.58,1.5c2-.77,4-1.61,5.93-2.5Zm187.93,0c-1.93.93-3.87,1.83-5.78,2.66l.64,1.46c1.93-.84,3.89-1.74,5.84-2.68Zm-98.2,3.76c-1.91-.86-3.8-1.71-5.65-2.57l-.67,1.45q2.79,1.29,5.67,2.58l.16.07.65-1.46ZM237.66,282c-2,.63-4.06,1.22-6.11,1.74l.4,1.55c2.08-.53,4.16-1.12,6.19-1.77Zm188.11.57c-2,.76-4,1.49-6,2.16l.52,1.52c2-.68,4-1.42,6-2.19Zm-80.52,1.17-.57,1.5c2,.77,4.05,1.49,6.07,2.14l.49-1.52C349.25,285.24,347.23,284.52,345.25,283.76Zm-119.89,1.38c-1.25.24-2.51.47-3.78.67h0c-.82.13-1.65.26-2.47.37l.22,1.59c1.31-.18,2.62-.39,3.91-.61.82-.14,1.64-.29,2.44-.45Zm-12.57,1.74-1.4.12-1.56.1-.39,0c-1,.06-2,.11-3,.14l.06,1.6c.77,0,1.55-.06,2.32-.11s1.39-.07,2.08-.13c.43,0,.87-.05,1.29-.09l.73,0Zm-12.73.55c-2.16.08-4.29.17-6.41.29l.09,1.6c2.11-.12,4.23-.21,6.37-.29Zm213.65-.78c-2,.58-4.12,1.11-6.15,1.58l.35,1.55c2.06-.46,4.16-1,6.24-1.6Zm-226.46,1.5-2,.17-4.35.41.17,1.59c.85-.09,1.7-.17,2.56-.24,1.25-.12,2.52-.23,3.79-.33Zm170.08-.49-.4,1.55c2.09.54,4.2,1,6.28,1.43l.31-1.56C361.47,288.67,359.39,288.19,357.33,287.66Zm-182.84,1.8c-2.15.28-4.26.57-6.36.9l.25,1.57c2.07-.32,4.18-.61,6.31-.88Zm226.86,0c-2.08.36-4.19.66-6.27.89l.18,1.59c2.11-.23,4.25-.54,6.36-.91Zm-31.58.65-.21,1.58c2.12.29,4.28.51,6.41.66l.11-1.59C374,290.62,371.86,290.4,369.77,290.12Zm19,.77c-1.79.09-3.58.14-5.34.14h-1l0,1.59h1c1.79,0,3.61-.05,5.42-.15Zm-226.95.52q-3.19.58-6.3,1.24l.33,1.56c2-.43,4.14-.84,6.25-1.22Zm-12.56,2.66-2.21.56c-1.35.34-2.69.7-4,1.07l.43,1.54c1.25-.35,2.51-.69,3.78-1,.79-.21,1.58-.4,2.38-.6Zm-12.37,3.47c-2.07.66-4.12,1.36-6.09,2.07l.55,1.51c1.95-.71,4-1.41,6-2.06Zm-12.08,4.39c-2,.83-4,1.7-5.89,2.59l.68,1.45c1.87-.88,3.83-1.74,5.82-2.56Zm-11.64,5.48c-1.93,1-3.81,2.11-5.59,3.21l.84,1.36c1.75-1.08,3.6-2.14,5.5-3.16Zm-11,6.77c-1.78,1.27-3.5,2.6-5.11,3.94l1,1.23c1.57-1.32,3.26-2.63,5-3.87Zm-9.88,8.3A64.29,64.29,0,0,0,88,327.27l1.24,1c1.3-1.59,2.72-3.16,4.23-4.67Zm-8.14,10A50.32,50.32,0,0,0,81,338.17l1.45.69a50.37,50.37,0,0,1,3-5.49Zm-5.55,11.7a46.65,46.65,0,0,0-1.53,6.3l1.58.27a45.42,45.42,0,0,1,1.48-6.09ZM78,358.53c0-.51,0-1,0-1.52l-1.6-.05c0,.52,0,1.05,0,1.57,0,1.62.09,3.27.25,4.92l1.59-.15C78.1,361.7,78,360.1,78,358.53Zm1.22,11-1.57.34c.45,2.06,1,4.16,1.7,6.25l1.52-.5A61.25,61.25,0,0,1,79.24,369.51Zm3.89,12-1.48.63c.83,1.94,1.77,3.9,2.78,5.83l1.42-.74C84.85,385.33,83.94,383.41,83.13,381.51ZM89,392.74l-1.37.84c1.09,1.78,2.28,3.59,3.52,5.39l1.32-.91C91.22,396.28,90.05,394.5,89,392.74Zm7.23,10.44-1.27,1c1.28,1.65,2.65,3.34,4,5l1.22-1C98.82,406.48,97.47,404.82,96.21,403.18Zm8.21,9.72L103.23,414c1.41,1.53,2.9,3.1,4.43,4.65l1.14-1.12C107.28,416,105.81,414.42,104.42,412.9Z"/><path class="cls-10" d="M114.94,425.69l-2.35-2.2,1.11-1.16c.76.73,1.53,1.45,2.32,2.18Z"/><path class="cls-10" d="M329.29,243.7c4.89,0,4.89-7.6,0-7.6s-4.9,7.6,0,7.6Z"/><path class="cls-10" d="M265.68,120c4.9,0,4.9-7.6,0-7.6s-4.9,7.6,0,7.6Z"/><path class="cls-10" d="M545.07,399c4.9,0,4.9-7.6,0-7.6s-4.9,7.6,0,7.6Z"/><path class="cls-10" d="M383.28,507.86c4.9,0,4.9-7.6,0-7.6s-4.9,7.6,0,7.6Z"/><path class="cls-10" d="M481.44,219c9.8,0,9.8-15.19,0-15.19s-9.79,15.19,0,15.19Z"/><path class="cls-10" d="M411.27,103.7c9.79,0,9.79-15.19,0-15.19s-9.8,15.19,0,15.19Z"/><path class="cls-10" d="M456.89,480.32c9.8,0,9.8-15.19,0-15.19s-9.8,15.19,0,15.19Z"/><path class="cls-10" d="M249.05,429.93c9.79,0,9.79-15.19,0-15.19s-9.8,15.19,0,15.19Z"/><path class="cls-14" d="M751,181.2v37.58L605.78,308.55l-1.24.76h0l-2,1.21-16.71,10.33L531.4,235l38.31-23.63,1.59-1,15.08-9.3h0l.44-.27,2.72-1.68,57.75-35.61.44-.27L750,100Z"/><path class="cls-15" d="M585.86,320.86l18.68-11.54c-5.79-12.36-9.7-30-8.33-59.9,1.25-27.15-3.87-41.27-9.39-48.63L531.4,235Z"/><polygon class="cls-16" points="489.62 258.27 531.4 234.98 590.64 328.4 545.07 353.09 489.62 258.27"/><path class="cls-17" d="M568.79,178.89c24.7,18.43,28.56,56.05,27.26,84.87-.79,17.6.87,36.44,9.08,52.32,2.56,5,6.46,10.78,11.52,13.58,2.14,1.19,4.05-2.09,1.91-3.27-5.54-3.07-9.17-9.93-11.71-15.4-10-21.45-5.73-45-6.54-67.73-.84-23.66-9.64-52.75-29.6-67.65-2-1.46-3.85,1.84-1.92,3.28Z"/><path class="cls-18" d="M21.74,146.91S209.16,250.61,239,258.27s109.56,4.43,117,11.27,113,106.53,113,106.53,8.17,8.75,0,17.48-17.09,2.64-17.09,2.64,1.43,9.88-6,15.38S426,411,426,411s3,13.43-7.41,18.3-19.37-1.62-19.37-1.62,2.16,10.61-11.39,14.91-25.7-10.38-25.7-10.38l-90-67.35s-40.51-23-73.94-26.58S10.85,282.33,10.85,282.33Z"/><path class="cls-19" d="M561.78,330.93a8.36,8.36,0,1,1-8.36-8.35A8.36,8.36,0,0,1,561.78,330.93Z"/><path class="cls-20" d="M366.52,291.19c16.48,15.31,46.76,37.73,70.22,54.49-31.71-29.93-76.09-71.79-80.8-76.14-7.41-6.84-87.16-3.61-117-11.27-14.82-3.81-68.6-31.35-118.93-58.09-7.69,13.35-17.79,30.24-17.79,30.24l2-2.63s109.81,51.67,150.61,56S337.09,263.84,366.52,291.19Z"/><path class="cls-21" d="M229.61,255a84.1,84.1,0,0,0-20,38.79l-.09.38c-5.12,24.3-7.78-8.36-7.78-8.64s.95-8.74,1.05-9,3.68-5.6,5.06-7.69,6.8-6.84,7.18-7.22a58.07,58.07,0,0,0,4.09-4.55c.94-1.33,9-2.65,9-2.65Z"/><path class="cls-22" d="M212.32,247.27s-31.84,35.81-27.66,88.86L200,338.5s-2.4-46.15,28.14-84.14Z"/><path class="cls-21" d="M215,340.07a85,85,0,0,1-3.3-24.76q-4.69.21-9.39.35a21,21,0,0,0-.74,3.3c-.22,2.5-.85,8.88-.79,9.18s3.24,8.17,3.37,8.42c0,.05.74,1.14,1.8,2.68,3.16.69,6.3,1.43,9.45,2.19l-.29-1C215.06,340.33,215,340.2,215,340.07Z"/><path class="cls-22" d="M210.66,315.36c-5.79.25-11.59.43-17.38.5a133.11,133.11,0,0,0,1,21.18c6.18,1,12.28,2.3,18.36,3.74A130.26,130.26,0,0,1,210.66,315.36Z"/><path class="cls-23" d="M232.69,308.07a32.06,32.06,0,1,0-4,14.32A27.86,27.86,0,0,0,232.69,308.07Z"/><circle class="cls-24" cx="198.19" cy="308.77" r="27.85" transform="translate(-135.15 155.46) rotate(-32.61)"/><path class="cls-25" d="M224.52,311.65a27.85,27.85,0,1,1-27.85-27.85A27.85,27.85,0,0,1,224.52,311.65Z"/><path class="cls-19" d="M199.21,312a2.54,2.54,0,1,1-2.54-2.54A2.54,2.54,0,0,1,199.21,312Z"/><path class="cls-19" d="M197.34,312.71l13.68-11c.95-.77-.4-2.1-1.35-1.34l-13.67,11c-.95.77.4,2.1,1.34,1.35Z"/><path class="cls-19" d="M195.76,312.29q1.52,6.19,3,12.4a1,1,0,0,0,1.83-.5q-1.51-6.21-3-12.41c-.29-1.19-2.12-.68-1.83.51Z"/><path class="cls-26" d="M160,347,0,280.23V124.39l148.53,90.8,0,0a237.86,237.86,0,0,0-3.27,30.94A282.55,282.55,0,0,0,147,294.63c.06.53.12,1.07.2,1.6a228,228,0,0,0,6.31,31.45A193.56,193.56,0,0,0,160,347Z"/><path class="cls-27" d="M317.2,346.89s24.31,6.19,51.08-17c0,0,41.21,9.24,42.92-7.34s-27.58-27.65-28-27.43-24,7.05-24.57,7.43a112.35,112.35,0,0,0-18.78,10.63c-11,7.6-28.32,19.94-28.88,20.32S317.2,346.89,317.2,346.89Z"/><path class="cls-28" d="M489.62,258.27s-38.74,7.35-61,5.57-42.53-5.06-57.47,7.85S297,339.54,297,339.54s6.07,8.61,20.25,7.35,51.65-28.36,51.65-28.36,21,18.74,46.29,6.77l53.78,50.77,53-39.5,9.5-7.41Z"/><path class="cls-19" d="M312.46,325.19l5.38,6.51s-10.18,14-18.13,5.29Z"/><path class="cls-29" d="M415.14,325.3s8.78-5.44,13-12.28a46.32,46.32,0,0,0,10.06,26.27c9.87,11.9,30.19,16.46,48.8,3.54s34.45-18.07,16.84-60.3l27.6,46.63-62.48,46.91Z"/><path class="cls-29" d="M364.86,312.07c-18.48,21.88-56.95,33.85-57.48,34a27.43,27.43,0,0,0,9.82.81c14.18-1.27,51.65-28.36,51.65-28.36s21,18.74,46.29,6.77C387.94,334.16,364.86,312.07,364.86,312.07Z"/><path class="cls-27" d="M303.79,357.11s9.73,10.38-3.76,28.62l-5.9-4.41-2.37-9,7.95-5.89Z"/><path class="cls-27" d="M354.11,394.68s9.73,10.37-3.76,28.62l-5.9-4.42-2.37-8.95L350,404Z"/><path class="cls-27" d="M374.09,410.91s9.73,10.37-3.76,28.62l-5.9-4.41-2.37-9,7.95-5.89Z"/><path class="cls-27" d="M342.89,366.79c.31.8,10.07,11.81-16.33,38.8l-6.67-5s7.94-15.61,7.94-15.86,8.17-10.45,8.36-10.7S342.89,366.79,342.89,366.79Z"/><path class="cls-28" d="M273.37,387.53a10.28,10.28,0,0,0,14.55,0l15.87-15.87a10.28,10.28,0,0,0,0-14.55l-1-1a10.3,10.3,0,0,0-14.55,0L272.36,372a10.29,10.29,0,0,0,0,14.55Z"/><path class="cls-19" d="M303,363.66a7.48,7.48,0,0,0-2.08-3.93l-.74-.74a7.57,7.57,0,0,0-10.7,0l-1,1,11.44,11.44,1-1a7.53,7.53,0,0,0,2.08-6.77Z"/><path class="cls-28" d="M300.24,404.33a11.31,11.31,0,0,0,16,0l24.32-24.9a11.32,11.32,0,0,0,0-16l-1.12-1.12a11.31,11.31,0,0,0-16,0l-24.31,24.9a11.32,11.32,0,0,0,0,16Z"/><path class="cls-19" d="M339.68,370.63a8.33,8.33,0,0,0-2.29-4.33l-.82-.82a8.34,8.34,0,0,0-11.78,0l-1.05,1.06,12.59,12.59,1.06-1.05a8.33,8.33,0,0,0,2.29-7.45Z"/><path class="cls-28" d="M327.76,421a10.28,10.28,0,0,0,14.55,0l15.87-15.87a10.28,10.28,0,0,0,0-14.55l-1-1a10.3,10.3,0,0,0-14.55,0l-15.87,15.87a10.29,10.29,0,0,0,0,14.55Z"/><path class="cls-19" d="M357.37,397.08a7.48,7.48,0,0,0-2.08-3.93l-.74-.74a7.57,7.57,0,0,0-10.7,0l-1,1,11.44,11.44,1-1a7.53,7.53,0,0,0,2.08-6.77Z"/><path class="cls-28" d="M354.22,438a10.28,10.28,0,0,0,14.55,0l11.05-11.78a10.28,10.28,0,0,0,0-14.55l-1-1a10.28,10.28,0,0,0-14.55,0l-11.05,11.78a10.29,10.29,0,0,0,0,14.55Z"/><path class="cls-19" d="M379,418.22a7.53,7.53,0,0,0-2.09-3.93l-.74-.74a7.56,7.56,0,0,0-10.7,0l-1,1L376,426l.95-1a7.57,7.57,0,0,0,2.09-6.77Z"/><path class="cls-30" d="M287.32,159.79h85.32a10.64,10.64,0,0,1,10.64,10.64V200.8a10.63,10.63,0,0,1-10.63,10.63H287.32a10.63,10.63,0,0,1-10.63-10.63V170.42A10.63,10.63,0,0,1,287.32,159.79Z"/><path class="cls-31" d="M380.39,152.5H281A10.55,10.55,0,0,0,270.5,163v30.63l-25.76,33.63,3.66-2.39,1.36-.89,22-14.33A10.58,10.58,0,0,0,281,215.3h99.36a10.55,10.55,0,0,0,10.54-10.54V163A10.55,10.55,0,0,0,380.39,152.5Zm9.76,52.26a9.76,9.76,0,0,1-9.76,9.75H281a9.8,9.8,0,0,1-8.81-5.56l-.19-.41-22.82,14.9-1.07.7.77-1L271.2,194l.08-.1V163a9.7,9.7,0,0,1,4-7.84,9.25,9.25,0,0,1,2.35-1.29,9.75,9.75,0,0,1,3.43-.62h99.36a9.76,9.76,0,0,1,9.76,9.75Z"/><path class="cls-32" d="M283.45,157.18a.85.85,0,0,1-.84.85h0a.85.85,0,0,1-.85-.85h0a.85.85,0,0,1,.85-.84h0a.85.85,0,0,1,.84.84Z"/><path class="cls-32" d="M289.31,157.18a.85.85,0,0,1-.85.85h0a.84.84,0,0,1-.84-.85h0a.84.84,0,0,1,.84-.84h0a.85.85,0,0,1,.85.84Z"/><path class="cls-32" d="M295.16,157.18a.85.85,0,0,1-.85.85h0a.85.85,0,0,1-.84-.85h0a.85.85,0,0,1,.84-.84h0a.85.85,0,0,1,.85.84Z"/><rect class="cls-31" x="298.3" y="157.05" width="80.29" height="0.26"/><path class="cls-33" d="M349.55,176.29h27a.82.82,0,0,0,0-1.63h-27a.82.82,0,0,0,0,1.63Z"/><path class="cls-33" d="M330.81,176.3h12.11a.82.82,0,0,0,0-1.63H330.81a.82.82,0,0,0,0,1.64Z"/><path class="cls-33" d="M316.85,176.28h8.44a.82.82,0,0,0,0-1.63h-8.44a.82.82,0,0,0,0,1.63Z"/><path class="cls-33" d="M286.05,176.28h27.84a.82.82,0,0,0,0-1.63H286.05a.82.82,0,0,0,0,1.63Z"/><path class="cls-33" d="M349.55,188.11h27a.82.82,0,0,0,0-1.63h-27a.82.82,0,0,0,0,1.64Z"/><path class="cls-33" d="M330.81,188.11h12.11a.82.82,0,0,0,0-1.64H330.81a.82.82,0,0,0,0,1.63Z"/><path class="cls-33" d="M316.85,188.1h8.44a.82.82,0,0,0,0-1.63h-8.44a.82.82,0,0,0,0,1.63Z"/><path class="cls-33" d="M286.05,188.1h27.84a.82.82,0,0,0,0-1.63H286.05a.82.82,0,0,0,0,1.63Z"/><path class="cls-30" d="M457.55,111h85.32a10.63,10.63,0,0,1,10.63,10.63V152a10.64,10.64,0,0,1-10.64,10.64H457.55A10.63,10.63,0,0,1,446.92,152V121.62A10.63,10.63,0,0,1,457.55,111Z"/><path class="cls-31" d="M580.5,172l-1-1.28L559.7,144.86V114.23a10.54,10.54,0,0,0-10.53-10.53H449.81a10.55,10.55,0,0,0-10.54,10.53V156a10.55,10.55,0,0,0,10.54,10.53h99.36a10.59,10.59,0,0,0,9.31-5.61L569.41,168l1.38.91,5.68,3.7,1.48,1,7.51,4.9Zm-3.3.15-19-12.42-.19.41a9.8,9.8,0,0,1-8.81,5.56H449.81a9.76,9.76,0,0,1-9.76-9.75V114.23a9.76,9.76,0,0,1,9.76-9.75h99.36a9.76,9.76,0,0,1,9.75,9.75v30.9l.08.1,19.85,25.91,1,1.27,2.24,2.93-3.39-2.21Z"/><path class="cls-32" d="M546.75,108.38a.85.85,0,0,0,.84.85h0a.85.85,0,0,0,.85-.85h0a.84.84,0,0,0-.85-.84h0a.84.84,0,0,0-.84.84Z"/><path class="cls-32" d="M540.9,108.38a.85.85,0,0,0,.84.85h0a.85.85,0,0,0,.85-.85h0a.84.84,0,0,0-.85-.84h0a.84.84,0,0,0-.84.84Z"/><path class="cls-32" d="M535,108.38a.85.85,0,0,0,.85.85h0a.85.85,0,0,0,.84-.85h0a.84.84,0,0,0-.84-.84h0a.84.84,0,0,0-.85.84Z"/><rect class="cls-31" x="451.61" y="108.25" width="80.29" height="0.26"/><path class="cls-33" d="M480.65,127.49H453.7a.82.82,0,0,1,0-1.63h26.95a.82.82,0,0,1,0,1.63Z"/><path class="cls-33" d="M499.39,127.5H487.28a.82.82,0,0,1,0-1.63h12.11a.82.82,0,0,1,0,1.64Z"/><path class="cls-33" d="M513.35,127.48h-8.44a.82.82,0,0,1,0-1.63h8.44a.82.82,0,0,1,0,1.63Z"/><path class="cls-33" d="M544.15,127.48H516.32a.82.82,0,0,1,0-1.63h27.83a.82.82,0,0,1,0,1.63Z"/><path class="cls-33" d="M480.65,139.3H453.7a.82.82,0,0,1,0-1.64h26.95a.82.82,0,0,1,0,1.63Z"/><path class="cls-33" d="M499.39,139.31H487.28a.82.82,0,0,1,0-1.64h12.11a.82.82,0,0,1,0,1.63Z"/><path class="cls-33" d="M513.35,139.3h-8.44a.82.82,0,0,1,0-1.64h8.44a.82.82,0,0,1,0,1.64Z"/><path class="cls-33" d="M544.15,139.3H516.32a.82.82,0,0,1,0-1.64h27.83a.82.82,0,0,1,0,1.64Z"/></g></g></g></svg>