<svg xmlns="http://www.w3.org/2000/svg" width="391.04" height="230.541" viewBox="0 0 391.04 230.541">
  <g id="allset" transform="translate(2358 -5013)">
    <path id="Path_1348" data-name="Path 1348" d="M648,66.816l-.556.562v2q-53.134.125-106.268-.031h-4.664a1.277,1.277,0,0,1,0-2.553h6.91q50.435.146,100.912,0H648Z" transform="translate(-2614.957 4980.943)" fill="#fd9d09"/>
    <path id="Path_1349" data-name="Path 1349" d="M482.679,69.273h16.675a1.277,1.277,0,0,0,0-2.553H482.679A1.277,1.277,0,0,0,482.679,69.273Z" transform="translate(-2589.116 4980.977)" fill="#fd9d09"/>
    <path id="Path_1350" data-name="Path 1350" d="M546.679,48.453c-.234.562.411-.764.52-.972a14.7,14.7,0,0,1,2.168-2.829c2.912-3.021,6.91-3.723,10.888-2.761a1.3,1.3,0,0,0,1.44-.588,31.566,31.566,0,0,1,13.945-11.922,22.514,22.514,0,0,1,14.694-1.014,7.035,7.035,0,0,1,2.86,1.685c.224.224.728,1.185.562.733.556,1.534,3.031.874,2.465-.681-2.4-6.577-13.69-5.34-18.651-4.05-7.31,1.872-14.08,7.654-18.068,13.976l1.44-.588a14.14,14.14,0,0,0-16.727,8.319c-.634,1.518,1.835,2.173,2.465.681Z" transform="translate(-2619.2 5000.991)" fill="#fd9d09"/>
    <path id="Path_1351" data-name="Path 1351" d="M688.219,20.965a21.089,21.089,0,0,0-6.057,3.556c-1.04.884-2.9-.3-2-1.56,2.428-3.38,1.04-9.4-.619-12.78-3.12-6.239-9.214-8.74-15.942-7.175-9.588,2.236-18.645,8.226-25.389,15.723-.234.255-.463.52-.681.775h0a53.458,53.458,0,0,0-3.676,4.747c-.926,1.347-3.12.073-2.2-1.289a51.543,51.543,0,0,1,3.64-4.68c.593-.676,1.206-1.336,1.83-1.986,1.56-1.6,3.161-3.12,4.825-4.539C648.749,5.943,657.76.229,667-.005a15.628,15.628,0,0,1,15.214,9.988,21.2,21.2,0,0,1,1.653,10.2,18.755,18.755,0,0,1,5.408-2.215,15.026,15.026,0,0,1,4.321-.291v2.522a13.383,13.383,0,0,0-5.381.77Z" transform="translate(-2661.117 5013.011)" fill="#fd9d09"/>
    <path id="Path_1352" data-name="Path 1352" d="M748.03,63.763l-.556.562c-.567.562-1.113,1.087-1.612,1.56-1.206,1.123-3.016-.676-1.809-1.8l.312-.3a36.469,36.469,0,0,0,3.12-3.349v3.343Z" transform="translate(-2714.99 4983.996)" fill="#fd9d09"/>
    <path id="Path_1367" data-name="Path 1367" d="M349.7,375.088a.52.52,0,0,1-.52-.52V371.62a.52.52,0,1,1,1.04,0v2.948A.52.52,0,0,1,349.7,375.088Z" transform="translate(-2525.623 4834.86)" fill="#ffa18d"/>
    <path id="Path_1368" data-name="Path 1368" d="M355.8,379.191a.52.52,0,0,1-.317-.946l2.345-1.783a.525.525,0,0,1,.634.837l-2.345,1.783a.52.52,0,0,1-.317.109Z" transform="translate(-2528.542 4832.337)" fill="#ffa18d"/>
    <path id="Path_1369" data-name="Path 1369" d="M359.882,388.293a.437.437,0,0,1-.14,0l-2.839-.79a.539.539,0,1,1,.281-1.04l2.839.79a.525.525,0,1,1-.14,1.04Z" transform="translate(-2529.139 4827.494)" fill="#ffa18d"/>
    <path id="Path_1370" data-name="Path 1370" d="M353.616,395.392a.52.52,0,0,1-.489-.333l-1.082-2.719a.523.523,0,0,1,.972-.385l1.087,2.735a.49.49,0,0,1-.489.7Z" transform="translate(-2526.981 4825.007)" fill="#ffa18d"/>
    <path id="Path_1371" data-name="Path 1371" d="M342.784,394.583a.52.52,0,0,1-.447-.8l1.523-2.522a.526.526,0,0,1,.9.546l-1.523,2.517A.52.52,0,0,1,342.784,394.583Z" transform="translate(-2522.3 4825.3)" fill="#ffa18d"/>
    <path id="Path_1372" data-name="Path 1372" d="M336.393,386.619a.521.521,0,1,1-.057-1.04l2.933-.312a.525.525,0,1,1,.109,1.045l-2.927.312Z" transform="translate(-2519.221 4828.061)" fill="#ffa18d"/>
    <path id="Path_1373" data-name="Path 1373" d="M342.555,377.912a.52.52,0,0,1-.385-.166l-2.023-2.142a.524.524,0,1,1,.764-.718l2.023,2.142a.513.513,0,0,1-.38.884Z" transform="translate(-2521.218 4833.123)" fill="#ffa18d"/>
    <path id="Path_1374" data-name="Path 1374" d="M709.319,123.475l-.109-.827c1.04-.14,1.653-.208,1.653-.208l.094.827S710.38,123.334,709.319,123.475Z" transform="translate(-2698.455 4954.229)" fill="#fd9d09"/>
    <path id="Path_1376" data-name="Path 1376" d="M113.812,424.077l-1.222-1.144.577-.6c.4.38.8.754,1.206,1.133Z" transform="translate(-2412.049 4810.267)" fill="#fd9d09"/>
    <path id="Path_1385" data-name="Path 1385" d="M645.581,142.22v19.54l-75.507,46.676-.645.4h0l-1.04.629-8.688,5.371-28.3-44.638,19.919-12.286.827-.52,7.841-4.836h0l.229-.14,1.414-.874,30.027-18.515.229-.14L645.061,100Z" transform="translate(-2613.098 4965.001)" fill="#061535"/>
    <path id="Path_1386" data-name="Path 1386" d="M559.717,263.221l9.713-6c-3.01-6.427-5.044-15.6-4.331-31.145.65-14.117-2.012-21.458-4.882-25.285L531.4,218.578Z" transform="translate(-2613.098 4916.617)" fill="#fa0"/>
    <path id="Path_1387" data-name="Path 1387" d="M489.62,247.09l21.724-12.11,30.8,48.574-23.694,12.838Z" transform="translate(-2593.041 4900.204)" fill="#1b2f42"/>
    <path id="Path_1388" data-name="Path 1388" d="M568.4,177.14c12.843,9.583,14.85,29.143,14.174,44.128-.411,9.151.452,18.947,4.721,27.2,1.331,2.6,3.359,5.605,5.99,7.061,1.113.619,2.106-1.087.993-1.7-2.881-1.6-4.768-5.163-6.089-8.007-5.2-11.153-2.979-23.4-3.4-35.216-.437-12.3-5.012-27.427-15.391-35.175C568.357,174.676,567.4,176.392,568.4,177.14Z" transform="translate(-2630.656 4928.879)" fill="#1a1a1a"/>
    <path id="Path_1389" data-name="Path 1389" d="M16.512,146.91s97.449,53.919,112.965,57.9,56.966,2.3,60.834,5.86,58.755,55.39,58.755,55.39,4.248,4.55,0,9.089a6.824,6.824,0,0,1-8.886,1.373s.744,5.137-3.12,8-10.352-.3-10.352-.3,1.56,6.983-3.853,9.515a10.493,10.493,0,0,1-10.071-.842s1.123,5.517-5.922,7.752-13.363-5.4-13.363-5.4l-46.8-35.019s-21.063-11.959-38.445-13.82S10.85,217.322,10.85,217.322Z" transform="translate(-2363.208 4942.481)" fill="#feb9a5"/>
    <path id="Path_1390" data-name="Path 1390" d="M553.754,326.922a4.347,4.347,0,1,1-4.347-4.342A4.347,4.347,0,0,1,553.754,326.922Z" transform="translate(-2619.655 4858.151)" fill="#fff"/>
    <path id="Path_1391" data-name="Path 1391" d="M239.643,247.5c8.569,7.96,24.313,19.618,36.511,28.332-16.488-15.562-39.563-37.327-42.012-39.589-3.853-3.556-45.319-1.877-60.834-5.86-7.706-1.981-35.669-16.3-61.838-30.2-4,6.941-9.25,15.723-9.25,15.723l1.04-1.367s57.1,26.866,78.31,29.117S224.341,233.28,239.643,247.5Z" transform="translate(-2407.071 4916.91)" fill="#ffcebf"/>
    <path id="Path_1392" data-name="Path 1392" d="M216.231,254.722a43.728,43.728,0,0,0-10.4,20.169l-.047.2c-2.662,12.635-4.045-4.347-4.045-4.492s.494-4.544.546-4.68,1.913-2.912,2.631-4a35.507,35.507,0,0,1,3.733-3.754,30.187,30.187,0,0,0,2.127-2.366c.489-.692,4.68-1.378,4.68-1.378Z" transform="translate(-2454.845 4890.872)" fill="#e5a13e"/>
    <path id="Path_1393" data-name="Path 1393" d="M198.86,247.27a66.556,66.556,0,0,0-14.382,46.2l7.976,1.232s-1.248-24,14.631-43.749Z" transform="translate(-2446.464 4894.304)" fill="#5de995"/>
    <path id="Path_1394" data-name="Path 1394" d="M208.172,328.184a44.2,44.2,0,0,1-1.716-12.874q-2.439.109-4.882.182a10.919,10.919,0,0,0-.385,1.716c-.114,1.3-.442,4.617-.411,4.773s1.685,4.248,1.752,4.378c0,.026.385.593.936,1.393,1.643.359,3.276.744,4.914,1.139l-.151-.52A.439.439,0,0,1,208.172,328.184Z" transform="translate(-2454.382 4861.642)" fill="#e5a13e"/>
    <path id="Path_1395" data-name="Path 1395" d="M202.283,315.36c-3.011.13-6.026.224-9.037.26a69.21,69.21,0,0,0,.52,11.013c3.213.52,6.385,1.2,9.546,1.945A67.73,67.73,0,0,1,202.283,315.36Z" transform="translate(-2450.75 4861.618)" fill="#5de995"/>
    <path id="Path_1396" data-name="Path 1396" d="M201.918,292.088a16.67,16.67,0,1,0-2.08,7.446A14.486,14.486,0,0,0,201.918,292.088Z" transform="translate(-2438.93 4881.1)" fill="#feb9a5"/>
    <circle id="Ellipse_93" data-name="Ellipse 93" cx="14.481" cy="14.481" r="14.481" transform="matrix(0.842, -0.539, 0.539, 0.842, -2274.948, 5169.145)" fill="#163539"/>
    <path id="Path_1397" data-name="Path 1397" d="M197.781,298.281A14.481,14.481,0,1,1,183.3,283.8a14.481,14.481,0,0,1,14.481,14.481Z" transform="translate(-2439.042 4876.768)" fill="#3b516c"/>
    <path id="Path_1398" data-name="Path 1398" d="M196.771,310.781a1.321,1.321,0,1,1-1.321-1.321,1.321,1.321,0,0,1,1.321,1.321Z" transform="translate(-2451.192 4864.45)" fill="#fff"/>
    <path id="Path_1399" data-name="Path 1399" d="M196.541,306.677l7.113-5.719c.494-.4-.208-1.092-.7-.7l-7.108,5.719c-.494.4.208,1.092.7.7Z" transform="translate(-2451.934 4868.922)" fill="#fff"/>
    <path id="Path_1400" data-name="Path 1400" d="M195.745,311.72q.79,3.219,1.56,6.447a.52.52,0,0,0,.951-.26q-.785-3.229-1.56-6.453C196.546,310.836,195.594,311.1,195.745,311.72Z" transform="translate(-2451.959 4863.661)" fill="#fff"/>
    <path id="Path_1401" data-name="Path 1401" d="M83.192,240.136,0,205.419V124.39L77.228,171.6h0a123.677,123.677,0,0,0-1.7,16.087,146.909,146.909,0,0,0,.9,25.218c.031.276.062.556.1.832a118.549,118.549,0,0,0,3.281,16.352,100.647,100.647,0,0,0,3.374,10.045Z" transform="translate(-2358 4953.292)" fill="#1f65ff"/>
    <path id="Path_1402" data-name="Path 1402" d="M314.194,322.036s12.64,3.219,26.559-8.839c0,0,21.427,4.8,22.316-3.816S348.729,295,348.51,295.118s-12.479,3.666-12.775,3.863a58.419,58.419,0,0,0-9.765,5.527c-5.719,3.952-14.725,10.368-15.016,10.565S314.194,322.036,314.194,322.036Z" transform="translate(-2507.265 4871.335)" fill="#a66753" opacity="0.5"/>
    <path id="Path_1403" data-name="Path 1403" d="M397.153,258.27s-20.143,3.822-31.717,2.9-22.114-2.631-29.882,4.082S297,300.526,297,300.526s3.156,4.477,10.529,3.822S334.385,289.6,334.385,289.6s10.919,9.744,24.069,3.52l27.963,26.4,27.557-20.538,4.94-3.853Z" transform="translate(-2500.574 4889.023)" fill="#c77662"/>
    <path id="Path_1404" data-name="Path 1404" d="M306.339,325.19l2.8,3.385s-5.293,7.279-9.427,2.751Z" transform="translate(-2501.875 4856.898)" fill="#fff"/>
    <path id="Path_1405" data-name="Path 1405" d="M415.14,304.768s4.565-2.829,6.759-6.385a24.084,24.084,0,0,0,5.231,13.659c5.132,6.187,15.7,8.558,25.374,1.841s17.912-9.4,8.756-31.353l14.351,24.245-32.487,24.391Z" transform="translate(-2557.287 4877.377)" fill="#a66753"/>
    <path id="Path_1406" data-name="Path 1406" d="M337.267,312.07c-9.609,11.377-29.611,17.6-29.887,17.678a14.262,14.262,0,0,0,5.106.421c7.373-.66,26.855-14.746,26.855-14.746s10.919,9.744,24.069,3.52C349.267,323.556,337.267,312.07,337.267,312.07Z" transform="translate(-2505.557 4863.197)" fill="#a66753"/>
    <path id="Path_1407" data-name="Path 1407" d="M298.015,357.11s5.059,5.4-1.955,14.881l-3.068-2.293-1.232-4.68,4.134-3.062Z" transform="translate(-2498.059 4841.576)" fill="#a66753" opacity="0.5"/>
    <path id="Path_1408" data-name="Path 1408" d="M348.335,394.68s5.059,5.392-1.955,14.881l-3.068-2.3-1.232-4.654,4.118-3.083Z" transform="translate(-2522.215 4823.54)" fill="#a66753" opacity="0.5"/>
    <path id="Path_1409" data-name="Path 1409" d="M368.315,410.91s5.059,5.392-1.955,14.881l-3.068-2.293-1.232-4.68,4.134-3.063Z" transform="translate(-2531.806 4815.749)" fill="#a66753" opacity="0.5"/>
    <path id="Path_1410" data-name="Path 1410" d="M331.849,366.79c.161.416,5.236,6.141-8.491,20.174l-3.468-2.6s4.128-8.116,4.128-8.246,4.248-5.434,4.347-5.564S331.849,366.79,331.849,366.79Z" transform="translate(-2511.563 4836.929)" fill="#a66753" opacity="0.5"/>
    <path id="Path_1411" data-name="Path 1411" d="M271.439,371A5.345,5.345,0,0,0,279,371l8.252-8.252a5.345,5.345,0,0,0,0-7.565l-.52-.52a5.355,5.355,0,0,0-7.565,0l-8.257,8.262a5.35,5.35,0,0,0,0,7.565Z" transform="translate(-2487.3 4843.5)" fill="#c77662"/>
    <path id="Path_1412" data-name="Path 1412" d="M296.03,360.355a3.889,3.889,0,0,0-1.082-2.043l-.385-.385a3.936,3.936,0,0,0-5.564,0l-.52.52,5.948,5.948.52-.52A3.915,3.915,0,0,0,296.03,360.355Z" transform="translate(-2496.484 4841.736)" fill="#fff"/>
    <path id="Path_1413" data-name="Path 1413" d="M298.118,382.567a5.881,5.881,0,0,0,8.319,0l12.645-12.947a5.886,5.886,0,0,0,0-8.319l-.582-.582a5.881,5.881,0,0,0-8.319,0l-12.64,12.947a5.886,5.886,0,0,0,0,8.319Z" transform="translate(-2500.007 4840.671)" fill="#c77662"/>
    <path id="Path_1414" data-name="Path 1414" d="M332.028,366.989a4.331,4.331,0,0,0-1.191-2.251l-.426-.426a4.336,4.336,0,0,0-6.125,0l-.546.551,6.546,6.546.551-.546a4.331,4.331,0,0,0,1.191-3.874Z" transform="translate(-2513.411 4838.727)" fill="#fff"/>
    <path id="Path_1415" data-name="Path 1415" d="M325.834,404.473a5.345,5.345,0,0,0,7.565,0l8.252-8.252a5.345,5.345,0,0,0,0-7.565l-.52-.52a5.356,5.356,0,0,0-7.565,0l-8.252,8.252a5.35,5.35,0,0,0,0,7.565Z" transform="translate(-2513.414 4827.433)" fill="#c77662"/>
    <path id="Path_1416" data-name="Path 1416" d="M350.4,393.775a3.889,3.889,0,0,0-1.081-2.043l-.385-.385a3.936,3.936,0,0,0-5.564,0l-.52.52,5.948,5.948.52-.52A3.915,3.915,0,0,0,350.4,393.775Z" transform="translate(-2522.585 4825.693)" fill="#fff"/>
    <path id="Path_1417" data-name="Path 1417" d="M352.294,423.432a5.345,5.345,0,0,0,7.565,0l5.745-6.125a5.345,5.345,0,0,0,0-7.565l-.52-.52a5.345,5.345,0,0,0-7.565,0l-5.745,6.125a5.35,5.35,0,0,0,0,7.565Z" transform="translate(-2526.116 4817.313)" fill="#c77662"/>
    <path id="Path_1418" data-name="Path 1418" d="M372.025,414.913a3.915,3.915,0,0,0-1.087-2.043l-.385-.385a3.931,3.931,0,0,0-5.563,0l-.52.52,6,5.953.494-.52a3.936,3.936,0,0,0,1.087-3.52Z" transform="translate(-2532.963 4815.546)" fill="#fff"/>
    <path id="Path_1419" data-name="Path 1419" d="M282.217,159.79h44.362a5.532,5.532,0,0,1,5.532,5.532v15.791a5.527,5.527,0,0,1-5.527,5.527H282.217a5.527,5.527,0,0,1-5.527-5.527v-15.8A5.527,5.527,0,0,1,282.217,159.79Z" transform="translate(-2490.825 4936.299)" fill="#ffe432"/>
    <path id="Path_1420" data-name="Path 1420" d="M315.271,152.5H263.593a5.485,5.485,0,0,0-5.46,5.46v15.926L244.74,191.372l1.9-1.243.707-.463,11.439-7.451a5.5,5.5,0,0,0,4.8,2.938h51.662a5.485,5.485,0,0,0,5.48-5.48V157.96A5.485,5.485,0,0,0,315.271,152.5Zm5.075,27.173a5.075,5.075,0,0,1-5.075,5.07H263.593a5.1,5.1,0,0,1-4.581-2.891l-.1-.213-11.865,7.747-.556.364.4-.52L258.5,174.078l.042-.052V157.96a5.043,5.043,0,0,1,2.08-4.076,4.811,4.811,0,0,1,1.222-.671,5.069,5.069,0,0,1,1.783-.322h51.662a5.075,5.075,0,0,1,5.075,5.07Z" transform="translate(-2475.487 4939.798)" fill="#231f20"/>
    <path id="Path_1421" data-name="Path 1421" d="M282.639,156.777a.442.442,0,0,1-.437.442h0a.442.442,0,0,1-.442-.442h0a.442.442,0,0,1,.442-.437h0A.442.442,0,0,1,282.639,156.777Z" transform="translate(-2493.259 4937.955)" fill="#292c37"/>
    <path id="Path_1422" data-name="Path 1422" d="M288.5,156.777a.442.442,0,0,1-.442.442h0a.437.437,0,0,1-.437-.442h0a.437.437,0,0,1,.437-.437h0a.442.442,0,0,1,.442.437Z" transform="translate(-2496.072 4937.955)" fill="#292c37"/>
    <path id="Path_1423" data-name="Path 1423" d="M294.349,156.777a.442.442,0,0,1-.442.442h0a.442.442,0,0,1-.437-.442h0a.442.442,0,0,1,.437-.437h0a.442.442,0,0,1,.442.437Z" transform="translate(-2498.88 4937.955)" fill="#292c37"/>
    <rect id="Rectangle_284" data-name="Rectangle 284" width="41.747" height="0.135" transform="translate(-2202.898 5094.664)" fill="#231f20"/>
    <path id="Path_1424" data-name="Path 1424" d="M349.2,175.508h14.039a.426.426,0,0,0,0-.848H349.2a.426.426,0,0,0,0,.848Z" transform="translate(-2525.451 4929.16)" fill="#2b3990"/>
    <path id="Path_1425" data-name="Path 1425" d="M330.416,175.518h6.3a.426.426,0,0,0,0-.848h-6.3a.426.426,0,0,0,0,.853Z" transform="translate(-2516.411 4929.156)" fill="#2b3990"/>
    <path id="Path_1426" data-name="Path 1426" d="M316.5,175.5h4.388a.426.426,0,0,0,0-.848H316.5a.426.426,0,0,0,0,.848Z" transform="translate(-2509.753 4929.165)" fill="#2b3990"/>
    <path id="Path_1427" data-name="Path 1427" d="M285.7,175.5h14.475a.426.426,0,0,0,0-.848H285.7a.426.426,0,0,0,0,.848Z" transform="translate(-2494.968 4929.165)" fill="#2b3990"/>
    <path id="Path_1428" data-name="Path 1428" d="M349.156,187.328H363.2a.426.426,0,0,0,0-.848H349.156a.426.426,0,1,0,0,.853Z" transform="translate(-2525.407 4923.486)" fill="#2b3990"/>
    <path id="Path_1429" data-name="Path 1429" d="M330.46,187.323h6.3a.426.426,0,1,0,0-.853h-6.3a.426.426,0,0,0,0,.848Z" transform="translate(-2516.455 4923.491)" fill="#2b3990"/>
    <path id="Path_1430" data-name="Path 1430" d="M316.5,187.318h4.388a.426.426,0,0,0,0-.848H316.5a.426.426,0,0,0,0,.848Z" transform="translate(-2509.753 4923.491)" fill="#2b3990"/>
    <path id="Path_1431" data-name="Path 1431" d="M285.7,187.318h14.475a.426.426,0,0,0,0-.848H285.7a.426.426,0,0,0,0,.848Z" transform="translate(-2494.968 4923.491)" fill="#2b3990"/>
    <path id="Path_1432" data-name="Path 1432" d="M452.447,111h44.362a5.527,5.527,0,0,1,5.527,5.527v15.791a5.532,5.532,0,0,1-5.532,5.532H452.447a5.527,5.527,0,0,1-5.527-5.532v-15.8A5.527,5.527,0,0,1,452.447,111Z" transform="translate(-2572.543 4959.72)" fill="#ffe432"/>
    <path id="Path_1433" data-name="Path 1433" d="M512.7,139.213l-.52-.666-10.3-13.446V109.175a5.48,5.48,0,0,0-5.475-5.475H444.75a5.485,5.485,0,0,0-5.48,5.475v21.718a5.485,5.485,0,0,0,5.48,5.475h51.662a5.506,5.506,0,0,0,4.841-2.917l5.683,3.681.718.473,2.953,1.924.77.52,3.9,2.548Zm-1.716.078-9.879-6.458-.1.213a5.1,5.1,0,0,1-4.581,2.891H444.75a5.075,5.075,0,0,1-5.075-5.07V109.175a5.075,5.075,0,0,1,5.075-5.07h51.662a5.075,5.075,0,0,1,5.07,5.07v16.067l.042.052,10.321,13.472.52.66,1.165,1.523-1.763-1.149Z" transform="translate(-2568.871 4963.225)" fill="#231f20"/>
    <path id="Path_1434" data-name="Path 1434" d="M546.75,107.977a.442.442,0,0,0,.437.442h0a.442.442,0,0,0,.442-.442h0a.437.437,0,0,0-.442-.437h0a.437.437,0,0,0-.437.437Z" transform="translate(-2620.467 4961.381)" fill="#292c37"/>
    <path id="Path_1435" data-name="Path 1435" d="M540.9,107.977a.442.442,0,0,0,.437.442h0a.442.442,0,0,0,.442-.442h0a.437.437,0,0,0-.442-.437h0a.437.437,0,0,0-.437.437Z" transform="translate(-2617.658 4961.381)" fill="#292c37"/>
    <path id="Path_1436" data-name="Path 1436" d="M535,107.977a.442.442,0,0,0,.442.442h0a.442.442,0,0,0,.437-.442h0a.437.437,0,0,0-.437-.437h0a.437.437,0,0,0-.442.437Z" transform="translate(-2614.826 4961.381)" fill="#292c37"/>
    <rect id="Rectangle_285" data-name="Rectangle 285" width="41.747" height="0.135" transform="translate(-2123.185 5069.291)" fill="#231f20"/>
    <path id="Path_1437" data-name="Path 1437" d="M467.362,126.708H453.35a.426.426,0,0,1,0-.848h14.013a.426.426,0,0,1,0,.848Z" transform="translate(-2575.448 4952.587)" fill="#2b3990"/>
    <path id="Path_1438" data-name="Path 1438" d="M493.226,126.718h-6.3a.426.426,0,0,1,0-.848h6.3a.426.426,0,1,1,0,.853Z" transform="translate(-2591.568 4952.582)" fill="#2b3990"/>
    <path id="Path_1439" data-name="Path 1439" d="M508.948,126.7H504.56a.426.426,0,0,1,0-.848h4.388a.426.426,0,0,1,0,.848Z" transform="translate(-2600.031 4952.591)" fill="#2b3990"/>
    <path id="Path_1440" data-name="Path 1440" d="M530.44,126.7H515.97a.426.426,0,0,1,0-.848h14.47a.426.426,0,0,1,0,.848Z" transform="translate(-2605.508 4952.591)" fill="#2b3990"/>
    <path id="Path_1441" data-name="Path 1441" d="M467.319,138.513H453.306a.426.426,0,0,1,0-.853h14.013a.426.426,0,0,1,0,.848Z" transform="translate(-2575.404 4946.922)" fill="#2b3990"/>
    <path id="Path_1442" data-name="Path 1442" d="M493.183,138.523h-6.3a.426.426,0,0,1,0-.853h6.3a.426.426,0,0,1,0,.848Z" transform="translate(-2591.524 4946.917)" fill="#2b3990"/>
    <path id="Path_1443" data-name="Path 1443" d="M508.9,138.513h-4.388a.426.426,0,0,1,0-.853H508.9a.426.426,0,1,1,0,.853Z" transform="translate(-2599.988 4946.922)" fill="#2b3990"/>
    <path id="Path_1444" data-name="Path 1444" d="M530.4,138.513h-14.47a.426.426,0,1,1,0-.853H530.4a.426.426,0,1,1,0,.853Z" transform="translate(-2605.465 4946.922)" fill="#2b3990"/>
  </g>
</svg>
