<svg xmlns="http://www.w3.org/2000/svg" viewBox="0 0 750.14 128.9"><defs><style>.cls-1{opacity:0.09;}.cls-2{fill:#14151e;}.cls-3{fill:#1f212d;}.cls-4{fill:#2a2d3f;}.cls-5{fill:#fa0;}.cls-6{fill:#ce8715;}.cls-7{fill:#c17e27;}</style></defs><title>header</title><g id="Layer_2" data-name="Layer 2"><g id="Layer_1-2" data-name="Layer 1"><g class="cls-1"><path class="cls-2" d="M150.1,22V53.85A75.05,75.05,0,0,1,0,53.85V22Z"/><path class="cls-2" d="M750.14,22V53.85a75.06,75.06,0,0,1-150.11,0V22Z"/><path class="cls-3" d="M300.28,22V53.85a75.05,75.05,0,0,1-150.1,0V22Z"/><path class="cls-3" d="M600.3,22V53.85a75.06,75.06,0,0,1-150.11,0V22Z"/><path class="cls-4" d="M450.26,22V53.85a75.05,75.05,0,0,1-150.1,0V22Z"/></g><path class="cls-5" d="M150.1,0V31.85A75.05,75.05,0,0,1,0,31.85V0Z"/><path class="cls-5" d="M750.14,0V31.85a75.06,75.06,0,0,1-150.11,0V0Z"/><path class="cls-6" d="M300.28,0V31.85a75.05,75.05,0,0,1-150.1,0V0Z"/><path class="cls-6" d="M600.3,0V31.85a75.06,75.06,0,0,1-150.11,0V0Z"/><path class="cls-7" d="M450.26,0V31.85a75.05,75.05,0,0,1-150.1,0V0Z"/></g></g></svg>