<svg xmlns="http://www.w3.org/2000/svg" xmlns:xlink="http://www.w3.org/1999/xlink" width="255.808" height="331.474" viewBox="0 0 255.808 331.474">
  <defs>
    <clipPath id="clip-path">
      <rect id="Rectangle_278" data-name="Rectangle 278" width="107.833" height="130.904" fill="none"/>
    </clipPath>
  </defs>
  <g id="notifications" transform="translate(-120.277 -18.88)">
    <g id="Layer_2" data-name="Layer 2" transform="translate(120.277 18.88)">
      <g id="Layer_1" data-name="Layer 1" transform="translate(0 0)">
        <text id="Next" transform="translate(109.459 300.42)" font-size="10" font-family="ArialRoundedMTBold, Arial Rounded MT"><tspan x="0" y="0">N</tspan><tspan y="0" letter-spacing="-0.01em">e</tspan><tspan y="0">xt</tspan></text>
        <path id="Path_579" data-name="Path 579" d="M276.763,583.93a119.877,119.877,0,0,1-25.758-.286q-1.25-51.909-2.5-103.837a191.907,191.907,0,0,1,22.8-.984c2.633.069,4.887-.231,5.792,3.214.93,3.538-.226,9.651-.315,13.4-.448,18.971-.492,37.957-.34,56.938C276.472,555.038,276.979,583.911,276.763,583.93Z" transform="translate(-185.404 -256.964)" fill="#d5dee6"/>
        <path id="Path_587" data-name="Path 587" d="M296.936,492.835c0,.29-.054.63-.266.758a.523.523,0,0,1-.212.059,16.1,16.1,0,0,1-1.821.148.63.63,0,0,1-.522-.157,1.023,1.023,0,0,1-.158-.605l-.133-2.21a.187.187,0,0,1,.025-.138.108.108,0,0,1,.108-.025,16.09,16.09,0,0,1,2.525.32C297.236,491.211,296.97,492.023,296.936,492.835Z" transform="translate(-208.417 -262.988)" fill="#e1e7ed"/>
        <path id="Path_588" data-name="Path 588" d="M293.84,499.577a.261.261,0,0,0-.172.034.291.291,0,0,0-.094.143,2.835,2.835,0,0,0-.133,1.1v1.86a11.854,11.854,0,0,0,2.461-.172c.7-.157.758-.822.64-1.629C296.335,499.321,294.844,499.621,293.84,499.577Z" transform="translate(-208.219 -267.516)" fill="#e1e7ed"/>
        <path id="Path_589" data-name="Path 589" d="M294.464,508.739a10.79,10.79,0,0,0-.084,2.7.266.266,0,0,0,.039.133.172.172,0,0,0,.113.044l1.909.182c.743.074.748-1.929.418-2.525a1.108,1.108,0,0,0-.8-.531C295.906,508.714,294.493,508.6,294.464,508.739Z" transform="translate(-208.676 -272.136)" fill="#e1e7ed"/>
        <path id="Path_590" data-name="Path 590" d="M294.227,518.4a9,9,0,0,0,0,3.145.222.222,0,0,0,.039.113.153.153,0,0,0,.123.034h1.737a.724.724,0,0,0,.591-.187,1.226,1.226,0,0,0,.182-.719c.025-.492.044-.984.064-1.476.029-.615.133-.719-.335-.856A7.417,7.417,0,0,0,294.227,518.4Z" transform="translate(-208.553 -277.043)" fill="#e1e7ed"/>
        <path id="Path_591" data-name="Path 591" d="M296.936,529.556c0,.29-.054.635-.266.758a.619.619,0,0,1-.212.064,17.342,17.342,0,0,1-1.821.143.615.615,0,0,1-.522-.157,1.018,1.018,0,0,1-.158-.6l-.133-2.215a.187.187,0,0,1,.025-.138.122.122,0,0,1,.108-.025,15.533,15.533,0,0,1,2.525.325C297.236,527.932,296.97,528.744,296.936,529.556Z" transform="translate(-208.417 -281.639)" fill="#e1e7ed"/>
        <path id="Path_592" data-name="Path 592" d="M293.84,536.3a.261.261,0,0,0-.172.035.291.291,0,0,0-.094.143,2.835,2.835,0,0,0-.133,1.1v1.86a11.535,11.535,0,0,0,2.461-.172c.7-.158.758-.822.64-1.624C296.335,536.041,294.844,536.346,293.84,536.3Z" transform="translate(-208.219 -286.166)" fill="#e1e7ed"/>
        <path id="Path_593" data-name="Path 593" d="M294.464,545.459a10.8,10.8,0,0,0-.084,2.7.3.3,0,0,0,.039.138.2.2,0,0,0,.113.039l1.909.182c.743.074.748-1.929.418-2.525a1.083,1.083,0,0,0-.8-.527C295.906,545.434,294.493,545.316,294.464,545.459Z" transform="translate(-208.676 -290.785)" fill="#e1e7ed"/>
        <path id="Path_594" data-name="Path 594" d="M294.227,555.123a9.029,9.029,0,0,0,0,3.15.206.206,0,0,0,.039.108.138.138,0,0,0,.123.035h1.737a.748.748,0,0,0,.591-.192,1.215,1.215,0,0,0,.182-.718c.025-.492.044-.984.064-1.476.029-.61.133-.719-.335-.856A7.417,7.417,0,0,0,294.227,555.123Z" transform="translate(-208.553 -295.69)" fill="#e1e7ed"/>
        <path id="Path_595" data-name="Path 595" d="M287.618,492.835c0,.29-.049.63-.261.758a.528.528,0,0,1-.217.059,16.133,16.133,0,0,1-1.816.148.625.625,0,0,1-.522-.157,1.063,1.063,0,0,1-.162-.605c-.044-.733-.084-1.476-.133-2.21a.212.212,0,0,1,.03-.138.1.1,0,0,1,.1-.025,16.072,16.072,0,0,1,2.529.32C287.919,491.211,287.658,492.023,287.618,492.835Z" transform="translate(-203.686 -262.989)" fill="#e1e7ed"/>
        <path id="Path_596" data-name="Path 596" d="M284.525,499.577a.246.246,0,0,0-.167.034.291.291,0,0,0-.093.143,2.835,2.835,0,0,0-.133,1.1v1.86a11.93,11.93,0,0,0,2.461-.172c.7-.157.753-.822.64-1.629C287.015,499.321,285.539,499.621,284.525,499.577Z" transform="translate(-203.491 -267.516)" fill="#e1e7ed"/>
        <path id="Path_597" data-name="Path 597" d="M285.147,508.739a10.793,10.793,0,0,0-.079,2.7.227.227,0,0,0,.039.133.163.163,0,0,0,.108.044l1.909.182c.748.074.753-1.929.423-2.525a1.1,1.1,0,0,0-.807-.531C286.589,508.714,285.177,508.6,285.147,508.739Z" transform="translate(-203.946 -272.136)" fill="#e1e7ed"/>
        <path id="Path_598" data-name="Path 598" d="M284.917,518.4a9,9,0,0,0,0,3.145.226.226,0,0,0,.044.113.143.143,0,0,0,.118.034h1.737a.728.728,0,0,0,.6-.187,1.26,1.26,0,0,0,.182-.719c0-.492.039-.984.064-1.476.03-.615.133-.719-.335-.856A7.416,7.416,0,0,0,284.917,518.4Z" transform="translate(-203.824 -277.043)" fill="#e1e7ed"/>
        <path id="Path_599" data-name="Path 599" d="M287.618,529.557c0,.29-.049.635-.261.758a.615.615,0,0,1-.217.064,17.347,17.347,0,0,1-1.816.143.61.61,0,0,1-.522-.157,1.058,1.058,0,0,1-.162-.6c-.044-.738-.084-1.476-.133-2.214a.211.211,0,0,1,.03-.138.113.113,0,0,1,.1-.025,15.52,15.52,0,0,1,2.53.325C287.919,527.932,287.658,528.745,287.618,529.557Z" transform="translate(-203.686 -281.64)" fill="#e1e7ed"/>
        <path id="Path_600" data-name="Path 600" d="M284.525,536.3a.247.247,0,0,0-.167.034.291.291,0,0,0-.093.143,2.836,2.836,0,0,0-.133,1.1v1.86a11.6,11.6,0,0,0,2.461-.172c.7-.157.753-.822.64-1.624C287.015,536.041,285.539,536.346,284.525,536.3Z" transform="translate(-203.491 -286.166)" fill="#e1e7ed"/>
        <path id="Path_601" data-name="Path 601" d="M285.147,545.459a10.8,10.8,0,0,0-.079,2.7.25.25,0,0,0,.039.138.182.182,0,0,0,.108.039l1.909.182c.748.074.753-1.929.423-2.525a1.082,1.082,0,0,0-.807-.527C286.589,545.434,285.177,545.316,285.147,545.459Z" transform="translate(-203.946 -290.785)" fill="#e1e7ed"/>
        <path id="Path_602" data-name="Path 602" d="M284.917,555.122a9.028,9.028,0,0,0,0,3.149.211.211,0,0,0,.044.108.128.128,0,0,0,.118.034h1.737a.753.753,0,0,0,.6-.192,1.249,1.249,0,0,0,.182-.718c0-.492.039-.984.064-1.476.03-.61.133-.719-.335-.856A7.416,7.416,0,0,0,284.917,555.122Z" transform="translate(-203.824 -295.69)" fill="#e1e7ed"/>
        <path id="Path_613" data-name="Path 613" d="M319.881,669.055c0-.6-.025-1.3-.428-1.634a1.259,1.259,0,0,0-.807-.2l-28.887-.448a2.107,2.107,0,0,0-1.54.4,3.4,3.4,0,0,0-.684,2.318c-.212,4.478-.2,8.971.034,13.445,6.4.65,12.8-.63,19.222-.635a63.811,63.811,0,0,1,6.85.4c1.4.143,4.1,1.225,5.3-.044,1.043-1.117.783-3.7.807-5.187Z" transform="translate(-205.147 -352.423)" fill="#d6e3ee"/>
        <path id="Path_616" data-name="Path 616" d="M258.953,659.745a1.478,1.478,0,0,1-.984-.379,2.362,2.362,0,0,1-.453-1.324,146.4,146.4,0,0,1-.93-16.836q-.133-7.47-.256-14.946a5.145,5.145,0,0,1,.62-3.115,3.009,3.009,0,0,1,2.539-.846l17.136.025q-.325,8.666-.659,17.323c-.138,3.676-.276,7.382-.059,11.048.133,2.229,1.845,7.436.733,9.35-1.181,2-6.215.7-8,.6Q263.791,660.336,258.953,659.745Z" transform="translate(-189.376 -329.846)" fill="#e4ebed"/>
        <path id="Path_617" data-name="Path 617" d="M348.067,631.273a73.538,73.538,0,0,1-15.846-.177q-.768-31.934-1.531-63.862a118.242,118.242,0,0,1,14.025-.6c1.619.039,3.007-.147,3.563,1.969s-.143,5.94-.2,8.243c-.271,11.668-.285,23.346-.207,35.024C347.895,613.478,348.2,631.244,348.067,631.273Z" transform="translate(-227.142 -301.566)" fill="#d5dee6"/>
        <path id="Path_622" data-name="Path 622" d="M277.65,634.055a29.941,29.941,0,0,0-4.114-.492.669.669,0,0,0-.645.325,1.113,1.113,0,0,0-.064.463v1.7a.737.737,0,0,0,.059.364c.094.177.3.187.492.182l3.843-.187c.866-.04,3.017.354,3.745-.187s.212-1.442-.379-1.831C279.712,633.813,278.594,634.138,277.65,634.055Z" transform="translate(-197.753 -335.563)" fill="#e9eeef"/>
        <path id="Path_623" data-name="Path 623" d="M274.036,642.817a.3.3,0,0,0-.221.059.458.458,0,0,0-.084.286,14.861,14.861,0,0,0,.059,2.52.492.492,0,0,0,.1.276.28.28,0,0,0,.241.049,47.969,47.969,0,0,1,7.229-.207c.158,0,.34,0,.418-.162a.609.609,0,0,0,.044-.285c0-.625.2-1.659-.256-2.087s-1.939-.212-2.49-.251C277.4,642.906,275.714,642.817,274.036,642.817Z" transform="translate(-198.199 -340.265)" fill="#e9eeef"/>
        <path id="Path_624" data-name="Path 624" d="M274.1,651.346a.231.231,0,0,0-.138.059.334.334,0,0,0-.054.2,12.182,12.182,0,0,0,.084,2.357l6.816.3a.491.491,0,0,0,.32-.059.743.743,0,0,0,.217-.413c.64-2.461-.694-2.328-2.372-2.515A19.677,19.677,0,0,0,274.1,651.346Z" transform="translate(-198.291 -344.503)" fill="#e9eeef"/>
        <path id="Path_625" data-name="Path 625" d="M360.478,575.215a.626.626,0,0,1-.162.492.443.443,0,0,1-.133.035,9.4,9.4,0,0,1-1.117.089.379.379,0,0,1-.325-.1.635.635,0,0,1-.093-.369c-.03-.453-.054-.906-.084-1.358a.153.153,0,0,1,0-.084.069.069,0,0,1,.069,0,9.748,9.748,0,0,1,1.555.2C360.66,574.216,360.5,574.713,360.478,575.215Z" transform="translate(-241.295 -305.271)" fill="#e1e7ed"/>
        <path id="Path_626" data-name="Path 626" d="M358.582,579.318a.138.138,0,0,0-.108,0,.231.231,0,0,0-.059.089,1.938,1.938,0,0,0-.079.679v1.142a7.51,7.51,0,0,0,1.521-.1c.428-.1.463-.492.389-.984C360.137,579.156,359.2,579.343,358.582,579.318Z" transform="translate(-241.181 -308.011)" fill="#e1e7ed"/>
        <path id="Path_627" data-name="Path 627" d="M358.921,584.96a6.713,6.713,0,0,0-.044,1.663.153.153,0,0,0,0,.084.094.094,0,0,0,.069.025l1.176.113c.458.044.463-1.186.256-1.555a.689.689,0,0,0-.492-.325C359.832,584.96,358.961,584.871,358.921,584.96Z" transform="translate(-241.441 -310.862)" fill="#e1e7ed"/>
        <path id="Path_628" data-name="Path 628" d="M358.821,590.955a5.464,5.464,0,0,0,0,1.939.144.144,0,0,0,.025.064.084.084,0,0,0,.074.025h1.073a.453.453,0,0,0,.364-.118.754.754,0,0,0,.108-.443l.044-.9c0-.379.079-.443-.207-.531A4.638,4.638,0,0,0,358.821,590.955Z" transform="translate(-241.385 -313.905)" fill="#e1e7ed"/>
        <path id="Path_629" data-name="Path 629" d="M360.478,597.8a.626.626,0,0,1-.162.492.443.443,0,0,1-.133.035,10.593,10.593,0,0,1-1.117.093.408.408,0,0,1-.325-.1.659.659,0,0,1-.093-.374c-.03-.453-.054-.906-.084-1.358a.153.153,0,0,1,0-.084.069.069,0,0,1,.069,0,9.734,9.734,0,0,1,1.555.2C360.66,596.806,360.5,597.308,360.478,597.8Z" transform="translate(-241.295 -316.744)" fill="#e1e7ed"/>
        <path id="Path_630" data-name="Path 630" d="M358.582,601.91a.163.163,0,0,0-.108,0,.231.231,0,0,0-.059.089,1.921,1.921,0,0,0-.079.674v1.147a7.5,7.5,0,0,0,1.521-.1c.428-.1.463-.492.389-.984C360.138,601.753,359.2,601.95,358.582,601.91Z" transform="translate(-241.181 -319.486)" fill="#e1e7ed"/>
        <path id="Path_631" data-name="Path 631" d="M358.946,607.555a6.68,6.68,0,0,0,0,1.673.153.153,0,0,0,0,.084.093.093,0,0,0,.069.024l1.176.113c.458.044.463-1.186.256-1.555a.689.689,0,0,0-.492-.325A2.8,2.8,0,0,0,358.946,607.555Z" transform="translate(-241.465 -322.336)" fill="#e1e7ed"/>
        <path id="Path_632" data-name="Path 632" d="M358.82,613.486a5.413,5.413,0,0,0,0,1.934.127.127,0,0,0,.025.069.084.084,0,0,0,.074,0h1.073a.453.453,0,0,0,.364-.118.743.743,0,0,0,.108-.438l.044-.906c0-.379.079-.443-.207-.531A4.793,4.793,0,0,0,358.82,613.486Z" transform="translate(-241.384 -325.343)" fill="#e1e7ed"/>
        <path id="Path_633" data-name="Path 633" d="M354.748,575.215a.626.626,0,0,1-.162.492.4.4,0,0,1-.133.035,9.4,9.4,0,0,1-1.117.089.364.364,0,0,1-.32-.1.6.6,0,0,1-.1-.369c-.029-.453-.054-.906-.084-1.358a.153.153,0,0,1,0-.084.069.069,0,0,1,.069,0,9.748,9.748,0,0,1,1.555.2C354.93,574.216,354.773,574.713,354.748,575.215Z" transform="translate(-238.385 -305.271)" fill="#e1e7ed"/>
        <path id="Path_634" data-name="Path 634" d="M352.852,579.318a.138.138,0,0,0-.108,0,.232.232,0,0,0-.059.089,1.941,1.941,0,0,0-.079.679v1.142a7.51,7.51,0,0,0,1.521-.1c.428-.1.463-.492.394-.984C354.388,579.156,353.467,579.343,352.852,579.318Z" transform="translate(-238.271 -308.011)" fill="#e1e7ed"/>
        <path id="Path_635" data-name="Path 635" d="M353.231,584.96a6.716,6.716,0,0,0-.044,1.663.123.123,0,0,0,0,.084.074.074,0,0,0,.064.025l1.176.113c.458.044.463-1.186.256-1.555a.689.689,0,0,0-.492-.325C354.122,584.96,353.251,584.871,353.231,584.96Z" transform="translate(-238.551 -310.862)" fill="#e1e7ed"/>
        <path id="Path_636" data-name="Path 636" d="M353.092,590.955a5.575,5.575,0,0,0,0,1.939.108.108,0,0,0,.03.064c0,.025.044.025.069.025h1.073a.452.452,0,0,0,.364-.118.793.793,0,0,0,.113-.443c0-.3.025-.6.039-.9,0-.379.084-.443-.207-.531A4.638,4.638,0,0,0,353.092,590.955Z" transform="translate(-238.476 -313.905)" fill="#e1e7ed"/>
        <path id="Path_637" data-name="Path 637" d="M354.748,597.8a.626.626,0,0,1-.162.492.408.408,0,0,1-.133.034,10.565,10.565,0,0,1-1.117.094.393.393,0,0,1-.32-.1.624.624,0,0,1-.1-.374c-.03-.453-.054-.906-.084-1.358a.153.153,0,0,1,0-.084.07.07,0,0,1,.069,0,9.748,9.748,0,0,1,1.555.2C354.93,596.806,354.773,597.308,354.748,597.8Z" transform="translate(-238.385 -316.744)" fill="#e1e7ed"/>
        <path id="Path_638" data-name="Path 638" d="M352.852,601.91a.163.163,0,0,0-.108,0,.23.23,0,0,0-.059.089,1.923,1.923,0,0,0-.079.674v1.147a7.5,7.5,0,0,0,1.521-.1c.428-.1.463-.492.394-.984C354.388,601.753,353.467,601.95,352.852,601.91Z" transform="translate(-238.271 -319.486)" fill="#e1e7ed"/>
        <path id="Path_639" data-name="Path 639" d="M353.231,607.555a6.683,6.683,0,0,0-.044,1.658.123.123,0,0,0,0,.084.074.074,0,0,0,.064.025l1.176.113c.458.044.463-1.186.256-1.555a.689.689,0,0,0-.492-.325C354.122,607.535,353.251,607.466,353.231,607.555Z" transform="translate(-238.551 -322.335)" fill="#e1e7ed"/>
        <path id="Path_640" data-name="Path 640" d="M353.092,613.486a5.55,5.55,0,0,0,0,1.934.1.1,0,0,0,.03.069h1.142a.453.453,0,0,0,.364-.118.788.788,0,0,0,.113-.438c0-.305.025-.605.039-.906,0-.379.084-.443-.207-.531A4.794,4.794,0,0,0,353.092,613.486Z" transform="translate(-238.476 -325.343)" fill="#e1e7ed"/>
        <path id="Path_641" data-name="Path 641" d="M225.786,531.537a.758.758,0,0,1-.63.748,2.941,2.941,0,0,1-.517.059q-2.185.118-4.385.143a3.045,3.045,0,0,1-1.255-.157.664.664,0,0,1-.384-.591c-.108-.728-.212-1.476-.32-2.185a.118.118,0,0,1,.064-.138.63.63,0,0,1,.261,0c1.969.1,4.163.084,6.083.32C226.514,529.933,225.869,530.735,225.786,531.537Z" transform="translate(-170.057 -282.665)" fill="#d4dde3"/>
        <path id="Path_642" data-name="Path 642" d="M218.339,538.177a1.4,1.4,0,0,0-.413.034.491.491,0,0,0-.226.138,1.353,1.353,0,0,0-.315,1.088c0,.615,0,1.225.03,1.836,1.944,0,4.04,0,5.96-.167,1.673-.158,1.811-.812,1.535-1.6C224.353,537.921,220.75,538.221,218.339,538.177Z" transform="translate(-169.588 -287.12)" fill="#d4dde3"/>
        <path id="Path_643" data-name="Path 643" d="M219.826,547.219a4.429,4.429,0,0,0-.192,2.667.182.182,0,0,0,.1.133.644.644,0,0,0,.266.039l4.6.182a1.4,1.4,0,0,0,.984-2.495,4,4,0,0,0-1.89-.522A28.881,28.881,0,0,0,219.826,547.219Z" transform="translate(-170.677 -291.679)" fill="#d4dde3"/>
        <path id="Path_644" data-name="Path 644" d="M219.265,556.753a3.775,3.775,0,0,0,0,3.105.192.192,0,0,0,.094.108.8.8,0,0,0,.3.034h4.188a3.711,3.711,0,0,0,1.417-.187.758.758,0,0,0,.443-.709l.162-1.476c.069-.61.32-.714-.812-.851a43.559,43.559,0,0,0-5.787-.025Z" transform="translate(-170.382 -296.513)" fill="#d4dde3"/>
        <path id="Path_645" data-name="Path 645" d="M225.786,567.8a.758.758,0,0,1-.63.748,2.954,2.954,0,0,1-.517.059c-1.476.084-2.918.128-4.385.147a3.124,3.124,0,0,1-1.255-.162.664.664,0,0,1-.384-.591c-.108-.728-.212-1.476-.32-2.185a.118.118,0,0,1,.064-.138.637.637,0,0,1,.261,0c1.969.1,4.163.079,6.083.315C226.514,566.188,225.87,566.99,225.786,567.8Z" transform="translate(-170.057 -301.081)" fill="#d4dde3"/>
        <path id="Path_654" data-name="Path 654" d="M571.082,638.644a2.992,2.992,0,0,0,1.693-.532,2.953,2.953,0,0,0,.782-1.85c1.265-7.746,1.432-15.63,1.6-23.474l.443-20.846c.03-1.535,0-3.243-1.073-4.345s-2.81-1.181-4.36-1.176l-29.463.03,1.137,24.158a125.773,125.773,0,0,1,.1,15.408c-.226,3.115-3.174,10.369-1.255,13.007,2.027,2.8,10.679.984,13.74.832Q562.765,639.465,571.082,638.644Z" transform="translate(-333.465 -311.623)" fill="#e4ebed"/>
        <path id="Path_660" data-name="Path 660" d="M560.542,602.791c2.367-.167,4.7-.782,7.077-.7a1.255,1.255,0,0,1,1.112.458,1.333,1.333,0,0,1,.108.64v2.377a.885.885,0,0,1-.1.492c-.167.246-.522.261-.827.251l-6.609-.256c-1.476-.059-5.187.492-6.437-.261-1.339-.812-.359-2.018.65-2.559C557,602.456,558.927,602.909,560.542,602.791Z" transform="translate(-340.666 -319.579)" fill="#e9eeef"/>
        <path id="Path_661" data-name="Path 661" d="M567.37,615a.581.581,0,0,1,.379.089.571.571,0,0,1,.148.4,16.392,16.392,0,0,1-.108,3.509.572.572,0,0,1-.162.389.6.6,0,0,1-.414.069,100.789,100.789,0,0,0-12.436-.286c-.261,0-.576,0-.714-.231a.718.718,0,0,1-.079-.394c0-.881-.34-2.318.443-2.913s3.337-.3,4.281-.349C561.593,615.124,564.481,615,567.37,615Z" transform="translate(-340.511 -326.135)" fill="#e9eeef"/>
        <path id="Path_662" data-name="Path 662" d="M568.22,626.92a.419.419,0,0,1,.241.084.413.413,0,0,1,.089.276,13.913,13.913,0,0,1-.143,3.292l-11.717.418a.984.984,0,0,1-.546-.084.955.955,0,0,1-.374-.576c-1.1-3.445,1.2-3.243,4.08-3.5A41.391,41.391,0,0,1,568.22,626.92Z" transform="translate(-341.312 -332.06)" fill="#e9eeef"/>
        <path id="Path_663" data-name="Path 663" d="M429.763,520.727a.542.542,0,0,0,.507.7c.64.069,1.284.108,1.924.123a.733.733,0,0,0,.551-.138.778.778,0,0,0,.172-.492c.044-.635.089-1.265.138-1.9a.165.165,0,0,0-.03-.118.127.127,0,0,0-.113,0,20.261,20.261,0,0,0-2.672.275C429.453,519.335,429.729,520.033,429.763,520.727Z" transform="translate(-277.421 -277.328)" fill="#e1e7ed"/>
        <path id="Path_664" data-name="Path 664" d="M433.058,526.477a.325.325,0,0,1,.182.03.281.281,0,0,1,.1.123,2.174,2.174,0,0,1,.138.945v1.594a15.008,15.008,0,0,1-2.618-.148c-.733-.133-.8-.7-.674-1.393C430.415,526.241,432,526.517,433.058,526.477Z" transform="translate(-277.65 -281.179)" fill="#e1e7ed"/>
        <path id="Path_665" data-name="Path 665" d="M432.87,534.339a7.627,7.627,0,0,1,.084,2.318c0,.039,0,.089-.044.113a.186.186,0,0,1-.118.039l-2.018.157c-.787.059-.792-1.658-.443-2.17a1.211,1.211,0,0,1,.851-.453A6.448,6.448,0,0,1,432.87,534.339Z" transform="translate(-277.635 -285.143)" fill="#e1e7ed"/>
        <path id="Path_666" data-name="Path 666" d="M432.977,542.637a6.308,6.308,0,0,1,0,2.7.205.205,0,0,1-.044.093.187.187,0,0,1-.123.035h-1.841a.881.881,0,0,1-.625-.162.916.916,0,0,1-.2-.615c0-.418-.044-.842-.069-1.26-.03-.527-.138-.62.359-.738A9.7,9.7,0,0,1,432.977,542.637Z" transform="translate(-277.603 -289.356)" fill="#e1e7ed"/>
        <path id="Path_667" data-name="Path 667" d="M429.763,552.217a.694.694,0,0,0,.281.65.843.843,0,0,0,.226.049c.64.074,1.284.113,1.924.128a.576.576,0,0,0,.723-.655c.044-.63.089-1.265.138-1.895,0-.044,0-.094-.03-.118a.132.132,0,0,0-.113,0,21.086,21.086,0,0,0-2.672.276C429.453,550.82,429.729,551.519,429.763,552.217Z" transform="translate(-277.421 -293.311)" fill="#e1e7ed"/>
        <path id="Path_668" data-name="Path 668" d="M433.058,557.987a.325.325,0,0,1,.182,0,.311.311,0,0,1,.1.123,2.2,2.2,0,0,1,.138.95v1.595a15.508,15.508,0,0,1-2.618-.148c-.733-.138-.8-.7-.674-1.4C430.415,557.76,432,558.021,433.058,557.987Z" transform="translate(-277.65 -297.176)" fill="#e1e7ed"/>
        <path id="Path_669" data-name="Path 669" d="M432.87,565.839a7.662,7.662,0,0,1,.084,2.323.225.225,0,0,1-.044.113.163.163,0,0,1-.118.035l-2.018.157c-.787.064-.792-1.654-.443-2.165a1.2,1.2,0,0,1,.851-.453A6.263,6.263,0,0,1,432.87,565.839Z" transform="translate(-277.635 -301.141)" fill="#e1e7ed"/>
        <path id="Path_670" data-name="Path 670" d="M432.977,574.137a6.309,6.309,0,0,1,0,2.7.226.226,0,0,1-.044.1.182.182,0,0,1-.123.03h-1.841a.881.881,0,0,1-.625-.162.93.93,0,0,1-.2-.62c0-.418-.044-.837-.069-1.26-.03-.527-.138-.62.359-.738A9.92,9.92,0,0,1,432.977,574.137Z" transform="translate(-277.603 -305.354)" fill="#e1e7ed"/>
        <path id="Path_671" data-name="Path 671" d="M439.613,520.727a.542.542,0,0,0,.507.7c.64.069,1.284.108,1.924.123a.734.734,0,0,0,.551-.138.748.748,0,0,0,.167-.492c.049-.635.093-1.265.143-1.9a.167.167,0,0,0-.029-.118.128.128,0,0,0-.113,0,20.1,20.1,0,0,0-2.672.275C439.3,519.335,439.579,520.033,439.613,520.727Z" transform="translate(-282.424 -277.328)" fill="#e1e7ed"/>
        <path id="Path_672" data-name="Path 672" d="M442.9,526.477a.325.325,0,0,1,.182.03.306.306,0,0,1,.1.123,2.042,2.042,0,0,1,.138.945v1.594a15.008,15.008,0,0,1-2.618-.148c-.733-.133-.8-.7-.674-1.393C440.26,526.241,441.845,526.517,442.9,526.477Z" transform="translate(-282.647 -281.179)" fill="#e1e7ed"/>
        <path id="Path_673" data-name="Path 673" d="M442.72,534.339a7.627,7.627,0,0,1,.084,2.318c0,.039,0,.089-.044.113a.186.186,0,0,1-.118.039l-2.018.157c-.787.059-.792-1.658-.443-2.17a1.21,1.21,0,0,1,.851-.453A6.448,6.448,0,0,1,442.72,534.339Z" transform="translate(-282.637 -285.143)" fill="#e1e7ed"/>
        <path id="Path_674" data-name="Path 674" d="M442.776,542.637a6.31,6.31,0,0,1,0,2.7.207.207,0,0,1-.044.093.182.182,0,0,1-.123.035h-1.841a.881.881,0,0,1-.625-.162.89.89,0,0,1-.2-.615c0-.418-.044-.842-.069-1.26-.03-.527-.143-.62.359-.738A9.7,9.7,0,0,1,442.776,542.637Z" transform="translate(-282.579 -289.356)" fill="#e1e7ed"/>
        <path id="Path_675" data-name="Path 675" d="M439.613,552.243a.694.694,0,0,0,.281.649.837.837,0,0,0,.226.049c.64.074,1.284.113,1.924.128a.778.778,0,0,0,.551-.138.753.753,0,0,0,.167-.492c.049-.63.093-1.265.143-1.895,0-.044,0-.094-.029-.118a.133.133,0,0,0-.113,0,20.908,20.908,0,0,0-2.672.276C439.3,550.845,439.579,551.544,439.613,552.243Z" transform="translate(-282.424 -293.337)" fill="#e1e7ed"/>
        <path id="Path_676" data-name="Path 676" d="M442.9,557.987a.325.325,0,0,1,.182,0,.34.34,0,0,1,.1.123,2.062,2.062,0,0,1,.138.95v1.595a15.508,15.508,0,0,1-2.618-.148c-.733-.138-.8-.7-.674-1.4C440.26,557.76,441.845,558.021,442.9,557.987Z" transform="translate(-282.647 -297.176)" fill="#e1e7ed"/>
        <path id="Path_677" data-name="Path 677" d="M442.72,565.839a7.662,7.662,0,0,1,.084,2.323.226.226,0,0,1-.044.113.163.163,0,0,1-.118.035l-2.018.157c-.787.064-.792-1.654-.443-2.165a1.2,1.2,0,0,1,.851-.453A6.263,6.263,0,0,1,442.72,565.839Z" transform="translate(-282.637 -301.141)" fill="#e1e7ed"/>
        <path id="Path_678" data-name="Path 678" d="M442.776,574.137a6.311,6.311,0,0,1,0,2.7.228.228,0,0,1-.044.1.178.178,0,0,1-.123.03h-1.841a.881.881,0,0,1-.625-.162.9.9,0,0,1-.2-.62c0-.418-.044-.837-.069-1.26-.03-.527-.143-.62.359-.738A9.921,9.921,0,0,1,442.776,574.137Z" transform="translate(-282.579 -305.354)" fill="#e1e7ed"/>
        <path id="Path_692" data-name="Path 692" d="M358.04,639.159a132.129,132.129,0,0,0,23.012-.212c.743-25.1,1.476-27.387,2.229-52.47-6.762-.492-13.587-.846-20.374-.709-2.352.044-4.37-.172-5.177,2.328s.207,7,.285,9.709c.4,13.779.418,4.734.3,18.489C358.3,618.21,357.848,639.14,358.04,639.159Z" transform="translate(-240.717 -311.278)" fill="#d5dee6"/>
        <path id="Path_693" data-name="Path 693" d="M508.5,571.615c.034.645.148,1.412.728,1.7a1.848,1.848,0,0,0,.591.138c1.678.182,3.361.3,5.044.33a2,2,0,0,0,1.442-.359,2.033,2.033,0,0,0,.443-1.348c.123-1.659.241-3.312.364-4.97a.379.379,0,0,0-.074-.31.36.36,0,0,0-.3-.054,53.46,53.46,0,0,0-7,.723C507.655,567.964,508.4,569.814,508.5,571.615Z" transform="translate(-317.341 -301.622)" fill="#dfe6ea"/>
        <path id="Path_694" data-name="Path 694" d="M517.085,586.751a.875.875,0,0,1,.492.074.728.728,0,0,1,.256.325,5.415,5.415,0,0,1,.364,2.461c0,1.393,0,2.781-.034,4.173a40.832,40.832,0,0,1-6.85-.384c-1.929-.354-2.087-1.841-1.767-3.652C510.2,586.175,514.319,586.869,517.085,586.751Z" transform="translate(-317.913 -311.787)" fill="#dfe6ea"/>
        <path id="Path_695" data-name="Path 695" d="M516.627,607.33a19.616,19.616,0,0,1,.221,6.068.364.364,0,0,1-.414.4l-5.285.413c-2.067.162-2.082-4.336-1.156-5.674a3.124,3.124,0,0,1,2.219-1.191C512.651,607.27,516.548,607.01,516.627,607.33Z" transform="translate(-317.908 -322.164)" fill="#dfe6ea"/>
        <path id="Path_696" data-name="Path 696" d="M516.788,629.039a16.378,16.378,0,0,1,0,7.067.354.354,0,0,1-.443.33h-4.818a1.747,1.747,0,0,1-2.141-2.037c-.064-1.1-.123-2.2-.182-3.3-.079-1.378-.369-1.619.93-1.929A24.485,24.485,0,0,1,516.788,629.039Z" transform="translate(-317.763 -333.184)" fill="#dfe6ea"/>
        <path id="Path_697" data-name="Path 697" d="M434.033,618.969a55.8,55.8,0,0,1,5.979-.6,1.068,1.068,0,0,1,.94.389,1.117,1.117,0,0,1,.093.541v2.008a.748.748,0,0,1-.089.428c-.143.212-.443.221-.694.212l-5.586-.217c-1.26-.049-4.385.418-5.443-.221s-.305-1.7.551-2.16C431.041,618.679,432.67,619.063,434.033,618.969Z" transform="translate(-276.927 -327.849)" fill="#e9eeef"/>
        <path id="Path_700" data-name="Path 700" d="M363.773,595.905a.455.455,0,0,0,.423.6c.541.059,1.083.094,1.629.1a.62.62,0,0,0,.463-.113.645.645,0,0,0,.143-.438l.118-1.6a.123.123,0,0,0,0-.1.132.132,0,0,0-.1,0,17.141,17.141,0,0,0-2.254.231C363.507,594.729,363.739,595.32,363.773,595.905Z" transform="translate(-243.911 -315.646)" fill="#e1e7ed"/>
        <path id="Path_701" data-name="Path 701" d="M366.553,600.779a.288.288,0,0,1,.158,0,.258.258,0,0,1,.079.108,1.678,1.678,0,0,1,.118.8v1.348a13.211,13.211,0,0,1-2.21-.123c-.625-.118-.674-.6-.571-1.181C364.318,600.592,365.657,600.808,366.553,600.779Z" transform="translate(-244.102 -318.91)" fill="#e1e7ed"/>
        <path id="Path_702" data-name="Path 702" d="M366.393,607.426a6.4,6.4,0,0,1,.069,1.969.143.143,0,0,1-.034.094.172.172,0,0,1-.1.034l-1.7.133c-.669.049-.674-1.4-.379-1.836a1.024,1.024,0,0,1,.718-.379A4.807,4.807,0,0,1,366.393,607.426Z" transform="translate(-244.09 -322.266)" fill="#e1e7ed"/>
        <path id="Path_703" data-name="Path 703" d="M366.46,614.437a5.236,5.236,0,0,1,0,2.278.143.143,0,0,1-.034.079.162.162,0,0,1-.108.029h-1.555a.556.556,0,0,1-.689-.655l-.059-1.068c0-.443-.118-.521.3-.62A8.029,8.029,0,0,1,366.46,614.437Z" transform="translate(-244.059 -325.826)" fill="#e1e7ed"/>
        <path id="Path_704" data-name="Path 704" d="M363.773,622.525a.455.455,0,0,0,.423.6c.541.059,1.083.094,1.629.108a.492.492,0,0,0,.605-.556l.118-1.6a.123.123,0,0,0,0-.1.133.133,0,0,0-.1,0,17.172,17.172,0,0,0-2.254.231C363.507,621.349,363.739,621.964,363.773,622.525Z" transform="translate(-243.911 -329.166)" fill="#e1e7ed"/>
        <path id="Path_705" data-name="Path 705" d="M366.553,627.406a.249.249,0,0,1,.157.025.215.215,0,0,1,.079.1,1.678,1.678,0,0,1,.118.8v1.348a12.712,12.712,0,0,1-2.21-.128c-.625-.113-.674-.59-.571-1.176C364.318,627.2,365.657,627.436,366.553,627.406Z" transform="translate(-244.102 -332.438)" fill="#e1e7ed"/>
        <path id="Path_706" data-name="Path 706" d="M366.393,634.047a6.4,6.4,0,0,1,.069,1.968.143.143,0,0,1-.034.094.174.174,0,0,1-.1.035l-1.7.133c-.669.049-.674-1.4-.379-1.831a1.033,1.033,0,0,1,.718-.389A5.533,5.533,0,0,1,366.393,634.047Z" transform="translate(-244.09 -335.792)" fill="#e1e7ed"/>
        <path id="Path_707" data-name="Path 707" d="M366.46,641.051a5.255,5.255,0,0,1,0,2.283.115.115,0,0,1-.143.108h-1.555a.561.561,0,0,1-.689-.655l-.059-1.068c0-.443-.118-.522.3-.62A8.229,8.229,0,0,1,366.46,641.051Z" transform="translate(-244.059 -339.345)" fill="#e1e7ed"/>
        <path id="Path_708" data-name="Path 708" d="M372.091,595.905a.579.579,0,0,0,.236.551.612.612,0,0,0,.187.044c.541.059,1.083.094,1.629.1a.64.64,0,0,0,.468-.113.7.7,0,0,0,.143-.438c.039-.531.074-1.068.118-1.6a.148.148,0,0,0-.025-.1.132.132,0,0,0-.1,0,17.2,17.2,0,0,0-2.254.231C371.826,594.729,372.057,595.32,372.091,595.905Z" transform="translate(-248.135 -315.646)" fill="#e1e7ed"/>
        <path id="Path_709" data-name="Path 709" d="M374.872,600.779a.265.265,0,0,1,.153,0,.231.231,0,0,1,.084.108,1.678,1.678,0,0,1,.118.8v1.348a13.322,13.322,0,0,1-2.215-.123c-.62-.118-.669-.6-.566-1.181C372.643,600.591,373.977,600.808,374.872,600.779Z" transform="translate(-248.327 -318.91)" fill="#e1e7ed"/>
        <path id="Path_710" data-name="Path 710" d="M374.714,607.426a6.4,6.4,0,0,1,.069,1.969.123.123,0,0,1-.034.093.173.173,0,0,1-.1.035l-1.7.133c-.669.049-.674-1.4-.374-1.836a.984.984,0,0,1,.714-.379A4.807,4.807,0,0,1,374.714,607.426Z" transform="translate(-248.316 -322.266)" fill="#e1e7ed"/>
        <path id="Path_711" data-name="Path 711" d="M374.769,614.437a5.236,5.236,0,0,1,0,2.278.118.118,0,0,1-.034.079.163.163,0,0,1-.108.03h-1.55a.788.788,0,0,1-.531-.133.768.768,0,0,1-.162-.521l-.059-1.068c-.025-.443-.118-.521.3-.62A8.03,8.03,0,0,1,374.769,614.437Z" transform="translate(-248.273 -325.826)" fill="#e1e7ed"/>
        <path id="Path_712" data-name="Path 712" d="M372.091,622.525a.579.579,0,0,0,.236.551.61.61,0,0,0,.187.044c.541.059,1.083.094,1.629.108a.665.665,0,0,0,.468-.118.7.7,0,0,0,.143-.438c.039-.531.074-1.068.118-1.6a.143.143,0,0,0-.025-.1.133.133,0,0,0-.1,0,17.256,17.256,0,0,0-2.254.231C371.826,621.349,372.057,621.964,372.091,622.525Z" transform="translate(-248.135 -329.166)" fill="#e1e7ed"/>
        <path id="Path_713" data-name="Path 713" d="M374.872,627.406a.231.231,0,0,1,.153.025.2.2,0,0,1,.084.1,1.678,1.678,0,0,1,.118.8v1.348a12.8,12.8,0,0,1-2.215-.128c-.62-.113-.669-.591-.566-1.176C372.643,627.2,373.977,627.436,374.872,627.406Z" transform="translate(-248.327 -332.438)" fill="#e1e7ed"/>
        <path id="Path_714" data-name="Path 714" d="M374.714,634.047a6.4,6.4,0,0,1,.069,1.968.123.123,0,0,1-.035.094.174.174,0,0,1-.1.035l-1.7.133c-.669.049-.674-1.4-.374-1.831a1.013,1.013,0,0,1,.714-.389A5.533,5.533,0,0,1,374.714,634.047Z" transform="translate(-248.316 -335.792)" fill="#e1e7ed"/>
        <path id="Path_715" data-name="Path 715" d="M374.769,641.061a5.256,5.256,0,0,1,0,2.284.118.118,0,0,1-.034.079.143.143,0,0,1-.108.029h-1.55a.762.762,0,0,1-.531-.138.748.748,0,0,1-.162-.492l-.059-1.068c-.025-.443-.118-.522.3-.62A8.243,8.243,0,0,1,374.769,641.061Z" transform="translate(-248.273 -339.355)" fill="#e1e7ed"/>
        <path id="Path_716" data-name="Path 716" d="M479.124,303q34.941.118,69.847,0a.679.679,0,0,0,0-1.353q-34.941.133-69.847,0a.674.674,0,0,0,0,1.348Z" transform="translate(-302.186 -166.995)" fill="#fd9d09"/>
        <path id="Path_717" data-name="Path 717" d="M449.089,302.983h8.819a.679.679,0,0,0,0-1.353h-8.819a.679.679,0,0,0,0,1.353Z" transform="translate(-286.958 -166.984)" fill="#fd9d09"/>
        <path id="Path_718" data-name="Path 718" d="M484.788,290.747c-.123.3.217-.4.281-.492a7.383,7.383,0,0,1,1.147-1.476,5.842,5.842,0,0,1,5.758-1.476.694.694,0,0,0,.763-.31,16.653,16.653,0,0,1,7.382-6.3,11.929,11.929,0,0,1,7.776-.541,3.765,3.765,0,0,1,1.511.891c.118.123.384.63.3.389.3.812,1.6.463,1.3-.359-1.265-3.479-7.239-2.825-9.867-2.151a17.13,17.13,0,0,0-9.557,7.382l.763-.31a7.475,7.475,0,0,0-8.858,4.429c-.335.8.984,1.152,1.3.359Z" transform="translate(-304.715 -155.176)" fill="#fd9d09"/>
        <path id="Path_719" data-name="Path 719" d="M533.5,277.223c3.632-5.285,9.473-9.778,15.748-11.24a7.114,7.114,0,0,1,8.435,3.794c.891,1.791,1.609,4.975.33,6.767-.492.659.492,1.284,1.058.817a11.2,11.2,0,0,1,3.209-1.88c1.412-.546,4.921-.93,5.029,1.334.059,1.476-1.25,3.051-2.121,4.119a21.133,21.133,0,0,1-1.87,2c-.64.6.32,1.55.955.984,1.919-1.791,5.157-5.113,4.232-8.007-.714-2.224-3.8-2.4-5.664-1.968a11.319,11.319,0,0,0-4.724,2.51l1.063.817c1.476-2.047.807-5.413-.074-7.549a8.258,8.258,0,0,0-8.051-5.285c-4.887.123-9.655,3.145-13.253,6.22a31.1,31.1,0,0,0-5.458,5.935c-.492.719.674,1.393,1.166.679Z" transform="translate(-329.499 -148.089)" fill="#fd9d09"/>
        <path id="Path_720" data-name="Path 720" d="M355.961,487.416a74.808,74.808,0,0,1-.93,7.667c-.113.679-.236,1.4-.379,2.151s-.271,1.447-.433,2.219c-.418,2.067-.945,4.35-1.594,6.816-.305,1.181-.645,2.406-1.019,3.666a132.057,132.057,0,0,1-5.413,15.029c-.143.33-.285.664-.433.984s-.3.669-.448.984-.305.674-.463,1.014-.31.674-.492,1.014-.32.679-.492,1.024-.33.684-.492,1.024-.34.689-.517,1.034-.349.689-.527,1.033l-.541,1.038c-.182.349-.369.694-.556,1.043-.044.084-.089.172-.138.256-.33.615-.669,1.225-1.014,1.836-.2.354-.4.7-.6,1.053l-.384.664c-.231.4-.492.8-.714,1.206l-.463.763c-.1.177-.217.359-.325.536-11.1,18.031-10.787,32.48-9.2,40.433H257.724c-1.235-2.406-2.51-4.887-2.6-5.02-.172-.266-4.217-39.453-4.306-39.808s0-8.607,0-8.607,4.729-16.732,8.893-31.466c.4-1.442.807-2.859,1.2-4.242,1.117-3.971,2.156-7.638,2.992-10.581l1.1-3.858h0c.541-1.9.871-3.056.905-3.154a4.054,4.054,0,0,1,1.324-.605c5.152-1.89,23.622-7.249,24.212-8.277.281-.492,7.918-.281,17.042.118,2.559.113,5.241.246,7.9.384l1.206.064h.507l1.762.094.925.049,2.274.123.891.049,1.319.074,1.708.1,2.224.128,1.521.089.645.039h0l2.19.133,3.253.2,1.235.074,1.668.108h0s2.81,3.351,6.093,7.244l3.1,3.676c1.427,1.688,2.805,3.327,3.937,4.695Z" transform="translate(-186.557 -250.464)" fill="#fd9d09"/>
        <path id="Path_721" data-name="Path 721" d="M274.6,512.408s-1.4,9.454,31.107,10.507,54.246,2.308,61.023-6.84-53.754-12.839-55.029-12.923-27.273,0-27.273,0Z" transform="translate(-198.651 -269.314)" fill="#ec8600"/>
        <path id="Path_722" data-name="Path 722" d="M374.347,335.947a10.642,10.642,0,0,1-10.964,10.29l-83.355-.719a10.633,10.633,0,0,1-10.777-10.482L270.628,174.6a10.65,10.65,0,0,1,10.964-10.3l83.355.719A10.64,10.64,0,0,1,375.73,175.51Z" transform="translate(-195.937 -97.242)" fill="#f1f2f0"/>
        <rect id="Rectangle_266" data-name="Rectangle 266" width="143.763" height="105.102" transform="translate(73.391 227.845) rotate(-89.51)" fill="#303435"/>
        <path id="Path_723" data-name="Path 723" d="M338.742,198.97l10.015.089-79.2,134.624.133-15.1Z" transform="translate(-196.095 -114.294)" fill="#3a3f42"/>
        <path id="Path_724" data-name="Path 724" d="M355.993,199.25l20.7.182-.281,32.214-64.655,111-40.492-.354Z" transform="translate(-196.963 -114.436)" fill="#3a3f42"/>
        <path id="Path_725" data-name="Path 725" d="M426.294,297,369.73,392.353l22.293.192,33.937-57.293Z" transform="translate(-246.969 -164.082)" fill="#3a3f42"/>
        <path id="Path_726" data-name="Path 726" d="M375.5,511.959a3.218,3.218,0,0,1-3.253,3.194l-24.557-.217a3.218,3.218,0,0,1-3.2-3.243h0a3.218,3.218,0,0,1,3.253-3.194l24.562.212a3.214,3.214,0,0,1,3.194,3.248Z" transform="translate(-234.15 -272.049)" fill="#3a3f42"/>
        <path id="Path_727" data-name="Path 727" d="M378.662,180.516a.743.743,0,0,1-.743.733l-13.671-.118a.733.733,0,0,1-.728-.748h0a.743.743,0,0,1,.743-.733l13.691.123a.738.738,0,0,1,.733.743Z" transform="translate(-243.815 -105.033)" fill="#3a3f42"/>
        <path id="Path_728" data-name="Path 728" d="M329.434,216.127h1.924a2.018,2.018,0,0,0,.034-4.03h-1.924a2.018,2.018,0,1,0-.035,4.03Z" transform="translate(-225.438 -121.51)" fill="#3a3f42"/>
        <path id="Path_729" data-name="Path 729" d="M303.015,215.9l7.382.064c2.594,0,2.628-4,.034-4.026l-7.382-.064c-2.589-.025-2.623,4.006-.03,4.026Z" transform="translate(-212.109 -121.397)" fill="#3a3f42"/>
        <path id="Path_730" data-name="Path 730" d="M459.6,222.169h1.924a2.013,2.013,0,1,0,.039-4.021h-1.929a2.013,2.013,0,0,0-.034,4.026Z" transform="translate(-291.599 -124.585)" fill="#3f4447"/>
        <path id="Path_731" data-name="Path 731" d="M433,221.926l7.382.069c2.593,0,2.623-4.006.03-4.03l-7.382-.064c-2.6,0-2.628,4.006-.035,4.026Z" transform="translate(-278.122 -124.46)" fill="#3f4447"/>
        <path id="Path_732" data-name="Path 732" d="M472.463,337.05v.881H460.1a.443.443,0,0,1,0-.881Z" transform="translate(-292.666 -184.973)" fill="#8b5e3c"/>
        <path id="Path_734" data-name="Path 734" d="M270.63,337.931H271a.443.443,0,0,0,0-.881h-.369Z" transform="translate(-196.638 -184.973)" fill="#8b5e3c"/>
        <path id="Path_753" data-name="Path 753" d="M375.257,230.186l.492-54.625a10.637,10.637,0,0,0-10.782-10.482l-83.355-.718a10.643,10.643,0,0,0-10.964,10.3L269.491,309l-.069,7.672h0l-.089,8.43h0l-.084,9.946a10.633,10.633,0,0,0,10.777,10.482l83.355.733a10.636,10.636,0,0,0,10.964-10.29l.733-85.181.182-20.6Z" transform="translate(-195.937 -97.267)" fill="none"/>
        <path id="Path_754" data-name="Path 754" d="M470.268,429.355s-14.685,34.768-38.937,42.421c0,0-3.391-5.482.753-10.261s16.506-14.508,18.8-25.054,9.35-6.7,9.35-6.7Z" transform="translate(-277.592 -231.713)" fill="#fd9d09"/>
        <path id="Path_755" data-name="Path 755" d="M437.718,503.19s-5.118.256-5.039,6.225a37.775,37.775,0,0,0,7.938-3.6A4.091,4.091,0,0,0,437.718,503.19Z" transform="translate(-278.939 -269.353)" fill="#fcfff6"/>
        <path id="Path_756" data-name="Path 756" d="M478.5,442.822a117.739,117.739,0,0,0,6.1-11.122,8.469,8.469,0,0,0-3.012-2.17l-5.945.241s-7.072-3.853-9.35,6.7c-.871,3.991-3.179,7.874-5.945,11.4C462.865,447.8,471.438,447.252,478.5,442.822Z" transform="translate(-292.993 -231.716)" fill="#ec8200"/>
        <path id="Path_757" data-name="Path 757" d="M447.731,367.41l-.182,21.54s-7.19,12.761-21.653,17.037-12.608,13.12-13.11,13.12S451.6,416.8,459.92,402.036,462.386,369.6,447.731,367.41Z" transform="translate(-268.834 -200.393)" fill="#fd9d09"/>
        <path id="Path_758" data-name="Path 758" d="M422.652,461.247c-2.175-1.752-8.75,2.249-9.808,5.049,0,.162-.049.251-.1.251-.177,0,4.823-.3,11.683-1.378A5.416,5.416,0,0,0,422.652,461.247Z" transform="translate(-268.813 -247.833)" fill="#fcfff6"/>
        <path id="Path_759" data-name="Path 759" d="M468,402.044c4.833.2,14.764-.148,23.317-5.162,1.555-8.494-.984-16.732-6.663-21.471-2.5,1.053-5.182,2.16-5.413,2.347s-1.806.709-3.5,1.565l-.113,13.691A39.892,39.892,0,0,1,468,402.044Z" transform="translate(-296.879 -204.456)" fill="#ec8200"/>
        <path id="Path_760" data-name="Path 760" d="M448.3,329.51l-.182,21.545s-7.19,12.761-21.653,17.032-12.613,13.12-13.11,13.12,38.813-2.3,47.135-17.072S462.951,331.72,448.3,329.51Z" transform="translate(-269.123 -181.144)" fill="#fd9d09"/>
        <path id="Path_761" data-name="Path 761" d="M423.222,423.356c-2.18-1.757-8.75,2.249-9.808,5.049,0,.158-.049.246-.1.246-.177,0,4.823-.3,11.678-1.378A5.388,5.388,0,0,0,423.222,423.356Z" transform="translate(-269.103 -228.588)" fill="#fcfff6"/>
        <path id="Path_762" data-name="Path 762" d="M150.934,182.883q34.941.118,69.847,0a.679.679,0,0,0,0-1.353q-34.941.138-69.847,0a.674.674,0,1,0,0,1.348Z" transform="translate(-135.505 -105.988)" fill="#fd9d09"/>
        <path id="Path_763" data-name="Path 763" d="M120.9,182.863h8.824a.679.679,0,0,0,0-1.353H120.9a.679.679,0,0,0,0,1.353Z" transform="translate(-120.277 -105.978)" fill="#fd9d09"/>
        <path id="Path_764" data-name="Path 764" d="M156.617,170.627c-.123.3.217-.4.28-.492a7.552,7.552,0,0,1,1.147-1.476,5.845,5.845,0,0,1,5.758-1.476.694.694,0,0,0,.763-.31,16.732,16.732,0,0,1,7.382-6.309,11.944,11.944,0,0,1,7.771-.536,3.74,3.74,0,0,1,1.516.9c.118.118.384.625.3.384.3.812,1.6.463,1.3-.359-1.27-3.479-7.244-2.825-9.842-2.151a17.141,17.141,0,0,0-9.562,7.382l.763-.31a7.466,7.466,0,0,0-8.858,4.429c-.34.8.984,1.152,1.3.359Z" transform="translate(-138.053 -94.17)" fill="#fd9d09"/>
        <path id="Path_765" data-name="Path 765" d="M205.309,157.077c3.637-5.285,9.478-9.778,15.748-11.24a7.108,7.108,0,0,1,8.43,3.794c.891,1.791,1.614,4.975.33,6.767-.492.659.492,1.284,1.058.817a11.16,11.16,0,0,1,3.214-1.88c1.407-.546,4.921-.93,5.025,1.334.064,1.476-1.245,3.046-2.121,4.119a20.514,20.514,0,0,1-1.87,2c-.635.6.32,1.545.955.95,1.919-1.786,5.162-5.108,4.232-8-.714-2.219-3.794-2.4-5.659-1.968a11.275,11.275,0,0,0-4.724,2.51l1.058.817c1.476-2.047.807-5.413-.074-7.549a8.253,8.253,0,0,0-8.046-5.285c-4.892.123-9.655,3.145-13.253,6.22a31.28,31.28,0,0,0-5.463,5.935c-.492.718.679,1.393,1.166.679Z" transform="translate(-162.813 -87.057)" fill="#fd9d09"/>
        <path id="Path_766" data-name="Path 766" d="M515.988,229.539a.443.443,0,0,1-.448-.443v-2.51a.448.448,0,0,1,.891,0v2.49a.443.443,0,0,1-.443.463Z" transform="translate(-321.023 -128.668)" fill="#fbcb08"/>
        <path id="Path_767" data-name="Path 767" d="M521.461,233.225a.448.448,0,0,1-.271-.8l1.968-1.506a.444.444,0,1,1,.536.709l-1.968,1.506A.448.448,0,0,1,521.461,233.225Z" transform="translate(-323.805 -131.025)" fill="#fbcb08"/>
        <path id="Path_768" data-name="Path 768" d="M525,241.458a.525.525,0,0,1-.123,0l-2.4-.669a.448.448,0,0,1-.31-.546.438.438,0,0,1,.546-.31l2.4.669a.443.443,0,0,1-.118.871Z" transform="translate(-324.385 -135.64)" fill="#fbcb08"/>
        <path id="Path_769" data-name="Path 769" d="M519.442,247.627a.438.438,0,0,1-.413-.281l-.92-2.313a.444.444,0,1,1,.827-.325l.92,2.313a.448.448,0,0,1-.251.576A.493.493,0,0,1,519.442,247.627Z" transform="translate(-322.312 -137.932)" fill="#fbcb08"/>
        <path id="Path_770" data-name="Path 770" d="M509.822,246.942a.443.443,0,0,1-.379-.674l1.284-2.131a.445.445,0,0,1,.763.458l-1.289,2.131A.443.443,0,0,1,509.822,246.942Z" transform="translate(-317.893 -137.675)" fill="#fbcb08"/>
        <path id="Path_771" data-name="Path 771" d="M504.107,239.924a.444.444,0,0,1-.049-.886l2.461-.261a.443.443,0,0,1,.094.881l-2.461.266Z" transform="translate(-314.979 -135.062)" fill="#fbcb08"/>
        <path id="Path_772" data-name="Path 772" d="M509.507,232.053a.443.443,0,0,1-.325-.138l-1.708-1.811a.443.443,0,0,1,0-.63.438.438,0,0,1,.625,0l1.713,1.811a.448.448,0,0,1,0,.63A.458.458,0,0,1,509.507,232.053Z" transform="translate(-316.86 -130.272)" fill="#fbcb08"/>
        <path id="Path_773" data-name="Path 773" d="M234.9,315.516a.443.443,0,0,1-.443-.443v-2.49a.443.443,0,1,1,.886,0v2.49A.443.443,0,0,1,234.9,315.516Z" transform="translate(-178.268 -172.322)" fill="#fbcb08"/>
        <path id="Path_774" data-name="Path 774" d="M240.368,319.25a.443.443,0,0,1-.271-.8l1.968-1.506a.444.444,0,1,1,.536.709l-1.969,1.506A.492.492,0,0,1,240.368,319.25Z" transform="translate(-181.041 -174.718)" fill="#fbcb08"/>
        <path id="Path_775" data-name="Path 775" d="M243.914,327.493a.328.328,0,0,1-.118,0l-2.4-.664a.453.453,0,0,1-.31-.551.448.448,0,0,1,.551-.305l2.4.664a.448.448,0,0,1,.31.551A.443.443,0,0,1,243.914,327.493Z" transform="translate(-181.625 -179.339)" fill="#fbcb08"/>
        <path id="Path_776" data-name="Path 776" d="M238.36,333.707a.438.438,0,0,1-.413-.281l-.915-2.313a.443.443,0,0,1,.822-.33l.92,2.313a.448.448,0,0,1-.246.581A.492.492,0,0,1,238.36,333.707Z" transform="translate(-179.56 -181.655)" fill="#fbcb08"/>
        <path id="Path_777" data-name="Path 777" d="M228.74,332.971a.492.492,0,0,1-.231-.064.448.448,0,0,1-.153-.61l1.289-2.136a.444.444,0,0,1,.758.463l-1.27,2.131a.448.448,0,0,1-.394.217Z" transform="translate(-175.136 -181.366)" fill="#fbcb08"/>
        <path id="Path_778" data-name="Path 778" d="M223.019,325.954a.443.443,0,1,1-.044-.886l2.461-.261a.443.443,0,0,1,.094.881l-2.461.266Z" transform="translate(-172.221 -178.755)" fill="#fbcb08"/>
        <path id="Path_779" data-name="Path 779" d="M228.457,318.125a.443.443,0,0,1-.325-.138l-1.708-1.811a.448.448,0,0,1,.65-.61l1.708,1.811a.443.443,0,0,1,0,.625A.433.433,0,0,1,228.457,318.125Z" transform="translate(-174.14 -174.006)" fill="#fbcb08"/>
        <path id="Path_783" data-name="Path 783" d="M431.127,278.33s-9.788,13.1.984,31.609,30.511,33.5,32.568,51.018c0,0,3.848-4.5,4.075-8.445s-8.209-27.067-9.173-29.773S447.2,303.408,447.2,303.054s-7.382-14.99-7.382-14.99Z" transform="translate(-276.083 -155.151)" fill="#40463f"/>
        <path id="Path_784" data-name="Path 784" d="M252.575,355.66s11.835,2.106,8.09,23.9-4.429,32.647-.236,43.621,4.429,21.078-3.445,21.609-22.524-36.1-22.524-36.1l16.127-37.027Z" transform="translate(-178.268 -194.425)" fill="#40463f"/>
        <path id="Path_785" data-name="Path 785" d="M233.546,475.786l4.134,43.592h-9.35c-.438-8.568-2.082-31.589-7.593-43.592-6.855-14.941-17.047-35.5-11.6-57.293,4.277-17.1,14.645-44.586,19.931-62.991a98.587,98.587,0,0,0,2.953-12.638v-.034a14.53,14.53,0,0,1,2.8.659l.492.172h0a15.986,15.986,0,0,1,3.327,1.663h0a13.607,13.607,0,0,1,5.605,7.431,21.248,21.248,0,0,1,.546,9.395c-1.22,8.814-3.248,17.884-4.562,26.575A88.016,88.016,0,0,0,239,405.748a41.663,41.663,0,0,0,1.029,7.716l.074.315c.172.7.354,1.368.541,2h0c.413,1.417.861,2.692,1.324,3.878,1.048,2.667,2.175,4.857,3.169,7.052a29.345,29.345,0,0,1,2.515,7.977h0c.069.453.128.92.177,1.407h0c.054.556.1,1.137.118,1.742a53.108,53.108,0,0,1-1.23,12.416C242.507,471.569,233.546,475.786,233.546,475.786Z" transform="translate(-164.623 -187.909)" fill="#fd9d09"/>
        <path id="Path_786" data-name="Path 786" d="M249.85,357.957s3.253,3.066,8.961.689c0,0,3.72-14.222-5.512-15.846C253.3,342.8,251.4,352.687,249.85,357.957Z" transform="translate(-186.085 -187.894)" fill="#f7fffa"/>
        <path id="Path_787" data-name="Path 787" d="M279.132,529.47s4.71,18.966-9.562,38.415C269.565,567.885,284.678,551.507,279.132,529.47Z" transform="translate(-196.1 -282.7)" fill="#ec8600"/>
        <g id="Group_471" data-name="Group 471" transform="translate(52.285)" clip-path="url(#clip-path)">
          <path id="Path_799" data-name="Path 799" d="M334.633,0l10.551,41.323-45.7,19.114L272.4,24.1Z" transform="translate(-269.132 0.551)" fill="#ffc02b"/>
          <path id="Path_800" data-name="Path 800" d="M396.857,2.656l-.148-.571-.551.217-.089-.226.807-.315.212.837Z" transform="translate(-331.942 -0.343)" fill="#603813"/>
          <path id="Path_801" data-name="Path 801" d="M407.5,43.169l-.364-1.427.236-.059.364,1.427Zm-.728-2.849-.364-1.427.236-.059.364,1.427Zm-.728-2.849-.364-1.427.236-.059.364,1.427Zm-.723-2.854-.364-1.422.231-.059.364,1.422Zm-.718-2.849-.364-1.422.231-.064.364,1.427Zm-.738-2.869L403.5,27.47l.236-.059.359,1.427Zm-.738-2.83-.364-1.427.236-.059.364,1.427Zm-.728-2.854-.364-1.422.236-.059.364,1.422Zm-.728-2.849-.364-1.422.236-.059L401.9,20.3Zm-.728-2.849-.364-1.427.236-.059.364,1.427Zm-.728-2.849-.364-1.427.236-.059.364,1.427Zm-.728-2.849-.364-1.427.236-.059.364,1.422Zm-.728-2.854L398.4,7.539l.236-.059L399,8.9Z" transform="translate(-333.125 -3.799)" fill="#603813"/>
          <path id="Path_802" data-name="Path 802" d="M416.874,82.787l-.094-.226.571-.241-.153-.6.236-.059.207.807Z" transform="translate(-342.46 -40.922)" fill="#603813"/>
          <path id="Path_803" data-name="Path 803" d="M332.133,102.836l-.094-.221,1.3-.546.1.221Zm2.6-1.092-.094-.221,1.3-.546.093.226Zm2.608-1.088-.094-.221,1.3-.546.094.221Zm2.608-1.088-.093-.226,1.3-.546.094.226Zm2.6-1.092-.093-.221,1.3-.546.094.221Zm2.608-1.088-.094-.226,1.3-.546.094.226Zm2.6-1.093-.094-.221,1.3-.546.094.221Zm2.608-1.088-.093-.226,1.3-.541.094.221Zm2.608-1.093-.094-.221,1.3-.546.1.226Zm2.6-1.088-.093-.226,1.3-.541.093.221Zm2.608-1.092-.093-.221,1.3-.546.094.226Zm2.608-1.088-.093-.226,1.3-.541.093.221Zm2.6-1.092-.094-.221,1.3-.546.093.226Zm2.608-1.088-.094-.221,1.3-.546.094.221Zm2.608-1.088-.1-.226,1.3-.546.093.226Zm2.6-1.093-.093-.221,1.3-.546.094.221Z" transform="translate(-299.422 -43.535)" fill="#603813"/>
          <path id="Path_804" data-name="Path 804" d="M327.532,120.3l-.492-.659.2-.143.374.507.586-.246.094.226Z" transform="translate(-296.883 -60.14)" fill="#603813"/>
          <path id="Path_805" data-name="Path 805" d="M301.222,85.985l-.866-1.166.2-.143.861,1.161Zm-1.727-2.328-.876-1.166.2-.143.861,1.161Zm-1.727-2.328-.866-1.161.2-.148.861,1.166ZM296.035,79l-.861-1.161.2-.143.861,1.161Zm-1.727-2.323-.861-1.166.192-.143.866,1.161Zm-1.727-2.328-.851-1.166.2-.143.861,1.161Zm-1.727-2.328-.861-1.161.192-.148.866,1.166ZM289.125,69.7l-.842-1.161.192-.143.866,1.161ZM287.4,67.368l-.861-1.161.192-.143.866,1.161Zm-1.727-2.323-.861-1.166.192-.143.866,1.161Zm-1.727-2.328-.861-1.161.192-.148.866,1.176Zm-1.727-2.328-.861-1.161.192-.148.866,1.166Zm-1.727-2.328-.861-1.161.192-.143.866,1.161Zm-1.727-2.323-.861-1.166.192-.143.866,1.161Z" transform="translate(-271.926 -27.644)" fill="#603813"/>
          <path id="Path_806" data-name="Path 806" d="M275.6,50.173l-.527-.714.822-.32.089.226-.527.207.34.458Z" transform="translate(-270.488 -24.406)" fill="#603813"/>
          <path id="Path_807" data-name="Path 807" d="M279.609,26.76l-.089-.226L280.883,26l.089.226Zm2.731-1.073-.089-.221,1.363-.536.089.226Zm2.731-1.068-.089-.226,1.363-.536.089.226Zm2.731-1.068-.089-.226,1.363-.536.089.226Zm2.731-1.073-.089-.226,1.368-.531.084.226Zm2.731-1.068-.089-.226,1.368-.536.084.226ZM296,20.343l-.089-.226,1.368-.556.084.226Zm2.731-1.073-.089-.226,1.368-.531.089.221Zm2.731-1.068-.089-.226,1.368-.536.089.226Zm2.731-1.073L304.1,16.9l1.368-.531.084.226Zm2.731-1.068-.089-.226L308.2,15.3l.089.226Zm2.731-1.068-.089-.226,1.368-.536.089.226Zm2.731-1.073-.089-.226,1.368-.531.089.221Zm2.731-1.068-.089-.226,1.368-.536.089.226Zm2.731-1.073-.089-.226,1.368-.531.089.226ZM320.6,10.7l-.089-.226,1.368-.536.089.226Zm2.731-1.068-.089-.226,1.368-.536.089.226Zm2.731-1.073-.089-.226,1.368-.531.089.221ZM328.8,7.494l-.089-.226,1.344-.5.089.226Zm2.731-1.073-.1-.212,1.368-.536.089.226Zm2.731-1.068-.089-.226,1.344-.527.089.226Z" transform="translate(-272.748 -2.336)" fill="#603813"/>
          <path id="Path_808" data-name="Path 808" d="M327.4,108.853l33.651-7.485-1.289-6.048Z" transform="translate(-297.066 -47.86)" fill="#e79d23"/>
          <path id="Path_809" data-name="Path 809" d="M370.975,107.61,347.24,119.736l-.3-6.776Z" transform="translate(-306.99 -54.102)" fill="#ffc02b"/>
          <path id="Path_810" data-name="Path 810" d="M347.55,126.613l19.837,9.075-9.139-14.537Z" transform="translate(-307.299 -60.978)" fill="#e79d23"/>
          <g id="hands_mobile" data-name="hands &amp; mobile" transform="translate(56.435 61.868)">
            <path id="Path_812" data-name="Path 812" d="M384.823,152.423a5.6,5.6,0,1,0,6.555-4.429A5.6,5.6,0,0,0,384.823,152.423Z" transform="translate(-382.613 -136.979)" fill="#d53626"/>
            <g id="Group_466" data-name="Group 466" transform="translate(3.048 12.045)" opacity="0.41">
              <path id="Path_813" data-name="Path 813" d="M386.724,154.305a5.074,5.074,0,1,0,5.94-4.021A5.074,5.074,0,0,0,386.724,154.305Z" transform="translate(-386.631 -150.193)" fill="#f6921e"/>
            </g>
            <path id="Path_814" data-name="Path 814" d="M380.577,156.034a1.329,1.329,0,0,0,.591,1.777l.62.31a1.329,1.329,0,0,0,1.776-.591l14.8-29.586a1.329,1.329,0,0,0-.591-1.777l-.62-.31a1.329,1.329,0,0,0-1.776.591Z" transform="translate(-380.438 -125.718)" fill="#013c49"/>
            <path id="Path_815" data-name="Path 815" d="M439.559,181.458a1.6,1.6,0,0,0,.714,2.136l8.538,4.272a1.6,1.6,0,0,0,2.131-.714l5.787-11.565a1.594,1.594,0,0,0-.709-2.136l-8.538-4.272a1.6,1.6,0,0,0-2.136.714Z" transform="translate(-410.38 -147.707)" fill="#013c49"/>
            <path id="Path_816" data-name="Path 816" d="M468.53,183a5.708,5.708,0,0,1,1.417,6.89l-.684,1.363a5.708,5.708,0,0,1-6.353,2.987Z" transform="translate(-422.324 -154.81)" fill="#dcb31c"/>
            <path id="Path_817" data-name="Path 817" d="M418.965,150.891l-5.871,11.737a46.475,46.475,0,0,0-25.644-2.756L401.594,131.6A45.767,45.767,0,0,0,418.965,150.891Z" transform="translate(-383.999 -128.705)" fill="#d53626"/>
            <g id="Group_467" data-name="Group 467" transform="translate(3.451 22.976)" opacity="0.41">
              <path id="Path_818" data-name="Path 818" d="M391.412,172.7c10.226-1.658,21.919,4.213,24.286,5.477l-2.6,5.2a46.477,46.477,0,0,0-25.644-2.756Z" transform="translate(-387.45 -172.405)" fill="#f6921e"/>
            </g>
            <g id="Group_468" data-name="Group 468" transform="translate(16.295 2.895)" opacity="0.53">
              <path id="Path_819" data-name="Path 819" d="M414.849,131.6a45.767,45.767,0,0,0,17.372,19.291l-.364.733c-2.928-1.831-13.1-8.164-18.307-17.431Z" transform="translate(-413.55 -131.6)" fill="#f9fcfd"/>
            </g>
            <g id="Group_469" data-name="Group 469" transform="translate(40.586 34.39)" opacity="0.41">
              <path id="Path_820" data-name="Path 820" d="M465.774,195.8a7.559,7.559,0,0,0,4.065.689l-.576,1.152a5.709,5.709,0,0,1-6.353,2.987l2.5-5.025h0S465.548,195.674,465.774,195.8Z" transform="translate(-462.91 -195.6)" fill="#90261c"/>
            </g>
            <path id="Path_821" data-name="Path 821" d="M443.756,203.219a.65.65,0,0,1-.093.143l-1.885,1.875a.792.792,0,0,1-1.107,0l-5.138,10.674-.192.389-.344.684a.792.792,0,0,1-1.068.354l-4.921-2.461a.8.8,0,0,1-.354-1.068l.536-1.073a.812.812,0,0,1,1.063-.354s1.752-2.79,2.4-4.09l3.691-7.382-1.22-1.225a.8.8,0,0,1-.167-.876Z" transform="translate(-404.883 -162.84)" fill="#d53626"/>
            <g id="Group_470" data-name="Group 470" transform="translate(26.61 38.032)" opacity="0.41">
              <path id="Path_822" data-name="Path 822" d="M442.133,203l4.665,2.337a.647.647,0,0,1-.094.143l-1.885,1.875a.792.792,0,0,1-1.107,0l-5.138,10.674-.192.389-.344.684a.792.792,0,0,1-1.068.354l-2.461-1.235Z" transform="translate(-434.51 -203)" fill="#90261c"/>
            </g>
            <path id="Path_823" data-name="Path 823" d="M442.018,202l-2.318,2.313.723.871Z" transform="translate(-410.536 -163.909)" fill="#011e23"/>
            <path id="Path_824" data-name="Path 824" d="M453.471,189.709l-2.529,5.054a1.6,1.6,0,0,1-2.131.714l-8.538-4.272a1.6,1.6,0,0,1-.714-2.136L442.089,184Z" transform="translate(-410.38 -155.318)" fill="#011e23"/>
            <path id="Path_825" data-name="Path 825" d="M390.582,160.506l-6.968,13.927a1.329,1.329,0,0,1-1.776.591l-.62-.31a1.329,1.329,0,0,1-.59-1.777L387.57,159Z" transform="translate(-380.463 -142.621)" fill="#011e23"/>
            <path id="Path_829" data-name="Path 829" d="M435.377,223.913h0a1.112,1.112,0,0,0-.034,1.57l.157.167a1.117,1.117,0,0,0,1.57.034h0a1.117,1.117,0,0,0,.034-1.575l-.157-.162A1.112,1.112,0,0,0,435.377,223.913Z" transform="translate(-408.167 -175.433)" fill="#fbd8bf" fill-rule="evenodd"/>
          </g>
          <path id="Path_841" data-name="Path 841" d="M327.43,103.083l-.02-.054,45.7-19.109.025.054Z" transform="translate(-297.071 -42.07)" fill="#42210b"/>
        </g>
        <path id="Path_788" data-name="Path 788" d="M410.734,525.839c-.143.33-.285.664-.433.984s-.3.669-.448.984-.305.674-.463,1.014-.31.674-.492,1.014-.32.679-.492,1.024-.33.684-.492,1.024-.34.689-.517,1.033-.349.689-.526,1.033l-.541,1.038c-.182.349-.369.694-.556,1.043-.044.084-.089.172-.138.256-.33.615-.669,1.225-1.014,1.836-.2.354-.4.7-.6,1.053l-.384.664c-.231.4-.492.8-.714,1.206l-.463.763c-.1.177-.217.359-.325.536-11.1,18.031-10.787,32.48-9.2,40.433H379.062c-1.422-2.82-1.895-6.506.586-10.905,6.068-10.782,11.033-24.37,5.561-30.7-5.256-6.078-6.609-27.3-4.813-35.6.074-.34.153-.655.236-.95a29.639,29.639,0,0,0,.753-4.65c.167-1.658.305-3.568.409-5.63s.187-4.213.251-6.442l.029-1.245c.054-2.347.084-4.719.1-7.008.034-4.641,0-8.932-.025-11.929h0l.409.025h.1l1.762.094.925.049,2.274.123.891.049,1.319.074,1.708.1,2.224.128c-.054,1.373-.133,2.761-.216,4.163a7.1,7.1,0,0,0-1.821,5.049c0,.714,0,1.447.054,2.19h0a74.287,74.287,0,0,0,.812,8.174h0c.039.305.089.605.138.91a59.976,59.976,0,0,0,.935,11.26,38.094,38.094,0,0,0,1.427,5.413,31.118,31.118,0,0,0,3.6,7.249,9.214,9.214,0,0,0,3.7,3.214A40.319,40.319,0,0,0,410.734,525.839Z" transform="translate(-251.114 -251.338)" fill="#ff6f05"/>
        <path id="Path_789" data-name="Path 789" d="M503.238,426.488c-5.039,17.716-2.884,48.907-2.185,57.278H429.829c-1.334-8.425-4.975-22.017-14.931-31.988-2.8-2.8-5.389-5.182-7.766-7.382l-1.476-1.334-.325-.3-.349-.325-1.019-.945-.492-.492c-.413-.389-.812-.773-1.206-1.152s-.782-.763-1.161-1.142l-.546-.507c-.364-.374-.723-.753-1.083-1.132l-.522-.576L398.53,436a33.548,33.548,0,0,1-8-15.989c-.226-1.043-.433-2.146-.61-3.3-.039-.281-.084-.566-.123-.851-.32-2.239-.541-4.7-.669-7.426-.029-.605-.059-1.211-.093-1.821-.094-1.86-.207-3.74-.335-5.625s-.271-3.76-.423-5.64c-.172-2.165-.359-4.326-.556-6.452-.034-.33-.064-.655-.094-.984-.236-2.485-.492-4.921-.728-7.278-.458-4.3-.93-8.337-1.368-11.919a4.242,4.242,0,0,0-.054-.428v-.148c-.079-.645-.157-1.27-.236-1.88h0c-.669-5.33-1.235-9.39-1.526-11.373-.084-.6-.143-1.014-.172-1.211v-.133a9.831,9.831,0,0,1,1.1-.217,16.171,16.171,0,0,1,7.835.768,9.611,9.611,0,0,1,.984.408,13.284,13.284,0,0,1,1.476.768,14.693,14.693,0,0,1,1.476.984c.241.187.492.384.728.59a18.236,18.236,0,0,1,3.524,4.134c.143.226.285.463.423.7s.33.581.492.881l.113.217.128.251c.153.31.305.63.453.96.069.153.138.305.2.458.231.531.448,1.083.654,1.658a.272.272,0,0,1,0,.059l.128.354c.025.059.044.118.064.182.074.2.138.408.2.62s.113.354.167.531.123.408.182.615.123.443.182.659l.177.655c.049.182.1.364.143.546.084.32.162.64.241.96h0c.1.4.192.8.285,1.2s.182.8.271,1.2q.34,1.57.63,3.125c.039.2.074.389.108.581s.049.256.069.384c.044.226.084.453.123.679.143.787.276,1.565.4,2.338q.3,1.762.561,3.445c.138.851.271,1.688.408,2.51l.118.733v.079c.133.792.271,1.575.408,2.343h0c.064.354.128.709.2,1.058s.143.738.212,1.1h0l.133.645a45.11,45.11,0,0,0,1.442,5.354c.064.187.128.364.2.546.138.389.285.763.448,1.132q.305.733.65,1.4l.182.349a15.253,15.253,0,0,0,1.235,1.969c.094.133.2.261.3.389s.177.221.271.325l.153.177c.207.231.418.453.64.659l.241.226.177.157.251.212a.4.4,0,0,0,.049.044l.33.256a11.477,11.477,0,0,0,.984.664l.271.153a2.278,2.278,0,0,0,.266.143c.133.074.266.138.4.2a3.562,3.562,0,0,0,.34.153,1.738,1.738,0,0,0,.2.089c.1.044.207.089.315.123s.261.1.394.148.271.093.413.133a13.209,13.209,0,0,0,1.334.349c.364.074.743.138,1.137.187l.335.044c.212,0,.423.044.64.059a17.2,17.2,0,0,0,2.756,0,4.218,4.218,0,0,0,.605-.064c.2-.03.463-.054.694-.094l.3-.049h.059l.453-.084c.182-.034.369-.074.551-.118l.492-.113.581-.158c.167-.044.33-.094.492-.148a22.878,22.878,0,0,0,3.607-1.476c.148-.069.285-.143.428-.221.359-.187.714-.389,1.063-.6s.694-.423,1.043-.65l.522-.354.561-.4.123-.089.33-.246.271-.207.384-.305.546-.448.394-.34.33-.29.389-.359c.162-.148.325-.3.492-.458a30.934,30.934,0,0,0,2.677-2.953l.3-.369c.157-.2.31-.4.463-.61s.305-.413.453-.625q.9-1.265,1.7-2.648c.069-.113.128-.221.192-.335s.157-.271.231-.408c.157-.285.31-.576.458-.866a1.6,1.6,0,0,0,.084-.157c.162-.315.32-.64.492-.984a37.51,37.51,0,0,0,1.722-4.291c.123-.369.241-.738.349-1.112s.231-.787.335-1.186a39.743,39.743,0,0,0,.861-4.045c.049-.276.089-.556.128-.842s.079-.566.113-.851a52.38,52.38,0,0,0-2.83-23.351q-.576-1.673-1.2-3.3h0a1.408,1.408,0,0,0-.064-.153q-.064-.192-.148-.384c-.212-.556-.428-1.107-.655-1.653q-.635-1.57-1.314-3.091c-.984-2.254-2.062-4.429-3.169-6.535a128.145,128.145,0,0,0-7.834-12.859,2.094,2.094,0,0,0-.128-.187c-.374-.551-.758-1.1-1.137-1.639l-.526-.738c-4.193-5.851-8.45-10.969-12.234-15.443-1.865-2.2-3.612-4.252-5.172-6.161-3.14-3.824-5.546-7.082-6.693-9.842a24.659,24.659,0,0,1-1.86-7.328h0c-.581-7.013,2.825-11.7,6.432-13.435l1.4,1.663c1.634,1.944,4.547,5.413,7.953,9.409l1.88,2.22.576.674.216.256,1.156,1.353,3.287,3.848.458.531.2.226c1.516,1.762,3.017,3.5,4.429,5.152h0c.984,1.142,1.968,2.239,2.864,3.273,2,2.279,3.765,4.247,5.084,5.659,3.819,4.085,5.93,6.284,7.087,7.456h0c1.132,1.152,1.344,1.324,1.344,1.324a2.466,2.466,0,0,1,.541.089h.054l.226.044.158.03.221.044.236.049c.674.143,1.555.349,2.6.64.266.074.546.153.832.241s.581.177.886.276c5.905,1.9,15,6.156,20.138,15.1l.079.034.349.172.192.1c.984.492,3.017,1.575,5.625,3.218,7.406,4.655,19.365,13.829,24.217,26.821a57.476,57.476,0,0,1,2.461,8.789l.03.148c.074.364.143.728.207,1.1a.18.18,0,0,1,0,.049c.089.492.167.955.246,1.437h0c.064.408.128.817.182,1.23.069.492.138,1.014.2,1.526a5.444,5.444,0,0,0,.064.561l.1,1.024c.039.413.074.827.108,1.245,0,.276.044.551.059.832.064.886.108,1.781.138,2.677,0,.492.034,1.019.039,1.526s0,1.029,0,1.54C509.813,399.741,506.865,413.717,503.238,426.488Z" transform="translate(-253.983 -152.291)" fill="#fd9d09"/>
        <path id="Path_790" data-name="Path 790" d="M385.433,451.779s4.547,1.235,7.185-1.663c0,0,.4-12.372-9.158-13.085Z" transform="translate(-253.942 -235.751)" fill="#fff"/>
        <path id="Path_791" data-name="Path 791" d="M450.117,286.027l-6.186,4.552s-10.763-7.16-5.054-17.849Z" transform="translate(-281.24 -152.307)" fill="#fff"/>
        <path id="Path_792" data-name="Path 792" d="M536.488,387.737c-2.761-10.453-9.434-21.4-12.441-26a41.242,41.242,0,0,0-5.207-1.329A99.411,99.411,0,0,1,536.488,387.737Z" transform="translate(-322.699 -196.838)" fill="#ff6f05"/>
        <path id="Path_793" data-name="Path 793" d="M537.889,394.518c-6.225-20.177-20.516-34.148-20.669-34.286l.492-.492c.143.138,14.567,14.232,20.846,34.586Z" transform="translate(-321.876 -196.497)"/>
        <path id="Path_794" data-name="Path 794" d="M580.633,428.092c.856-12.145-1.968-24.084-3.966-30.738a65.088,65.088,0,0,0-6.166-3.484A87.348,87.348,0,0,1,580.633,428.092Z" transform="translate(-348.936 -213.831)" fill="#ff6f05"/>
        <path id="Path_795" data-name="Path 795" d="M579.907,431.3c-.344-23.272-10.049-37.377-10.147-37.519l.576-.4c.1.143,9.926,14.409,10.275,37.893Z" transform="translate(-348.56 -213.582)"/>
        <path id="Path_796" data-name="Path 796" d="M448.454,631.508h-12.17c-1.334-8.425-4.975-22.018-14.931-31.988-2.8-2.8-5.389-5.182-7.766-7.382l-1.476-1.334-.325-.3-.349-.325-1.019-.945-.492-.492c-.413-.389-.812-.773-1.206-1.152s-.782-.763-1.161-1.142l-.546-.507c-.364-.374-.723-.753-1.083-1.132l-.522-.576-.423-.492a33.77,33.77,0,0,1-8-15.989c-.226-1.043-.433-2.146-.61-3.3-.039-.281-.084-.566-.123-.851,2.19,5.64,5.389,11.206,10.064,15.172,2.293,1.944,5.3,3.937,8.666,6.23C427.495,593.482,444.906,605.627,448.454,631.508Z" transform="translate(-260.438 -300.034)" fill="#ff6f05"/>
        <path id="Path_797" data-name="Path 797" d="M460.347,463.255c-2.293,18.957-16.358,30.448-27.962,29.527-15.817-1.23-12.83-20.738-18.277-39.891-2.362-8.307-6.506-12.214-10.448-13.981,3.765,4.011,8.154,11.132,8.366,22.637.349,20.27.231,35.034,20.147,34.68C449.1,495.952,462.6,479.1,460.347,463.255Z" transform="translate(-264.202 -236.706)" fill="#ff6f05"/>
        <path id="Path_798" data-name="Path 798" d="M612.391,528.373c-5.039,17.716-2.884,48.907-2.185,57.278H599.734c-4.055-15.546,1.944-46.353,12.554-74.276a85.544,85.544,0,0,0,5.28-38.065l.03.148c.074.364.143.728.207,1.1a.175.175,0,0,1,0,.049c.089.492.167.955.246,1.437h0c.064.409.128.817.182,1.23.069.492.138,1.014.2,1.526a5.446,5.446,0,0,0,.064.561l.1,1.024c.039.413.074.827.108,1.245,0,.276.044.551.059.832.064.886.108,1.781.138,2.677,0,.492.034,1.019.039,1.526s0,1.029,0,1.54C618.966,501.627,616.018,515.6,612.391,528.373Z" transform="translate(-363.136 -254.177)" fill="#ff6f05"/>
        <path id="Path_842" data-name="Path 842" d="M270.63,219.47V345.453" transform="translate(-196.638 -124.706)" fill="none"/>
        <path id="Path_843" data-name="Path 843" d="M485.63,305.54V247.47" transform="translate(-305.833 -138.926)" fill="none"/>
      </g>
    </g>
  </g>
</svg>
