<svg xmlns="http://www.w3.org/2000/svg" viewBox="0 0 750 692.98"><defs><style>.cls-1{isolation:isolate;}.cls-2{fill:#d5dee6;}.cls-3{fill:#d6e3ee;}.cls-4{fill:#beccd6;}.cls-5{fill:#e4ebed;}.cls-6{fill:#dfe6ea;}.cls-7{fill:#e9eeef;}.cls-8{fill:#e1e7ed;}.cls-9{fill:#d4dde3;}.cls-10{fill:#fd9d09;}.cls-11{fill:#fbcb08;}.cls-12{fill:#00595d;}.cls-13{fill:#ffcb3f;}.cls-14{fill:#300635;}.cls-15{fill:#eaf4ff;}.cls-16{fill:#fff;}.cls-17{fill:#ffcf9d;}.cls-18,.cls-23{opacity:0.5;mix-blend-mode:multiply;}.cls-19{fill:#cacaca;}.cls-20{fill:#ffd5df;}.cls-21{fill:#562529;}.cls-22{fill:#fa7c7c;}.cls-23,.cls-24{fill:#ffb180;}.cls-25{fill:#4f5885;}.cls-26{fill:#fff3ea;}.cls-27{fill:#1a1a1a;}</style></defs><title>ratings</title><g class="cls-1"><g id="Layer_2" data-name="Layer 2"><g id="Layer_1-2" data-name="Layer 1"><path class="cls-2" d="M141.73,456.17,13.39,444.51c-3.58-.32-7.86-.17-9.83,4.18-1,2.27-1.13,5.14-1.2,7.86Q-.4,571.24,4.54,686L125,689.16c7,.19,14,3.11,17.62-6.58,3.4-9.16.87-31.74,1-42.19q.65-44.1.23-88.2C143.8,544.17,142.69,456.17,141.73,456.17Z"/><path class="cls-3" d="M286.83,640.69c0-2-.08-4.29-1.41-5.39a4.09,4.09,0,0,0-2.67-.68l-95.42-1.47c-1.77,0-3.69,0-5.09,1.32-1.82,1.7-2.13,4.87-2.26,7.67-.7,14.79-.66,29.63.12,44.41,21.11,2.14,42.3-2.08,63.48-2.1a214.52,214.52,0,0,1,22.65,1.31c4.62.49,13.55,4.06,17.48-.14,3.46-3.7,2.59-12.22,2.67-17.14Z"/><path class="cls-4" d="M170.87,408.74a8,8,0,0,0-.87-4.11c-.89-1.28-2.32-1.14-3.57-.89-6.73,1.4-13.37,3.71-20.1,5.19-10.81,2.4-21.79,2.65-32.72,2.9l-25.8.59c-3.13.07-6.63-.06-8.86-3.26q3.12,70.27,1.22,140.75c-1.14,42.8-3.64,85.62-2.45,128.42a6,6,0,0,0,.7,3.23,2.46,2.46,0,0,0,2,.8l57.19,4.08c8.57.61,19.72,4.26,28.13,2,7.45-2,4.59-15.57,4.3-23.87-2-54.58.25-109.21,1.26-163.78C171.83,470.1,172,439.39,170.87,408.74Z"/><path class="cls-5" d="M137.67,684.52a5,5,0,0,1-3.26-1.25c-1-1-1.29-2.79-1.5-4.38-2.42-18.36-2.75-37-3.07-55.61q-.42-24.69-.85-49.37c-.06-3.63,0-7.69,2.06-10.29s5.4-2.8,8.37-2.79l56.62.08q-1.09,28.61-2.18,57.22c-.46,12.14-.91,24.35-.19,36.49.44,7.37,6.09,24.56,2.41,30.81-3.9,6.62-20.52,2.29-26.4,2Q153.65,686.47,137.67,684.52Z"/><path class="cls-2" d="M307.29,683.82a244.15,244.15,0,0,1-52.33-.59q-2.53-105.48-5.08-211a390.16,390.16,0,0,1,46.35-2c5.34.13,9.93-.48,11.77,6.52,1.88,7.2-.47,19.62-.65,27.23-.91,38.55-1,77.12-.68,115.69C306.7,625.1,307.73,683.78,307.29,683.82Z"/><path class="cls-6" d="M44.71,521.47c-.08,1.82-.34,4-1.66,4.76a3.61,3.61,0,0,1-1.35.39,107.65,107.65,0,0,1-11.47.92,3.86,3.86,0,0,1-3.27-1,6.49,6.49,0,0,1-1-3.78q-.4-7-.83-13.92a1.28,1.28,0,0,1,.16-.88.73.73,0,0,1,.68-.15c5.15.66,10.89.53,15.91,2C46.58,511.24,44.92,516.36,44.71,521.47Z"/><path class="cls-6" d="M26.45,535.41a1.63,1.63,0,0,0-1.08.21,2,2,0,0,0-.58.9,18.41,18.41,0,0,0-.84,6.94q0,5.85.08,11.7c5.09,0,10.57.07,15.58-1.07,4.39-1,4.75-5.17,4-10.24C42.18,533.79,32.76,535.7,26.45,535.41Z"/><path class="cls-6" d="M27.5,564a67.81,67.81,0,0,0-.5,17,1.54,1.54,0,0,0,.25.84,1,1,0,0,0,.7.27l12,1.16c4.69.45,4.73-12.15,2.63-15.91a6.86,6.86,0,0,0-5.05-3.33C36.58,563.84,27.68,563.1,27.5,564Z"/><path class="cls-6" d="M26.81,594a56.58,56.58,0,0,0,0,19.81,1.43,1.43,0,0,0,.25.69.93.93,0,0,0,.76.24l11-.06c1.31,0,2.76-.08,3.72-1.19s1.08-2.91,1.15-4.53l.42-9.25c.18-3.87.84-4.54-2.13-5.41C37.3,592.92,31.51,593.69,26.81,594Z"/><path class="cls-7" d="M171.76,580.76c-4.55-.4-9-1.85-13.6-1.66a2.24,2.24,0,0,0-2.13,1.09,3.65,3.65,0,0,0-.21,1.52c0,1.87,0,3.75,0,5.63a2.47,2.47,0,0,0,.19,1.19,1.55,1.55,0,0,0,1.59.6l12.7-.6c2.86-.14,10,1.17,12.37-.63,2.57-1.91.69-4.76-1.25-6C178.57,580,174.86,581,171.76,580.76Z"/><path class="cls-7" d="M158.34,594.17a1,1,0,0,0-.73.21,1.53,1.53,0,0,0-.27,1,47,47,0,0,0,.2,8.3,1.52,1.52,0,0,0,.31.92.93.93,0,0,0,.79.16,160.34,160.34,0,0,1,23.9-.68,1.3,1.3,0,0,0,1.37-.54,2.05,2.05,0,0,0,.15-.93c0-2.08.66-5.49-.84-6.9s-6.42-.71-8.24-.83C169.44,594.45,163.88,594.17,158.34,594.17Z"/><path class="cls-7" d="M158.25,608.36a.69.69,0,0,0-.47.2,1.06,1.06,0,0,0-.17.65,41.36,41.36,0,0,0,.28,7.79l22.51,1a1.66,1.66,0,0,0,1-.2,2.3,2.3,0,0,0,.71-1.37c2.13-8.19-2.29-7.68-7.83-8.3A64.12,64.12,0,0,0,158.25,608.36Z"/><path class="cls-8" d="M301.52,486.47c0,.58-.1,1.28-.53,1.53a1.39,1.39,0,0,1-.44.13,35.24,35.24,0,0,1-3.7.29,1.25,1.25,0,0,1-1.06-.32,2.18,2.18,0,0,1-.32-1.22l-.27-4.5a.38.38,0,0,1,.06-.28.23.23,0,0,1,.21-.05,31.71,31.71,0,0,1,5.14.66C302.13,483.16,301.59,484.81,301.52,486.47Z"/><path class="cls-8" d="M295.63,491a.6.6,0,0,0-.35.07.73.73,0,0,0-.19.29,6.19,6.19,0,0,0-.27,2.24l0,3.78a23.57,23.57,0,0,0,5-.35c1.41-.32,1.53-1.66,1.29-3.3C300.71,490.44,297.67,491.06,295.63,491Z"/><path class="cls-8" d="M296,500.19a21.54,21.54,0,0,0-.16,5.5.5.5,0,0,0,.08.27.37.37,0,0,0,.22.08l3.88.38c1.52.14,1.53-3.92.85-5.14a2.21,2.21,0,0,0-1.63-1.07C298.9,500.14,296,499.9,296,500.19Z"/><path class="cls-8" d="M295.74,509.86a18.35,18.35,0,0,0,0,6.4.42.42,0,0,0,.08.22.32.32,0,0,0,.25.08l3.53,0a1.52,1.52,0,0,0,1.2-.39,2.4,2.4,0,0,0,.37-1.46c.05-1,.09-2,.13-3,.06-1.24.28-1.46-.68-1.74A15.65,15.65,0,0,0,295.74,509.86Z"/><path class="cls-8" d="M301.52,523.19c0,.58-.1,1.28-.53,1.53a1,1,0,0,1-.44.13,35.25,35.25,0,0,1-3.7.3,1.26,1.26,0,0,1-1.06-.33,2.18,2.18,0,0,1-.32-1.22l-.27-4.49c0-.1,0-.22.06-.28s.14-.06.21-.05a32.84,32.84,0,0,1,5.14.65C302.13,519.89,301.59,521.54,301.52,523.19Z"/><path class="cls-8" d="M295.63,527.69a.48.48,0,0,0-.35.07.61.61,0,0,0-.19.29,6.14,6.14,0,0,0-.27,2.24l0,3.77a24.23,24.23,0,0,0,5-.34c1.41-.33,1.53-1.67,1.29-3.31C300.71,527.16,297.67,527.78,295.63,527.69Z"/><path class="cls-8" d="M296,536.92a21.45,21.45,0,0,0-.16,5.49.48.48,0,0,0,.08.27.33.33,0,0,0,.22.09l3.88.37c1.52.14,1.53-3.92.85-5.14a2.21,2.21,0,0,0-1.63-1.07C298.9,536.87,296,536.62,296,536.92Z"/><path class="cls-8" d="M295.74,546.59a18.29,18.29,0,0,0,0,6.39.39.39,0,0,0,.08.22.29.29,0,0,0,.25.08l3.53,0a1.45,1.45,0,0,0,1.2-.39,2.37,2.37,0,0,0,.37-1.45c.05-1,.09-2,.13-3,.06-1.25.28-1.46-.68-1.75A15.35,15.35,0,0,0,295.74,546.59Z"/><path class="cls-8" d="M292.21,486.47c0,.58-.11,1.28-.54,1.53a1.26,1.26,0,0,1-.43.13,35.45,35.45,0,0,1-3.7.29,1.24,1.24,0,0,1-1.06-.32,2.1,2.1,0,0,1-.32-1.22l-.27-4.5a.38.38,0,0,1,.05-.28.25.25,0,0,1,.22-.05,31.58,31.58,0,0,1,5.13.66C292.81,483.16,292.28,484.81,292.21,486.47Z"/><path class="cls-8" d="M286.32,491a.6.6,0,0,0-.35.07.64.64,0,0,0-.19.29,6.19,6.19,0,0,0-.27,2.24l0,3.78a23.44,23.44,0,0,0,5-.35c1.42-.32,1.54-1.66,1.3-3.3C291.4,490.44,288.36,491.06,286.32,491Z"/><path class="cls-8" d="M286.66,500.19a21.54,21.54,0,0,0-.16,5.5.43.43,0,0,0,.08.27.33.33,0,0,0,.22.08l3.88.38c1.51.14,1.53-3.92.85-5.14a2.23,2.23,0,0,0-1.63-1.07C289.59,500.14,286.72,499.9,286.66,500.19Z"/><path class="cls-8" d="M286.43,509.86a18.11,18.11,0,0,0,0,6.4.42.42,0,0,0,.08.22.31.31,0,0,0,.24.08l3.54,0a1.52,1.52,0,0,0,1.2-.39,2.54,2.54,0,0,0,.37-1.46c.05-1,.09-2,.13-3,.06-1.24.28-1.46-.68-1.74A15.65,15.65,0,0,0,286.43,509.86Z"/><path class="cls-8" d="M292.21,523.19c0,.58-.11,1.28-.54,1.53a.94.94,0,0,1-.43.13,35.47,35.47,0,0,1-3.7.3,1.25,1.25,0,0,1-1.06-.33,2.1,2.1,0,0,1-.32-1.22l-.27-4.49a.37.37,0,0,1,.05-.28.23.23,0,0,1,.22-.05,32.71,32.71,0,0,1,5.13.65C292.81,519.89,292.28,521.54,292.21,523.19Z"/><path class="cls-8" d="M286.32,527.69a.48.48,0,0,0-.35.07.55.55,0,0,0-.19.29,6.14,6.14,0,0,0-.27,2.24l0,3.77a24.09,24.09,0,0,0,5-.34c1.42-.33,1.54-1.67,1.3-3.31C291.4,527.16,288.36,527.78,286.32,527.69Z"/><path class="cls-8" d="M286.66,536.92a21.45,21.45,0,0,0-.16,5.49.41.41,0,0,0,.08.27.29.29,0,0,0,.22.09l3.88.37c1.51.14,1.53-3.92.85-5.14a2.23,2.23,0,0,0-1.63-1.07C289.59,536.87,286.72,536.62,286.66,536.92Z"/><path class="cls-8" d="M286.43,546.59a18.05,18.05,0,0,0,0,6.39.39.39,0,0,0,.08.22.27.27,0,0,0,.24.08l3.54,0a1.45,1.45,0,0,0,1.2-.39,2.51,2.51,0,0,0,.37-1.45c.05-1,.09-2,.13-3,.06-1.25.28-1.46-.68-1.75A15.35,15.35,0,0,0,286.43,546.59Z"/><path class="cls-9" d="M159.82,422.6a2.51,2.51,0,0,1-2.09,2.47,10.27,10.27,0,0,1-1.7.2c-4.81.27-9.65.42-14.49.48a10.32,10.32,0,0,1-4.14-.53,2.19,2.19,0,0,1-1.27-2l-1-7.22a.37.37,0,0,1,.2-.45,2.16,2.16,0,0,1,.86-.08c6.51.34,13.76.28,20.1,1.05C162.19,417.3,160.1,420,159.82,422.6Z"/><path class="cls-9" d="M136.76,429.82a4.71,4.71,0,0,0-1.37.11,1.78,1.78,0,0,0-.74.47A4.51,4.51,0,0,0,133.6,434c0,2,.07,4,.11,6.06,6.43,0,13.34,0,19.68-.55,5.54-.52,6-2.68,5.08-5.3C156.64,429,144.74,430,136.76,429.82Z"/><path class="cls-9" d="M138.09,444.63a14.6,14.6,0,0,0-.63,8.82.53.53,0,0,0,.31.43,2.36,2.36,0,0,0,.88.14l15.18.6c5.93.23,6-6.29,3.33-8.24-1.52-1.11-3.86-1.5-6.38-1.72C149.57,444.55,138.32,444.16,138.09,444.63Z"/><path class="cls-9" d="M137.21,460.15a12.45,12.45,0,0,0,0,10.26.61.61,0,0,0,.32.36,2.36,2.36,0,0,0,1,.12l13.84,0a11.9,11.9,0,0,0,4.7-.62,2.52,2.52,0,0,0,1.46-2.34c.17-1.6.34-3.19.52-4.79.23-2,1.07-2.35-2.68-2.8C150.47,459.61,143.15,460,137.21,460.15Z"/><path class="cls-9" d="M159.82,481.54a2.5,2.5,0,0,1-2.09,2.46,9.3,9.3,0,0,1-1.7.2c-4.81.27-9.65.43-14.49.48a10.33,10.33,0,0,1-4.14-.52,2.22,2.22,0,0,1-1.27-2l-1-7.21a.38.38,0,0,1,.2-.46,2,2,0,0,1,.86-.07c6.51.33,13.76.27,20.1,1.05C162.19,476.23,160.1,478.89,159.82,481.54Z"/><path class="cls-9" d="M123.36,422.6a2.5,2.5,0,0,1-2.09,2.47,10.27,10.27,0,0,1-1.7.2c-4.82.27-9.65.42-14.49.48a10.32,10.32,0,0,1-4.14-.53,2.19,2.19,0,0,1-1.27-2l-1-7.22a.37.37,0,0,1,.2-.45,2.14,2.14,0,0,1,.86-.08c6.5.34,13.76.28,20.1,1.05C125.73,417.3,123.64,420,123.36,422.6Z"/><path class="cls-9" d="M100.3,429.82a4.71,4.71,0,0,0-1.37.11,1.78,1.78,0,0,0-.74.47,4.51,4.51,0,0,0-1,3.59c0,2,.07,4,.11,6.06,6.43,0,13.34,0,19.68-.55,5.54-.52,6-2.68,5.08-5.3C120.18,429,108.27,430,100.3,429.82Z"/><path class="cls-9" d="M101.63,444.63a14.6,14.6,0,0,0-.63,8.82.53.53,0,0,0,.31.43,2.36,2.36,0,0,0,.88.14l15.18.6c5.93.23,6-6.29,3.33-8.24-1.52-1.11-3.87-1.5-6.38-1.72C113.11,444.55,101.86,444.16,101.63,444.63Z"/><path class="cls-9" d="M100.75,460.15a12.45,12.45,0,0,0,0,10.26.61.61,0,0,0,.32.36,2.36,2.36,0,0,0,1,.12l13.84,0a11.82,11.82,0,0,0,4.69-.62A2.52,2.52,0,0,0,122,467.9c.17-1.6.34-3.19.52-4.79.23-2,1.06-2.35-2.68-2.8C114,459.61,106.69,460,100.75,460.15Z"/><path class="cls-9" d="M123.36,481.54a2.49,2.49,0,0,1-2.09,2.46,9.3,9.3,0,0,1-1.7.2q-7.23.41-14.49.48a10.33,10.33,0,0,1-4.14-.52,2.22,2.22,0,0,1-1.27-2l-1-7.21a.38.38,0,0,1,.2-.46,2,2,0,0,1,.86-.07c6.5.33,13.76.27,20.1,1.05C125.73,476.23,123.64,478.89,123.36,481.54Z"/><path class="cls-3" d="M354.79,662.82c0-1.22-.05-2.65-.86-3.32a2.52,2.52,0,0,0-1.64-.42l-58.71-.9a4.23,4.23,0,0,0-3.13.81c-1.12,1-1.31,3-1.39,4.72-.42,9.09-.4,18.22.08,27.32,13,1.31,26-1.28,39.05-1.3a132.45,132.45,0,0,1,13.93.81c2.84.3,8.34,2.5,10.76-.08,2.12-2.28,1.59-7.52,1.64-10.55Z"/><path class="cls-4" d="M241.7,516.12a3.77,3.77,0,0,0-.54-2.15,2.15,2.15,0,0,0-2.19-.46c-4.15.73-8.23,1.94-12.37,2.72-6.66,1.25-13.41,1.38-20.14,1.51l-15.86.31c-1.93,0-4.08,0-5.45-1.71q1.92,36.81.74,73.72c-.69,22.42-2.23,44.84-1.5,67.26a2.74,2.74,0,0,0,.43,1.69,1.68,1.68,0,0,0,1.21.42l35.18,2.14c5.27.31,12.13,2.22,17.3,1,4.59-1.05,2.83-8.15,2.65-12.49-1.22-28.59.15-57.2.77-85.78C242.28,548.26,242.4,532.17,241.7,516.12Z"/><path class="cls-2" d="M265.54,571.27l-79-6.08c-2.21-.16-4.84-.09-6.05,2.18a9.39,9.39,0,0,0-.73,4.1Q178.1,631.23,181.14,691l74.1,1.66c4.3.09,8.62,1.62,10.84-3.43,2.1-4.78.54-16.54.63-22q.39-23,.14-46C266.81,617.13,266.13,571.27,265.54,571.27Z"/><path class="cls-5" d="M263,689.78a3.13,3.13,0,0,1-2-.77,4.91,4.91,0,0,1-.92-2.7c-1.49-11.29-1.69-22.77-1.89-34.2q-.27-15.2-.52-30.37c0-2.24,0-4.73,1.26-6.34s3.33-1.72,5.16-1.71l34.82,0q-.66,17.6-1.34,35.19c-.28,7.48-.55,15-.11,22.46.27,4.53,3.75,15.1,1.48,18.94-2.4,4.08-12.63,1.42-16.24,1.21Q272.88,691,263,689.78Z"/><path class="cls-2" d="M367.39,689.35a150.16,150.16,0,0,1-32.21-.37q-1.55-64.87-3.11-129.76a238.11,238.11,0,0,1,28.5-1.23c3.29.08,6.11-.29,7.24,4s-.29,12.06-.39,16.74c-.56,23.72-.59,47.45-.42,71.17C367,653.23,367.65,689.32,367.39,689.35Z"/><path class="cls-6" d="M205.85,589.48c0,1.11-.2,2.44-1,2.93a2.14,2.14,0,0,1-.83.23,64.2,64.2,0,0,1-7.05.57,2.39,2.39,0,0,1-2-.62,4,4,0,0,1-.62-2.33l-.51-8.56a.8.8,0,0,1,.1-.54.45.45,0,0,1,.42-.09c3.16.4,6.7.32,9.79,1.25C207,583.18,206,586.33,205.85,589.48Z"/><path class="cls-6" d="M194.62,598.05a1,1,0,0,0-.67.13,1.28,1.28,0,0,0-.35.56,11.18,11.18,0,0,0-.52,4.26q0,3.6,0,7.21a45.35,45.35,0,0,0,9.59-.67c2.69-.61,2.92-3.18,2.47-6.29C204.3,597.06,198.51,598.23,194.62,598.05Z"/><path class="cls-6" d="M195.26,615.64a41.69,41.69,0,0,0-.3,10.47,1,1,0,0,0,.15.52.58.58,0,0,0,.43.16l7.39.72c2.89.28,2.91-7.48,1.62-9.79a4.22,4.22,0,0,0-3.1-2.05C200.85,615.54,195.38,615.09,195.26,615.64Z"/><path class="cls-6" d="M194.84,634.08a34.61,34.61,0,0,0,0,12.18,1,1,0,0,0,.15.43.57.57,0,0,0,.47.14l6.74,0a2.86,2.86,0,0,0,2.29-.74,4.73,4.73,0,0,0,.71-2.78c.08-1.9.16-3.79.25-5.69.11-2.38.52-2.79-1.31-3.33C201.3,633.43,197.73,633.91,194.84,634.08Z"/><path class="cls-7" d="M284,626c-2.8-.24-5.56-1.14-8.37-1a1.36,1.36,0,0,0-1.31.67,2.39,2.39,0,0,0-.13.93c0,1.16,0,2.31,0,3.47a1.48,1.48,0,0,0,.12.73,1,1,0,0,0,1,.37l7.81-.37c1.77-.08,6.14.72,7.61-.38s.44-2.94-.76-3.73C288.2,625.46,285.92,626.12,284,626Z"/><path class="cls-7" d="M275.75,634.2a.58.58,0,0,0-.44.13.93.93,0,0,0-.18.58,30.07,30.07,0,0,0,.13,5.11,1,1,0,0,0,.19.57.6.6,0,0,0,.49.09,98.89,98.89,0,0,1,14.7-.41c.31,0,.68,0,.84-.34a1.19,1.19,0,0,0,.1-.57c0-1.28.4-3.38-.52-4.25s-3.95-.43-5.07-.5C282.58,634.37,279.17,634.2,275.75,634.2Z"/><path class="cls-7" d="M275.7,642.93a.42.42,0,0,0-.29.12.75.75,0,0,0-.11.4,26.41,26.41,0,0,0,.17,4.79l13.85.62a1,1,0,0,0,.65-.13,1.48,1.48,0,0,0,.44-.84c1.31-5-1.41-4.72-4.82-5.1A39,39,0,0,0,275.7,642.93Z"/><path class="cls-8" d="M363.83,567.94c0,.36-.06.79-.33.95a.63.63,0,0,1-.26.07,19.47,19.47,0,0,1-2.28.19.8.8,0,0,1-.65-.2,1.32,1.32,0,0,1-.2-.75c-.05-.92-.11-1.84-.17-2.77a.24.24,0,0,1,0-.17.12.12,0,0,1,.13,0,19.79,19.79,0,0,1,3.16.4C364.2,565.91,363.88,566.93,363.83,567.94Z"/><path class="cls-8" d="M360.21,570.71a.41.41,0,0,0-.22,0,.46.46,0,0,0-.11.18,3.72,3.72,0,0,0-.17,1.38c0,.77,0,1.55,0,2.32a13.9,13.9,0,0,0,3.09-.21c.87-.2.94-1,.8-2C363.33,570.39,361.46,570.77,360.21,570.71Z"/><path class="cls-8" d="M360.42,576.39a13.18,13.18,0,0,0-.1,3.38.22.22,0,0,0,.05.16c0,.05.08.05.14.06l2.38.23c.93.09.94-2.42.52-3.16a1.31,1.31,0,0,0-1-.66C362.22,576.36,360.45,576.21,360.42,576.39Z"/><path class="cls-8" d="M360.28,582.34a11.28,11.28,0,0,0,0,3.93.25.25,0,0,0,.06.14.16.16,0,0,0,.15,0h2.17a.91.91,0,0,0,.74-.23,1.55,1.55,0,0,0,.23-.9c0-.61.05-1.23.08-1.84,0-.77.17-.9-.42-1.07A9.15,9.15,0,0,0,360.28,582.34Z"/><path class="cls-8" d="M363.83,590.53c0,.36-.06.79-.33,1a.87.87,0,0,1-.26.08,21.88,21.88,0,0,1-2.28.18.77.77,0,0,1-.65-.2,1.32,1.32,0,0,1-.2-.75c-.05-.92-.11-1.84-.17-2.77a.24.24,0,0,1,0-.17.12.12,0,0,1,.13,0,21,21,0,0,1,3.16.4C364.2,588.5,363.88,589.52,363.83,590.53Z"/><path class="cls-8" d="M360.21,593.3a.41.41,0,0,0-.22,0,.46.46,0,0,0-.11.18,3.72,3.72,0,0,0-.17,1.38c0,.78,0,1.55,0,2.32a13.9,13.9,0,0,0,3.09-.21c.87-.2.94-1,.8-2C363.33,593,361.46,593.36,360.21,593.3Z"/><path class="cls-8" d="M360.42,599a13.18,13.18,0,0,0-.1,3.38.22.22,0,0,0,.05.16c0,.05.08.05.14.06l2.38.23c.93.09.94-2.41.52-3.16a1.31,1.31,0,0,0-1-.66C362.22,599,360.45,598.8,360.42,599Z"/><path class="cls-8" d="M360.28,604.93a11.28,11.28,0,0,0,0,3.93.25.25,0,0,0,.06.14.2.2,0,0,0,.15,0l2.17,0a.91.91,0,0,0,.74-.23,1.55,1.55,0,0,0,.23-.9c0-.61.05-1.23.08-1.84,0-.77.17-.9-.42-1.07A9.15,9.15,0,0,0,360.28,604.93Z"/><path class="cls-8" d="M358.1,567.94c0,.36-.06.79-.32.95a.68.68,0,0,1-.27.07,19.47,19.47,0,0,1-2.28.19.8.8,0,0,1-.65-.2,1.32,1.32,0,0,1-.2-.75c-.05-.92-.11-1.84-.16-2.77a.2.2,0,0,1,0-.17.12.12,0,0,1,.13,0,19.79,19.79,0,0,1,3.16.4C358.47,565.91,358.15,566.93,358.1,567.94Z"/><path class="cls-8" d="M354.48,570.71a.38.38,0,0,0-.21,0,.32.32,0,0,0-.12.18,3.72,3.72,0,0,0-.17,1.38c0,.77,0,1.55,0,2.32a13.94,13.94,0,0,0,3.09-.21c.87-.2.94-1,.8-2C357.6,570.39,355.74,570.77,354.48,570.71Z"/><path class="cls-8" d="M354.69,576.39a13.18,13.18,0,0,0-.1,3.38.38.38,0,0,0,.05.16c0,.05.09.05.14.06l2.38.23c.94.09.94-2.42.52-3.16a1.31,1.31,0,0,0-1-.66C356.49,576.36,354.73,576.21,354.69,576.39Z"/><path class="cls-8" d="M354.55,582.34a11.28,11.28,0,0,0,0,3.93.34.34,0,0,0,.05.14.16.16,0,0,0,.15,0h2.17a.91.91,0,0,0,.74-.23,1.55,1.55,0,0,0,.23-.9c0-.61.05-1.23.08-1.84,0-.77.17-.9-.42-1.07A9.15,9.15,0,0,0,354.55,582.34Z"/><path class="cls-8" d="M358.1,590.53c0,.36-.06.79-.32,1a.92.92,0,0,1-.27.08,21.88,21.88,0,0,1-2.28.18.77.77,0,0,1-.65-.2,1.32,1.32,0,0,1-.2-.75c-.05-.92-.11-1.84-.16-2.77a.2.2,0,0,1,0-.17.12.12,0,0,1,.13,0,21,21,0,0,1,3.16.4C358.47,588.5,358.15,589.52,358.1,590.53Z"/><path class="cls-8" d="M354.48,593.3a.38.38,0,0,0-.21,0,.32.32,0,0,0-.12.18,3.72,3.72,0,0,0-.17,1.38c0,.78,0,1.55,0,2.32a13.94,13.94,0,0,0,3.09-.21c.87-.2.94-1,.8-2C357.6,593,355.74,593.36,354.48,593.3Z"/><path class="cls-8" d="M354.69,599a13.18,13.18,0,0,0-.1,3.38.38.38,0,0,0,.05.16c0,.05.09.05.14.06l2.38.23c.94.09.94-2.41.52-3.16a1.31,1.31,0,0,0-1-.66C356.49,599,354.73,598.8,354.69,599Z"/><path class="cls-8" d="M354.55,604.93a11.28,11.28,0,0,0,0,3.93.34.34,0,0,0,.05.14.2.2,0,0,0,.15,0l2.17,0a.91.91,0,0,0,.74-.23,1.55,1.55,0,0,0,.23-.9c0-.61.05-1.23.08-1.84,0-.77.17-.9-.42-1.07A9.15,9.15,0,0,0,354.55,604.93Z"/><path class="cls-9" d="M234.9,525.12a1.55,1.55,0,0,1-1.29,1.52,5.81,5.81,0,0,1-1.05.12q-4.44.25-8.91.3a6.31,6.31,0,0,1-2.54-.32,1.36,1.36,0,0,1-.79-1.21c-.21-1.48-.43-3-.64-4.43a.22.22,0,0,1,.12-.28,1.15,1.15,0,0,1,.53-.05c4,.21,8.46.17,12.36.64C236.35,521.86,235.06,523.49,234.9,525.12Z"/><path class="cls-9" d="M220.71,529.56a3.25,3.25,0,0,0-.84.07,1.21,1.21,0,0,0-.46.29,2.74,2.74,0,0,0-.64,2.21l.06,3.73c3.95,0,8.21,0,12.11-.34,3.41-.32,3.69-1.65,3.12-3.27C232.94,529.05,225.62,529.66,220.71,529.56Z"/><path class="cls-9" d="M221.53,538.67a9,9,0,0,0-.39,5.43.32.32,0,0,0,.19.26,1.49,1.49,0,0,0,.54.09l9.34.37c3.65.14,3.68-3.87,2-5.07a8.16,8.16,0,0,0-3.93-1.06C228.59,538.62,221.66,538.39,221.53,538.67Z"/><path class="cls-9" d="M221,548.22a7.67,7.67,0,0,0,0,6.31.38.38,0,0,0,.2.22,1.36,1.36,0,0,0,.59.08l8.51,0a7.43,7.43,0,0,0,2.89-.38,1.57,1.57,0,0,0,.9-1.44c.11-1,.21-2,.32-3,.14-1.23.65-1.45-1.65-1.72A88.36,88.36,0,0,0,221,548.22Z"/><path class="cls-9" d="M234.9,561.38a1.55,1.55,0,0,1-1.29,1.51,5.81,5.81,0,0,1-1.05.12q-4.44.25-8.91.3a6.31,6.31,0,0,1-2.54-.32,1.35,1.35,0,0,1-.79-1.21c-.21-1.48-.43-2.95-.64-4.43a.22.22,0,0,1,.12-.28,1.3,1.3,0,0,1,.53-.05c4,.21,8.46.17,12.36.65C236.35,558.12,235.06,559.75,234.9,561.38Z"/><path class="cls-9" d="M212.47,525.12a1.55,1.55,0,0,1-1.29,1.52,5.81,5.81,0,0,1-1.05.12q-4.44.25-8.91.3a6.38,6.38,0,0,1-2.55-.32,1.37,1.37,0,0,1-.77-1.21c-.22-1.48-.44-3-.65-4.43a.22.22,0,0,1,.12-.28,1.15,1.15,0,0,1,.53-.05c4,.21,8.46.17,12.37.64C213.92,521.86,212.64,523.49,212.47,525.12Z"/><path class="cls-9" d="M198.28,529.56a3.29,3.29,0,0,0-.84.07,1,1,0,0,0-.45.29,2.78,2.78,0,0,0-.65,2.21l.06,3.73c4,0,8.21,0,12.11-.34,3.41-.32,3.69-1.65,3.12-3.27C210.51,529.05,203.19,529.66,198.28,529.56Z"/><path class="cls-9" d="M199.1,538.67a9,9,0,0,0-.39,5.43.33.33,0,0,0,.2.26,1.4,1.4,0,0,0,.53.09l9.34.37c3.65.14,3.68-3.87,2.05-5.07a8.16,8.16,0,0,0-3.93-1.06C206.16,538.62,199.24,538.39,199.1,538.67Z"/><path class="cls-9" d="M198.56,548.22a7.63,7.63,0,0,0,0,6.31.34.34,0,0,0,.19.22,1.36,1.36,0,0,0,.59.08l8.51,0a7.43,7.43,0,0,0,2.89-.38,1.57,1.57,0,0,0,.9-1.44c.11-1,.21-2,.32-3,.14-1.23.65-1.45-1.65-1.72A88.36,88.36,0,0,0,198.56,548.22Z"/><path class="cls-9" d="M212.47,561.38a1.55,1.55,0,0,1-1.29,1.51,5.81,5.81,0,0,1-1.05.12q-4.44.25-8.91.3a6.38,6.38,0,0,1-2.55-.32,1.36,1.36,0,0,1-.77-1.21c-.22-1.48-.44-2.95-.65-4.43a.22.22,0,0,1,.12-.28,1.3,1.3,0,0,1,.53-.05c4,.21,8.46.17,12.37.65C213.92,558.12,212.64,559.75,212.47,561.38Z"/><path class="cls-3" d="M446.76,646.32c0-1.7.08-3.69,1.49-4.63a5.1,5.1,0,0,1,2.82-.58L552,639.85c1.87,0,3.89,0,5.39,1.13,1.92,1.46,2.24,4.17,2.38,6.58a310.46,310.46,0,0,1-.12,38.1c-22.33,1.84-44.74-1.78-67.15-1.81-8,0-16,.45-23.94,1.13-4.88.42-14.33,3.48-18.48-.12-3.67-3.17-2.75-10.48-2.83-14.7Q447,658.24,446.76,646.32Z"/><path class="cls-4" d="M641.18,441.73a4.47,4.47,0,0,1,.93-3c.94-.93,2.46-.83,3.77-.64,7.12,1,14.14,2.7,21.26,3.79,11.43,1.75,23,1.93,34.61,2.11l27.28.43c3.31.05,7,0,9.36-2.37a1001.46,1001.46,0,0,0-1.28,102.8c1.2,31.26,3.85,62.53,2.58,93.8a2.43,2.43,0,0,1-2.81,2.94l-60.48,3c-9.06.45-20.85,3.11-29.74,1.45-7.89-1.46-4.87-11.36-4.55-17.43,2.09-39.87-.27-79.77-1.33-119.63C640.18,486.56,640,464.12,641.18,441.73Z"/><path class="cls-2" d="M600.2,518.64l135.72-8.47c3.78-.23,8.31-.13,10.39,3,1.09,1.65,1.2,3.73,1.27,5.71q2.92,83.36-2.3,166.74L617.89,688c-7.38.14-14.82,2.26-18.63-4.78-3.61-6.65-.92-23.07-1.08-30.66q-.67-32.06-.25-64.1C598,582.6,599.18,518.64,600.2,518.64Z"/><path class="cls-5" d="M604.49,683.92a4.57,4.57,0,0,0,5-4.84c2.57-15.74,2.92-31.75,3.25-47.7l.9-42.35c.07-3.12,0-6.6-2.18-8.83s-5.71-2.4-8.85-2.4l-59.87.07q1.15,24.54,2.3,49.09c.49,10.42,1,20.89.2,31.31-.46,6.32-6.44,21.07-2.55,26.43,4.13,5.67,21.7,2,27.92,1.68Q587.59,685.6,604.49,683.92Z"/><path class="cls-2" d="M425.11,683.32a317.76,317.76,0,0,0,55.35-.51q2.69-90.48,5.36-181c-16.27-1.25-32.69-2-49-1.71-5.65.11-10.5-.41-12.45,5.6-2,6.17.5,16.82.68,23.35,1,33.07,1,66.17.73,99.26C425.74,632.94,424.65,683.28,425.11,683.32Z"/><path class="cls-6" d="M702.8,544c.09,1.55.35,3.4,1.76,4.08a4,4,0,0,0,1.42.33q6,.67,12.13.79a4.7,4.7,0,0,0,3.46-.86,4.81,4.81,0,0,0,1.06-3.24q.45-6,.88-11.95a.89.89,0,0,0-.17-.75.93.93,0,0,0-.72-.13c-5.44.56-11.51.45-16.82,1.74C700.82,535.26,702.57,539.65,702.8,544Z"/><path class="cls-6" d="M722.1,556a2,2,0,0,1,1.15.18,1.74,1.74,0,0,1,.62.77,13,13,0,0,1,.88,5.95l-.09,10c-5.38,0-11.17.06-16.47-.92-4.64-.85-5-4.43-4.25-8.78C705.47,554.61,715.43,556.25,722.1,556Z"/><path class="cls-6" d="M721,580.53a47.05,47.05,0,0,1,.52,14.6,1.13,1.13,0,0,1-.26.72,1.18,1.18,0,0,1-.73.23l-12.71,1c-5,.39-5-10.42-2.79-13.65,1.27-1.84,3.24-2.49,5.35-2.85C711.39,580.39,720.81,579.75,721,580.53Z"/><path class="cls-6" d="M721.73,606.24a39.42,39.42,0,0,1,0,17,1.22,1.22,0,0,1-.27.6,1.14,1.14,0,0,1-.8.2l-11.58,0c-1.39,0-2.92-.07-3.93-1s-1.15-2.49-1.23-3.88q-.21-4-.43-7.94c-.19-3.32-.89-3.89,2.24-4.63C710.63,605.33,716.76,606,721.73,606.24Z"/><path class="cls-7" d="M568.44,594.9c4.81-.34,9.56-1.58,14.38-1.42a2.58,2.58,0,0,1,2.26.93,2.73,2.73,0,0,1,.22,1.3c0,1.61,0,3.23,0,4.84a1.86,1.86,0,0,1-.2,1,1.87,1.87,0,0,1-1.68.52L570,601.57c-3-.12-10.54,1-13.08-.54-2.72-1.64-.74-4.09,1.32-5.19C561.24,594.22,565.16,595.14,568.44,594.9Z"/><path class="cls-7" d="M582.64,606.41a1.14,1.14,0,0,1,.77.18,1.18,1.18,0,0,1,.29.81,33.26,33.26,0,0,1-.22,7.12.88.88,0,0,1-1.17.93,206.76,206.76,0,0,0-25.26-.58c-.54,0-1.18,0-1.46-.46a1.7,1.7,0,0,1-.16-.81c0-1.78-.69-4.7.9-5.92s6.79-.6,8.7-.71C570.89,606.64,576.77,606.41,582.64,606.41Z"/><path class="cls-7" d="M582.73,618.58a.63.63,0,0,1,.68.73,28.82,28.82,0,0,1-.3,6.69l-23.81.85a2.09,2.09,0,0,1-1.11-.17,2,2,0,0,1-.76-1.18c-2.24-7,2.43-6.58,8.29-7.12A84.08,84.08,0,0,1,582.73,618.58Z"/><path class="cls-8" d="M431.22,514c0,.5.11,1.1.56,1.32a1.71,1.71,0,0,0,.46.1c1.3.14,2.61.23,3.92.26a1.61,1.61,0,0,0,1.12-.28,1.58,1.58,0,0,0,.34-1c.09-1.29.19-2.57.28-3.85a.3.3,0,0,0,0-.25.33.33,0,0,0-.24,0,42.88,42.88,0,0,0-5.43.56C430.58,511.17,431.14,512.59,431.22,514Z"/><path class="cls-8" d="M437.45,517.87a.67.67,0,0,1,.37,0,.69.69,0,0,1,.2.25,4.45,4.45,0,0,1,.28,1.92l0,3.25A30.58,30.58,0,0,1,433,523c-1.49-.28-1.62-1.43-1.37-2.83C432.08,517.42,435.3,518,437.45,517.87Z"/><path class="cls-8" d="M437.09,525.78a15.25,15.25,0,0,1,.17,4.72.45.45,0,0,1-.08.23.36.36,0,0,1-.24.07l-4.1.32c-1.61.13-1.62-3.36-.9-4.4a2.41,2.41,0,0,1,1.72-.92C434,525.74,437,525.53,437.09,525.78Z"/><path class="cls-8" d="M437.33,534.08a12.71,12.71,0,0,1,0,5.49.46.46,0,0,1-.08.19.39.39,0,0,1-.26.06h-3.74a1.37,1.37,0,0,1-1.67-1.59c0-.85-.09-1.71-.13-2.56-.06-1.07-.29-1.26.72-1.5A19.79,19.79,0,0,1,437.33,534.08Z"/><path class="cls-8" d="M431.22,545.51c0,.5.11,1.1.56,1.32a1.41,1.41,0,0,0,.46.11c1.3.14,2.61.22,3.92.25a1.51,1.51,0,0,0,1.12-.28,1.57,1.57,0,0,0,.34-1c.09-1.29.19-2.57.28-3.86a.28.28,0,0,0,0-.24.29.29,0,0,0-.24,0,41.12,41.12,0,0,0-5.43.56C430.58,542.68,431.14,544.1,431.22,545.51Z"/><path class="cls-8" d="M437.45,549.37a.68.68,0,0,1,.37.06.62.62,0,0,1,.2.25,4.45,4.45,0,0,1,.28,1.92l0,3.24a30.58,30.58,0,0,1-5.32-.3c-1.49-.27-1.62-1.43-1.37-2.83C432.08,548.92,435.3,549.45,437.45,549.37Z"/><path class="cls-8" d="M437.09,557.29a15.19,15.19,0,0,1,.17,4.71.45.45,0,0,1-.08.23.43.43,0,0,1-.24.08l-4.1.32c-1.61.12-1.62-3.37-.9-4.41a2.44,2.44,0,0,1,1.72-.92C434,557.24,437,557,437.09,557.29Z"/><path class="cls-8" d="M437.33,565.59a12.66,12.66,0,0,1,0,5.48.41.41,0,0,1-.08.19.39.39,0,0,1-.26.07l-3.74,0A1.8,1.8,0,0,1,432,571a1.86,1.86,0,0,1-.4-1.25c0-.86-.09-1.71-.13-2.56-.06-1.07-.29-1.26.72-1.5A19.36,19.36,0,0,1,437.33,565.59Z"/><path class="cls-8" d="M441.07,514c0,.5.11,1.1.56,1.32a1.71,1.71,0,0,0,.46.1c1.3.14,2.61.23,3.92.26a1.57,1.57,0,0,0,1.11-.28,1.54,1.54,0,0,0,.35-1c.09-1.29.19-2.57.28-3.85a.28.28,0,0,0-.06-.25.29.29,0,0,0-.23,0,42.88,42.88,0,0,0-5.43.56C440.43,511.17,441,512.59,441.07,514Z"/><path class="cls-8" d="M447.3,517.87a.45.45,0,0,1,.56.3,4.31,4.31,0,0,1,.29,1.92l0,3.25a30.41,30.41,0,0,1-5.31-.3c-1.5-.28-1.63-1.43-1.37-2.83C441.93,517.42,445.14,518,447.3,517.87Z"/><path class="cls-8" d="M446.94,525.78a15.25,15.25,0,0,1,.17,4.72.39.39,0,0,1-.09.23.31.31,0,0,1-.24.07l-4.1.32c-1.6.13-1.61-3.36-.89-4.4a2.39,2.39,0,0,1,1.72-.92C443.84,525.74,446.87,525.53,446.94,525.78Z"/><path class="cls-8" d="M447.17,534.08a12.56,12.56,0,0,1,0,5.49.46.46,0,0,1-.08.19.39.39,0,0,1-.26.06H443.1a1.84,1.84,0,0,1-1.27-.34,1.74,1.74,0,0,1-.39-1.25l-.15-2.56c-.05-1.07-.28-1.26.73-1.5A19.72,19.72,0,0,1,447.17,534.08Z"/><path class="cls-8" d="M441.07,545.51c0,.5.11,1.1.56,1.32a1.41,1.41,0,0,0,.46.11c1.3.14,2.61.22,3.92.25a1.47,1.47,0,0,0,1.11-.28,1.53,1.53,0,0,0,.35-1c.09-1.29.19-2.57.28-3.86a.26.26,0,0,0-.06-.24c-.05-.06-.15,0-.23,0a41.12,41.12,0,0,0-5.43.56C440.43,542.68,441,544.1,441.07,545.51Z"/><path class="cls-8" d="M447.3,549.37a.68.68,0,0,1,.37.06.6.6,0,0,1,.19.25,4.31,4.31,0,0,1,.29,1.92l0,3.24a30.41,30.41,0,0,1-5.31-.3c-1.5-.27-1.63-1.43-1.37-2.83C441.93,548.92,445.14,549.45,447.3,549.37Z"/><path class="cls-8" d="M446.94,557.29a15.19,15.19,0,0,1,.17,4.71.39.39,0,0,1-.09.23.36.36,0,0,1-.24.08l-4.1.32c-1.6.12-1.61-3.37-.89-4.41a2.42,2.42,0,0,1,1.72-.92C443.84,557.24,446.87,557,446.94,557.29Z"/><path class="cls-8" d="M447.17,565.59a12.51,12.51,0,0,1,0,5.48.41.41,0,0,1-.08.19.39.39,0,0,1-.26.07l-3.74,0a1.79,1.79,0,0,1-1.27-.33,1.76,1.76,0,0,1-.39-1.25l-.15-2.56c-.05-1.07-.28-1.26.73-1.5A19.29,19.29,0,0,1,447.17,565.59Z"/><path class="cls-9" d="M652.87,454.29c.1.8.44,1.76,2.21,2.11a12.93,12.93,0,0,0,1.81.17c5.08.23,10.2.37,15.31.41a13,13,0,0,0,4.38-.44,1.92,1.92,0,0,0,1.35-1.68q.54-3.11,1.11-6.19a.31.31,0,0,0-.22-.39,2.66,2.66,0,0,0-.91-.07c-6.88.3-14.55.24-21.25.9C650.37,449.74,652.58,452,652.87,454.29Z"/><path class="cls-9" d="M677.25,460.48a5.64,5.64,0,0,1,1.45.1,1.82,1.82,0,0,1,.79.4,3.39,3.39,0,0,1,1.11,3.08c0,1.73-.07,3.47-.11,5.2-6.8,0-14.11,0-20.82-.48-5.86-.44-6.34-2.29-5.36-4.55C656.24,459.76,668.82,460.61,677.25,460.48Z"/><path class="cls-9" d="M675.86,473.19a10.38,10.38,0,0,1,.66,7.56.49.49,0,0,1-.33.37,3.23,3.23,0,0,1-.93.12l-16.06.51c-6.26.21-6.32-5.39-3.51-7.07,1.6-.95,4.09-1.28,6.75-1.47C663.72,473.12,675.61,472.79,675.86,473.19Z"/><path class="cls-9" d="M676.78,486.5a8.83,8.83,0,0,1,0,8.8.59.59,0,0,1-.33.31,3.19,3.19,0,0,1-1,.11l-14.62,0a15.48,15.48,0,0,1-5-.53,2.17,2.17,0,0,1-1.55-2c-.18-1.37-.36-2.74-.55-4.11-.24-1.72-1.13-2,2.84-2.4C662.76,486,670.5,486.38,676.78,486.5Z"/><path class="cls-9" d="M652.87,504.85c.1.8.44,1.76,2.21,2.11a12.93,12.93,0,0,0,1.81.17c5.08.23,10.2.37,15.31.41a13.23,13.23,0,0,0,4.38-.44,1.92,1.92,0,0,0,1.35-1.69q.54-3.09,1.11-6.18a.3.3,0,0,0-.22-.39,2.66,2.66,0,0,0-.91-.07c-6.88.29-14.55.24-21.25.9C650.37,500.3,652.58,502.57,652.87,504.85Z"/><path class="cls-9" d="M691.43,454.29c.1.8.44,1.76,2.21,2.11a12.79,12.79,0,0,0,1.8.17q7.63.35,15.32.41a12.94,12.94,0,0,0,4.38-.44,1.92,1.92,0,0,0,1.34-1.68l1.11-6.19a.31.31,0,0,0-.21-.39,2.63,2.63,0,0,0-.91-.07c-6.88.3-14.55.24-21.25.9C688.92,449.74,691.14,452,691.43,454.29Z"/><path class="cls-9" d="M715.81,460.48a5.64,5.64,0,0,1,1.45.1,1.78,1.78,0,0,1,.78.4,3.34,3.34,0,0,1,1.11,3.08c0,1.73-.07,3.47-.11,5.2-6.79,0-14.11,0-20.81-.48-5.86-.44-6.34-2.29-5.37-4.55C694.79,459.76,707.38,460.61,715.81,460.48Z"/><path class="cls-9" d="M714.41,473.19a10.38,10.38,0,0,1,.67,7.56.5.5,0,0,1-.34.37,3.11,3.11,0,0,1-.92.12l-16.06.51c-6.27.21-6.32-5.39-3.51-7.07,1.6-.95,4.08-1.28,6.74-1.47C702.27,473.12,714.17,472.79,714.41,473.19Z"/><path class="cls-9" d="M715.34,486.5a8.83,8.83,0,0,1,0,8.8.58.58,0,0,1-.34.31,3.13,3.13,0,0,1-1,.11l-14.63,0a15.45,15.45,0,0,1-5-.53,2.18,2.18,0,0,1-1.55-2c-.18-1.37-.37-2.74-.56-4.11-.23-1.72-1.12-2,2.84-2.4C701.31,486,709.06,486.38,715.34,486.5Z"/><path class="cls-9" d="M691.43,504.85c.1.8.44,1.76,2.21,2.11a12.79,12.79,0,0,0,1.8.17q7.63.35,15.32.41a13.2,13.2,0,0,0,4.38-.44,1.92,1.92,0,0,0,1.34-1.69l1.11-6.18a.3.3,0,0,0-.21-.39,2.63,2.63,0,0,0-.91-.07c-6.88.29-14.55.24-21.25.9C688.92,500.3,691.14,502.57,691.43,504.85Z"/><path class="cls-3" d="M378.34,654.41c0-1.43.07-3.11,1.26-3.91A4.28,4.28,0,0,1,382,650L467.24,649c1.59,0,3.3,0,4.55.95,1.63,1.23,1.9,3.53,2,5.56a263.91,263.91,0,0,1-.1,32.19c-18.87,1.55-37.8-1.5-56.73-1.52-6.76,0-13.51.37-20.23,1-4.13.35-12.11,2.94-15.62-.1-3.1-2.68-2.32-8.86-2.39-12.42Q378.53,664.48,378.34,654.41Z"/><path class="cls-2" d="M467.73,546.53c38.23-2.38,32.11-4.72,70.33-7.1,3.2-.2,7-.11,8.79,2.56a9.25,9.25,0,0,1,1.07,4.83q2.46,70.42-1.95,140.88c-35.87.65-27.42,1.25-63.29,1.91-6.24.11-12.53,1.91-15.75-4-3-5.63-.77-19.49-.91-25.91q-.57-27.07-.21-54.16C465.88,600.57,466.87,546.53,467.73,546.53Z"/><path class="cls-5" d="M471.36,686.18a5.24,5.24,0,0,0,2.91-.9,5.07,5.07,0,0,0,1.33-3.18c2.18-13.31,2.46-26.84,2.75-40.31q.38-17.89.76-35.79c.05-2.63,0-5.57-1.84-7.46s-4.82-2-7.48-2l-50.59.05,1.95,41.48a222.47,222.47,0,0,1,.17,26.46c-.39,5.34-5.45,17.8-2.16,22.33,3.49,4.79,18.34,1.66,23.6,1.42Q457.07,687.6,471.36,686.18Z"/><path class="cls-2" d="M360.06,685.67a268.49,268.49,0,0,0,46.76-.42c1.5-51,3-55.65,4.53-106.62-13.75-1.06-27.62-1.73-41.41-1.45-4.78.1-8.87-.34-10.52,4.73-1.68,5.22.42,14.22.58,19.74.81,27.94.85,9.61.61,37.57C360.58,643.11,359.66,685.64,360.06,685.67Z"/><path class="cls-6" d="M510.08,568c.07,1.32.3,2.88,1.48,3.45a3.75,3.75,0,0,0,1.21.28c3.4.38,6.82.6,10.24.67a4,4,0,0,0,2.93-.73,4.08,4.08,0,0,0,.9-2.74c.25-3.36.49-6.73.74-10.09a.75.75,0,0,0-.15-.64.77.77,0,0,0-.6-.11c-4.6.48-9.73.39-14.21,1.47C508.41,560.63,509.89,564.34,510.08,568Z"/><path class="cls-6" d="M526.39,578.15a1.68,1.68,0,0,1,1,.15,1.51,1.51,0,0,1,.52.65,11.11,11.11,0,0,1,.75,5q0,4.24-.08,8.49c-4.54,0-9.44,0-13.92-.78-3.91-.73-4.24-3.75-3.58-7.42C512.33,577,520.75,578.36,526.39,578.15Z"/><path class="cls-6" d="M525.45,598.87a39.62,39.62,0,0,1,.45,12.34,1,1,0,0,1-.22.61,1,1,0,0,1-.62.19l-10.74.84c-4.19.33-4.22-8.81-2.35-11.53a6.37,6.37,0,0,1,4.51-2.41C517.34,598.76,525.29,598.22,525.45,598.87Z"/><path class="cls-6" d="M526.07,620.59a33.28,33.28,0,0,1,0,14.36,1,1,0,0,1-.22.51,1,1,0,0,1-.68.17l-9.79,0a3.54,3.54,0,0,1-4.35-4.14c-.12-2.23-.25-4.47-.37-6.71-.16-2.8-.75-3.29,1.9-3.92C516.69,619.84,521.87,620.4,526.07,620.59Z"/><path class="cls-7" d="M440.9,611c4.06-.29,8.07-1.34,12.15-1.2a2.13,2.13,0,0,1,1.9.78,2.29,2.29,0,0,1,.19,1.1c0,1.36,0,2.73,0,4.09a1.17,1.17,0,0,1-1.59,1.3l-11.35-.44c-2.56-.1-8.91.85-11.05-.45-2.3-1.39-.62-3.46,1.12-4.39C434.81,610.39,438.12,611.17,440.9,611Z"/><path class="cls-7" d="M452.89,620.69a1,1,0,0,1,.65.15,1,1,0,0,1,.24.68,27.65,27.65,0,0,1-.18,6,.93.93,0,0,1-.28.66,1,1,0,0,1-.71.12,174.64,174.64,0,0,0-21.34-.49c-.46,0-1,0-1.23-.39a1.32,1.32,0,0,1-.14-.68c0-1.51-.58-4,.76-5s5.73-.5,7.36-.59C443,620.89,447.93,620.69,452.89,620.69Z"/><path class="cls-7" d="M453,631a.74.74,0,0,1,.42.15.68.68,0,0,1,.15.47,24.31,24.31,0,0,1-.25,5.65l-20.12.72a1.78,1.78,0,0,1-.94-.14,1.66,1.66,0,0,1-.63-1c-1.9-5.93,2-5.56,7-6A70.43,70.43,0,0,1,453,631Z"/><path class="cls-8" d="M365.21,588.91c0,.42.1.93.48,1.11a1,1,0,0,0,.39.09c1.09.12,2.2.2,3.3.22a1.3,1.3,0,0,0,.95-.24,1.28,1.28,0,0,0,.28-.88c.08-1.09.17-2.17.24-3.26a.18.18,0,0,0-.24-.24,33.22,33.22,0,0,0-4.58.48C364.67,586.52,365.15,587.71,365.21,588.91Z"/><path class="cls-8" d="M370.47,592.17a.59.59,0,0,1,.32.05.56.56,0,0,1,.16.21,3.43,3.43,0,0,1,.24,1.62c0,.92,0,1.83,0,2.74a25.85,25.85,0,0,1-4.49-.25c-1.27-.23-1.37-1.21-1.16-2.39C365.94,591.79,368.66,592.24,370.47,592.17Z"/><path class="cls-8" d="M370.17,598.86a12.67,12.67,0,0,1,.15,4,.3.3,0,0,1-.08.2.28.28,0,0,1-.2.06l-3.46.27c-1.35.1-1.37-2.84-.76-3.72a2,2,0,0,1,1.45-.78A10.83,10.83,0,0,1,370.17,598.86Z"/><path class="cls-8" d="M370.37,605.87a10.79,10.79,0,0,1,0,4.63.38.38,0,0,1-.08.17.32.32,0,0,1-.22.05h-3.15a1.15,1.15,0,0,1-1.41-1.34l-.12-2.16c0-.91-.24-1.06.62-1.27A16.66,16.66,0,0,1,370.37,605.87Z"/><path class="cls-8" d="M365.21,615.53c0,.42.1.93.48,1.11a1,1,0,0,0,.39.09c1.09.12,2.2.2,3.3.22a1.3,1.3,0,0,0,.95-.24,1.28,1.28,0,0,0,.28-.88c.08-1.09.17-2.17.24-3.26,0-.07,0-.16,0-.2a.23.23,0,0,0-.2,0,33.22,33.22,0,0,0-4.58.48C364.67,613.14,365.15,614.33,365.21,615.53Z"/><path class="cls-8" d="M370.47,618.79a.59.59,0,0,1,.32.05.56.56,0,0,1,.16.21,3.41,3.41,0,0,1,.24,1.62c0,.92,0,1.83,0,2.74a25.85,25.85,0,0,1-4.49-.25c-1.27-.23-1.37-1.21-1.16-2.4C365.94,618.41,368.66,618.86,370.47,618.79Z"/><path class="cls-8" d="M370.17,625.48a12.67,12.67,0,0,1,.15,4,.3.3,0,0,1-.08.2.28.28,0,0,1-.2.06l-3.46.27c-1.35.11-1.37-2.84-.76-3.72a2,2,0,0,1,1.45-.78A10.83,10.83,0,0,1,370.17,625.48Z"/><path class="cls-8" d="M370.37,632.49a10.79,10.79,0,0,1,0,4.63.38.38,0,0,1-.08.17.32.32,0,0,1-.22.05h-3.15a1.15,1.15,0,0,1-1.41-1.34l-.12-2.16c0-.91-.24-1.06.62-1.27A17.1,17.1,0,0,1,370.37,632.49Z"/><path class="cls-8" d="M373.53,588.91c0,.42.1.93.48,1.11a1,1,0,0,0,.39.09c1.09.12,2.2.2,3.3.22a1,1,0,0,0,1.24-1.12c.08-1.09.15-2.17.24-3.26,0-.07,0-.15-.05-.2a.22.22,0,0,0-.19,0,33.37,33.37,0,0,0-4.59.48C373,586.52,373.47,587.71,373.53,588.91Z"/><path class="cls-8" d="M378.8,592.17a.55.55,0,0,1,.31.05.5.5,0,0,1,.17.21,3.55,3.55,0,0,1,.23,1.62c0,.92,0,1.83,0,2.74a26,26,0,0,1-4.49-.25c-1.26-.23-1.37-1.21-1.16-2.39C374.26,591.79,377,592.24,378.8,592.17Z"/><path class="cls-8" d="M378.49,598.86a12.67,12.67,0,0,1,.15,4,.3.3,0,0,1-.08.2.26.26,0,0,1-.19.06l-3.47.27c-1.35.1-1.37-2.84-.76-3.72a2.07,2.07,0,0,1,1.46-.78A10.75,10.75,0,0,1,378.49,598.86Z"/><path class="cls-8" d="M378.69,605.87a10.79,10.79,0,0,1,0,4.63.38.38,0,0,1-.08.17.32.32,0,0,1-.22.05h-3.15a1.14,1.14,0,0,1-1.4-1.34c0-.72-.08-1.44-.13-2.16-.05-.91-.24-1.06.62-1.27A16.66,16.66,0,0,1,378.69,605.87Z"/><path class="cls-8" d="M373.53,615.53c0,.42.1.93.48,1.11a1,1,0,0,0,.39.09c1.09.12,2.2.2,3.3.22a1,1,0,0,0,1.24-1.12c.08-1.09.15-2.17.24-3.26,0-.07,0-.16-.05-.2a.22.22,0,0,0-.19,0,33.37,33.37,0,0,0-4.59.48C373,613.14,373.47,614.33,373.53,615.53Z"/><path class="cls-8" d="M378.8,618.79a.55.55,0,0,1,.31.05.5.5,0,0,1,.17.21,3.53,3.53,0,0,1,.23,1.62c0,.92,0,1.83,0,2.74a26,26,0,0,1-4.49-.25c-1.26-.23-1.37-1.21-1.16-2.4C374.26,618.41,377,618.86,378.8,618.79Z"/><path class="cls-8" d="M378.49,625.48a12.67,12.67,0,0,1,.15,4,.3.3,0,0,1-.08.2.26.26,0,0,1-.19.06l-3.47.27c-1.35.11-1.37-2.84-.76-3.72a2.07,2.07,0,0,1,1.46-.78A10.75,10.75,0,0,1,378.49,625.48Z"/><path class="cls-8" d="M378.69,632.49a10.79,10.79,0,0,1,0,4.63.38.38,0,0,1-.08.17.32.32,0,0,1-.22.05h-3.15a1.14,1.14,0,0,1-1.4-1.34c0-.72-.08-1.44-.13-2.16-.05-.91-.24-1.06.62-1.27A17.11,17.11,0,0,1,378.69,632.49Z"/><g id="Ratings"><path class="cls-10" d="M750,167.82l-1.07,1.08v3.84q-102.2.27-204.38-.06h-.17l-8.8,0c-3.17,0-3.17-4.92,0-4.91l7.58,0,5.71,0q97.05.28,194.08.05h7Z"/><path class="cls-10" d="M481.75,172.6h32.07c3.16,0,3.16-4.91,0-4.91H481.75c-3.17,0-3.17,4.91,0,4.91Z"/><path class="cls-10" d="M547,171.05c-.45,1.08.79-1.46,1-1.86a28,28,0,0,1,4.17-5.44c5.6-5.81,13.29-7.17,20.94-5.31a2.52,2.52,0,0,0,2.77-1.13,60.71,60.71,0,0,1,26.81-22.93c8.52-3.59,19.35-4.7,28.26-1.95a13.42,13.42,0,0,1,5.5,3.24c.43.43,1.4,2.27,1.08,1.41,1.07,2.95,5.83,1.67,4.74-1.31-4.61-12.66-26.32-10.27-35.87-7.82-14.06,3.6-27.08,14.71-34.75,26.87l2.77-1.12c-13.54-3.28-26.73,3.11-32.17,16.05-1.22,2.91,3.53,4.17,4.74,1.3Z"/><path class="cls-10" d="M738.58,141.31a40.56,40.56,0,0,0-11.67,6.84c-2,1.7-5.58-.57-3.85-3,4.67-6.5,2-18.07-1.19-24.58-6-12-17.72-16.81-30.66-13.8-18.44,4.3-35.86,15.82-48.83,30.24-.45.49-.89,1-1.31,1.49h0a102.82,102.82,0,0,0-7.07,9.13c-1.78,2.59-6,.14-4.24-2.48a99.14,99.14,0,0,1,7-9c1.14-1.3,2.32-2.57,3.52-3.82,3-3.08,6.08-6,9.28-8.73,13.07-11.18,30.4-22.17,48.18-22.61,13.27-.33,24.2,7,29.26,19.21,2.23,5.4,4.07,13,3.18,19.61a36.07,36.07,0,0,1,10.4-4.26,28.9,28.9,0,0,1,8.31-.55v4.85A25.74,25.74,0,0,0,738.58,141.31Z"/><path class="cls-10" d="M750,167.82l-1.07,1.08c-1.09,1.08-2.14,2.09-3.1,3-2.32,2.16-5.8-1.3-3.48-3.47l.6-.58a70.13,70.13,0,0,0,6-6.44v6.43Z"/><path class="cls-11" d="M284.43,401a1,1,0,0,1-1-1v-5.66a1,1,0,1,1,2,0V400A1,1,0,0,1,284.43,401Z"/><path class="cls-11" d="M290.55,404a1,1,0,0,1-.61-1.82l4.51-3.43a1,1,0,0,1,1.42.2,1,1,0,0,1-.2,1.41l-4.51,3.43A1,1,0,0,1,290.55,404Z"/><path class="cls-11" d="M297.29,412.25a.84.84,0,0,1-.27,0l-5.46-1.52a1,1,0,0,1,.55-1.95l5.45,1.53a1,1,0,0,1-.27,2Z"/><path class="cls-11" d="M289.36,421.08a1,1,0,0,1-.94-.64l-2.09-5.27a1,1,0,0,1,.56-1.31,1,1,0,0,1,1.32.57l2.08,5.26a1,1,0,0,1-.56,1.31A1,1,0,0,1,289.36,421.08Z"/><path class="cls-11" d="M277.53,420.1A1,1,0,0,1,277,420a1,1,0,0,1-.35-1.39l2.93-4.85a1,1,0,1,1,1.73,1.05l-2.93,4.84A1,1,0,0,1,277.53,420.1Z"/><path class="cls-11" d="M271.15,410.08a1,1,0,0,1-.11-2l5.64-.6a1,1,0,1,1,.21,2l-5.63.6Z"/><path class="cls-11" d="M279.16,403.07a1,1,0,0,1-.74-.32l-3.88-4.12a1,1,0,0,1,0-1.43,1,1,0,0,1,1.43,0l3.88,4.13a1,1,0,0,1-.73,1.7Z"/><path class="cls-12" d="M198.58,329.93a1,1,0,0,1-1-1v-5.67a1,1,0,0,1,2,0v5.67A1,1,0,0,1,198.58,329.93Z"/><path class="cls-12" d="M204.7,333a1,1,0,0,1-.81-.4,1,1,0,0,1,.19-1.41l4.51-3.43a1,1,0,0,1,1.23,1.61l-4.51,3.43A1.06,1.06,0,0,1,204.7,333Z"/><path class="cls-12" d="M211.44,341.2a.84.84,0,0,1-.27,0l-5.46-1.52a1,1,0,1,1,.54-1.95l5.46,1.52a1,1,0,0,1-.27,2Z"/><path class="cls-12" d="M203.5,350a1,1,0,0,1-.94-.64l-2.09-5.26a1,1,0,0,1,1.88-.75l2.09,5.27a1,1,0,0,1-.57,1.31A.94.94,0,0,1,203.5,350Z"/><path class="cls-12" d="M191.67,349a1.13,1.13,0,0,1-.52-.14,1,1,0,0,1-.34-1.39l2.93-4.85a1,1,0,1,1,1.73,1l-2.93,4.84A1,1,0,0,1,191.67,349Z"/><path class="cls-12" d="M185.3,339a1,1,0,0,1-.11-2l5.64-.6a1,1,0,0,1,.21,2l-5.63.6Z"/><path class="cls-12" d="M193.3,332a1,1,0,0,1-.73-.32l-3.89-4.12a1,1,0,1,1,1.47-1.39l3.89,4.12a1,1,0,0,1,0,1.43A1,1,0,0,1,193.3,332Z"/><path class="cls-11" d="M551.76,463.47a1,1,0,0,1-1.43.1l-4.26-3.73a1,1,0,0,1-.1-1.42,1,1,0,0,1,1.43-.1l4.26,3.73A1,1,0,0,1,551.76,463.47Z"/><path class="cls-11" d="M558.07,460.86a1,1,0,0,1-1.77-.73l.39-5.65a1,1,0,1,1,2,.14l-.39,5.65A1,1,0,0,1,558.07,460.86Z"/><path class="cls-11" d="M568.71,461.2a.72.72,0,0,1-.21.18l-4.73,3.11a1,1,0,1,1-1.12-1.69l4.74-3.1a1,1,0,0,1,1.4.29A1,1,0,0,1,568.71,461.2Z"/><path class="cls-11" d="M570.13,473a1,1,0,0,1-1.1.29l-5.33-1.9a1,1,0,1,1,.67-1.9l5.34,1.89a1,1,0,0,1,.61,1.29A.92.92,0,0,1,570.13,473Z"/><path class="cls-11" d="M561.61,481.25a1.08,1.08,0,0,1-.45.3,1,1,0,0,1-1.28-.66l-1.72-5.39a1,1,0,1,1,1.93-.62l1.72,5.39A1,1,0,0,1,561.61,481.25Z"/><path class="cls-11" d="M549.88,479.46a1,1,0,0,1-1.59-1.24l3.25-4.64a1,1,0,0,1,1.66,1.16l-3.26,4.63Z"/><path class="cls-11" d="M549.87,468.82a1,1,0,0,1-.73.35l-5.66.21a1,1,0,0,1-.08-2l5.67-.21a1,1,0,0,1,1,1A1,1,0,0,1,549.87,468.82Z"/><path class="cls-12" d="M526.76,343.36a1,1,0,0,1-1.43.1l-4.26-3.73a1,1,0,1,1,1.33-1.52l4.26,3.73A1,1,0,0,1,526.76,343.36Z"/><path class="cls-12" d="M533.08,340.75a1,1,0,0,1-1.78-.73l.39-5.65a1,1,0,1,1,2,.14l-.39,5.65A1,1,0,0,1,533.08,340.75Z"/><path class="cls-12" d="M543.71,341.09a.91.91,0,0,1-.21.18l-4.73,3.11a1,1,0,1,1-1.11-1.69l4.73-3.11a1,1,0,0,1,1.32,1.51Z"/><path class="cls-12" d="M545.14,352.88a1,1,0,0,1-1.1.28l-5.34-1.89a1,1,0,1,1,.67-1.9l5.34,1.89a1,1,0,0,1,.61,1.29A1.06,1.06,0,0,1,545.14,352.88Z"/><path class="cls-12" d="M536.61,361.14a1,1,0,0,1-1.72-.36l-1.73-5.39a1,1,0,1,1,1.93-.62l1.72,5.39A1,1,0,0,1,536.61,361.14Z"/><path class="cls-12" d="M524.88,359.35a1,1,0,0,1-1.59-1.25l3.25-4.63a1,1,0,1,1,1.66,1.16L525,359.26Z"/><path class="cls-12" d="M524.87,348.71a1,1,0,0,1-.73.35l-5.66.21a1,1,0,0,1-.07-2l5.66-.22a1,1,0,0,1,.8,1.68Z"/><path class="cls-11" d="M426.06,107.77a1,1,0,0,1-1.14.87l-5.61-.74a1,1,0,0,1-.87-1.14,1,1,0,0,1,1.14-.87l5.61.75A1,1,0,0,1,426.06,107.77Z"/><path class="cls-11" d="M429.88,102.11a1,1,0,0,1-1.88.36l-2.81-4.92a1,1,0,0,1,.38-1.38,1,1,0,0,1,1.38.38l2.8,4.92A1,1,0,0,1,429.88,102.11Z"/><path class="cls-11" d="M438.93,96.51a.92.92,0,0,1-.08.27L436.63,102a1,1,0,1,1-1.86-.8L437,96a1,1,0,0,1,1.93.52Z"/><path class="cls-11" d="M446.63,105.55a1,1,0,0,1-.76.84l-5.49,1.38a1,1,0,1,1-.49-2l5.49-1.38a1,1,0,0,1,1.23.74A1,1,0,0,1,446.63,105.55Z"/><path class="cls-11" d="M444.09,117.14a1,1,0,0,1-.21.5,1,1,0,0,1-1.42.16L438,114.25a1,1,0,0,1-.16-1.42,1,1,0,0,1,1.43-.15l4.41,3.54A1,1,0,0,1,444.09,117.14Z"/><path class="cls-11" d="M433.33,122.14a1,1,0,0,1-2-.16l.16-5.67a1,1,0,0,1,1-1,1,1,0,0,1,1,1l-.15,5.66A.41.41,0,0,0,433.33,122.14Z"/><path class="cls-11" d="M427.44,113.28a1,1,0,0,1-.42.69l-4.59,3.3a1,1,0,1,1-1.19-1.64l4.61-3.31a1,1,0,0,1,1.4.23A1,1,0,0,1,427.44,113.28Z"/><path class="cls-12" d="M267.28,159.49a1,1,0,0,1-1.13.87l-5.62-.75a1,1,0,0,1-.87-1.14,1,1,0,0,1,1.14-.87l5.62.75A1,1,0,0,1,267.28,159.49Z"/><path class="cls-12" d="M271.1,153.82a1,1,0,0,1-1.88.37l-2.8-4.92a1,1,0,0,1,.38-1.39,1,1,0,0,1,1.38.39l2.8,4.92A1,1,0,0,1,271.1,153.82Z"/><path class="cls-12" d="M280.15,148.23a.77.77,0,0,1-.07.26l-2.23,5.21a1,1,0,1,1-1.86-.79l2.23-5.21a1,1,0,0,1,1.93.53Z"/><path class="cls-12" d="M287.86,157.26a1,1,0,0,1-.76.85l-5.49,1.37a1,1,0,0,1-.5-2l5.5-1.37a1,1,0,0,1,1.25,1.11Z"/><path class="cls-12" d="M285.32,168.86a1,1,0,0,1-.21.5,1,1,0,0,1-1.42.15L279.27,166a1,1,0,0,1,1.26-1.58l4.42,3.54A1,1,0,0,1,285.32,168.86Z"/><path class="cls-12" d="M274.55,173.85a1,1,0,0,1-1,.88,1,1,0,0,1-1-1l.15-5.66a1,1,0,1,1,2,.05l-.15,5.66A.37.37,0,0,1,274.55,173.85Z"/><path class="cls-12" d="M268.66,165a1,1,0,0,1-.41.69l-4.6,3.31a1,1,0,0,1-1.18-1.64l4.6-3.31a1,1,0,0,1,1.41.23A1,1,0,0,1,268.66,165Z"/><path class="cls-10" d="M301.29,290.67c4.89,0,4.89-7.59,0-7.59s-4.9,7.59,0,7.59Z"/><path class="cls-10" d="M237.68,167c4.9,0,4.9-7.59,0-7.59s-4.9,7.59,0,7.59Z"/><path class="cls-10" d="M517.07,446c4.9,0,4.9-7.59,0-7.59s-4.9,7.59,0,7.59Z"/><path class="cls-10" d="M355.28,554.83c4.9,0,4.9-7.59,0-7.59s-4.9,7.59,0,7.59Z"/><path class="cls-10" d="M453.44,266c9.8,0,9.8-15.19,0-15.19s-9.79,15.19,0,15.19Z"/><path class="cls-10" d="M383.27,150.67c9.79,0,9.79-15.19,0-15.19s-9.8,15.19,0,15.19Z"/><path class="cls-10" d="M428.89,527.3c9.8,0,9.8-15.19,0-15.19s-9.8,15.19,0,15.19Z"/><path class="cls-10" d="M221.05,476.9c9.79,0,9.79-15.19,0-15.19s-9.8,15.19,0,15.19Z"/><path class="cls-13" d="M191.37,76.82c6-2.25,12.56,16,18.77,17.71s21.23-10.48,25.23-5.42-11.31,16.88-11,23.33,16.53,16.94,13,22.32-19.55-5.55-25.6-3.3-11,21-17.23,19.22-.77-20.3-4.78-25.36-23.33-4-23.6-10.44,19.08-7,22.65-12.39-3.41-23.42,2.64-25.67"/><path class="cls-14" d="M195.28,152.76a5.16,5.16,0,0,1-1.35-.18c-4.9-1.37-4.75-8.35-4.62-15.1.09-4.33.19-9.23-1.17-10.94s-6.15-2.73-10.38-3.64c-6.6-1.4-13.43-2.86-13.64-7.94s6.47-7.11,12.93-9.06c4.14-1.25,8.83-2.67,10-4.49s.7-6.7.25-11c-.7-6.72-1.42-13.66,3.34-15.43a5,5,0,0,1,1.74-.32c4,0,7.36,4.77,10.87,9.82,2.47,3.55,5.28,7.57,7.38,8.16a3.33,3.33,0,0,0,.84.1c2.36,0,6.09-1.66,9.7-3.26,4.13-1.84,8-3.57,11.19-3.57a5.42,5.42,0,0,1,4.51,2c3.16,4-1,9.54-5.13,14.93-2.62,3.44-5.58,7.35-5.49,9.53s3.37,5.83,6.27,9.05c4.51,5,9.18,10.21,6.36,14.45a5.71,5.71,0,0,1-5.12,2.38h0c-3,0-6.72-1.29-10.65-2.66-3.48-1.2-7.07-2.45-9.46-2.45a4,4,0,0,0-1.31.18c-2,.77-4.5,5-6.66,8.76C202.52,147.56,199.51,152.76,195.28,152.76Zm-2.86-74.17a1,1,0,0,0-.37.07c-1.91.71-1.27,6.85-.8,11.34.57,5.44,1.1,10.58-.89,13.58s-6.94,4.49-12.17,6.08C173.87,111,168,112.75,168,114.79s6.13,3.33,10.54,4.27c5.35,1.14,10.41,2.22,12.64,5s2.13,8,2,13.46c-.09,4.51-.22,10.69,1.75,11.23a1,1,0,0,0,.29.05c2,0,4.89-5.06,7-8.75,2.73-4.74,5.32-9.21,8.69-10.47a7.65,7.65,0,0,1,2.68-.43c3.06,0,7,1.36,10.75,2.67,3.45,1.2,7,2.44,9.36,2.44h0c1.44,0,1.74-.46,1.85-.63,1.13-1.7-3-6.29-6-9.65-3.66-4.07-7.12-7.91-7.27-11.5s3-7.71,6.28-12.08c2.72-3.59,6.45-8.51,5.19-10.11-.12-.15-.39-.5-1.44-.5-2.32,0-6,1.65-9.6,3.24-4.16,1.85-8.09,3.59-11.29,3.59a7.16,7.16,0,0,1-1.9-.24c-3.46-1-6.41-5.21-9.54-9.7C197.68,83.29,194.41,78.59,192.42,78.59Z"/><path class="cls-13" d="M269.72,24.65c6.16-1.92,11.68,16.63,17.79,18.7S309.27,34,313,39.3,300.79,55.54,300.71,62s15.59,17.82,11.73,23-19.22-6.59-25.38-4.67-12.13,20.33-18.24,18.26.33-20.32-3.4-25.59-23.08-5.25-23-11.71,19.43-6,23.29-11.13-2.14-23.58,4-25.5"/><path class="cls-14" d="M269.79,100.7a5.15,5.15,0,0,1-1.6-.26c-4.82-1.63-4.3-8.59-3.8-15.33.32-4.31.69-9.2-.57-11s-6-3.07-10.17-4.2c-6.52-1.76-13.26-3.58-13.2-8.67s6.84-6.74,13.4-8.35c4.21-1,9-2.19,10.27-3.94s1.06-6.65.85-11c-.34-6.74-.69-13.71,4.17-15.23a5,5,0,0,1,1.48-.22c4.17,0,7.29,5.05,10.6,10.39,2.27,3.68,4.85,7.85,6.92,8.55a3.57,3.57,0,0,0,1.12.15c2.39,0,6-1.39,9.58-2.74,4-1.52,7.8-3,10.87-3a5.62,5.62,0,0,1,4.9,2.23c2.93,4.15-1.58,9.48-5.94,14.63-2.8,3.31-6,7.05-6,9.23s3.05,6,5.76,9.37c4.24,5.26,8.62,10.7,5.58,14.77a5.53,5.53,0,0,1-4.72,2.12c-3.11,0-7-1.57-11-3.24-3.57-1.46-7.26-3-9.64-3a3.53,3.53,0,0,0-1,.12c-2.08.65-4.76,4.76-7.13,8.38C277.11,95.78,273.9,100.7,269.79,100.7Zm.83-74.23a.85.85,0,0,0-.31.06c-1.95.6-1.64,6.77-1.42,11.27.27,5.47.53,10.64-1.62,13.52s-7.17,4.11-12.48,5.41c-4.39,1.07-10.39,2.54-10.41,4.58s5.94,3.65,10.29,4.83c5.28,1.43,10.27,2.78,12.35,5.72s1.7,8.09,1.29,13.55c-.34,4.49-.79,10.65,1.14,11.31a1,1,0,0,0,.34.06c2,0,5.13-4.83,7.43-8.36,3-4.58,5.82-8.91,9.26-10a7.25,7.25,0,0,1,2.15-.3c3.15,0,7,1.58,11.13,3.26,3.54,1.45,7.2,2.95,9.54,2.95,1.17,0,1.46-.39,1.57-.53,1.22-1.64-2.66-6.45-5.49-10-3.43-4.27-6.67-8.29-6.63-11.89s3.39-7.54,6.92-11.71c2.92-3.45,6.91-8.16,5.73-9.83-.11-.15-.41-.57-1.69-.57-2.35,0-6,1.38-9.48,2.72-4,1.54-7.86,3-11,3a7.39,7.39,0,0,1-2.38-.36c-3.4-1.15-6.12-5.55-9-10.2C275.65,31.41,272.6,26.47,270.62,26.47Z"/><path class="cls-13" d="M545.24,76.82c-6-2.25-12.56,16-18.78,17.71s-21.22-10.48-25.23-5.42,11.31,16.88,11,23.33-16.52,16.94-12.95,22.32,19.55-5.55,25.6-3.3,11,21,17.22,19.22.77-20.3,4.78-25.36,23.33-4,23.61-10.44-19.08-7-22.65-12.39,3.41-23.42-2.64-25.67"/><path class="cls-14" d="M541.33,152.76h0c-4.24,0-7.25-5.2-10.43-10.7-2.17-3.75-4.62-8-6.67-8.76a3.91,3.91,0,0,0-1.3-.18c-2.4,0-6,1.25-9.47,2.45-3.92,1.37-7.63,2.66-10.65,2.66a5.73,5.73,0,0,1-5.13-2.38c-2.81-4.24,1.86-9.43,6.37-14.45,2.89-3.22,6.17-6.86,6.26-9.05s-2.87-6.09-5.48-9.53c-4.08-5.39-8.3-10.95-5.14-14.93a5.43,5.43,0,0,1,4.52-2c3.15,0,7.06,1.73,11.19,3.57,3.6,1.6,7.33,3.26,9.7,3.26a3.39,3.39,0,0,0,.84-.1c2.1-.59,4.9-4.61,7.37-8.16,3.51-5,6.83-9.82,10.87-9.82a4.92,4.92,0,0,1,1.74.32c4.77,1.77,4,8.71,3.34,15.43-.45,4.3-1,9.18.25,11s5.91,3.24,10,4.49c6.46,1.95,13.14,4,12.93,9.06s-7,6.54-13.65,7.94c-4.23.91-9,1.93-10.38,3.64s-1.25,6.62-1.17,10.94c.14,6.75.28,13.73-4.62,15.1A5.09,5.09,0,0,1,541.33,152.76Zm-18.4-23.57a7.59,7.59,0,0,1,2.67.43c3.37,1.26,6,5.73,8.7,10.47,2.13,3.69,5.06,8.74,7,8.75h0a1,1,0,0,0,.29-.05c2-.54,1.84-6.72,1.74-11.23-.11-5.47-.21-10.64,2-13.46s7.29-3.89,12.65-5c4.41-.94,10.45-2.23,10.53-4.27s-5.82-3.83-10.14-5.13c-5.24-1.59-10.19-3.08-12.18-6.08s-1.45-8.14-.88-13.58c.47-4.49,1.11-10.63-.81-11.34a.94.94,0,0,0-.37-.07c-2,0-5.26,4.7-7.64,8.13-3.13,4.49-6.08,8.74-9.55,9.7a7,7,0,0,1-1.89.24c-3.2,0-7.14-1.74-11.3-3.59-3.58-1.59-7.27-3.24-9.59-3.24-1,0-1.33.35-1.44.49-1.27,1.61,2.46,6.53,5.19,10.12,3.3,4.36,6.42,8.48,6.27,12.08S510.63,120,507,124c-3,3.36-7.15,8-6,9.65.12.17.42.63,1.86.63,2.35,0,5.92-1.24,9.37-2.44C516,130.55,519.87,129.19,522.93,129.19Z"/><path class="cls-13" d="M466.88,24.65c-6.16-1.92-11.67,16.63-17.79,18.7S427.33,34,423.6,39.3,435.81,55.54,435.89,62,420.3,79.82,424.16,85s19.22-6.59,25.39-4.67,12.12,20.33,18.24,18.26-.33-20.32,3.4-25.59,23.08-5.25,23-11.71-19.43-6-23.28-11.13,2.13-23.58-4-25.5"/><path class="cls-14" d="M466.82,100.7h0c-4.11,0-7.33-4.92-10.73-10.13-2.36-3.62-5-7.73-7.13-8.38a3.48,3.48,0,0,0-1-.12c-2.37,0-6.07,1.51-9.64,3-4.07,1.67-7.92,3.24-11,3.24a5.51,5.51,0,0,1-4.72-2.12c-3-4.07,1.34-9.51,5.57-14.77C430.88,68,434,64.2,433.93,62s-3.2-5.92-6-9.23c-4.36-5.15-8.87-10.48-5.93-14.63a5.61,5.61,0,0,1,4.9-2.23c3.06,0,6.85,1.45,10.87,3,3.53,1.35,7.18,2.74,9.57,2.74h0a3.53,3.53,0,0,0,1.12-.15c2.07-.7,4.65-4.87,6.93-8.55,3.3-5.34,6.43-10.39,10.59-10.39a5.07,5.07,0,0,1,1.49.22c4.85,1.52,4.5,8.49,4.17,15.23-.22,4.32-.46,9.22.84,11s6.07,2.92,10.27,3.94c6.56,1.61,13.34,3.27,13.41,8.35s-6.68,6.91-13.2,8.67c-4.18,1.13-8.91,2.41-10.17,4.2s-.9,6.67-.58,11c.5,6.73,1,13.7-3.79,15.33A5.15,5.15,0,0,1,466.82,100.7ZM448,78.14a7.28,7.28,0,0,1,2.16.3c3.43,1.07,6.26,5.4,9.25,10,2.3,3.53,5.45,8.35,7.44,8.36h0a1.06,1.06,0,0,0,.34-.06c1.93-.66,1.47-6.82,1.14-11.31-.41-5.46-.8-10.62,1.28-13.56s7.07-4.28,12.35-5.71c4.36-1.18,10.32-2.79,10.3-4.83s-6-3.51-10.41-4.58c-5.32-1.3-10.34-2.53-12.49-5.41s-1.89-8-1.62-13.52c.23-4.5.54-10.67-1.41-11.27a.91.91,0,0,0-.32-.06c-2,0-5,4.94-7.25,8.54-2.88,4.65-5.6,9.05-9,10.2a7.34,7.34,0,0,1-2.38.36h0c-3.11,0-6.93-1.45-11-3-3.5-1.34-7.13-2.72-9.47-2.72-1.29,0-1.58.42-1.69.57-1.18,1.67,2.81,6.38,5.72,9.83,3.54,4.17,6.88,8.12,6.92,11.71s-3.19,7.62-6.63,11.89c-2.83,3.51-6.7,8.32-5.48,10,.1.14.39.53,1.57.53,2.33,0,6-1.5,9.53-2.95C441,79.72,444.82,78.14,448,78.14Z"/><path class="cls-13" d="M368.62,2c6.45-.12,6.57,19.23,11.87,22.93S404,22,406.1,28.1,389.84,40.3,388,46.47s10,21.46,4.86,25.36-16.62-11.7-23.08-11.57S352.42,76.4,347.13,72.71s6-19.43,3.87-25.52-20.7-11.48-18.82-17.66,20.32-.31,25.46-4.2,4.53-23.24,11-23.37"/><path class="cls-14" d="M348.94,75.22a5,5,0,0,1-2.93-.9c-4.17-2.91-1.73-9.45.63-15.78,1.51-4,3.22-8.65,2.51-10.71s-4.9-4.61-8.6-6.86c-5.77-3.51-11.73-7.14-10.25-12,1.34-4.42,7.4-4.42,10.32-4.42,1.57,0,3.25.07,4.88.14s3.23.14,4.73.14c1.23,0,4.83,0,6.23-1.06,1.74-1.32,2.87-6.09,3.87-10.3C361.89,6.89,363.5.1,368.58,0h.1c5,0,6.87,6.68,8.67,13.13,1.16,4.17,2.47,8.9,4.26,10.15.81.56,2.42.85,4.8.85,1.89,0,4.08-.18,6.19-.36s4.45-.36,6.48-.36,7.47,0,8.87,4.05c1.67,4.81-4.15,8.67-9.78,12.4-3.6,2.39-7.69,5.1-8.33,7.19s1.26,6.61,2.93,10.6c2.6,6.23,5.29,12.67,1.23,15.74a5,5,0,0,1-3.12,1h0c-3.51,0-7.48-3.15-11.69-6.49-3.36-2.67-7.17-5.7-9.37-5.7s-5.94,3.24-9.22,6.06c-4.16,3.57-8.09,6.94-11.66,6.94Zm-8.32-46.75c-4,0-6.23.55-6.56,1.63-.6,1.95,4.68,5.17,8.53,7.51,4.68,2.85,9.09,5.54,10.27,8.93s-.63,8.25-2.54,13.37c-1.58,4.23-3.74,10-2.06,11.19a1.14,1.14,0,0,0,.68.19c2.12,0,5.82-3.18,9.1-6,4.15-3.57,8.07-6.94,11.67-7h.11c3.57,0,7.57,3.18,11.82,6.55,3.33,2.65,7.1,5.65,9.24,5.65a1.18,1.18,0,0,0,.75-.23c1.63-1.23-.75-6.93-2.49-11.1-2.11-5-4.1-9.82-3.06-13.26s5.36-6.29,9.92-9.32c3.76-2.49,8.91-5.9,8.24-7.83-.32-.92-2.1-1.41-5.16-1.41-1.87,0-4.05.18-6.16.35s-4.46.36-6.51.36c-3.29,0-5.52-.49-7.05-1.55-2.95-2.06-4.33-7-5.8-12.31-1.2-4.33-2.85-10.26-4.88-10.26s-3.49,6.05-4.53,10.44c-1.26,5.32-2.45,10.35-5.32,12.52-1.72,1.3-4.29,1.86-8.6,1.86h0c-1.59,0-3.27-.07-4.9-.14S342.11,28.47,340.62,28.47Z"/><path class="cls-15" d="M328.7,444.21h63.94a23.63,23.63,0,0,0,9.06-18.34V307.67c0-13.62-12.25-24.66-27.35-24.66H347c-15.1,0-27.35,11-27.35,24.66v118.2A23.63,23.63,0,0,0,328.7,444.21Z"/><path class="cls-14" d="M326.3,444.21h5.09c-6.17-4.22-10.15-10.87-10.15-18.34V307.67c0-12.72,11.55-23.07,25.75-23.07h27.36c14.2,0,25.75,10.35,25.75,23.07v118.2c0,7.47-4,14.12-10.14,18.34h5.09a25,25,0,0,0,8.25-18.34V307.67c0-14.48-13-26.26-28.95-26.26H347c-16,0-28.94,11.78-28.94,26.26v118.2A25,25,0,0,0,326.3,444.21Z"/><path class="cls-16" d="M351.7,302.56H368c6.56,0,11.88-4.1,11.88-9.17v-6a49.78,49.78,0,0,0-19.9-3.27,48.49,48.49,0,0,0-20.2,4.36v4.91C339.82,298.46,345.14,302.56,351.7,302.56Z"/><path class="cls-14" d="M368,304.34H351.7c-7.53,0-13.65-4.91-13.65-10.95v-6l1-.49A50.5,50.5,0,0,1,360,282.35h1.37a50.57,50.57,0,0,1,19.23,3.41l1.11.45v7.19C381.7,299.43,375.57,304.34,368,304.34ZM341.6,289.62v3.77c0,4.08,4.53,7.4,10.1,7.4H368c5.57,0,10.11-3.32,10.11-7.4v-4.78a49.2,49.2,0,0,0-18.09-2.71A47.6,47.6,0,0,0,341.6,289.62Z"/><path class="cls-17" d="M373.11,292.08c0,4.58-3.43,8.3-7.69,8.3H354.85c-4.25,0-7.69-3.72-7.69-8.3V268.24c0-4.58,3.44-8.3,7.69-8.3h10.57c4.26,0,7.69,3.72,7.69,8.3Z"/><path class="cls-14" d="M365.42,302.11H354.85c-5.12,0-9.29-4.5-9.29-10V268.24c0-5.52,4.17-10,9.29-10h10.57c5.13,0,9.3,4.5,9.3,10v23.84C374.72,297.61,370.55,302.11,365.42,302.11Zm-10.57-40.44a6.35,6.35,0,0,0-6.08,6.57v23.84a6.35,6.35,0,0,0,6.08,6.57h10.57a6.35,6.35,0,0,0,6.09-6.57V268.24a6.35,6.35,0,0,0-6.09-6.57Z"/><g class="cls-18"><path class="cls-19" d="M365.42,259.82H354.85a7.69,7.69,0,0,0-7.69,7.69v10.57a7.69,7.69,0,0,0,7.69,7.7h10.57a7.69,7.69,0,0,0,7.69-7.7V267.51A7.68,7.68,0,0,0,365.42,259.82Z"/></g><path class="cls-17" d="M328.57,230a12.82,12.82,0,1,1-12.81-12.82A12.81,12.81,0,0,1,328.57,230Z"/><path class="cls-14" d="M315.76,244.44A14.42,14.42,0,1,1,330.17,230,14.44,14.44,0,0,1,315.76,244.44Zm0-25.64A11.22,11.22,0,1,0,327,230,11.23,11.23,0,0,0,315.76,218.8Z"/><path class="cls-20" d="M308.71,228.74s-.65-5.13,6.08-5.45"/><path class="cls-14" d="M308.7,230.33a1.6,1.6,0,0,1-1.59-1.4,6.42,6.42,0,0,1,1.44-4.66c1.33-1.58,3.41-2.45,6.17-2.58a1.6,1.6,0,0,1,.15,3.2A5.19,5.19,0,0,0,311,226.3a3.32,3.32,0,0,0-.74,2.25,1.61,1.61,0,0,1-1.41,1.77Z"/><path class="cls-17" d="M390.53,230a12.82,12.82,0,1,0,12.81-12.82A12.81,12.81,0,0,0,390.53,230Z"/><path class="cls-14" d="M403.34,244.44A14.42,14.42,0,1,1,417.77,230,14.43,14.43,0,0,1,403.34,244.44Zm0-25.64A11.22,11.22,0,1,0,414.56,230,11.23,11.23,0,0,0,403.34,218.8Z"/><path class="cls-20" d="M410.4,228.74s.64-5.13-6.09-5.45"/><path class="cls-14" d="M410.4,230.34h-.2a1.62,1.62,0,0,1-1.4-1.78,3.3,3.3,0,0,0-.72-2.25,5.27,5.27,0,0,0-3.85-1.41,1.6,1.6,0,1,1,.15-3.2c2.76.13,4.83,1,6.17,2.58a6.42,6.42,0,0,1,1.44,4.66A1.6,1.6,0,0,1,410.4,230.34Z"/><path class="cls-17" d="M402.86,191a44.21,44.21,0,0,0-87,0,7.06,7.06,0,0,0-.72,3.1V234.5a7.26,7.26,0,0,0,0,.8,44.21,44.21,0,0,0,88.35,0,7,7,0,0,0,.05-.79V194.12A7.06,7.06,0,0,0,402.86,191Z"/><path class="cls-14" d="M359.36,279.35a45.67,45.67,0,0,1-45.78-43.94c0-.31,0-.61,0-.91V194.12a8.6,8.6,0,0,1,.78-3.59,45.81,45.81,0,0,1,90.08,0,8.6,8.6,0,0,1,.78,3.59V234.5c0,.3,0,.6-.05.91A45.66,45.66,0,0,1,359.36,279.35Zm0-123a42.54,42.54,0,0,0-41.92,35l-.05.22-.09.19a5.53,5.53,0,0,0-.56,2.41V234.5c0,.2,0,.41,0,.61v.12a42.61,42.61,0,0,0,85.15,0v-.11c0-.2,0-.41,0-.61V194.12a5.35,5.35,0,0,0-.56-2.4l-.09-.2,0-.22A42.54,42.54,0,0,0,359.36,156.31Z"/><path class="cls-21" d="M347.8,209.19c0,1.77-2.91-.64-7.69-.64s-9.62,2.41-9.62.64,4.2-4.17,9-4.17S347.8,207.42,347.8,209.19Z"/><path class="cls-21" d="M389.14,209.19c0,1.77-2.91-.64-7.69-.64s-9.62,2.41-9.62.64,4.2-4.17,9-4.17S389.14,207.42,389.14,209.19Z"/><path class="cls-22" d="M365.48,233.62c0-5.79-1.82-14.82-5.49-14.82s-5.73,8.4-5.73,14.18a8.43,8.43,0,0,0,.06,1.06v.05A5.56,5.56,0,0,0,365.07,236,5.57,5.57,0,0,0,365.48,233.62Z"/><path class="cls-14" d="M328.23,225.54a1.51,1.51,0,0,1-.51-.08,1.59,1.59,0,0,1-1-2c1.93-5.8,4.4-8.72,7.54-8.95,5.12-.35,9.08,7.23,9.51,8.09A1.6,1.6,0,1,1,340.9,224h0c-1.08-2.14-4.08-6.49-6.43-6.33-1.63.12-3.31,2.52-4.72,6.76A1.6,1.6,0,0,1,328.23,225.54Z"/><path class="cls-14" d="M376.3,225.54a1.51,1.51,0,0,1-.51-.08,1.59,1.59,0,0,1-1-2c1.93-5.8,4.39-8.72,7.54-8.95,5.12-.35,9.08,7.23,9.51,8.09A1.61,1.61,0,0,1,389,224h0c-1.06-2.14-4.06-6.49-6.42-6.33-1.63.12-3.31,2.52-4.72,6.76A1.6,1.6,0,0,1,376.3,225.54Z"/><path class="cls-21" d="M360.36,245.53c-1.28-1.29-3.88-3.36-6.87-2.8-4.24.81-9.93,7.09-9.93,7.09s-3.48,3.82-6.45,2.84-1.78-5.39-1.78-5.39-4.72,1.4-2.81,6,9.93,4.29,12.86,3.78,9.62-1.84,15-7.24c5.38,5.4,12.13,6.74,15,7.24s10.95.85,12.86-3.78-2.8-6-2.8-6,1.18,4.42-1.79,5.39-6.45-2.84-6.45-2.84-5.68-6.28-9.93-7.09C364.25,242.17,361.65,244.24,360.36,245.53Z"/><path class="cls-23" d="M365.61,271.5A44.22,44.22,0,0,1,321.43,229a7,7,0,0,1,0-.79V187.87a7.09,7.09,0,0,1,.72-3.1,44.1,44.1,0,0,1,9.6-20.47,44.15,44.15,0,0,0-15.13,26,7.09,7.09,0,0,0-.72,3.1v40.38a7,7,0,0,0,0,.79A44.2,44.2,0,0,0,394,261.18,44,44,0,0,1,365.61,271.5Z"/><path class="cls-21" d="M315.47,221.54s-20.69-48.32.22-57.69c0,0-9.8-15.87-3.61-27.41,0,0,2.52,7.21,7.94,11.54,0,0-7.65-18.75,17.88-23.8,0,0-8.51,8.65-4.64,15.15,0,0,6.19-20.2,36.36-20.92,0,0-13.92,7.93-17,19.47,0,0,18.57-19.47,43.33-18.75,0,0-13.15,7.93-15.47,17.31,0,0,9.28-14.43,34-15.87,0,0-6.06,20.92-23.08,28.13,0,0,15.34-8.65,22.3-12.26,0,0-3.87,17.31-16.25,25.24,0,0,28.57,2.4,4,60.1,0,0,3.85-35.1-10.22-49.28,0,0-38.74,18.75-61.18,1.44C330.11,173.94,312.37,185.48,315.47,221.54Z"/><path class="cls-14" d="M401.62,226.4l-1.9-4.81c0-.34,3.43-32.93-8.86-46.91-4.43,2-20.06,8.4-36.35,8.4-9.71,0-17.9-2.31-24.36-6.87-3.52,3-15.42,15.63-12.88,45.18l1,11.16-4.41-10.3c-.85-2-20-47.45-.6-59.14-2.42-4.56-8.16-17.37-2.72-27.52l1.94-3.62,1.36,3.87a29.1,29.1,0,0,0,3.35,6.35,17.28,17.28,0,0,1,2-8.59c3-5.61,9.22-9.37,18.41-11.19l5.74-1.13-4.1,4.16a23,23,0,0,0-4.68,7.52c4.31-6.42,14.18-15.85,35.07-16.35l7.13-.17L370.52,120a46.5,46.5,0,0,0-12.06,10.48c7.78-5.83,21.27-13.6,37.52-13.13l6.12.17-5.24,3.17a54.46,54.46,0,0,0-6.41,4.78,54,54,0,0,1,23.94-6.68l2.55-.15-.72,2.45a56.2,56.2,0,0,1-8.46,16.5c1.93-1,3.7-2,5.13-2.73l3.44-1.78-.85,3.77c-.15.68-3.53,15.33-14,24.12a17.39,17.39,0,0,1,8.17,7.21c6.46,10.71,4.27,29-6.5,54.33Zm-10-56.08.91.91c9.55,9.63,11.25,27.94,11.25,39.74,8.3-23.25,6.3-35,2.81-40.86a13.12,13.12,0,0,0-9.32-6.63l-5.19-.5,4.38-2.82c8.05-5.15,12.36-14.7,14.25-20.1-3.87,2.08-8.61,4.71-12.39,6.81h0a33.15,33.15,0,0,1-6.24,3.49l-1.59-3.23s2.48-1.4,5.91-3.31c8.85-6.32,13.61-16.53,15.43-21.23-21.42,2.2-29.82,14.7-29.9,14.83l-5.82,8.92L378.7,136c1.52-6.11,7.06-11.51,11.27-14.86-20.72,2.13-35.9,17.8-36.06,18L349,144.24l1.83-6.83c2-7.29,7.82-13.13,12.3-16.7-22.85,3-28,18.44-28.18,19.15l-1.2,3.84-2.07-3.45c-2.65-4.46-.64-9.51,1.55-13-5.34,1.78-9,4.48-10.94,8.07-3.11,5.76-.66,11.92-.64,12l2.62,6.41-5.41-4.32a27.5,27.5,0,0,1-6.63-8.25c-2.2,9.94,4.88,21.63,5,21.76l1.08,1.75-1.87.84c-13.41,6-7.72,30.69-3.09,45,.9-28,15.11-37.6,15.79-38l1.07-.69,1,.78c6,4.61,13.82,7,23.29,7,18,0,35.81-8.52,36-8.6Z"/><g class="cls-18"><path class="cls-24" d="M397.38,145.35a37.65,37.65,0,0,0,5.51-4.8c-4.76,3-10.35,5.42-12.44,9.59,8.48.94,16.13-4.47,22.43-10.75.58-1.81.84-2.95.84-2.95C409.58,138.59,402.46,142.52,397.38,145.35Z"/><path class="cls-24" d="M402,128.51c4.83-1.82,8.33-4.95,12.41-7.63l.1-.31c-16.05.94-25.59,7.33-30.33,11.71a61.74,61.74,0,0,0-6.7,10.65C382.76,135.24,393.34,131.39,402,128.51Z"/><path class="cls-24" d="M333.72,158.31C328.43,153,328,148.7,328,141.49c1.92,4.8,7.21,7.21,12,7.21-2.4-10.1,5.77-21.16,13.94-25.48,2.56-1.28,5.95-2.91,9.53-4.35-24.84,3.09-30.18,20.46-30.18,20.46-3.87-6.5,4.64-15.15,4.64-15.15C312.37,129.23,320,148,320,148c-5.42-4.33-7.94-11.54-7.94-11.54-6.19,11.54,3.61,27.41,3.61,27.41-20.91,9.37-.22,57.69-.22,57.69a84.5,84.5,0,0,1,.22-17.89c-5.84-13-1.79-29.29,8.41-38.6-2.4-1.45-3.36-3.85-3.36-6.74A15.26,15.26,0,0,0,333.72,158.31Z"/><path class="cls-24" d="M392.81,121.25c1.84-1.35,3.12-2.12,3.12-2.12-23-.67-40.62,16.05-43,18.46a18.49,18.49,0,0,0-2.34,7.26c4.81-7.69,20.67-15.38,29.81-19.23A128.21,128.21,0,0,1,392.81,121.25Z"/></g><polygon class="cls-25" points="402.45 444.21 402.84 422.27 318.79 420.14 318.79 444.21 402.45 444.21"/><polygon class="cls-14" points="320.38 444.21 320.38 421.77 401.21 423.82 400.85 444.21 404.05 444.21 404.46 420.71 317.19 418.5 317.19 444.21 320.38 444.21"/><rect class="cls-21" x="316.66" y="419.07" width="85.12" height="12.77"/><path class="cls-14" d="M403.37,433.44H315.06v-16h88.31Zm-85.11-3.2h81.92v-9.57H318.26Z"/><path class="cls-25" d="M315.59,442.48h31.92s6.39-148.93-6.38-160.66c0,0-27.66,1.17-25.54,38.7Z"/><path class="cls-14" d="M349,444.07H314V320.52c-.77-13.42,2.14-23.91,8.64-31.09a28.38,28.38,0,0,1,18.42-9.2l.66,0,.49.44c12.94,11.89,7.55,146.59,6.9,161.91Zm-31.85-3.19H346c2.46-58.57,2.94-146.65-5.48-157.4A25.88,25.88,0,0,0,325,291.62c-5.88,6.52-8.5,16.21-7.79,28.81Z"/><path class="cls-25" d="M404.32,442.48H372.4S366,293.55,378.78,281.82c0,0,27.67,1.17,25.54,38.7Z"/><path class="cls-14" d="M405.91,444.07h-35l-.06-1.52c-.66-15.32-6.05-150,6.9-161.91l.48-.44.66,0a28.38,28.38,0,0,1,18.42,9.2c6.5,7.18,9.41,17.67,8.64,31.18Zm-32-3.19h28.79V320.52c.72-12.72-1.91-22.42-7.81-28.94a25.72,25.72,0,0,0-15.49-8.1C371,294.21,371.47,382.3,373.93,440.88Z"/><polygon class="cls-25" points="355.4 316.73 351.68 307.69 354.85 302.11 363.37 301.3 368.17 308.22 363.91 316.73 355.4 316.73"/><path class="cls-14" d="M364.89,318.32H354.33l-4.43-10.75,4-7,10.28-1,5.86,8.46Zm-8.42-3.18h6.45l3.39-6.79L362.59,303l-6.76.64-2.38,4.18Z"/><path class="cls-26" d="M347.16,278.08S342.1,293.85,357,301.3l-9,10.11s-9.58-14.9-9.58-28.19C338.37,283.22,337.86,279.34,347.16,278.08Z"/><path class="cls-14" d="M347.74,314l-1.13-1.77c-.4-.62-9.8-15.4-9.83-29-.06-1,.23-5.44,10.17-6.78l2.51-.34-.78,2.41c-.18.59-4.43,14.57,9,21.3l1.87.94Zm-2.64-34c-4.12.93-5.12,2.45-5.14,3,0,10.12,5.79,21.32,8.25,25.62l6.26-7C344,295.42,344.34,284.84,345.1,280.07Z"/><path class="cls-26" d="M373.21,278.08s5.06,15.77-9.84,23.22l9,10.11s9.58-14.9,9.58-28.19C382,283.22,382.5,279.34,373.21,278.08Z"/><path class="cls-14" d="M372.62,314l-11.83-13.23,1.87-.94c13.46-6.73,9.21-20.71,9-21.3l-.76-2.4,2.5.33c9.94,1.34,10.23,5.79,10.17,6.78,0,13.59-9.43,28.37-9.83,29Zm-6.72-12.31,6.26,7c2.46-4.3,8.23-15.49,8.23-25.51l0-.21c0-.5-1-2-5.15-2.94C376,284.84,376.33,295.42,365.9,301.73Z"/><polygon class="cls-25" points="352.74 378.97 359.65 389.08 368.17 378.97 363.91 316.73 355.4 316.73 352.74 378.97"/><path class="cls-14" d="M359.52,391.71l-8.4-12.27,0-.54,2.73-63.76H365.4l4.4,64.37Zm-5.17-13.2,5.44,7.94,6.74-8-4.11-60.12h-5.49Z"/><polyline class="cls-25" points="371.36 393.87 393.17 315.67 383.59 306.09 391.57 295.99 384.65 283.75"/><polygon class="cls-14" points="372.89 394.3 369.82 393.44 391.38 316.13 381.46 306.21 389.65 295.83 383.27 284.53 386.04 282.96 393.49 296.13 385.72 305.96 394.96 315.2 372.89 394.3"/><polyline class="cls-25" points="349.01 391.74 326.67 315.67 336.25 306.09 328.27 295.99 335.18 283.75"/><polygon class="cls-14" points="347.48 392.19 324.87 315.21 334.11 305.96 326.35 296.13 333.79 282.96 336.57 284.53 330.18 295.83 338.38 306.21 328.47 316.12 350.55 391.29 347.48 392.19"/><path class="cls-25" d="M404.31,329.77s72.35,2.12,81.92-109.59L465,217s-4.26,100-67,75.54"/><path class="cls-14" d="M404.68,331.37h-.42l.09-3.19c.2,0,17.95.32,36.58-12.73,17.09-12,38.45-38,43.58-93.91l-18.06-2.71c-.66,9.9-5.09,56.85-30.5,73.43-10.7,7-23.69,7.58-38.61,1.76l1.16-3c13.91,5.42,25.92,4.93,35.7-1.46,26.49-17.28,29.14-72.11,29.16-72.66l.08-1.78L488,218.82l-.13,1.49c-5,58.33-27.35,85.41-45.23,97.86C424.48,330.79,407.59,331.37,404.68,331.37Z"/><path class="cls-25" d="M317.07,329.77s-72.35,2.12-81.93-109.59L256.42,217s4.26,100,67,75.54"/><path class="cls-14" d="M316.7,331.37c-2.9,0-19.8-.58-37.91-13.2-17.88-12.45-40.24-39.53-45.24-97.86l-.12-1.49,24.51-3.68.08,1.78c0,.55,2.67,55.38,29.16,72.66C297,296,309,296.46,322.87,291l1.17,3c-14.93,5.82-27.92,5.23-38.61-1.76-25.41-16.58-29.84-63.53-30.5-73.43l-18.06,2.71c5.12,55.93,26.48,81.94,43.58,93.91,18.64,13.06,36.4,12.73,36.58,12.73l.09,3.19Z"/><path class="cls-17" d="M463.33,205.71a10.1,10.1,0,0,1,12.2-7.43L486.91,201a10.11,10.11,0,0,1,7.44,12.2h0a10.1,10.1,0,0,1-12.21,7.44l-11.37-2.76a10.1,10.1,0,0,1-7.44-12.21Z"/><path class="cls-14" d="M471.63,196.49a12.1,12.1,0,0,1,4.28.23l11.38,2.77a11.7,11.7,0,0,1,8.61,14.13,11.67,11.67,0,0,1-14.13,8.61l-11.38-2.76a11.7,11.7,0,0,1,1.24-23Zm14,22.81a8.5,8.5,0,0,0,6.16-12.87,8.43,8.43,0,0,0-5.25-3.84l-11.39-2.76a8.31,8.31,0,0,0-3.1-.17,8.51,8.51,0,0,0-.91,16.71l11.38,2.76A8.37,8.37,0,0,0,485.63,219.3Z"/><path class="cls-17" d="M494.48,208.76l1.91-7.89c.54-2.21-.44-4.34-2.17-4.76s-3.49-.67-4,1.54l-3.14,6.16"/><path class="cls-14" d="M491.75,194.29a7.61,7.61,0,0,1,2.84.27c2.59.63,4.1,3.63,3.35,6.69L496,209.14l-3.11-.76,1.92-7.88c.35-1.45-.24-2.66-1-2.84-1.9-.46-1.95-.23-2.09.37l-.13.35-3.15,6.16-2.84-1.45,3.06-6A3.47,3.47,0,0,1,491.75,194.29Z"/><path class="cls-17" d="M485.44,203.7l1.46-6a3.24,3.24,0,0,0-6.29-1.53l-2.14,4.66"/><path class="cls-14" d="M483.07,192.24a5,5,0,0,1,1.8.09,4.86,4.86,0,0,1,3,2.13,4.69,4.69,0,0,1,.6,3.61l-1.46,6-3.1-.75,1.46-6a1.51,1.51,0,0,0-.2-1.15,1.68,1.68,0,0,0-2.28-.55,1.45,1.45,0,0,0-.71.93l-.09.29-2.15,4.66-2.9-1.33,2.08-4.54a4.68,4.68,0,0,1,2.15-2.77A4.74,4.74,0,0,1,483.07,192.24Z"/><path class="cls-17" d="M479.24,202.19l1.45-6a3.23,3.23,0,0,0-6.28-1.52l-2.14,4.66"/><path class="cls-14" d="M476.88,190.73a5,5,0,0,1,1.79.1,4.78,4.78,0,0,1,3.57,5.74l-1.45,6-3.1-.76,1.45-6A1.64,1.64,0,0,0,476,195l-.1.29L473.72,200l-2.9-1.33,2.08-4.53A4.74,4.74,0,0,1,476.88,190.73Z"/><path class="cls-17" d="M464.29,204.07,465.8,195a3.24,3.24,0,0,1,6.41.9l.27,5.12"/><path class="cls-14" d="M468.34,190.72a4.85,4.85,0,0,1,4.49,1.83,4.66,4.66,0,0,1,1,3.36l.27,5-3.19.17-.26-5.43a1.53,1.53,0,0,0-.31-1.12,1.7,1.7,0,0,0-1.1-.63,1.6,1.6,0,0,0-1.84,1.3l-1.51,9.15-3.15-.52,1.51-9.11A4.72,4.72,0,0,1,468.34,190.72Z"/><path class="cls-17" d="M228.63,210.13a10.1,10.1,0,0,1,9.26-10.88l11.67-.94a10.11,10.11,0,0,1,10.89,9.26h0a10.12,10.12,0,0,1-9.27,10.89l-11.66.94a10.11,10.11,0,0,1-10.89-9.27Z"/><path class="cls-14" d="M233.63,198.77a11.62,11.62,0,0,1,4.14-1.11l11.66-.94A11.7,11.7,0,0,1,262,207.44a11.7,11.7,0,0,1-10.73,12.61l-11.66.94a11.71,11.71,0,0,1-6-22.22Zm20.43,17.28a8.51,8.51,0,0,0,1.83-14.15,8.43,8.43,0,0,0-6.2-2l-11.67.94a8.51,8.51,0,1,0,1.37,17l11.66-.94A8.42,8.42,0,0,0,254.06,216.05Z"/><path class="cls-17" d="M259.17,203.28l-.66-8.1c-.18-2.26-1.77-4-3.55-3.84s-3.52.45-3.34,2.72l-1.05,6.84"/><path class="cls-14" d="M252,190.38a7.93,7.93,0,0,1,2.79-.63c2.66-.22,5,2.17,5.27,5.3l.66,8.1-3.18.25-.66-8.09c-.12-1.48-1.06-2.45-1.83-2.38-2,.15-1.93.39-1.88,1l0,.37-1.05,6.84-3.15-.48,1-6.67A3.48,3.48,0,0,1,252,190.38Z"/><path class="cls-17" d="M249,201.29l-.5-6.15a3.23,3.23,0,0,0-6.44.52l-.58,5.09"/><path class="cls-14" d="M243.16,191.15a4.94,4.94,0,0,1,1.74-.47,4.86,4.86,0,0,1,3.5,1.09,4.7,4.7,0,0,1,1.7,3.24l.49,6.15-3.18.26-.5-6.16a1.5,1.5,0,0,0-.54-1,1.72,1.72,0,0,0-2.35.19,1.52,1.52,0,0,0-.37,1.11v.31l-.57,5.09-3.17-.35.55-5a4.67,4.67,0,0,1,1.17-3.3A4.85,4.85,0,0,1,243.16,191.15Z"/><path class="cls-17" d="M242.64,201.81l-.5-6.16a3.24,3.24,0,0,0-6.45.52l-.57,5.1"/><path class="cls-14" d="M236.8,191.66a5,5,0,0,1,1.74-.47,4.79,4.79,0,0,1,5.19,4.33l.5,6.16-3.18.25-.5-6.15a1.64,1.64,0,0,0-3.26.26v.31l-.57,5.09-3.17-.35.55-5A4.75,4.75,0,0,1,236.8,191.66Z"/><path class="cls-17" d="M229,208.27l-1.42-9.12A3.24,3.24,0,0,1,234,198l1.86,4.78"/><path class="cls-14" d="M228.69,194.32a4.77,4.77,0,0,1,1.26-.41,4.93,4.93,0,0,1,3.59.74,4.64,4.64,0,0,1,2,2.89l1.81,4.65-3,1.16-1.94-5.07a1.53,1.53,0,0,0-.65-1,1.73,1.73,0,0,0-1.24-.25,1.61,1.61,0,0,0-1.34,1.81l1.43,9.16-3.15.5L226,199.39A4.72,4.72,0,0,1,228.69,194.32Z"/><path class="cls-17" d="M464.11,210.77c-1.22-.81-5.7-6.79-9-6.79,0,0-1.09-4.35,3-4.35a10.07,10.07,0,0,1,8.15,3.53"/><path class="cls-14" d="M463.21,212.13a14,14,0,0,1-1.89-1.8c-1.46-1.54-4.49-4.72-6.17-4.72h-1.28l-.31-1.24a6,6,0,0,1,.79-4.74,4.5,4.5,0,0,1,3.7-1.63,11.76,11.76,0,0,1,9.45,4.07l-2.42,2.18a8.49,8.49,0,0,0-6.76-3h-.18a1.53,1.53,0,0,0-1.22.38,1.67,1.67,0,0,0-.27,1c2.33.72,4.66,3,7,5.49.51.53,1.14,1.19,1.34,1.34Z"/><path class="cls-17" d="M258.77,211.84c1.27-.74,6.12-6.43,9.37-6.23,0,0,1.35-4.28-2.72-4.53a10.11,10.11,0,0,0-8.35,3"/><path class="cls-14" d="M259.59,213.25,258,210.43l.82,1.41-.82-1.4c.21-.14.88-.76,1.42-1.26,2.52-2.34,5-4.47,7.36-5.05a1.74,1.74,0,0,0-.22-1,1.52,1.52,0,0,0-1.19-.45l-.19,0a8.42,8.42,0,0,0-6.92,2.59L255.92,203a11.8,11.8,0,0,1,9.68-3.49,4.52,4.52,0,0,1,3.6,1.86,6,6,0,0,1,.5,4.78l-.39,1.21-1.27-.07c-1.68-.11-4.9,2.89-6.45,4.33A12.83,12.83,0,0,1,259.59,213.25Z"/><path class="cls-14" d="M235.06,459.08a4.88,4.88,0,0,1-4.25,4.8V464a4.87,4.87,0,0,1,4.25,4.79v12.42c0,6.35-3.44,9.72-9.79,9.72h-16.2a1,1,0,0,1-1.08-1.08V438a1,1,0,0,1,1.08-1.08h16.2c6.35,0,9.79,3.37,9.79,9.72Zm-9-10.53a2.4,2.4,0,0,0-2.7-2.7h-6.14v13.64h6.14a2.41,2.41,0,0,0,2.7-2.64Zm0,22.55a2.39,2.39,0,0,0-2.7-2.7h-6.14V482h6.14a2.39,2.39,0,0,0,2.7-2.7Z"/><path class="cls-14" d="M225.27,499.94h-16.2A10,10,0,0,1,199,489.86V438a10,10,0,0,1,10.08-10.08h16.2c11.41,0,18.79,7.35,18.79,18.72v12.42a13.53,13.53,0,0,1-.89,4.86,13.61,13.61,0,0,1,.89,4.86v12.42C244.06,492.6,236.68,499.94,225.27,499.94Z"/><path class="cls-14" d="M268.74,451.52c0,.68-.27,1.15-1.08,1.15H251v10.39h12.69a1,1,0,0,1,1.08,1.15v6.68a1,1,0,0,1-1.08,1.15H251v10h16.67c.81,0,1.08.34,1.08,1.08v6.75c0,.68-.27,1.08-1.08,1.08H242.82a1,1,0,0,1-1-1.08V444.77a1,1,0,0,1,1-1.08h24.84c.81,0,1.08.41,1.08,1.08Z"/><path class="cls-14" d="M267.66,499.94H242.82a9.94,9.94,0,0,1-10-10.08V444.77a9.94,9.94,0,0,1,10-10.08h24.84a9.85,9.85,0,0,1,10.08,10.08v6.75a10,10,0,0,1-4.76,8.71,10.46,10.46,0,0,1,.78,4v6.68a10.41,10.41,0,0,1-.65,3.65,9.89,9.89,0,0,1,4.63,8.57v6.75A9.85,9.85,0,0,1,267.66,499.94Z"/><path class="cls-14" d="M290.75,443.69c6.34,0,9.72,3.38,9.72,9.72v4.46a1,1,0,0,1-1.08,1.08h-6.82a1,1,0,0,1-1.08-1.08V455a2.4,2.4,0,0,0-2.7-2.7h-3.72a2.46,2.46,0,0,0-2.7,2.7v5.74L298.71,466a2.41,2.41,0,0,1,1.76,2.49v12.69c0,6.35-3.38,9.72-9.72,9.72h-7.57c-6.27,0-9.72-3.37-9.72-9.72v-4.38a1,1,0,0,1,1.08-1.08h6.82c.74,0,1.08.33,1.08,1.08v2.83a2.42,2.42,0,0,0,2.7,2.7h3.65a2.4,2.4,0,0,0,2.7-2.7v-6.82l-16.2-5.26a2.42,2.42,0,0,1-1.83-2.5V453.41c0-6.34,3.45-9.72,9.72-9.72Z"/><path class="cls-14" d="M290.75,499.94h-7.57c-11.19,0-18.72-7.52-18.72-18.72v-4.38a10.22,10.22,0,0,1,1.67-5.63,11.64,11.64,0,0,1-1.67-6.12V453.41c0-11.2,7.53-18.72,18.72-18.72h7.57c11.37,0,18.72,7.35,18.72,18.72v4.46a10.16,10.16,0,0,1-1.35,5.1,11.84,11.84,0,0,1,1.35,5.56v12.69C309.47,492.6,302.12,499.94,290.75,499.94Z"/><path class="cls-14" d="M329.76,443.69a1,1,0,0,1,1.08,1.08v6.75a1,1,0,0,1-1.08,1.08h-7.83v37.26c0,.75-.34,1.08-1.08,1.08h-7a1,1,0,0,1-1.08-1.08V452.6h-7.83a1,1,0,0,1-1.08-1.08v-6.75a1,1,0,0,1,1.08-1.08Z"/><path class="cls-14" d="M320.85,499.94h-7a10,10,0,0,1-10.08-10.08V461.54a10,10,0,0,1-8.91-10v-6.75a10,10,0,0,1,10.08-10.08h24.84a10,10,0,0,1,10.08,10.08v6.75a10,10,0,0,1-8.91,10v28.32A9.85,9.85,0,0,1,320.85,499.94Z"/><path class="cls-14" d="M380.12,467c0,3.91-1.29,6.68-3.78,8.24l3.51,14.51c.2.81-.21,1.21-1,1.21h-6.61a1,1,0,0,1-1.15-.94l-3.24-13.3h-6v13.16a1,1,0,0,1-1.08,1.08h-6.62a1,1,0,0,1-1.08-1.08V444.77a1,1,0,0,1,1.08-1.08h16.2c6.35,0,9.73,3.38,9.73,9.72Zm-11.48,1a2.42,2.42,0,0,0,2.7-2.7V455.1a2.42,2.42,0,0,0-2.7-2.7h-6.75V468Z"/><path class="cls-14" d="M378.9,499.94h-6.61a10.17,10.17,0,0,1-5.76-1.73,10.11,10.11,0,0,1-5.72,1.73h-6.62a10,10,0,0,1-10.08-10.08V444.77a10,10,0,0,1,10.08-10.08h16.2c11.38,0,18.73,7.35,18.73,18.72V467a19.66,19.66,0,0,1-2.9,10.81l2.37,9.82a9.82,9.82,0,0,1-9.69,12.33Z"/><path class="cls-14" d="M410.83,490.94a1,1,0,0,1-1.08-.94l-2.16-8.51H394.9L392.8,490a1,1,0,0,1-1.08.94h-6.61c-.74,0-1.08-.4-.88-1.14l11.21-45.16a1,1,0,0,1,1.14-.95H406a1.05,1.05,0,0,1,1.15.95l11.2,45.16c.2.74-.13,1.14-.94,1.14Zm-9.59-35.64L397,473.66h8.51Z"/><path class="cls-14" d="M417.38,499.94h-6.55a9.91,9.91,0,0,1-9.55-6.86,9.93,9.93,0,0,1-9.56,6.86h-6.61a9.77,9.77,0,0,1-9.6-12.37l11.16-45a10.07,10.07,0,0,1,9.91-7.89h.2l5,.22,3.91-.22H406a10.07,10.07,0,0,1,9.91,7.89l11.16,45a9.77,9.77,0,0,1-9.66,12.37Z"/><path class="cls-14" d="M443,443.69a1,1,0,0,1,1.08,1.08v6.75A1,1,0,0,1,443,452.6h-7.83v37.26c0,.75-.34,1.08-1.08,1.08h-7a1,1,0,0,1-1.08-1.08V452.6h-7.83a1,1,0,0,1-1.08-1.08v-6.75a1,1,0,0,1,1.08-1.08Z"/><path class="cls-14" d="M434.05,499.94h-7A10,10,0,0,1,417,489.86V461.54a10,10,0,0,1-8.91-10v-6.75a10,10,0,0,1,10.08-10.08H443A10,10,0,0,1,453,444.77v6.75a10,10,0,0,1-8.91,10v28.32A9.86,9.86,0,0,1,434.05,499.94Z"/><path class="cls-14" d="M449.84,490.94a1,1,0,0,1-1.08-1.08V444.77a1,1,0,0,1,1.08-1.08h7a1,1,0,0,1,1.08,1.08v45.09a1,1,0,0,1-1.08,1.08Z"/><rect class="cls-14" x="439.76" y="434.69" width="27.18" height="65.25" rx="10.08"/><path class="cls-14" d="M492.44,443.69a1,1,0,0,1,1.08,1.08v45.09a1,1,0,0,1-1.08,1.08H487.1a1.21,1.21,0,0,1-1.21-.87L473.2,464.28v25.58a1,1,0,0,1-1.08,1.08h-6.35a1,1,0,0,1-1.08-1.08V444.77a1,1,0,0,1,1.08-1.08h5.33a1.22,1.22,0,0,1,1.22.88L485,470.36V444.77a1,1,0,0,1,1.08-1.08Z"/><path class="cls-14" d="M491.3,500.16l-1.76-.22H487.1a10,10,0,0,1-7.51-3.25,10,10,0,0,1-7.47,3.25h-6.35a10,10,0,0,1-10.08-10.08V444.77a10,10,0,0,1,8.51-10l2.35.35,2.12-.47h2.43a10,10,0,0,1,7.51,3.25,10.06,10.06,0,0,1,7.48-3.25h6.35a10,10,0,0,1,10.08,10.08v45.09a10,10,0,0,1-8.51,10Z"/><path class="cls-14" d="M500.26,446.66c0-6.35,3.38-9.72,9.72-9.72h8.91c6.28,0,9.73,3.37,9.73,9.72v7a1,1,0,0,1-1.08,1.08h-6.76a1,1,0,0,1-1.08-1.08v-5.13a2.42,2.42,0,0,0-2.7-2.7h-4.86a2.4,2.4,0,0,0-2.7,2.7v30.78a2.39,2.39,0,0,0,2.7,2.7H517a2.39,2.39,0,0,0,2.7-2.7v-9h-3.51a1,1,0,0,1-1.08-1.08v-6.75a.94.94,0,0,1,1.08-1.08h11.35a1,1,0,0,1,1.08,1.08v18.76c0,6.35-3.45,9.72-9.73,9.72H510c-6.34,0-9.72-3.37-9.72-9.72Z"/><path class="cls-14" d="M518.89,499.94H510c-11.37,0-18.72-7.34-18.72-18.72V446.66c0-11.37,7.35-18.72,18.72-18.72h8.91c11.2,0,18.73,7.52,18.73,18.72v7a10.31,10.31,0,0,1-1,4.39,10.31,10.31,0,0,1,1,4.39v18.76C537.62,492.42,530.09,499.94,518.89,499.94Z"/><path class="cls-14" d="M235.06,457.94a4.88,4.88,0,0,1-4.25,4.8v.13a4.87,4.87,0,0,1,4.25,4.79v12.42c0,6.35-3.44,9.73-9.79,9.73h-16.2a1,1,0,0,1-1.08-1.08V436.88a1,1,0,0,1,1.08-1.08h16.2c6.35,0,9.79,3.38,9.79,9.72Zm-9-10.53a2.4,2.4,0,0,0-2.7-2.7h-6.14v13.64h6.14a2.4,2.4,0,0,0,2.7-2.63Zm0,22.55a2.39,2.39,0,0,0-2.7-2.7h-6.14v13.63h6.14a2.39,2.39,0,0,0,2.7-2.7Z"/><path class="cls-16" d="M225.27,494.81h-16.2a6,6,0,0,1-6.08-6.08V436.88a6,6,0,0,1,6.08-6.08h16.2c9.12,0,14.79,5.64,14.79,14.72v12.42a9.8,9.8,0,0,1-1.27,4.86,9.83,9.83,0,0,1,1.27,4.86v12.42C240.06,489.16,234.39,494.81,225.27,494.81Zm4.3-11.81a6.54,6.54,0,0,1-1.24,1.28A2.62,2.62,0,0,0,229.57,483Zm-1.24-41.67a6.77,6.77,0,0,1,1.24,1.27A2.64,2.64,0,0,0,228.33,441.33Z"/><path class="cls-14" d="M268.74,450.38c0,.68-.27,1.15-1.08,1.15H251v10.4h12.69a1,1,0,0,1,1.08,1.14v6.69a1,1,0,0,1-1.08,1.14H251v10h16.67c.81,0,1.08.34,1.08,1.09v6.75c0,.67-.27,1.08-1.08,1.08H242.82a1,1,0,0,1-1-1.08v-45.1a1,1,0,0,1,1-1.08h24.84c.81,0,1.08.41,1.08,1.08Z"/><path class="cls-16" d="M267.66,494.81H242.82a6,6,0,0,1-6-6.08v-45.1a6,6,0,0,1,6-6.08h24.84a5.88,5.88,0,0,1,6.08,6.08v6.75a6,6,0,0,1-6.08,6.15H256v.4h7.69a6,6,0,0,1,6.08,6.14v6.69a6,6,0,0,1-5.74,6.13h3.64a5.89,5.89,0,0,1,6.08,6.09v6.75A5.88,5.88,0,0,1,267.66,494.81Z"/><path class="cls-14" d="M290.75,442.55c6.34,0,9.72,3.38,9.72,9.72v4.46a1,1,0,0,1-1.08,1.08h-6.82a1,1,0,0,1-1.08-1.08v-2.84a2.4,2.4,0,0,0-2.7-2.7h-3.72a2.46,2.46,0,0,0-2.7,2.7v5.74l16.34,5.27a2.41,2.41,0,0,1,1.76,2.49v12.69c0,6.35-3.38,9.73-9.72,9.73h-7.57c-6.27,0-9.72-3.38-9.72-9.73V475.7a1,1,0,0,1,1.08-1.08h6.82c.74,0,1.08.33,1.08,1.08v2.83a2.42,2.42,0,0,0,2.7,2.7h3.65a2.4,2.4,0,0,0,2.7-2.7v-6.82l-16.2-5.26a2.42,2.42,0,0,1-1.83-2.5V452.27c0-6.34,3.45-9.72,9.72-9.72Z"/><path class="cls-16" d="M290.75,494.81h-7.57c-9.08,0-14.72-5.65-14.72-14.73V475.7a6,6,0,0,1,3.29-5.45,7.32,7.32,0,0,1-3.29-6.3V452.27c0-9.08,5.64-14.72,14.72-14.72h7.57c9.08,0,14.72,5.64,14.72,14.72v4.46a6,6,0,0,1-2.48,5,7.38,7.38,0,0,1,2.48,5.7v12.69C305.47,489.16,299.83,494.81,290.75,494.81Z"/><path class="cls-14" d="M329.76,442.55a1,1,0,0,1,1.08,1.08v6.75a1,1,0,0,1-1.08,1.08h-7.83v37.27a.94.94,0,0,1-1.08,1.08h-7a1,1,0,0,1-1.08-1.08V451.46h-7.83a1,1,0,0,1-1.08-1.08v-6.75a1,1,0,0,1,1.08-1.08Z"/><path class="cls-16" d="M320.85,494.81h-7a6,6,0,0,1-6.08-6.08V456.46h-2.83a6,6,0,0,1-6.08-6.08v-6.75a6,6,0,0,1,6.08-6.08h24.84a6,6,0,0,1,6.08,6.08v6.75a5.94,5.94,0,0,1-6.08,6.08h-2.83v32.27A5.88,5.88,0,0,1,320.85,494.81Z"/><path class="cls-14" d="M380.12,465.84c0,3.92-1.29,6.68-3.78,8.24l3.51,14.51c.2.81-.21,1.22-1,1.22h-6.61a1.06,1.06,0,0,1-1.15-.95l-3.24-13.3h-6v13.17a1,1,0,0,1-1.08,1.08h-6.62a1,1,0,0,1-1.08-1.08v-45.1a1,1,0,0,1,1.08-1.08h16.2c6.35,0,9.73,3.38,9.73,9.72Zm-11.48,1a2.42,2.42,0,0,0,2.7-2.7V454a2.43,2.43,0,0,0-2.7-2.7h-6.75v15.59Z"/><path class="cls-16" d="M378.9,494.81h-6.61a6,6,0,0,1-5.77-4,6,6,0,0,1-5.71,4h-6.62a6,6,0,0,1-6.08-6.08v-45.1a6,6,0,0,1,6.08-6.08h16.2c9.08,0,14.73,5.64,14.73,14.72v13.57c0,4.7-1.44,7.86-3.22,10l2.81,11.61a5.85,5.85,0,0,1-5.81,7.39Z"/><path class="cls-14" d="M410.83,489.81a1,1,0,0,1-1.08-.95l-2.16-8.51H394.9l-2.1,8.51a1,1,0,0,1-1.08.95h-6.61c-.74,0-1.08-.41-.88-1.15l11.21-45.16a1,1,0,0,1,1.14-.95H406a1.05,1.05,0,0,1,1.15.95l11.2,45.16c.2.74-.13,1.15-.94,1.15Zm-9.59-35.65L397,472.52h8.51Z"/><path class="cls-16" d="M417.38,494.81h-6.55a6,6,0,0,1-5.94-4.77l-1.19-4.69h-4.88L397.67,490a6,6,0,0,1-5.95,4.79h-6.61a5.78,5.78,0,0,1-5.72-7.4l11.18-45a6,6,0,0,1,6-4.82H400l1.34-.14,1.23.14H406a6,6,0,0,1,6,4.82l11.18,45.05a5.8,5.8,0,0,1-5.79,7.39Z"/><path class="cls-14" d="M443,442.55a1,1,0,0,1,1.08,1.08v6.75a1,1,0,0,1-1.08,1.08h-7.83v37.27a.94.94,0,0,1-1.08,1.08h-7a1,1,0,0,1-1.08-1.08V451.46h-7.83a1,1,0,0,1-1.08-1.08v-6.75a1,1,0,0,1,1.08-1.08Z"/><path class="cls-16" d="M434.05,494.81h-7a6,6,0,0,1-6.08-6.08V456.46h-2.83a6,6,0,0,1-6.08-6.08v-6.75a6,6,0,0,1,6.08-6.08H443a6,6,0,0,1,6.08,6.08v6.75a6,6,0,0,1-6.08,6.08h-2.83v32.27A5.88,5.88,0,0,1,434.05,494.81Z"/><path class="cls-14" d="M449.84,489.81a1,1,0,0,1-1.08-1.08v-45.1a1,1,0,0,1,1.08-1.08h7a1,1,0,0,1,1.08,1.08v45.1a1,1,0,0,1-1.08,1.08Z"/><rect class="cls-16" x="443.76" y="437.55" width="19.18" height="57.25" rx="6.08"/><path class="cls-14" d="M492.44,442.55a1,1,0,0,1,1.08,1.08v45.1a1,1,0,0,1-1.08,1.08H487.1a1.2,1.2,0,0,1-1.21-.88L473.2,463.14v25.59a1,1,0,0,1-1.08,1.08h-6.35a1,1,0,0,1-1.08-1.08v-45.1a1,1,0,0,1,1.08-1.08h5.33a1.22,1.22,0,0,1,1.22.88L485,469.22V443.63a1,1,0,0,1,1.08-1.08Z"/><path class="cls-16" d="M492.44,494.81H487.1a6.12,6.12,0,0,1-5.73-3.74l-3.17-6.44v4.1a6,6,0,0,1-6.08,6.08h-6.35a6,6,0,0,1-6.08-6.08v-45.1a6,6,0,0,1,6.08-6.08h5.33a6.14,6.14,0,0,1,5.74,3.74l3.17,6.44v-4.1a6,6,0,0,1,6.08-6.08h6.35a6,6,0,0,1,6.08,6.08v45.1A6,6,0,0,1,492.44,494.81Z"/><path class="cls-14" d="M500.26,445.52c0-6.34,3.38-9.72,9.72-9.72h8.91c6.28,0,9.73,3.38,9.73,9.72v7a1,1,0,0,1-1.08,1.08h-6.76a1,1,0,0,1-1.08-1.08v-5.13a2.42,2.42,0,0,0-2.7-2.7h-4.86a2.4,2.4,0,0,0-2.7,2.7v30.78a2.39,2.39,0,0,0,2.7,2.7H517a2.39,2.39,0,0,0,2.7-2.7v-9h-3.51a1,1,0,0,1-1.08-1.08v-6.75a.94.94,0,0,1,1.08-1.08h11.35a1,1,0,0,1,1.08,1.08v18.76c0,6.35-3.45,9.73-9.73,9.73H510c-6.34,0-9.72-3.38-9.72-9.73Z"/><path class="cls-16" d="M518.89,494.81H510c-9.08,0-14.72-5.65-14.72-14.73V445.52c0-9.08,5.64-14.72,14.72-14.72h8.91c9.08,0,14.73,5.64,14.73,14.72v7a6,6,0,0,1-1.82,4.37,6.06,6.06,0,0,1,1.82,4.41v18.76C533.62,489.16,528,494.81,518.89,494.81Zm-13.4-12.5a2.84,2.84,0,0,0,2,2.18A6.93,6.93,0,0,1,505.49,482.31Zm17.43,1a6.82,6.82,0,0,1-.76.76A2.62,2.62,0,0,0,522.92,483.35Zm-8.48-7.46h.26V474l-.26-.07Zm0-26.18v5.75a8.06,8.06,0,0,1,.88-.17,6.18,6.18,0,0,1-.62-2.75v-2.83Zm-7-8.6a2.86,2.86,0,0,0-2,2.19A7.08,7.08,0,0,1,507.48,441.11Zm14.68.39a6.82,6.82,0,0,1,.76.76A2.5,2.5,0,0,0,522.16,441.5Z"/><path class="cls-14" d="M237.06,455.75a4.88,4.88,0,0,1-4.25,4.8v.13a4.87,4.87,0,0,1,4.25,4.79v12.42c0,6.35-3.44,9.73-9.79,9.73h-16.2a1,1,0,0,1-1.08-1.08V434.69a1,1,0,0,1,1.08-1.08h16.2c6.35,0,9.79,3.38,9.79,9.72Zm-9-10.53a2.4,2.4,0,0,0-2.7-2.7h-6.14v13.64h6.14a2.4,2.4,0,0,0,2.7-2.63Zm0,22.55a2.39,2.39,0,0,0-2.7-2.7h-6.14v13.64h6.14a2.4,2.4,0,0,0,2.7-2.71Z"/><path class="cls-14" d="M270.74,448.19c0,.68-.27,1.15-1.08,1.15H253v10.39h12.69a1,1,0,0,1,1.08,1.15v6.69a1,1,0,0,1-1.08,1.14H253v10h16.67c.81,0,1.08.33,1.08,1.08v6.75c0,.67-.27,1.08-1.08,1.08H244.82a1,1,0,0,1-1-1.08v-45.1a1,1,0,0,1,1-1.08h24.84c.81,0,1.08.41,1.08,1.08Z"/><path class="cls-14" d="M292.75,440.36c6.34,0,9.72,3.38,9.72,9.72v4.46a1,1,0,0,1-1.08,1.08h-6.82a1,1,0,0,1-1.08-1.08V451.7a2.4,2.4,0,0,0-2.7-2.7h-3.72a2.46,2.46,0,0,0-2.7,2.7v5.74l16.34,5.27a2.41,2.41,0,0,1,1.76,2.49v12.69c0,6.35-3.38,9.73-9.72,9.73h-7.57c-6.27,0-9.72-3.38-9.72-9.73v-4.38a1,1,0,0,1,1.08-1.08h6.82c.74,0,1.08.33,1.08,1.08v2.83a2.42,2.42,0,0,0,2.7,2.7h3.65a2.4,2.4,0,0,0,2.7-2.7v-6.82l-16.2-5.26a2.42,2.42,0,0,1-1.83-2.5V450.08c0-6.34,3.45-9.72,9.72-9.72Z"/><path class="cls-14" d="M331.76,440.36a1,1,0,0,1,1.08,1.08v6.75a1,1,0,0,1-1.08,1.08h-7.83v37.27a.94.94,0,0,1-1.08,1.08h-7a1,1,0,0,1-1.08-1.08V449.27h-7.83a1,1,0,0,1-1.08-1.08v-6.75a1,1,0,0,1,1.08-1.08Z"/><path class="cls-14" d="M382.12,463.65c0,3.92-1.29,6.68-3.78,8.24l3.51,14.51c.2.81-.21,1.22-1,1.22h-6.61a1.06,1.06,0,0,1-1.15-.95l-3.24-13.3h-6v13.17a1,1,0,0,1-1.08,1.08h-6.62a1,1,0,0,1-1.08-1.08v-45.1a1,1,0,0,1,1.08-1.08h16.2c6.35,0,9.73,3.38,9.73,9.72Zm-11.48,1a2.42,2.42,0,0,0,2.7-2.7V451.77a2.42,2.42,0,0,0-2.7-2.7h-6.75v15.59Z"/><path class="cls-14" d="M412.83,487.62a1,1,0,0,1-1.08-.95l-2.16-8.51H396.9l-2.1,8.51a1,1,0,0,1-1.08.95h-6.61c-.74,0-1.08-.41-.88-1.15l11.21-45.16a1,1,0,0,1,1.14-.95H408a1.05,1.05,0,0,1,1.15.95l11.2,45.16c.2.74-.13,1.15-.94,1.15ZM403.24,452,399,470.33h8.51Z"/><path class="cls-14" d="M445,440.36a1,1,0,0,1,1.08,1.08v6.75a1,1,0,0,1-1.08,1.08h-7.83v37.27a.94.94,0,0,1-1.08,1.08h-7a1,1,0,0,1-1.08-1.08V449.27h-7.83a1,1,0,0,1-1.08-1.08v-6.75a1,1,0,0,1,1.08-1.08Z"/><path class="cls-14" d="M451.84,487.62a1,1,0,0,1-1.08-1.08v-45.1a1,1,0,0,1,1.08-1.08h7a1,1,0,0,1,1.08,1.08v45.1a1,1,0,0,1-1.08,1.08Z"/><path class="cls-14" d="M494.44,440.36a1,1,0,0,1,1.08,1.08v45.1a1,1,0,0,1-1.08,1.08H489.1a1.2,1.2,0,0,1-1.21-.88L475.2,461v25.59a1,1,0,0,1-1.08,1.08h-6.35a1,1,0,0,1-1.08-1.08v-45.1a1,1,0,0,1,1.08-1.08h5.33a1.22,1.22,0,0,1,1.22.88L487,467V441.44a1,1,0,0,1,1.08-1.08Z"/><path class="cls-14" d="M502.26,443.33c0-6.34,3.38-9.72,9.72-9.72h8.91c6.28,0,9.73,3.38,9.73,9.72v7a1,1,0,0,1-1.08,1.08h-6.76a1,1,0,0,1-1.08-1.08v-5.13a2.42,2.42,0,0,0-2.7-2.7h-4.86a2.4,2.4,0,0,0-2.7,2.7V476a2.4,2.4,0,0,0,2.7,2.71H519a2.4,2.4,0,0,0,2.7-2.71v-9h-3.51a1,1,0,0,1-1.08-1.08v-6.75a.94.94,0,0,1,1.08-1.08h11.35a1,1,0,0,1,1.08,1.08v18.76c0,6.35-3.45,9.73-9.73,9.73H512c-6.34,0-9.72-3.38-9.72-9.73Z"/><path d="M666.31,242.35l-.19-1.41c1.84-.25,2.84-.36,2.84-.36l.17,1.41Z"/><path d="M125.89,500l-1.06,1c1.26,1.37,2.58,2.77,4,4.16l1-1C128.45,502.78,127.13,501.39,125.89,500Zm-7.35-8.68-1.12.87c1.15,1.48,2.36,3,3.61,4.46l1.1-.92C120.89,494.3,119.68,492.82,118.54,491.36ZM112.09,482l-1.21.75c1,1.59,2,3.21,3.14,4.81l1.18-.81C114.09,485.19,113.05,483.6,112.09,482Zm-5.23-10-1.31.56c.74,1.73,1.58,3.48,2.48,5.21l1.26-.66C108.41,475.41,107.59,473.69,106.86,472Zm-3.47-10.72-1.4.31c.4,1.83.92,3.71,1.52,5.57l1.35-.44C104.28,464.9,103.78,463.07,103.39,461.28Zm-1.09-9.81c0-.45,0-.9,0-1.35l-1.42-.05c0,.47,0,.93,0,1.4,0,1.45.08,2.92.21,4.4l1.43-.14C102.38,454.3,102.3,452.87,102.3,451.47Zm.55-12.8a44,44,0,0,0-1.38,5.63l1.42.25a40.34,40.34,0,0,1,1.33-5.44Zm5-10.44a44.23,44.23,0,0,0-2.82,5l1.3.62A43.07,43.07,0,0,1,109,429Zm7.28-9a55,55,0,0,0-3.87,4.28l1.09.9c1.17-1.42,2.43-2.82,3.79-4.17Zm8.83-7.42c-1.61,1.14-3.13,2.32-4.57,3.52l.92,1.1c1.4-1.18,2.9-2.34,4.46-3.46Zm9.77-6c-1.71.92-3.4,1.88-5,2.86l.75,1.22c1.56-1,3.2-1.92,4.9-2.83Zm10.41-4.9c-1.8.74-3.56,1.52-5.26,2.32l.6,1.29c1.67-.78,3.42-1.55,5.21-2.29ZM154.88,397c-1.85.59-3.67,1.21-5.43,1.85l.48,1.34c1.74-.63,3.55-1.25,5.39-1.83Zm11-3.1c-1.88.46-3.72.95-5.54,1.46l.39,1.37q2.7-.75,5.5-1.44Zm11.23-2.37q-2.86.51-5.63,1.1l.3,1.4c1.84-.39,3.7-.75,5.59-1.1Zm202.73-.47c-1.6.08-3.2.12-4.78.12h-.88l0,1.43h.9c1.6,0,3.23,0,4.86-.12Zm-17-.69-.2,1.41c1.89.26,3.82.46,5.73.59l.1-1.42C366.68,390.81,364.78,390.61,362.92,390.36Zm28.21-.58c-1.86.32-3.75.59-5.6.8l.15,1.42c1.88-.21,3.79-.49,5.68-.81Zm-202.66,0c-1.9.24-3.81.51-5.68.79L183,392c1.86-.29,3.74-.55,5.64-.8Zm168.27-.47c-1.64-.33-3.29-.72-4.94-1.15l-.35,1.39c1.5.39,3,.75,4.52,1.06l1.08.22.27-1.4Zm-156.86-.7q-2.88.22-5.72.51l.16,1.43c1.86-.2,3.76-.37,5.66-.52Zm202.29-1.35c-1.85.52-3.7,1-5.5,1.41l.31,1.39c1.84-.42,3.72-.9,5.57-1.42Zm-190.85.7c-1.92.07-3.84.16-5.73.26l.08,1.43c1.88-.11,3.79-.19,5.69-.26Zm11.38-.49c-1.86.16-3.78.27-5.67.34l.05,1.42c1.91-.06,3.84-.18,5.74-.34Zm11.21-1.55c-1.82.35-3.7.67-5.58.93l.2,1.41c1.89-.26,3.81-.58,5.67-.94Zm112.16.57c-1.68-.56-3.38-1.17-5.05-1.8l-.53,1.33c1.6.62,3.23,1.19,4.84,1.72l.59.2.43-1.36Zm66.87-2.86c-1.77.69-3.58,1.34-5.35,1.94l.46,1.35c1.79-.6,3.62-1.26,5.4-1.95Zm-168-.5c-1.79.56-3.62,1.09-5.45,1.55l.35,1.39c1.86-.48,3.72-1,5.54-1.58Zm90.71-.68L331,380.33l-.4-.18-.6,1.3.29.13c1.56.72,3.17,1.44,4.77,2.17l.16.07.58-1.31Zm87.73-3.36c-1.71.83-3.45,1.63-5.15,2.38l.57,1.3c1.71-.75,3.46-1.55,5.21-2.39Zm-167.87,0c-1.7.78-3.45,1.52-5.23,2.2l.53,1.33c1.78-.69,3.57-1.44,5.3-2.23Zm64.81-3.83-.62,1.28c1.68.84,3.39,1.67,5.13,2.51l.63-1.29Q322.81,376.48,320.28,375.23Zm-54.81-1.49c-1.62,1-3.26,1.93-4.92,2.82l.67,1.26c1.69-.9,3.37-1.86,5-2.87Zm167.94.06c-1.65.94-3.32,1.85-5,2.73l.66,1.26q2.54-1.32,5-2.75ZM310.16,370l-.69,1.25q2.5,1.34,5.07,2.66l.66-1.27Q312.62,371.34,310.16,370Zm133-2.12c-1.62,1-3.22,2-4.85,3l.74,1.22c1.64-1,3.25-2,4.88-3Zm-167.89,0h0l-.54-.68-.43.33-.76.62c-1.1.84-2.21,1.66-3.35,2.46l.84,1.17c1.26-.89,2.51-1.82,3.71-2.78l.87-.69Zm24.91-3.41-.71,1.24c1.62.94,3.29,1.88,5,2.83l.69-1.25Q302.62,365.88,300.18,364.47Zm152.42-2.94c-1.53,1.08-3.07,2.14-4.59,3.17h0l-.09.06.8,1.18c1.56-1.07,3.13-2.15,4.71-3.26Zm-169.53-2-.94,1h0q-1.51,1.53-3.1,3l1,1.05c.73-.65,1.44-1.33,2.12-2h0c.68-.66,1.35-1.33,2-2Zm7.36-1-.76,1.2q2.4,1.52,4.87,3l.74-1.22Q292.82,360.07,290.43,358.58Zm171.36-3.8q-2.27,1.73-4.57,3.42l.85,1.15c1.53-1.13,3.07-2.27,4.6-3.43Zm-179.61-1.64h0l-1.22-.85-.82,1.17c.66.47,1.34.93,2,1.4h0l2.69,1.81.8-1.19C284.47,354.7,283.32,353.91,282.18,353.14Zm8.21-2.24c-1.12,1.51-2.3,3-3.54,4.44l1.11.93c1.22-1.47,2.44-3,3.57-4.51Zm180.41-3.16c-1.49,1.2-3,2.38-4.49,3.56l.89,1.12q2.26-1.77,4.5-3.56Zm-199-2.21-.88,1.12c1.48,1.15,3,2.31,4.57,3.46l.85-1.15C274.76,347.82,273.24,346.67,271.78,345.53Zm24.76-4.13c-.91,1.64-1.9,3.27-2.93,4.85l1.21.78c1-1.61,2-3.26,3-4.93Zm183.11-.91q-2.06,1.71-4.12,3.41l-.29.24.92,1.1,0,0,4.38-3.63ZM263,338.26l-.95,1.07c1.39,1.24,2.85,2.49,4.35,3.73l.91-1.09Q265.11,340.11,263,338.26Zm225.79-4.59-.47-.56-2.9,2.48L484,336.81l.92,1.09,1.44-1.23c.44-.37.9-.75,1.34-1.14l1.56-1.33Zm-187.41-2.5c-.69,1.74-1.44,3.48-2.26,5.2l1.28.61c.84-1.74,1.6-3.52,2.3-5.28Zm-46.58-.77-1,1c1.3,1.36,2.68,2.73,4.06,4.06l1-1C257.47,333.09,256.11,331.74,254.83,330.4Zm242.95-3.85-.77-.89-1,.87h0l-.93.8-.52.46-1.85,1.6.93,1.08,2.36-2h0l.72-.63h0l.21-.18h0l.45-.38h0l.55-.48Zm-250.37-4.73-1.13.87c1.13,1.49,2.37,3,3.63,4.45l1.08-.93C249.74,324.76,248.53,323.28,247.41,321.82Zm57.38-1.44c-.43,1.82-.93,3.65-1.5,5.46l1.37.43c.57-1.84,1.1-3.71,1.52-5.56Zm258.59,3.86-.09.92,0,.51c1.85.16,3.78.26,5.75.31l0-.83v-.59C567.11,324.51,565.21,324.4,563.38,324.24Zm17.08.9-.07-.88c-1.91.14-3.82.24-5.67.29v.59l0,.84c1.89-.05,3.81-.15,5.73-.3Zm11.2-2.29q-2.79.48-5.63.83l.19,1.42c1.89-.23,3.81-.52,5.69-.85Zm-39.45-.4-.35,1.39c1.8.44,3.7.82,5.67,1.14l.23-1.42Q554.85,323.11,552.21,322.45Zm50.52-2.11c-1.77.5-3.63,1-5.51,1.4l.32,1.39c1.91-.43,3.78-.91,5.59-1.42Zm-97.08-2.17-4.33,3.74.06.06.88,1,3.8-3.3h0l.5-.43Zm36.08.32-.7,1.25a39.69,39.69,0,0,0,5.29,2.41l.5-1.34A35.7,35.7,0,0,1,541.73,318.49Zm71.92-1.39-.25-.56c-1.66.73-3.43,1.43-5.26,2.08l.47,1.35c1.47-.53,2.92-1.08,4.28-1.65l1.08-.47Zm-372.49-4.7-1.25.69c.89,1.62,1.91,3.28,3,4.93l1.19-.79C243,315.61,242,314,241.16,312.4Zm292.55-1.3-1.24.73a20,20,0,0,0,3.77,4.53l1-1.06A17.77,17.77,0,0,1,533.71,311.1Zm-19.38-.37L510,314.44l.94,1.09q2.18-1.87,4.35-3.71Zm108.78.19a40.5,40.5,0,0,1-4.66,3.09l.7,1.24A39.45,39.45,0,0,0,624,312Zm-316.65-1.71c-.12,1.84-.31,3.73-.6,5.62l1.42.21c.29-1.93.5-3.86.61-5.74Zm216.68-5.8c-1.47,1.19-2.94,2.41-4.42,3.64l.92,1.09c1.46-1.22,2.93-2.43,4.39-3.63Zm106.53-1.07a13.92,13.92,0,0,1-2.58,4.73l1.12.9a15.47,15.47,0,0,0,2.82-5.22ZM236.85,302l-1.38.37a42.72,42.72,0,0,0,1.92,5.48l1.31-.55A46,46,0,0,1,236.85,302Zm294.83,3.34a17.31,17.31,0,0,1-.21-2.67v-.07c0-.7,0-1.4.11-2.09l-1.41-.14a22.4,22.4,0,0,0-.12,2.4V303a18.22,18.22,0,0,0,.25,2.8,4.21,4.21,0,0,0,.09.49l1.39-.26C531.74,305.82,531.71,305.6,531.68,305.38Zm-224.26-7.63L306,298a53.62,53.62,0,0,1,.51,5.61l1.43-.05A49.26,49.26,0,0,0,307.42,297.75Zm224.69-1.46c-1.5,1.16-3,2.33-4.52,3.53l.89,1.12q2.26-1.8,4.5-3.51Zm96.79-5-1.19.78a14.5,14.5,0,0,1,2.15,5l1.41-.3A16.4,16.4,0,0,0,628.9,291.32ZM236,291l-1.43-.19a26.47,26.47,0,0,0-.21,3.36c0,.81,0,1.65.11,2.5l1.42-.13c-.07-.81-.11-1.6-.11-2.37A23.54,23.54,0,0,1,236,291Zm298.13-1.49a28.37,28.37,0,0,0-2.6,5.2l1.34.5a27.73,27.73,0,0,1,2.46-4.94Zm7.29,0c-1.57,1.07-3.11,2.18-4.67,3.33l.83,1.15c1.55-1.14,3.11-2.24,4.65-3.31Zm-237.18-2.9-1.3.59a39.89,39.89,0,0,1,1.93,5.26l1.37-.4A40,40,0,0,0,304.2,286.63Zm316.53-3.57-.85,1.14a44.92,44.92,0,0,1,4.27,3.64l1-1A41.92,41.92,0,0,0,620.73,283.06Zm-69.74.22c-1.58,1-3.22,2-4.85,3l.77,1.2c1.62-1.06,3.25-2.07,4.82-3Zm-9.26-2.44a49.82,49.82,0,0,0-4.13,4.07l1.08.95a45.33,45.33,0,0,1,4-3.94Zm-302.62-.73a20.81,20.81,0,0,0-3,5.05l1.31.56a20,20,0,0,1,2.82-4.71Zm58.48-3-1,1a30.15,30.15,0,0,1,3.57,4.27l1.18-.81A30.62,30.62,0,0,0,297.59,277.08Zm263.52.74c-1.67.8-3.4,1.68-5.13,2.61l.69,1.26c1.69-.92,3.39-1.79,5.05-2.57Zm49.88-.91-.68,1.25c1.73.94,3.39,1.9,4.91,2.85l.75-1.21C614.43,278.83,612.76,277.86,611,276.91ZM551,274c-1.69,1.05-3.3,2.13-4.79,3.21l.84,1.16c1.46-1.06,3-2.12,4.7-3.16Zm-302.74-1a30.43,30.43,0,0,0-5,3l.87,1.14a27.93,27.93,0,0,1,4.73-2.91Zm323.51.61c-1.76.55-3.58,1.2-5.41,1.93l.53,1.33c1.8-.72,3.59-1.36,5.31-1.9Zm28.5-1.08-.37,1.38a44.4,44.4,0,0,1,5.31,1.82l.55-1.32A46.81,46.81,0,0,0,600.3,272.51Zm-312.45-1.79-.52,1.33a28.77,28.77,0,0,1,4.93,2.56l.77-1.19A30.27,30.27,0,0,0,287.85,270.72Zm295.22.47a55.4,55.4,0,0,0-5.68.92l.3,1.4a55.75,55.75,0,0,1,5.53-.9Zm5.77-.28,0,1.43a45.3,45.3,0,0,1,5.61.41l.2-1.41A44.59,44.59,0,0,0,588.84,270.91Zm-27.74-2.44c-1.76.87-3.47,1.76-5.09,2.65l.68,1.25c1.6-.88,3.3-1.76,5-2.62Zm-301.81.9a51.8,51.8,0,0,0-5.59,1.44l.43,1.36a48.68,48.68,0,0,1,5.45-1.4Zm17.24-1.16-.08,1.43a39,39,0,0,1,5.53.77l.31-1.4A41.42,41.42,0,0,0,276.53,268.21Zm-5.76-.07c-2,.06-3.92.19-5.75.38l.14,1.42c1.81-.19,3.7-.32,5.64-.37ZM571.6,263.8c-1.8.73-3.56,1.47-5.29,2.24l.59,1.31c1.7-.76,3.46-1.5,5.25-2.23Zm10.75-4c-1.82.63-3.63,1.28-5.39,1.94l.5,1.34c1.76-.66,3.56-1.3,5.35-1.93Zm10.92-3.53c-1.83.55-3.67,1.12-5.49,1.71l.44,1.36q2.71-.88,5.46-1.71Zm11-3.13c-1.83.48-3.68,1-5.5,1.51l.39,1.38c1.82-.52,3.65-1,5.49-1.51Zm11.13-2.8c-1.85.43-3.7.89-5.58,1.36l.36,1.38c1.85-.47,3.71-.92,5.54-1.36Zm11.17-2.52L621,249l.32,1.4q2.84-.63,5.59-1.22Zm11.25-2.25c-1.82.34-3.7.71-5.62,1.09l.27,1.41c1.93-.39,3.8-.75,5.61-1.1Zm11.3-2c-1.81.3-3.69.63-5.66,1l.25,1.4c2-.35,3.84-.67,5.63-1Zm11.33-1.79c-1.68.25-3.58.53-5.68.86L655,244l5.66-.86Z"/><path d="M135.28,511.45c-.71-.65-1.41-1.3-2.09-2l1-1c.68.64,1.37,1.3,2.08,1.94Z"/><path class="cls-10" d="M0,343.82l1.07,1.08v3.84q102.2.27,204.38-.06h.17l8.8,0c3.17,0,3.17-4.92,0-4.91l-7.58,0-5.71,0q-97,.29-194.08.05H0Z"/><path class="cls-10" d="M268.25,348.6H236.18c-3.16,0-3.16-4.91,0-4.91h32.07c3.17,0,3.17,4.91,0,4.91Z"/><path class="cls-10" d="M203,347.05c.45,1.08-.79-1.46-1-1.86a28,28,0,0,0-4.17-5.44c-5.6-5.81-13.29-7.17-20.94-5.31a2.52,2.52,0,0,1-2.77-1.13,60.71,60.71,0,0,0-26.81-22.93c-8.52-3.59-19.35-4.7-28.26-1.95a13.42,13.42,0,0,0-5.5,3.24c-.43.43-1.4,2.27-1.08,1.41-1.07,2.95-5.83,1.67-4.74-1.31,4.61-12.66,26.32-10.27,35.87-7.82,14.06,3.6,27.08,14.71,34.75,26.87l-2.77-1.12c13.54-3.28,26.73,3.11,32.17,16.05,1.22,2.91-3.53,4.17-4.74,1.3Z"/><path class="cls-10" d="M11.42,317.31a40.56,40.56,0,0,1,11.67,6.84c2,1.7,5.58-.57,3.85-3-4.67-6.5-2-18.07,1.19-24.58,5.95-12,17.72-16.81,30.66-13.8,18.44,4.3,35.86,15.82,48.83,30.24.45.49.89,1,1.31,1.49h0a102.82,102.82,0,0,1,7.07,9.13c1.78,2.59,6,.14,4.24-2.48a99.14,99.14,0,0,0-7-9c-1.14-1.3-2.32-2.57-3.52-3.82-3-3.08-6.08-6-9.28-8.73C87.33,288.42,70,277.43,52.22,277,39,276.66,28,284,23,296.2c-2.23,5.4-4.07,13-3.18,19.61a36.07,36.07,0,0,0-10.4-4.26A28.9,28.9,0,0,0,1.07,311v4.85A25.74,25.74,0,0,1,11.42,317.31Z"/><path class="cls-10" d="M0,343.82l1.07,1.08c1.09,1.08,2.14,2.09,3.1,3,2.32,2.16,5.8-1.3,3.48-3.47l-.6-.58a70.13,70.13,0,0,1-6-6.44v6.43Z"/><path class="cls-27" d="M638.18,336.9H512.78a13.31,13.31,0,0,0-13.3,13.3v38.65l-11.5,15-21,27.43,27.19-17.74,6.87-4.48a13.34,13.34,0,0,0,11.75,7.08h125.4a13.3,13.3,0,0,0,13.29-13.29V350.2A13.3,13.3,0,0,0,638.18,336.9Zm12.3,66a12.32,12.32,0,0,1-12.3,12.31H512.78a12.38,12.38,0,0,1-11.12-7l-.24-.51-7.58,4.95-22.57,14.74,17.45-22.78,11.64-15.22.11-.14v-39a12.33,12.33,0,0,1,12.31-12.32h125.4a12.32,12.32,0,0,1,12.3,12.32Z"/><path class="cls-27" d="M515.83,342.81a1.05,1.05,0,0,1-1.06,1.06h0a1.06,1.06,0,0,1-1.07-1.06h0a1.06,1.06,0,0,1,1.07-1.07h0a1.06,1.06,0,0,1,1.06,1.07Z"/><path class="cls-27" d="M523.22,342.81a1.06,1.06,0,0,1-1.07,1.06h0a1.05,1.05,0,0,1-1.06-1.06h0a1.06,1.06,0,0,1,1.06-1.07h0a1.06,1.06,0,0,1,1.07,1.07Z"/><path class="cls-27" d="M530.61,342.81a1.06,1.06,0,0,1-1.07,1.06h0a1.06,1.06,0,0,1-1.07-1.06h0a1.06,1.06,0,0,1,1.07-1.07h0a1.06,1.06,0,0,1,1.07,1.07Z"/><rect class="cls-27" x="534.57" y="342.64" width="101.33" height="0.33"/><path class="cls-27" d="M599.25,366.92h34a1,1,0,0,0,0-2.06h-34a1,1,0,0,0,0,2.06Z"/><path class="cls-27" d="M575.6,366.93h15.29a1,1,0,0,0,0-2.06H575.6a1,1,0,0,0,0,2.06Z"/><path class="cls-27" d="M558,366.91h10.65a1,1,0,0,0,0-2.06H558a1,1,0,0,0,0,2.06Z"/><path class="cls-27" d="M519.11,366.91h35.13a1,1,0,0,0,0-2.06H519.11a1,1,0,0,0,0,2.06Z"/><path class="cls-27" d="M599.25,381.83h34a1,1,0,0,0,0-2.06h-34a1,1,0,0,0,0,2.06Z"/><path class="cls-27" d="M575.6,381.84h15.29a1,1,0,0,0,0-2.06H575.6a1,1,0,0,0,0,2.06Z"/><path class="cls-27" d="M558,381.82h10.65a1,1,0,0,0,0-2.06H558a1,1,0,0,0,0,2.06Z"/><path class="cls-27" d="M519.11,381.82h35.13a1,1,0,0,0,0-2.06H519.11a1,1,0,0,0,0,2.06Z"/><path class="cls-27" d="M92.32,363.18v32.49a8.21,8.21,0,0,0,8.2,8.2h77.36a8.25,8.25,0,0,0,7.25-4.37l4.24,2.76,16.76,10.95-13-16.93L186.08,387V363.18a8.2,8.2,0,0,0-8.2-8.2H100.52A8.2,8.2,0,0,0,92.32,363.18Zm.61,0a7.6,7.6,0,0,1,7.59-7.6h77.36a7.61,7.61,0,0,1,7.59,7.6v24.05l.07.08,7.18,9.39,10.77,14.06-13.93-9.1-4.67-3.05-.15.32a7.65,7.65,0,0,1-6.86,4.33H100.52a7.6,7.6,0,0,1-7.59-7.59Z"/><path class="cls-27" d="M176,358.62a.66.66,0,0,0,.66.66h0a.66.66,0,0,0,.66-.66h0a.67.67,0,0,0-.66-.66h0a.67.67,0,0,0-.66.66Z"/><path class="cls-27" d="M171.44,358.62a.65.65,0,0,0,.65.66h0a.65.65,0,0,0,.66-.66h0a.66.66,0,0,0-.66-.66h0a.66.66,0,0,0-.65.66Z"/><path class="cls-27" d="M166.88,358.62a.66.66,0,0,0,.66.66h0a.66.66,0,0,0,.66-.66h0a.67.67,0,0,0-.66-.66h0a.67.67,0,0,0-.66.66Z"/><rect class="cls-27" x="101.92" y="358.52" width="62.51" height="0.2"/><path class="cls-27" d="M124.53,373.5h-21a.64.64,0,0,1,0-1.27h21a.64.64,0,0,1,0,1.27Z"/><path class="cls-27" d="M139.12,373.5h-9.43a.64.64,0,0,1,0-1.27h9.43a.64.64,0,0,1,0,1.27Z"/><path class="cls-27" d="M150,373.49h-6.57a.64.64,0,0,1,0-1.27H150a.64.64,0,0,1,0,1.27Z"/><path class="cls-27" d="M174,373.49H152.3a.64.64,0,0,1,0-1.27H174a.64.64,0,0,1,0,1.27Z"/><path class="cls-27" d="M124.53,382.7h-21a.64.64,0,0,1,0-1.27h21a.64.64,0,0,1,0,1.27Z"/><path class="cls-27" d="M139.12,382.7h-9.43a.64.64,0,0,1,0-1.27h9.43a.64.64,0,0,1,0,1.27Z"/><path class="cls-27" d="M150,382.69h-6.57a.64.64,0,0,1,0-1.27H150a.64.64,0,0,1,0,1.27Z"/><path class="cls-27" d="M174,382.69H152.3a.64.64,0,0,1,0-1.27H174a.64.64,0,0,1,0,1.27Z"/></g></g></g></g></svg>