<svg xmlns="http://www.w3.org/2000/svg" width="279.745" height="246.039" viewBox="0 0 279.745 246.039">
  <g id="ratings" transform="translate(2990.68 -6021)">
    <g id="Group_475" data-name="Group 475" transform="translate(-2978.047 6147.91)">
      <path id="Path_1178" data-name="Path 1178" d="M0,343.795l.526.531v1.889q50.274.133,100.539-.03h4.413a1.208,1.208,0,0,0,0-2.415H98.94q-47.716.143-95.472.025Z" transform="translate(0 -305.016)" fill="#fd9d09"/>
      <path id="Path_1179" data-name="Path 1179" d="M250.752,346.105H234.976a1.208,1.208,0,0,1,0-2.415h15.776A1.208,1.208,0,0,1,250.752,346.105Z" transform="translate(-123.222 -305.959)" fill="#fd9d09"/>
      <path id="Path_1180" data-name="Path 1180" d="M154.513,324.16c.221.531-.389-.718-.492-.915a13.772,13.772,0,0,0-2.051-2.676c-2.755-2.858-6.538-3.527-10.3-2.612a1.24,1.24,0,0,1-1.363-.556,29.864,29.864,0,0,0-13.188-11.28,21.3,21.3,0,0,0-13.9-.959,6.6,6.6,0,0,0-2.706,1.594c-.212.212-.689,1.117-.531.694-.526,1.451-2.868.822-2.332-.644,2.268-6.228,12.947-5.052,17.645-3.847,6.916,1.771,13.321,7.236,17.094,13.218l-1.363-.551a13.362,13.362,0,0,1,15.825,7.9c.6,1.432-1.736,2.051-2.332.639Z" transform="translate(-49.734 -284.776)" fill="#fd9d09"/>
      <path id="Path_1181" data-name="Path 1181" d="M6.161,296.824a19.952,19.952,0,0,1,5.741,3.365c.984.836,2.745-.28,1.894-1.476-2.3-3.2-.984-8.889.585-12.091,2.927-5.9,8.717-8.269,15.082-6.788,9.071,2.115,17.64,7.782,24.02,14.876.221.241.438.492.644.733h0a50.579,50.579,0,0,1,3.478,4.491c.876,1.274,2.952.069,2.086-1.22a48.759,48.759,0,0,0-3.443-4.427c-.561-.639-1.141-1.264-1.732-1.879-1.476-1.515-2.991-2.952-4.565-4.294-6.449-5.5-14.974-10.906-23.72-11.117a14.752,14.752,0,0,0-14.374,9.445,20.058,20.058,0,0,0-1.564,9.647,17.743,17.743,0,0,0-5.116-2.1,14.215,14.215,0,0,0-4.108-.271v2.386a12.662,12.662,0,0,1,5.091.718Z" transform="translate(0.44 -276.989)" fill="#fd9d09"/>
      <path id="Path_1182" data-name="Path 1182" d="M0,340.563l.526.531c.536.531,1.053,1.028,1.525,1.476,1.141,1.063,2.853-.639,1.712-1.707l-.3-.285A34.508,34.508,0,0,1,.517,337.41v3.163Z" transform="translate(0.984 -307.688)" fill="#fd9d09"/>
    </g>
    <g id="Group_474" data-name="Group 474" transform="translate(-2844.062 6077.561)">
      <path id="Path_985" data-name="Path 985" d="M639.849,167.795l-.526.531v1.889q-50.274.133-100.539-.029h-4.412a1.208,1.208,0,0,1,0-2.415h6.538q47.741.138,95.472.025h3.443Z" transform="translate(-506.722 -134.914)" fill="#fd9d09"/>
      <path id="Path_986" data-name="Path 986" d="M480.542,170.105h15.776a1.208,1.208,0,0,0,0-2.415H480.542A1.208,1.208,0,0,0,480.542,170.105Z" transform="translate(-479.372 -134.874)" fill="#fd9d09"/>
      <path id="Path_987" data-name="Path 987" d="M544.486,148.16c-.221.531.389-.718.492-.915a13.774,13.774,0,0,1,2.051-2.676c2.755-2.858,6.538-3.527,10.3-2.612a1.24,1.24,0,0,0,1.363-.556,29.864,29.864,0,0,1,13.188-11.28,21.3,21.3,0,0,1,13.9-.959,6.6,6.6,0,0,1,2.706,1.594c.212.212.689,1.117.531.694.526,1.451,2.868.822,2.332-.644-2.268-6.228-12.947-5.052-17.645-3.847-6.916,1.771-13.321,7.236-17.094,13.218l1.363-.551a13.362,13.362,0,0,0-15.825,7.9c-.6,1.431,1.737,2.051,2.332.639Z" transform="translate(-511.218 -113.691)" fill="#fd9d09"/>
      <path id="Path_988" data-name="Path 988" d="M683.077,120.819a19.953,19.953,0,0,0-5.741,3.365c-.984.836-2.745-.28-1.894-1.476,2.3-3.2.984-8.889-.585-12.091-2.952-5.9-8.717-8.269-15.082-6.788-9.071,2.115-17.64,7.782-24.02,14.876-.221.241-.438.492-.644.733h0a50.59,50.59,0,0,0-3.478,4.491c-.876,1.274-2.951.069-2.086-1.22a48.793,48.793,0,0,1,3.443-4.427c.561-.639,1.141-1.264,1.732-1.879,1.476-1.515,2.991-2.952,4.565-4.294,6.429-5.5,14.954-10.906,23.7-11.122a14.786,14.786,0,0,1,14.394,9.45,20.057,20.057,0,0,1,1.564,9.647,17.744,17.744,0,0,1,5.116-2.1,14.216,14.216,0,0,1,4.088-.271V120.1A12.662,12.662,0,0,0,683.077,120.819Z" transform="translate(-555.568 -100.979)" fill="#fd9d09"/>
      <path id="Path_989" data-name="Path 989" d="M745.724,164.563l-.526.531c-.536.531-1.053,1.028-1.525,1.476-1.141,1.063-2.853-.639-1.712-1.707l.3-.285a34.492,34.492,0,0,0,2.952-3.168v3.163Z" transform="translate(-612.598 -131.683)" fill="#fd9d09"/>
    </g>
    <path id="Path_1034" data-name="Path 1034" d="M515.2,442.144a1.868,1.868,0,0,0,0-3.734A1.868,1.868,0,0,0,515.2,442.144Z" transform="translate(-3296.94 5798.252)" fill="#fd9d09"/>
    <path id="Path_1037" data-name="Path 1037" d="M379.538,142.952c4.816,0,4.816-7.472,0-7.472S374.717,142.952,379.538,142.952Z" transform="translate(-3227.094 5952.166)" fill="#fd9d09"/>
    <path id="Path_1039" data-name="Path 1039" d="M217.318,469.182c4.816,0,4.816-7.472,0-7.472S212.5,469.182,217.318,469.182Z" transform="translate(-3144.673 5786.414)" fill="#fd9d09"/>
    <path id="Path_1040" data-name="Path 1040" d="M178.56,76.723c2.952-1.107,6.179,7.871,9.233,8.712s10.443-5.155,12.411-2.666-5.564,8.3-5.411,11.476,8.131,8.333,6.395,10.98-9.617-2.73-12.593-1.623-5.411,10.33-8.476,9.455-.379-9.986-2.351-12.475-11.476-1.968-11.609-5.136S175.544,92,177.3,89.35s-1.677-11.521,1.3-12.628" transform="translate(-3120.515 5982.067)" fill="#ffcb3f"/>
    <path id="Path_1041" data-name="Path 1041" d="M179.446,113.079a2.537,2.537,0,0,1-.664-.088c-2.411-.674-2.337-4.108-2.273-7.428.044-2.13.093-4.54-.576-5.382s-3.025-1.343-5.106-1.791c-3.247-.689-6.606-1.407-6.71-3.906s3.183-3.5,6.361-4.457c2.037-.615,4.344-1.313,4.919-2.209s.344-3.3.123-5.411c-.344-3.306-.7-6.72,1.643-7.59a2.46,2.46,0,0,1,.856-.157c1.968,0,3.621,2.346,5.347,4.831,1.215,1.746,2.6,3.724,3.63,4.014a1.638,1.638,0,0,0,.413.049c1.161,0,3-.817,4.772-1.6,2.032-.905,3.935-1.756,5.5-1.756a2.666,2.666,0,0,1,2.219.984c1.554,1.968-.492,4.693-2.524,7.344-1.289,1.692-2.745,3.616-2.7,4.688s1.658,2.868,3.084,4.452c2.219,2.46,4.516,5.022,3.129,7.108a2.809,2.809,0,0,1-2.519,1.171h0a17.876,17.876,0,0,1-5.239-1.309,17.519,17.519,0,0,0-4.654-1.205,1.967,1.967,0,0,0-.644.089c-.984.379-2.214,2.46-3.276,4.309C183.007,110.521,181.527,113.079,179.446,113.079Zm-1.407-36.486a.492.492,0,0,0-.182.034c-.94.349-.625,3.37-.394,5.578.28,2.676.541,5.2-.438,6.68s-3.414,2.209-5.987,2.991c-2.125.659-5.013,1.52-5.013,2.524s3.015,1.638,5.185,2.1c2.632.561,5.121,1.092,6.218,2.46s1.048,3.935.984,6.621c-.044,2.219-.108,5.259.861,5.524a.492.492,0,0,0,.143.025c.984,0,2.405-2.489,3.443-4.3,1.343-2.332,2.617-4.531,4.275-5.15a3.763,3.763,0,0,1,1.318-.212,18.228,18.228,0,0,1,5.288,1.313,17.2,17.2,0,0,0,4.6,1.2h0c.708,0,.856-.226.91-.31.556-.836-1.476-3.094-2.951-4.747-1.8-2-3.5-3.891-3.576-5.657s1.476-3.793,3.089-5.942c1.338-1.766,3.173-4.186,2.553-4.973-.059-.074-.192-.246-.708-.246-1.141,0-2.952.812-4.722,1.594-2.046.91-3.98,1.766-5.554,1.766a3.523,3.523,0,0,1-.935-.118c-1.7-.492-3.153-2.563-4.693-4.772C180.626,78.905,179.018,76.593,178.039,76.593Z" transform="translate(-3119.478 5983.066)" fill="#300635"/>
    <path id="Path_1042" data-name="Path 1042" d="M255.849,24.579c3.03-.944,5.746,8.181,8.751,9.2s10.7-4.6,12.539-1.992-6.006,7.989-6.046,11.167,7.669,8.766,5.77,11.314-9.455-3.242-12.485-2.3-5.967,10-8.973,8.982.162-10-1.673-12.588-11.354-2.583-11.314-5.76,9.558-2.952,11.457-5.475-1.053-11.6,1.968-12.544" transform="translate(-3159.263 6008.546)" fill="#ffcb3f"/>
    <path id="Path_1043" data-name="Path 1043" d="M254.883,60.968a2.533,2.533,0,0,1-.787-.128c-2.371-.8-2.115-4.226-1.869-7.541.157-2.12.339-4.526-.28-5.411s-2.952-1.51-5-2.066c-3.207-.866-6.523-1.761-6.493-4.265s3.365-3.316,6.592-4.108c2.071-.492,4.427-1.077,5.052-1.938s.521-3.271.418-5.411c-.167-3.316-.339-6.744,2.051-7.492a2.46,2.46,0,0,1,.728-.108c2.051,0,3.586,2.484,5.214,5.111,1.117,1.81,2.386,3.862,3.4,4.206a1.756,1.756,0,0,0,.551.074,16.644,16.644,0,0,0,4.713-1.348,17.107,17.107,0,0,1,5.347-1.476,2.765,2.765,0,0,1,2.41,1.1c1.441,2.041-.777,4.663-2.922,7.2-1.377,1.628-2.952,3.468-2.952,4.54s1.5,2.952,2.833,4.609c2.086,2.587,4.24,5.264,2.745,7.266a2.72,2.72,0,0,1-2.322,1.043,15.973,15.973,0,0,1-5.411-1.594,15.944,15.944,0,0,0-4.742-1.476,1.736,1.736,0,0,0-.492.059c-1.023.32-2.342,2.342-3.507,4.122C258.484,58.548,256.9,60.968,254.883,60.968Zm.408-36.515a.418.418,0,0,0-.152.03c-.959.3-.807,3.33-.7,5.544.133,2.691.261,5.234-.8,6.651s-3.527,2.022-6.139,2.661c-2.16.526-5.111,1.249-5.121,2.253s2.922,1.8,5.062,2.376c2.6.7,5.052,1.368,6.075,2.814s.836,3.98.635,6.666c-.167,2.209-.389,5.239.561,5.564a.492.492,0,0,0,.167.03c.984,0,2.524-2.376,3.655-4.112,1.476-2.253,2.863-4.383,4.555-4.919a3.567,3.567,0,0,1,1.058-.148,16.487,16.487,0,0,1,5.475,1.6,15.738,15.738,0,0,0,4.693,1.451c.576,0,.718-.192.772-.261.6-.807-1.309-3.173-2.7-4.919-1.687-2.1-3.281-4.078-3.261-5.849s1.668-3.709,3.4-5.76c1.436-1.7,3.4-4.014,2.819-4.836-.054-.074-.2-.28-.831-.28a16.227,16.227,0,0,0-4.663,1.338,16.931,16.931,0,0,1-5.411,1.476,3.635,3.635,0,0,1-1.171-.177c-1.673-.566-3.011-2.73-4.427-5.018-1.082-1.746-2.583-4.176-3.557-4.176Z" transform="translate(-3158.262 6009.568)" fill="#300635"/>
    <path id="Path_1044" data-name="Path 1044" d="M521.628,76.723c-2.952-1.107-6.179,7.871-9.238,8.712s-10.439-5.155-12.411-2.666,5.564,8.3,5.411,11.476-8.127,8.333-6.37,10.98,9.617-2.73,12.593-1.623,5.411,10.33,8.471,9.455.379-9.986,2.351-12.475,11.477-1.968,11.614-5.136S524.663,92,522.907,89.35s1.677-11.521-1.3-12.628" transform="translate(-3289.508 5982.067)" fill="#ffcb3f"/>
    <path id="Path_1045" data-name="Path 1045" d="M518.72,113.069h0c-2.086,0-3.566-2.558-5.131-5.264-1.067-1.845-2.273-3.935-3.281-4.309a1.923,1.923,0,0,0-.64-.089,17.454,17.454,0,0,0-4.658,1.205,17.766,17.766,0,0,1-5.239,1.309,2.819,2.819,0,0,1-2.524-1.171c-1.382-2.086.915-4.639,3.134-7.108,1.422-1.584,3.035-3.375,3.079-4.452s-1.412-3-2.7-4.688c-2.007-2.651-4.083-5.387-2.529-7.344a2.671,2.671,0,0,1,2.223-.984c1.55,0,3.473.851,5.5,1.756,1.771.787,3.606,1.6,4.772,1.6a1.668,1.668,0,0,0,.413-.049c1.033-.29,2.41-2.268,3.625-4.014,1.727-2.46,3.36-4.831,5.347-4.831a2.42,2.42,0,0,1,.856.157c2.346.871,1.968,4.285,1.643,7.59-.221,2.115-.492,4.516.123,5.411s2.907,1.594,4.919,2.209c3.178.959,6.464,1.968,6.36,4.457s-3.443,3.217-6.715,3.906c-2.081.448-4.427.949-5.106,1.791s-.615,3.257-.576,5.382c.069,3.32.138,6.754-2.273,7.428A2.5,2.5,0,0,1,518.72,113.069Zm-9.051-11.595a3.734,3.734,0,0,1,1.313.212c1.658.62,2.952,2.819,4.28,5.15,1.048,1.815,2.489,4.3,3.443,4.3h0a.492.492,0,0,0,.143-.025c.984-.266.905-3.306.856-5.524-.054-2.691-.1-5.234.984-6.621s3.586-1.914,6.223-2.46c2.169-.462,5.141-1.1,5.18-2.1s-2.863-1.884-4.988-2.524c-2.578-.782-5.013-1.515-5.992-2.991s-.713-4-.433-6.68c.231-2.209.546-5.229-.4-5.578a.463.463,0,0,0-.182-.034c-.984,0-2.588,2.312-3.758,4-1.54,2.209-2.991,4.3-4.7,4.772a3.444,3.444,0,0,1-.93.118c-1.574,0-3.512-.856-5.559-1.766-1.761-.782-3.576-1.594-4.718-1.594-.492,0-.654.172-.708.241-.625.792,1.21,3.212,2.553,4.978,1.623,2.145,3.158,4.171,3.084,5.942s-1.746,3.66-3.532,5.628c-1.476,1.653-3.517,3.935-2.951,4.747.059.084.207.31.915.31a17.277,17.277,0,0,0,4.609-1.2A18.44,18.44,0,0,1,509.668,101.474Z" transform="translate(-3288.523 5983.077)" fill="#300635"/>
    <path id="Path_1046" data-name="Path 1046" d="M444.6,24.579c-3.03-.944-5.741,8.181-8.751,9.2s-10.7-4.6-12.539-1.992,6.006,7.989,6.046,11.167-7.669,8.766-5.77,11.314,9.455-3.242,12.49-2.3,5.962,10,8.973,8.982-.162-10,1.673-12.588,11.353-2.583,11.314-5.76-9.558-2.952-11.452-5.475,1.048-11.6-1.968-12.544" transform="translate(-3251.03 6008.546)" fill="#ffcb3f"/>
    <path id="Path_1047" data-name="Path 1047" d="M443.57,61h0c-2.022,0-3.606-2.42-5.278-4.983-1.161-1.781-2.46-3.8-3.507-4.122a1.712,1.712,0,0,0-.492-.059,15.56,15.56,0,0,0-4.742,1.476A16.29,16.29,0,0,1,424.14,54.9a2.71,2.71,0,0,1-2.322-1.043c-1.476-2,.659-4.678,2.74-7.266,1.333-1.682,2.868-3.552,2.833-4.634s-1.574-2.912-2.951-4.54c-2.145-2.533-4.363-5.155-2.917-7.2a2.76,2.76,0,0,1,2.41-1.1A16.815,16.815,0,0,1,429.28,30.6a16.4,16.4,0,0,0,4.708,1.348h0a1.736,1.736,0,0,0,.551-.074c1.018-.344,2.287-2.4,3.409-4.206,1.623-2.627,3.163-5.111,5.209-5.111a2.494,2.494,0,0,1,.733.108c2.386.748,2.214,4.176,2.051,7.492-.108,2.125-.226,4.535.413,5.411s2.986,1.436,5.052,1.938c3.227.792,6.562,1.609,6.6,4.108s-3.286,3.4-6.493,4.265c-2.056.556-4.383,1.186-5,2.066s-.443,3.281-.285,5.411c.246,3.311.492,6.739-1.864,7.541A2.534,2.534,0,0,1,443.57,61Zm-9.258-11.1a3.581,3.581,0,0,1,1.063.148c1.687.526,3.079,2.656,4.55,4.919,1.131,1.736,2.681,4.108,3.66,4.112h0a.521.521,0,0,0,.167-.03c.949-.325.723-3.355.561-5.564-.2-2.686-.394-5.224.63-6.67s3.478-2.105,6.075-2.809c2.145-.58,5.077-1.372,5.067-2.376s-2.952-1.727-5.121-2.253c-2.617-.639-5.086-1.245-6.144-2.661s-.93-3.935-.8-6.651c.113-2.214.266-5.249-.694-5.544a.447.447,0,0,0-.157-.03c-.984,0-2.46,2.43-3.566,4.2-1.417,2.287-2.755,4.452-4.427,5.018a3.61,3.61,0,0,1-1.171.177h0a17.137,17.137,0,0,1-5.411-1.476,16.332,16.332,0,0,0-4.658-1.338c-.635,0-.777.207-.831.28-.58.822,1.382,3.138,2.814,4.836,1.741,2.051,3.384,3.994,3.4,5.76s-1.569,3.748-3.261,5.849c-1.392,1.727-3.3,4.093-2.7,4.919.049.069.192.261.772.261a15.715,15.715,0,0,0,4.688-1.451A16.04,16.04,0,0,1,434.312,49.9Z" transform="translate(-3250.027 6009.538)" fill="#300635"/>
    <path id="Path_1048" data-name="Path 1048" d="M350.038,1.98c3.173-.059,3.232,9.46,5.839,11.28s11.565-1.441,12.6,1.559-8,6-8.9,9.037,4.919,10.557,2.391,12.475-8.176-5.755-11.353-5.692-8.54,7.94-11.142,6.124,2.952-9.558,1.9-12.554-10.183-5.647-9.258-8.687,10-.152,12.524-2.066,2.228-11.432,5.411-11.5" transform="translate(-3204.8 6020.004)" fill="#ffcb3f"/>
    <path id="Path_1049" data-name="Path 1049" d="M339.353,37a2.459,2.459,0,0,1-1.441-.443c-2.051-1.431-.851-4.649.31-7.762.743-1.968,1.584-4.255,1.235-5.268s-2.41-2.268-4.23-3.375c-2.838-1.727-5.77-3.512-5.042-5.9.659-2.174,3.64-2.174,5.077-2.174.772,0,1.6.034,2.4.069s1.589.069,2.327.069c.605,0,2.376,0,3.065-.521.856-.649,1.412-3,1.9-5.067.767-3.237,1.559-6.577,4.058-6.626h.049c2.46,0,3.379,3.286,4.265,6.459.571,2.051,1.215,4.378,2.1,4.993a4.571,4.571,0,0,0,2.361.418c.93,0,2.007-.089,3.045-.177s2.189-.177,3.188-.177,3.675,0,4.363,1.992c.822,2.366-2.041,4.265-4.811,6.1-1.771,1.176-3.783,2.509-4.1,3.537s.62,3.252,1.441,5.214c1.279,3.065,2.6,6.233.605,7.743a2.46,2.46,0,0,1-1.535.492h0c-1.727,0-3.68-1.55-5.751-3.193-1.653-1.313-3.527-2.8-4.609-2.8s-2.922,1.594-4.535,2.981c-2.046,1.756-3.98,3.414-5.736,3.414ZM335.26,14c-1.968,0-3.065.271-3.227.8-.3.959,2.3,2.543,4.2,3.694,2.3,1.4,4.472,2.725,5.052,4.393s-.31,4.058-1.249,6.577c-.777,2.081-1.84,4.919-1.013,5.5a.561.561,0,0,0,.335.093c1.043,0,2.863-1.564,4.476-2.952,2.041-1.756,3.97-3.414,5.741-3.443h.054c1.756,0,3.724,1.564,5.814,3.222,1.638,1.3,3.493,2.779,4.545,2.779a.581.581,0,0,0,.369-.113c.8-.605-.369-3.409-1.225-5.46-1.038-2.46-2.017-4.831-1.505-6.523s2.637-3.094,4.88-4.585c1.85-1.225,4.383-2.9,4.053-3.852-.157-.453-1.033-.694-2.538-.694-.92,0-1.992.089-3.03.172s-2.194.177-3.2.177a6.037,6.037,0,0,1-3.468-.762c-1.451-1.013-2.13-3.443-2.853-6.056-.59-2.13-1.4-5.047-2.4-5.047s-1.717,2.976-2.228,5.136c-.62,2.617-1.205,5.091-2.617,6.159-.846.639-2.11.915-4.23.915h0c-.782,0-1.609-.034-2.41-.069S335.993,14,335.26,14Z" transform="translate(-3203.797 6021)" fill="#300635"/>
    <path id="Path_1050" data-name="Path 1050" d="M324.1,362.307h31.453a11.624,11.624,0,0,0,4.457-9.022V295.141c0-6.7-6.026-12.131-13.454-12.131H333.1c-7.428,0-13.454,5.411-13.454,12.131v58.145a11.624,11.624,0,0,0,4.452,9.022Z" transform="translate(-3198.502 5877.208)" fill="#eaf4ff"/>
    <path id="Path_1051" data-name="Path 1051" d="M322.113,361.495h2.5a10.976,10.976,0,0,1-4.993-9.022V294.328c0-6.257,5.682-11.349,12.667-11.349H345.75c6.985,0,12.667,5.091,12.667,11.349v58.145a11.008,11.008,0,0,1-4.988,9.022h2.5a12.3,12.3,0,0,0,4.058-9.022V294.328c0-7.123-6.395-12.918-14.241-12.918H332.3c-7.871,0-14.236,5.795-14.236,12.918v58.145a12.3,12.3,0,0,0,4.053,9.022Z" transform="translate(-3197.694 5878.021)" fill="#300635"/>
    <path id="Path_1052" data-name="Path 1052" d="M345.644,293.17h8.018c3.227,0,5.844-2.017,5.844-4.511v-2.952a24.486,24.486,0,0,0-9.789-1.609,23.853,23.853,0,0,0-9.937,2.145v2.415C339.8,291.153,342.417,293.17,345.644,293.17Z" transform="translate(-3208.73 5876.666)" fill="#fff"/>
    <path id="Path_1053" data-name="Path 1053" d="M352.783,293.163h-8.018c-3.7,0-6.715-2.415-6.715-5.387v-2.952l.492-.241a24.842,24.842,0,0,1,10.306-2.238h.674a24.877,24.877,0,0,1,9.46,1.677l.546.221v3.537C359.522,290.747,356.507,293.163,352.783,293.163ZM339.8,285.922v1.855c0,2.007,2.228,3.64,4.968,3.64h8.018c2.74,0,4.973-1.633,4.973-3.64v-2.351a24.2,24.2,0,0,0-8.9-1.333A23.415,23.415,0,0,0,339.8,285.922Z" transform="translate(-3207.851 5877.548)" fill="#300635"/>
    <path id="Path_1054" data-name="Path 1054" d="M359.925,275.75a3.939,3.939,0,0,1-3.783,4.083h-5.2a3.942,3.942,0,0,1-3.783-4.083V264.023a3.942,3.942,0,0,1,3.783-4.083h5.2a3.939,3.939,0,0,1,3.783,4.083Z" transform="translate(-3212.479 5888.93)" fill="#ffcf9d"/>
    <path id="Path_1055" data-name="Path 1055" d="M355.33,279.821h-5.2a4.765,4.765,0,0,1-4.57-4.919V263.159a4.759,4.759,0,0,1,4.57-4.919h5.2a4.766,4.766,0,0,1,4.575,4.919v11.727A4.77,4.77,0,0,1,355.33,279.821Zm-5.2-19.893a3.124,3.124,0,0,0-2.991,3.232v11.727a3.124,3.124,0,0,0,2.991,3.232h5.2a3.124,3.124,0,0,0,3-3.232V263.159a3.124,3.124,0,0,0-3-3.232Z" transform="translate(-3211.666 5889.793)" fill="#300635"/>
    <g id="Group_472" data-name="Group 472" transform="translate(-2865.319 6148.811)" opacity="0.5">
      <path id="Path_1056" data-name="Path 1056" d="M356.142,259.82h-5.2a3.783,3.783,0,0,0-3.783,3.783v5.2a3.783,3.783,0,0,0,3.783,3.788h5.2a3.783,3.783,0,0,0,3.783-3.788v-5.2a3.778,3.778,0,0,0-3.783-3.783Z" transform="translate(-347.16 -259.82)" fill="#cacaca"/>
    </g>
    <path id="Path_1057" data-name="Path 1057" d="M315.543,223.486a6.306,6.306,0,1,1-6.3-6.306,6.306,6.306,0,0,1,6.3,6.306Z" transform="translate(-3190.007 5910.655)" fill="#ffcf9d"/>
    <path id="Path_1058" data-name="Path 1058" d="M308.428,229.787a7.093,7.093,0,1,1,7.089-7.1,7.093,7.093,0,0,1-7.089,7.1Zm0-12.613a5.519,5.519,0,1,0,5.529,5.51,5.519,5.519,0,0,0-5.529-5.51Z" transform="translate(-3189.194 5911.458)" fill="#300635"/>
    <path id="Path_1059" data-name="Path 1059" d="M308.7,225.971s-.32-2.524,2.991-2.681" transform="translate(-3192.935 5907.551)" fill="#ffd5df"/>
    <path id="Path_1060" data-name="Path 1060" d="M307.879,225.939a.787.787,0,0,1-.782-.689,3.158,3.158,0,0,1,.708-2.292,4.03,4.03,0,0,1,3.035-1.269.788.788,0,1,1,.074,1.574,2.553,2.553,0,0,0-1.9.694,1.634,1.634,0,0,0-.364,1.107.792.792,0,0,1-.694.871Z" transform="translate(-3192.117 5908.364)" fill="#300635"/>
    <path id="Path_1061" data-name="Path 1061" d="M390.53,223.486a6.306,6.306,0,1,0,6.3-6.306,6.306,6.306,0,0,0-6.3,6.306Z" transform="translate(-3234.515 5910.655)" fill="#ffcf9d"/>
    <path id="Path_1062" data-name="Path 1062" d="M396.019,229.787a7.093,7.093,0,1,1,7.1-7.1A7.093,7.093,0,0,1,396.019,229.787Zm0-12.613a5.519,5.519,0,1,0,5.519,5.51A5.519,5.519,0,0,0,396.019,217.174Z" transform="translate(-3233.702 5911.458)" fill="#300635"/>
    <path id="Path_1063" data-name="Path 1063" d="M407.306,225.971s.315-2.524-3-2.681" transform="translate(-3241.516 5907.551)" fill="#ffd5df"/>
    <path id="Path_1064" data-name="Path 1064" d="M406.489,225.949h-.1a.8.8,0,0,1-.689-.876,1.623,1.623,0,0,0-.354-1.107,2.592,2.592,0,0,0-1.894-.694.788.788,0,1,1,.074-1.574,4.038,4.038,0,0,1,3.035,1.269,3.158,3.158,0,0,1,.708,2.292.787.787,0,0,1-.782.689Z" transform="translate(-3240.7 5908.359)" fill="#300635"/>
    <path id="Path_1065" data-name="Path 1065" d="M358.286,172.547a21.748,21.748,0,0,0-42.8,0,3.473,3.473,0,0,0-.354,1.525v19.874a3.587,3.587,0,0,0,0,.394,21.748,21.748,0,0,0,43.461,0,3.446,3.446,0,0,0,.025-.389V174.082a3.473,3.473,0,0,0-.335-1.535Z" transform="translate(-3196.205 5942.41)" fill="#ffcf9d"/>
    <path id="Path_1066" data-name="Path 1066" d="M336.1,215.2a22.466,22.466,0,0,1-22.52-21.615V173.27a4.23,4.23,0,0,1,.384-1.766,22.535,22.535,0,0,1,44.312,0,4.231,4.231,0,0,1,.384,1.766v19.864a2.762,2.762,0,0,1-.025.448A22.461,22.461,0,0,1,336.1,215.2Zm0-60.506a20.926,20.926,0,0,0-20.621,17.217l-.025.108-.044.093a2.72,2.72,0,0,0-.275,1.186v20.2a20.961,20.961,0,0,0,41.887,0V173.27a2.632,2.632,0,0,0-.275-1.181l-.044-.1v-.108a20.926,20.926,0,0,0-20.6-17.212Z" transform="translate(-3195.418 5943.221)" fill="#300635"/>
    <path id="Path_1067" data-name="Path 1067" d="M339.005,207.071c0,.871-1.431-.315-3.783-.315s-4.732,1.186-4.732.315,2.066-2.051,4.427-2.051S339.005,206.2,339.005,207.071Z" transform="translate(-3204.01 5916.833)" fill="#562529"/>
    <path id="Path_1068" data-name="Path 1068" d="M380.345,207.071c0,.871-1.431-.315-3.783-.315s-4.732,1.186-4.732.315,2.066-2.051,4.427-2.051S380.345,206.2,380.345,207.071Z" transform="translate(-3225.014 5916.833)" fill="#562529"/>
    <path id="Path_1069" data-name="Path 1069" d="M359.779,226.09c0-2.848-.9-7.29-2.7-7.29s-2.819,4.132-2.819,6.975a4.147,4.147,0,0,0,.03.521v.025a2.747,2.747,0,1,0,5.49-.231Z" transform="translate(-3216.086 5909.832)" fill="#fa7c7c"/>
    <path id="Path_1070" data-name="Path 1070" d="M327.423,219.93a.743.743,0,0,1-.251-.039.782.782,0,0,1-.492-.984c.949-2.853,2.164-4.29,3.709-4.4,2.519-.172,4.467,3.557,4.678,3.98a.787.787,0,1,1-1.412.689h0c-.531-1.053-2.007-3.193-3.163-3.114-.8.059-1.628,1.24-2.322,3.325A.787.787,0,0,1,327.423,219.93Z" transform="translate(-3202.054 5912.018)" fill="#300635"/>
    <path id="Path_1071" data-name="Path 1071" d="M375.493,219.93a.743.743,0,0,1-.251-.039.782.782,0,0,1-.492-.984c.949-2.853,2.16-4.29,3.709-4.4,2.519-.172,4.467,3.557,4.678,3.98a.792.792,0,0,1-1.4.689h0c-.521-1.053-2-3.193-3.158-3.114-.8.059-1.628,1.24-2.322,3.325a.787.787,0,0,1-.767.546Z" transform="translate(-3226.477 5912.018)" fill="#300635"/>
    <path id="Path_1072" data-name="Path 1072" d="M345.984,244.06a4.016,4.016,0,0,0-3.38-1.377c-2.086.4-4.885,3.488-4.885,3.488s-1.712,1.879-3.173,1.4-.876-2.651-.876-2.651a2.106,2.106,0,0,0-1.382,2.951c.94,2.263,4.885,2.11,6.326,1.859a13.437,13.437,0,0,0,7.379-3.561,13.49,13.49,0,0,0,7.379,3.561c1.412.246,5.387.418,6.326-1.859a2.1,2.1,0,0,0-1.377-2.951s.58,2.174-.881,2.651-3.173-1.4-3.173-1.4-2.794-3.089-4.885-3.488A4.045,4.045,0,0,0,345.984,244.06Z" transform="translate(-3204.81 5897.722)" fill="#562529"/>
    <path id="Path_1073" data-name="Path 1073" d="M340.348,217.034a21.752,21.752,0,0,1-21.733-20.9,3.432,3.432,0,0,1,0-.392V175.895a3.487,3.487,0,0,1,.354-1.525,21.693,21.693,0,0,1,4.722-10.07,21.718,21.718,0,0,0-7.443,12.79,3.487,3.487,0,0,0-.354,1.525v19.864a3.454,3.454,0,0,0,0,.389,21.743,21.743,0,0,0,38.419,13.09A21.644,21.644,0,0,1,340.348,217.034Z" transform="translate(-3196.591 5937.522)" fill="#ffb180" opacity="0.5"/>
    <path id="Path_1074" data-name="Path 1074" d="M310.831,169.142s-10.178-23.77.108-28.379c0,0-4.821-7.807-1.776-13.484a14.217,14.217,0,0,0,3.906,5.677s-3.763-9.223,8.8-11.708c0,0-4.186,4.255-2.283,7.453,0,0,3.045-9.937,17.886-10.291,0,0-6.848,3.9-8.363,9.578,0,0,9.135-9.578,21.315-9.223,0,0-6.469,3.9-7.61,8.515,0,0,4.565-7.1,16.725-7.807,0,0-2.981,10.291-11.354,13.838,0,0,7.546-4.255,10.97-6.031,0,0-1.9,8.515-7.994,12.416,0,0,14.054,1.181,1.968,29.564,0,0,1.894-17.266-5.027-24.242,0,0-19.057,9.224-30.1.708C318.033,145.726,309.306,151.4,310.831,169.142Z" transform="translate(-3191.739 5960.838)" fill="#562529"/>
    <path id="Path_1075" data-name="Path 1075" d="M352.328,170.531l-.935-2.366c0-.167,1.687-16.2-4.358-23.076-2.179.984-9.868,4.132-17.881,4.132a20.355,20.355,0,0,1-11.983-3.38c-1.732,1.476-7.585,7.689-6.336,22.225l.492,5.49-2.169-5.067c-.418-.984-9.838-23.342-.3-29.092-1.19-2.243-4.014-8.545-1.338-13.538l.954-1.781.669,1.9a14.317,14.317,0,0,0,1.648,3.124,8.5,8.5,0,0,1,.984-4.226c1.476-2.76,4.535-4.609,9.056-5.5l2.824-.556-2.017,2.046a11.313,11.313,0,0,0-2.3,3.7c2.12-3.158,6.975-7.8,17.252-8.043l3.507-.084-3.07,1.751a22.874,22.874,0,0,0-5.933,5.155c3.827-2.868,10.463-6.69,18.457-6.459l3.011.084-2.578,1.559a26.792,26.792,0,0,0-3.153,2.351A26.564,26.564,0,0,1,358.61,117.6l1.254-.074-.354,1.205a27.646,27.646,0,0,1-4.162,8.117c.949-.492,1.82-.984,2.524-1.343l1.692-.876-.418,1.855c-.074.335-1.736,7.541-6.887,11.865a8.555,8.555,0,0,1,4.019,3.547c3.178,5.268,2.1,14.266-3.2,26.726Zm-4.919-27.587.448.448c4.7,4.737,5.534,13.744,5.534,19.549,4.083-11.437,3.1-17.217,1.382-20.1a6.454,6.454,0,0,0-4.585-3.261l-2.553-.246,2.155-1.387c3.96-2.533,6.08-7.231,7.01-9.888-1.9,1.023-4.235,2.317-6.095,3.35h0a16.307,16.307,0,0,1-3.07,1.717l-.782-1.589s1.22-.689,2.907-1.628c4.354-3.109,6.7-8.131,7.59-10.443-10.537,1.082-14.669,7.231-14.708,7.3l-2.863,4.388,1.274-5.086c.748-3.006,3.473-5.662,5.544-7.31-10.193,1.048-17.66,8.756-17.739,8.855l-2.415,2.509.9-3.36c.984-3.586,3.847-6.459,6.051-8.215-11.24,1.476-13.774,9.071-13.862,9.42l-.59,1.889-1.018-1.7c-1.3-2.194-.315-4.678.763-6.395-2.627.876-4.427,2.2-5.382,3.97a7.611,7.611,0,0,0-.315,5.9l1.289,3.153-2.661-2.125a13.528,13.528,0,0,1-3.261-4.058c-1.082,4.89,2.4,10.64,2.46,10.7l.531.861-.92.413c-6.6,2.952-3.8,15.1-1.52,22.136.443-13.774,7.433-18.5,7.767-18.693l.526-.339.492.384a18.349,18.349,0,0,0,11.457,3.443c8.855,0,17.616-4.191,17.709-4.23Z" transform="translate(-3190.858 5961.839)" fill="#300635"/>
    <g id="Group_473" data-name="Group 473" transform="translate(-2885.41 6079.475)" opacity="0.5">
      <path id="Path_1076" data-name="Path 1076" d="M393.859,140.823a18.518,18.518,0,0,0,2.711-2.361c-2.342,1.476-5.091,2.666-6.119,4.717,4.171.462,7.935-2.2,11.034-5.288.285-.89.413-1.451.413-1.451C399.86,137.5,396.358,139.431,393.859,140.823Z" transform="translate(-349.064 -127.797)" fill="#ffb180"/>
      <path id="Path_1077" data-name="Path 1077" d="M389.542,124.476c2.376-.9,4.1-2.435,6.1-3.753l.049-.152c-7.9.462-12.588,3.606-14.92,5.76a30.371,30.371,0,0,0-3.3,5.239C380.077,127.786,385.282,125.893,389.542,124.476Z" transform="translate(-342.475 -119.734)" fill="#ffb180"/>
      <path id="Path_1078" data-name="Path 1078" d="M319.8,138.271c-2.6-2.612-2.814-4.727-2.814-8.274.944,2.361,3.547,3.547,5.9,3.547-1.181-4.968,2.838-10.409,6.857-12.534,1.259-.63,2.927-1.431,4.688-2.14-12.219,1.52-14.846,10.065-14.846,10.065-1.9-3.2,2.283-7.453,2.283-7.453-12.573,2.484-8.82,11.718-8.82,11.718a14.217,14.217,0,0,1-3.906-5.677c-3.045,5.677,1.776,13.484,1.776,13.484-10.286,4.609-.108,28.379-.108,28.379a41.567,41.567,0,0,1,.108-8.8c-2.873-6.395-.881-14.408,4.137-18.988a3.589,3.589,0,0,1-1.653-3.316A7.507,7.507,0,0,0,319.8,138.271Z" transform="translate(-306.319 -118.87)" fill="#ffb180"/>
      <path id="Path_1079" data-name="Path 1079" d="M371.359,120.163c.905-.664,1.535-1.043,1.535-1.043-11.314-.33-19.982,7.9-21.153,9.081a9.1,9.1,0,0,0-1.151,3.571c2.366-3.783,10.168-7.566,14.664-9.46A63.06,63.06,0,0,1,371.359,120.163Z" transform="translate(-328.812 -118.992)" fill="#ffb180"/>
    </g>
    <path id="Path_1080" data-name="Path 1080" d="M359.944,431.981l.192-10.793L318.79,420.14v11.84Z" transform="translate(-3198.065 5807.535)" fill="#4f5885"/>
    <path id="Path_1081" data-name="Path 1081" d="M318.759,431.147V420.109l39.762,1.008-.177,10.03h1.574l.2-11.56L317.19,418.5v12.647Z" transform="translate(-3197.252 5808.368)" fill="#300635"/>
    <rect id="Rectangle_279" data-name="Rectangle 279" width="41.872" height="6.282" transform="translate(-2880.323 6227.148)" fill="#562529"/>
    <path id="Path_1082" data-name="Path 1082" d="M358.5,425.311H315.06V417.44H358.5Zm-41.867-1.574h40.3v-4.708h-40.3Z" transform="translate(-3196.17 5808.907)" fill="#300635"/>
    <path id="Path_1083" data-name="Path 1083" d="M315.531,360.852h15.7s3.143-73.262-3.138-79.032c0,0-13.607.576-12.564,19.037Z" transform="translate(-3196.38 5877.813)" fill="#4f5885"/>
    <path id="Path_1084" data-name="Path 1084" d="M331.156,360.826H313.939V300.049c-.379-6.6,1.053-11.762,4.25-15.294a13.961,13.961,0,0,1,9.061-4.526h.325l.241.216c6.365,5.849,3.714,72.11,3.394,79.647Zm-15.668-1.569H329.68c1.21-28.812,1.446-72.14-2.7-77.428a12.731,12.731,0,0,0-7.635,4c-2.892,3.207-4.181,7.974-3.832,14.172Z" transform="translate(-3195.57 5878.621)" fill="#300635"/>
    <path id="Path_1085" data-name="Path 1085" d="M387.288,360.852h-15.7s-3.148-73.262,3.138-79.032c0,0,13.611.576,12.564,19.037Z" transform="translate(-3224.489 5877.813)" fill="#4f5885"/>
    <path id="Path_1086" data-name="Path 1086" d="M387.248,360.811H370.031l-.029-.748c-.325-7.536-2.976-73.788,3.394-79.647l.236-.216h.325a13.961,13.961,0,0,1,9.061,4.526c3.2,3.532,4.629,8.692,4.25,15.338Zm-15.741-1.569h14.162V300.034c.354-6.257-.94-11.029-3.842-14.236a12.652,12.652,0,0,0-7.62-3.985c-4.132,5.278-3.9,48.611-2.691,77.428Z" transform="translate(-3223.667 5878.636)" fill="#300635"/>
    <path id="Path_1087" data-name="Path 1087" d="M353.51,308.89l-1.83-4.447,1.559-2.745,4.191-.4,2.361,3.4-2.1,4.186Z" transform="translate(-3214.776 5867.916)" fill="#4f5885"/>
    <path id="Path_1088" data-name="Path 1088" d="M357.274,308.794h-5.195l-2.179-5.288,1.968-3.443,5.057-.492,2.883,4.162Zm-4.142-1.564H356.3l1.668-3.34-1.83-2.632-3.325.315-1.171,2.056Z" transform="translate(-3213.871 5868.794)" fill="#300635"/>
    <path id="Path_1089" data-name="Path 1089" d="M342.709,278.08s-2.489,7.758,4.84,11.422l-4.427,4.973s-4.713-7.33-4.713-13.867C338.385,280.608,338.134,278.7,342.709,278.08Z" transform="translate(-3208.028 5879.713)" fill="#fff3ea"/>
    <path id="Path_1090" data-name="Path 1090" d="M342.169,294.749l-.556-.871c-.2-.3-4.821-7.576-4.836-14.266-.029-.492.113-2.676,5-3.335l1.235-.167-.384,1.185c-.089.29-2.179,7.167,4.427,10.478l.92.462Zm-1.3-16.725c-2.027.457-2.519,1.205-2.528,1.476,0,4.978,2.848,10.488,4.058,12.6l3.079-3.443c-5.15-3.05-4.983-8.254-4.609-10.6Z" transform="translate(-3207.203 5880.714)" fill="#300635"/>
    <path id="Path_1091" data-name="Path 1091" d="M368.21,278.08s2.489,7.758-4.84,11.422l4.427,4.973s4.713-7.33,4.713-13.867C372.534,280.608,372.78,278.7,368.21,278.08Z" transform="translate(-3220.715 5879.713)" fill="#fff3ea"/>
    <path id="Path_1092" data-name="Path 1092" d="M366.609,294.759l-5.819-6.508.92-.462c6.621-3.311,4.531-10.188,4.427-10.478l-.374-1.181,1.23.162c4.89.659,5.032,2.848,5,3.335,0,6.685-4.639,13.956-4.836,14.266ZM363.3,288.7l3.079,3.443c1.21-2.115,4.049-7.62,4.049-12.549v-.1c0-.246-.492-.984-2.533-1.446.374,2.366.536,7.571-4.595,10.675Z" transform="translate(-3219.405 5880.704)" fill="#300635"/>
    <path id="Path_1093" data-name="Path 1093" d="M352.74,347.347l3.4,4.973,4.191-4.973-2.1-30.617h-4.186Z" transform="translate(-3215.314 5860.076)" fill="#4f5885"/>
    <path id="Path_1094" data-name="Path 1094" d="M355.252,352.806l-4.132-6.036V346.5l1.343-31.365h5.682l2.164,31.665Zm-2.543-6.493,2.676,3.906,3.316-3.935-2.022-29.574h-2.7Z" transform="translate(-3214.491 5860.883)" fill="#300635"/>
    <path id="Path_1095" data-name="Path 1095" d="M371.36,337.92l10.729-38.468-4.713-4.713,3.926-4.968-3.4-6.021" transform="translate(-3224.775 5876.833)" fill="#4f5885"/>
    <path id="Path_1096" data-name="Path 1096" d="M371.33,337.73l-1.51-.423,10.606-38.03-4.88-4.88,4.029-5.106-3.138-5.559,1.363-.772,3.665,6.479-3.822,4.836,4.545,4.545Z" transform="translate(-3223.992 5877.233)" fill="#300635"/>
    <path id="Path_1097" data-name="Path 1097" d="M337.66,336.872l-10.989-37.42,4.713-4.713-3.926-4.968,3.4-6.021" transform="translate(-3202.069 5876.833)" fill="#4f5885"/>
    <path id="Path_1098" data-name="Path 1098" d="M335.992,336.692,324.87,298.824l4.545-4.55-3.817-4.836,3.66-6.479,1.368.772-3.143,5.559,4.034,5.106-4.875,4.875L337.5,336.25Z" transform="translate(-3201.154 5877.233)" fill="#300635"/>
    <path id="Path_1099" data-name="Path 1099" d="M401.1,272.474s35.59,1.043,40.3-53.909L430.959,217s-2.1,49.192-32.959,37.16" transform="translate(-3238.31 5910.747)" fill="#4f5885"/>
    <path id="Path_1100" data-name="Path 1100" d="M400.951,272.306h-.207l.044-1.569a33.141,33.141,0,0,0,17.994-6.262c8.407-5.9,18.914-18.693,21.438-46.2l-8.884-1.333c-.325,4.87-2.5,27.966-15,36.122-5.264,3.443-11.654,3.729-18.993.866l.571-1.476c6.843,2.666,12.751,2.425,17.562-.718,13.031-8.5,14.335-35.472,14.344-35.743l.039-.876,12.081,1.82-.064.733c-2.46,28.694-13.454,42.015-22.25,48.139A34.537,34.537,0,0,1,400.951,272.306Z" transform="translate(-3237.975 5911.702)" fill="#300635"/>
    <path id="Path_1101" data-name="Path 1101" d="M275.443,272.474s-35.59,1.043-40.3-53.909L245.608,217s2.1,49.192,32.959,37.16" transform="translate(-3155.564 5910.747)" fill="#4f5885"/>
    <path id="Path_1102" data-name="Path 1102" d="M274.392,272.316a34.438,34.438,0,0,1-18.649-6.493c-8.8-6.124-19.795-19.446-22.254-48.139l-.059-.733,12.057-1.81.039.876c0,.271,1.313,27.242,14.344,35.743,4.831,3.158,10.734,3.384,17.557.7l.576,1.476c-7.344,2.863-13.734,2.573-18.993-.866-12.5-8.156-14.679-31.252-15-36.122l-8.884,1.333c2.519,27.513,13.026,40.308,21.438,46.2a33.124,33.124,0,0,0,17.994,6.262l.044,1.569Z" transform="translate(-3154.695 5911.691)" fill="#300635"/>
    <path id="Path_1103" data-name="Path 1103" d="M463.184,201.789a4.968,4.968,0,0,1,6-3.655l5.6,1.338a4.973,4.973,0,0,1,3.66,6h0a4.968,4.968,0,0,1-6.006,3.66l-5.593-1.358a4.968,4.968,0,0,1-3.66-6.006Z" transform="translate(-3271.357 5920.404)" fill="#ffcf9d"/>
    <path id="Path_1104" data-name="Path 1104" d="M466.417,196.443a5.952,5.952,0,0,1,2.105.113l5.6,1.363a5.756,5.756,0,1,1-2.715,11.186l-5.6-1.358a5.755,5.755,0,0,1,.61-11.314Zm6.887,11.221a4.188,4.188,0,0,0,.448-8.22l-5.6-1.358a4.088,4.088,0,0,0-1.525-.084,4.186,4.186,0,0,0-.448,8.22l5.6,1.358a4.117,4.117,0,0,0,1.53.084Z" transform="translate(-3270.507 5921.214)" fill="#300635"/>
    <path id="Path_1105" data-name="Path 1105" d="M490.72,202.19l.94-3.881a1.846,1.846,0,0,0-1.068-2.342c-.851-.207-1.717-.33-1.968.758l-1.545,3.03" transform="translate(-3283.57 5921.503)" fill="#ffcf9d"/>
    <path id="Path_1106" data-name="Path 1106" d="M488.625,194.273a3.743,3.743,0,0,1,1.4.133,2.621,2.621,0,0,1,1.648,3.291l-.954,3.881-1.53-.374.945-3.876c.172-.713-.118-1.309-.492-1.4-.935-.226-.959-.113-1.028.182l-.064.172L487,199.315l-1.4-.713,1.505-2.952A1.707,1.707,0,0,1,488.625,194.273Z" transform="translate(-3282.818 5922.302)" fill="#300635"/>
    <path id="Path_1107" data-name="Path 1107" d="M481.9,198.688l.718-2.952a1.594,1.594,0,0,0-3.094-.753l-1.053,2.292" transform="translate(-3279.195 5922.516)" fill="#ffcf9d"/>
    <path id="Path_1108" data-name="Path 1108" d="M480.006,192.218a2.459,2.459,0,0,1,.885.044,2.391,2.391,0,0,1,1.476,1.048,2.307,2.307,0,0,1,.3,1.776l-.718,2.952-1.525-.369.718-2.952a.743.743,0,0,0-.1-.566.826.826,0,0,0-1.122-.271.713.713,0,0,0-.349.457l-.044.143-1.058,2.292-1.427-.654,1.023-2.233a2.3,2.3,0,0,1,1.058-1.363,2.331,2.331,0,0,1,.885-.305Z" transform="translate(-3278.469 5923.349)" fill="#300635"/>
    <path id="Path_1109" data-name="Path 1109" d="M475.7,197.114l.713-2.952a1.589,1.589,0,0,0-3.089-.748l-1.053,2.292" transform="translate(-3276.045 5923.348)" fill="#ffcf9d"/>
    <path id="Path_1110" data-name="Path 1110" d="M473.8,190.71a2.459,2.459,0,0,1,.881.049,2.351,2.351,0,0,1,1.756,2.824l-.713,2.952-1.525-.374.713-2.952a.807.807,0,0,0-1.545-.4l-.049.143-1.072,2.317-1.427-.654,1.023-2.228a2.332,2.332,0,0,1,1.958-1.677Z" transform="translate(-3275.309 5924.113)" fill="#300635"/>
    <path id="Path_1111" data-name="Path 1111" d="M464.29,198.12l.743-4.462a1.594,1.594,0,0,1,3.153.443l.133,2.519" transform="translate(-3271.991 5923.266)" fill="#ffcf9d"/>
    <path id="Path_1112" data-name="Path 1112" d="M465.495,190.7a2.386,2.386,0,0,1,2.209.9,2.293,2.293,0,0,1,.492,1.653l.133,2.46-1.569.084-.128-2.671a.752.752,0,0,0-.152-.551.836.836,0,0,0-.541-.31.787.787,0,0,0-.905.639l-.743,4.5-1.549-.256.743-4.481A2.322,2.322,0,0,1,465.495,190.7Z" transform="translate(-3271.203 5924.122)" fill="#300635"/>
    <path id="Path_1113" data-name="Path 1113" d="M228.613,204.108a4.968,4.968,0,0,1,4.555-5.352l5.741-.462a4.973,4.973,0,0,1,5.357,4.555h0a4.978,4.978,0,0,1-4.56,5.357l-5.736.462A4.973,4.973,0,0,1,228.613,204.108Z" transform="translate(-3152.24 5920.26)" fill="#ffcf9d"/>
    <path id="Path_1114" data-name="Path 1114" d="M230.256,197.71a5.717,5.717,0,0,1,2.037-.546l5.736-.462a5.756,5.756,0,0,1,.905,11.476l-5.736.462a5.76,5.76,0,0,1-2.951-10.93Zm10.05,8.5a4.185,4.185,0,0,0-2.15-7.944l-5.741.462a4.195,4.195,0,1,0,.674,8.363l5.736-.462A4.142,4.142,0,0,0,240.306,206.211Z" transform="translate(-3151.423 5921.069)" fill="#300635"/>
    <path id="Path_1115" data-name="Path 1115" d="M254.8,197.208l-.325-3.985a1.84,1.84,0,0,0-1.746-1.889c-.876.079-1.732.221-1.643,1.338l-.517,3.365" transform="translate(-3163.404 5923.789)" fill="#ffcf9d"/>
    <path id="Path_1116" data-name="Path 1116" d="M250.461,190.053a3.9,3.9,0,0,1,1.372-.31,2.624,2.624,0,0,1,2.592,2.607l.325,3.985-1.564.123-.325-3.98c-.059-.728-.521-1.205-.9-1.171-.984.074-.949.192-.925.492v.182l-.517,3.365-1.55-.236.492-3.281A1.712,1.712,0,0,1,250.461,190.053Z" transform="translate(-3162.591 5924.599)" fill="#300635"/>
    <path id="Path_1117" data-name="Path 1117" d="M245.179,196.656l-.246-3.025a1.589,1.589,0,1,0-3.168.256l-.285,2.5" transform="translate(-3158.785 5923.363)" fill="#ffcf9d"/>
    <path id="Path_1118" data-name="Path 1118" d="M241.509,190.9a2.429,2.429,0,0,1,.856-.231,2.391,2.391,0,0,1,1.722.536,2.312,2.312,0,0,1,.836,1.594l.241,3.025-1.564.128-.246-3.03a.738.738,0,0,0-.266-.492.846.846,0,0,0-1.156.093.748.748,0,0,0-.182.546v.153l-.28,2.5-1.559-.172.271-2.46a2.3,2.3,0,0,1,.576-1.623,2.386,2.386,0,0,1,.753-.571Z" transform="translate(-3157.988 5924.128)" fill="#300635"/>
    <path id="Path_1119" data-name="Path 1119" d="M238.819,197.253l-.246-3.03a1.594,1.594,0,0,0-3.173.256l-.28,2.509" transform="translate(-3155.554 5923.021)" fill="#ffcf9d"/>
    <path id="Path_1120" data-name="Path 1120" d="M235.149,191.412a2.46,2.46,0,0,1,.856-.231,2.356,2.356,0,0,1,2.553,2.13l.246,3.03-1.564.123-.246-3.025a.807.807,0,0,0-1.6.128v.152l-.28,2.5-1.559-.172.271-2.46A2.337,2.337,0,0,1,235.149,191.412Z" transform="translate(-3154.756 5923.87)" fill="#300635"/>
    <path id="Path_1121" data-name="Path 1121" d="M228.252,201.687l-.7-4.486a1.6,1.6,0,0,1,3.158-.566l.915,2.351" transform="translate(-3151.697 5921.765)" fill="#ffcf9d"/>
    <path id="Path_1122" data-name="Path 1122" d="M227.29,194.072a2.346,2.346,0,0,1,.62-.2,2.425,2.425,0,0,1,1.766.364,2.282,2.282,0,0,1,.984,1.422l.89,2.287-1.476.571-.954-2.494a.753.753,0,0,0-.32-.492.851.851,0,0,0-.61-.123.792.792,0,0,0-.659.89l.7,4.506-1.55.246-.718-4.481A2.322,2.322,0,0,1,227.29,194.072Z" transform="translate(-3150.887 5922.518)" fill="#300635"/>
    <path id="Path_1123" data-name="Path 1123" d="M459.47,205.1c-.6-.4-2.8-3.34-4.427-3.34,0,0-.536-2.14,1.476-2.14a4.954,4.954,0,0,1,4.009,1.736" transform="translate(-3267.26 5919.578)" fill="#ffcf9d"/>
    <path id="Path_1124" data-name="Path 1124" d="M458.215,204.944a6.884,6.884,0,0,1-.93-.885c-.718-.758-2.209-2.322-3.035-2.322h-.63l-.153-.61a2.952,2.952,0,0,1,.389-2.332,2.214,2.214,0,0,1,1.82-.8,5.785,5.785,0,0,1,4.649,2l-1.19,1.072a4.176,4.176,0,0,0-3.325-1.476h-.089a.753.753,0,0,0-.6.187.821.821,0,0,0-.133.492,9.409,9.409,0,0,1,3.443,2.7c.251.261.561.585.659.659Z" transform="translate(-3266.447 5920.406)" fill="#300635"/>
    <path id="Path_1125" data-name="Path 1125" d="M257.906,206.342c.625-.364,3.011-3.163,4.609-3.065,0,0,.664-2.105-1.338-2.228a4.973,4.973,0,0,0-4.108,1.476" transform="translate(-3166.706 5918.866)" fill="#ffcf9d"/>
    <path id="Path_1126" data-name="Path 1126" d="M257.725,206.236l-.782-1.387.4.694-.4-.689c.1-.069.433-.374.7-.62a9.642,9.642,0,0,1,3.621-2.484.856.856,0,0,0-.108-.492.748.748,0,0,0-.585-.221h-.093a4.142,4.142,0,0,0-3.4,1.274l-1.151-1.117a5.8,5.8,0,0,1,4.762-1.717,2.224,2.224,0,0,1,1.771.915,2.952,2.952,0,0,1,.246,2.351l-.192.6-.625-.034c-.826-.054-2.41,1.422-3.173,2.13A6.311,6.311,0,0,1,257.725,206.236Z" transform="translate(-3166.122 5919.666)" fill="#300635"/>
    <path id="Path_1127" data-name="Path 1127" d="M221.3,447.819a2.4,2.4,0,0,1-2.091,2.361v.059A2.4,2.4,0,0,1,221.3,452.6v6.11c0,3.124-1.692,4.781-4.816,4.781H208.52a.492.492,0,0,1-.531-.531V437.45a.492.492,0,0,1,.531-.531h7.969c3.124,0,4.816,1.658,4.816,4.781Zm-4.427-5.18a1.181,1.181,0,0,0-1.328-1.328h-3.02v6.71h3.02a1.186,1.186,0,0,0,1.328-1.3Zm0,11.093a1.176,1.176,0,0,0-1.328-1.328h-3.02v6.69h3.02a1.176,1.176,0,0,0,1.328-1.328Z" transform="translate(-3141.768 5799.011)" fill="#300635"/>
    <path id="Path_1128" data-name="Path 1128" d="M211.923,463.348h-7.969A4.919,4.919,0,0,1,199,458.389V432.878a4.919,4.919,0,0,1,4.959-4.958h7.969c5.613,0,9.243,3.616,9.243,9.209v6.11a6.656,6.656,0,0,1-.438,2.391,6.7,6.7,0,0,1,.438,2.391v6.11C221.166,459.737,217.535,463.348,211.923,463.348Z" transform="translate(-3137.202 5803.583)" fill="#300635"/>
    <path id="Path_1129" data-name="Path 1129" d="M255.061,447.542c0,.335-.133.566-.531.566h-8.2v5.111h6.242a.492.492,0,0,1,.531.566v3.286a.492.492,0,0,1-.531.566h-6.242v4.919h8.2c.4,0,.531.167.531.531v3.32c0,.335-.133.531-.531.531H242.31a.492.492,0,0,1-.492-.531V444.221a.492.492,0,0,1,.492-.531H254.53c.4,0,.531.2.531.531Z" transform="translate(-3158.957 5795.569)" fill="#300635"/>
    <path id="Path_1130" data-name="Path 1130" d="M249.958,466.786H237.739a4.89,4.89,0,0,1-4.919-4.959V439.647a4.89,4.89,0,0,1,4.919-4.959h12.219a4.845,4.845,0,0,1,4.959,4.959v3.32a4.919,4.919,0,0,1-2.342,4.285,5.146,5.146,0,0,1,.384,1.968v3.286a5.121,5.121,0,0,1-.32,1.8,4.865,4.865,0,0,1,2.278,4.216v3.32a4.845,4.845,0,0,1-4.959,4.949Z" transform="translate(-3154.385 5800.144)" fill="#300635"/>
    <path id="Path_1131" data-name="Path 1131" d="M281.963,443.69c3.119,0,4.781,1.663,4.781,4.781v2.194a.492.492,0,0,1-.531.531h-3.355a.492.492,0,0,1-.531-.531v-1.412A1.181,1.181,0,0,0,281,447.925h-1.83a1.21,1.21,0,0,0-1.328,1.328v2.824l8.038,2.588a1.185,1.185,0,0,1,.866,1.225v6.242c0,3.124-1.663,4.781-4.781,4.781h-3.724c-3.084,0-4.781-1.658-4.781-4.781v-2.155a.492.492,0,0,1,.531-.531h3.355c.364,0,.531.162.531.531v1.392A1.19,1.19,0,0,0,279.2,462.7H281a1.181,1.181,0,0,0,1.328-1.328v-3.355l-7.969-2.588a1.19,1.19,0,0,1-.9-1.23v-5.726c0-3.119,1.7-4.781,4.781-4.781Z" transform="translate(-3175.031 5795.569)" fill="#300635"/>
    <path id="Path_1132" data-name="Path 1132" d="M277.392,466.788h-3.724c-5.5,0-9.209-3.7-9.209-9.209v-2.155a5.027,5.027,0,0,1,.822-2.769,5.726,5.726,0,0,1-.822-3.011V443.9c0-5.51,3.7-9.209,9.209-9.209h3.724c5.593,0,9.209,3.616,9.209,9.209v2.194a5,5,0,0,1-.664,2.509,5.825,5.825,0,0,1,.664,2.735v6.242C286.6,463.177,282.985,466.788,277.392,466.788Z" transform="translate(-3170.461 5800.142)" fill="#300635"/>
    <path id="Path_1133" data-name="Path 1133" d="M316.6,443.688a.492.492,0,0,1,.531.531v3.32a.492.492,0,0,1-.531.531h-3.852V466.4c0,.369-.167.531-.531.531h-3.443a.492.492,0,0,1-.531-.531V448.071H304.39a.492.492,0,0,1-.531-.531v-3.32a.492.492,0,0,1,.531-.531Z" transform="translate(-3190.478 5795.571)" fill="#300635"/>
    <path id="Path_1134" data-name="Path 1134" d="M307.645,466.8H304.2a4.919,4.919,0,0,1-4.959-4.958V447.908a4.919,4.919,0,0,1-4.383-4.919v-3.32a4.919,4.919,0,0,1,4.958-4.958h12.219A4.919,4.919,0,0,1,317,439.668v3.32a4.919,4.919,0,0,1-4.383,4.919v13.931a4.845,4.845,0,0,1-4.968,4.958Z" transform="translate(-3185.906 5800.132)" fill="#300635"/>
    <path id="Path_1135" data-name="Path 1135" d="M366.375,455.155a4.425,4.425,0,0,1-1.859,4.053l1.727,7.138c.1.4-.1.6-.492.6H362.5a.492.492,0,0,1-.566-.462l-1.594-6.543h-2.952v6.474a.492.492,0,0,1-.531.531H353.6a.492.492,0,0,1-.531-.531V444.22a.492.492,0,0,1,.531-.531h7.969c3.124,0,4.786,1.663,4.786,4.781Zm-5.647.492a1.19,1.19,0,0,0,1.328-1.328V449.3a1.19,1.19,0,0,0-1.328-1.328h-3.32v7.674Z" transform="translate(-3215.48 5795.571)" fill="#300635"/>
    <path id="Path_1136" data-name="Path 1136" d="M361.224,466.788h-3.252a5,5,0,0,1-2.833-.851,4.974,4.974,0,0,1-2.814.851h-3.256a4.919,4.919,0,0,1-4.959-4.959V439.648a4.919,4.919,0,0,1,4.959-4.959h7.969c5.6,0,9.214,3.616,9.214,9.209v6.685a9.671,9.671,0,0,1-1.427,5.318l1.166,4.831a4.831,4.831,0,0,1-4.767,6.065Z" transform="translate(-3210.929 5800.143)" fill="#300635"/>
    <path id="Path_1137" data-name="Path 1137" d="M397.286,466.928a.492.492,0,0,1-.531-.462l-1.063-4.186H389.45l-1.033,4.186a.492.492,0,0,1-.531.462h-3.252c-.364,0-.531-.2-.433-.561l5.514-22.215a.492.492,0,0,1,.561-.467h4.634a.517.517,0,0,1,.566.467l5.509,22.215c.1.364-.064.561-.462.561ZM392.569,449.4l-2.086,9.032h4.186Z" transform="translate(-3231.285 5795.575)" fill="#300635"/>
    <path id="Path_1138" data-name="Path 1138" d="M395.927,466.783h-3.222a4.875,4.875,0,0,1-4.7-3.375,4.885,4.885,0,0,1-4.7,3.375h-3.252a4.806,4.806,0,0,1-4.722-6.085l5.49-22.136a4.954,4.954,0,0,1,4.875-3.881h.1l2.46.108,1.923-.108h.152a4.954,4.954,0,0,1,4.875,3.881l5.49,22.136a4.806,4.806,0,0,1-4.752,6.085Z" transform="translate(-3226.704 5800.147)" fill="#300635"/>
    <path id="Path_1139" data-name="Path 1139" d="M429.839,443.688a.492.492,0,0,1,.531.531v3.32a.492.492,0,0,1-.531.531h-3.852V466.4c0,.369-.167.531-.531.531h-3.443a.492.492,0,0,1-.531-.531V448.071H417.63a.492.492,0,0,1-.531-.531v-3.32a.492.492,0,0,1,.531-.531Z" transform="translate(-3248.013 5795.571)" fill="#300635"/>
    <path id="Path_1140" data-name="Path 1140" d="M420.86,466.8h-3.443a4.919,4.919,0,0,1-4.944-4.959V447.908a4.919,4.919,0,0,1-4.383-4.919v-3.32a4.919,4.919,0,0,1,4.959-4.959h12.214a4.919,4.919,0,0,1,4.919,4.949v3.32A4.919,4.919,0,0,1,425.8,447.9v13.931a4.85,4.85,0,0,1-4.939,4.968Z" transform="translate(-3243.437 5800.132)" fill="#300635"/>
    <path id="Path_1141" data-name="Path 1141" d="M449.29,466.931a.492.492,0,0,1-.531-.531V444.22a.492.492,0,0,1,.531-.531h3.443a.492.492,0,0,1,.531.531V466.4a.492.492,0,0,1-.531.531Z" transform="translate(-3264.099 5795.571)" fill="#300635"/>
    <rect id="Rectangle_280" data-name="Rectangle 280" width="13.37" height="32.098" rx="6.685" transform="translate(-2819.767 6234.832)" fill="#300635"/>
    <path id="Path_1142" data-name="Path 1142" d="M478.339,443.688a.492.492,0,0,1,.531.531V466.4a.492.492,0,0,1-.531.531h-2.627a.6.6,0,0,1-.6-.428l-6.242-12.687V466.4a.492.492,0,0,1-.531.531H465.22a.492.492,0,0,1-.531-.531V444.22a.492.492,0,0,1,.531-.531h2.622a.6.6,0,0,1,.6.433l6.238,12.687V444.22a.492.492,0,0,1,.531-.531Z" transform="translate(-3272.192 5795.571)" fill="#300635"/>
    <path id="Path_1143" data-name="Path 1143" d="M473.207,466.875l-.866-.108h-1.2a4.919,4.919,0,0,1-3.694-1.6,4.919,4.919,0,0,1-3.675,1.6h-3.124a4.919,4.919,0,0,1-4.959-4.959V439.628a4.919,4.919,0,0,1,4.186-4.919l1.156.172,1.043-.231h1.2a4.919,4.919,0,0,1,3.694,1.6,4.949,4.949,0,0,1,3.68-1.6h3.124a4.919,4.919,0,0,1,4.959,4.959v22.181a4.919,4.919,0,0,1-4.186,4.919Z" transform="translate(-3267.621 5800.164)" fill="#300635"/>
    <path id="Path_1144" data-name="Path 1144" d="M500.26,441.721c0-3.124,1.663-4.781,4.781-4.781h4.383c3.089,0,4.786,1.658,4.786,4.781v3.443a.492.492,0,0,1-.531.531h-3.325a.492.492,0,0,1-.531-.531v-2.524a1.19,1.19,0,0,0-1.328-1.328H506.1a1.181,1.181,0,0,0-1.328,1.328v15.141a1.176,1.176,0,0,0,1.328,1.328h2.391a1.176,1.176,0,0,0,1.328-1.328v-4.427H508.1a.492.492,0,0,1-.531-.531V449.5a.462.462,0,0,1,.531-.531h5.583a.492.492,0,0,1,.531.531v9.228c0,3.124-1.7,4.781-4.786,4.781h-4.373c-3.119,0-4.781-1.658-4.781-4.781Z" transform="translate(-3290.266 5799)" fill="#300635"/>
    <path id="Path_1145" data-name="Path 1145" d="M504.862,463.358h-4.373c-5.593,0-9.209-3.611-9.209-9.209v-17c0-5.593,3.616-9.209,9.209-9.209h4.383c5.51,0,9.214,3.7,9.214,9.209v3.443a4.986,4.986,0,0,0,0,4.319v9.228C514.076,459.659,510.371,463.358,504.862,463.358Z" transform="translate(-3285.704 5803.572)" fill="#300635"/>
    <path id="Path_1146" data-name="Path 1146" d="M221.3,446.689a2.4,2.4,0,0,1-2.091,2.361v.064a2.4,2.4,0,0,1,2.091,2.356v6.11c0,3.124-1.692,4.786-4.816,4.786H208.52a.492.492,0,0,1-.531-.531V436.33a.492.492,0,0,1,.531-.531h7.969c3.124,0,4.816,1.663,4.816,4.781Zm-4.427-5.18a1.181,1.181,0,0,0-1.328-1.328h-3.02v6.71h3.02a1.181,1.181,0,0,0,1.328-1.294Zm0,11.093a1.176,1.176,0,0,0-1.328-1.328h-3.02v6.7h3.02a1.176,1.176,0,0,0,1.328-1.328Z" transform="translate(-3141.768 5799.58)" fill="#300635"/>
    <path id="Path_1147" data-name="Path 1147" d="M213.95,462.288h-7.969a2.951,2.951,0,0,1-2.991-2.991V433.791a2.951,2.951,0,0,1,2.991-2.991h7.969c4.486,0,7.275,2.774,7.275,7.241v6.11a4.821,4.821,0,0,1-.625,2.391,4.835,4.835,0,0,1,.625,2.391v6.11C221.225,459.508,218.436,462.288,213.95,462.288Zm2.115-5.81a3.217,3.217,0,0,1-.61.63A1.289,1.289,0,0,0,216.065,456.478Zm-.61-20.5a3.33,3.33,0,0,1,.61.625,1.3,1.3,0,0,0-.61-.625Z" transform="translate(-3139.229 5802.119)" fill="#fff"/>
    <path id="Path_1148" data-name="Path 1148" d="M255.061,446.407c0,.334-.133.566-.531.566h-8.2v5.116h6.242a.492.492,0,0,1,.531.561v3.291a.492.492,0,0,1-.531.561h-6.242v4.919h8.2c.4,0,.531.167.531.536v3.32c0,.33-.133.531-.531.531H242.31a.492.492,0,0,1-.492-.531V443.091a.492.492,0,0,1,.492-.531H254.53c.4,0,.531.2.531.531Z" transform="translate(-3158.957 5796.144)" fill="#300635"/>
    <path id="Path_1149" data-name="Path 1149" d="M251.991,465.716H239.771a2.951,2.951,0,0,1-2.952-2.991V440.539a2.952,2.952,0,0,1,2.952-2.991h12.219a2.892,2.892,0,0,1,2.991,2.991v3.32a2.952,2.952,0,0,1-2.991,3.025h-5.736v.2h3.783a2.952,2.952,0,0,1,2.991,3.02v3.291a2.951,2.951,0,0,1-2.824,3.015H252a2.9,2.9,0,0,1,2.991,3v3.32a2.892,2.892,0,0,1-3,2.991Z" transform="translate(-3156.417 5798.691)" fill="#fff"/>
    <path id="Path_1150" data-name="Path 1150" d="M281.963,442.55c3.119,0,4.781,1.663,4.781,4.781v2.194a.492.492,0,0,1-.531.531h-3.355a.492.492,0,0,1-.531-.531v-1.4A1.181,1.181,0,0,0,281,446.8h-1.83a1.21,1.21,0,0,0-1.328,1.328v2.824l8.038,2.592a1.186,1.186,0,0,1,.866,1.225v6.242c0,3.124-1.663,4.786-4.781,4.786h-3.724c-3.084,0-4.781-1.663-4.781-4.786v-2.155a.492.492,0,0,1,.531-.531h3.355c.364,0,.531.162.531.531v1.392a1.19,1.19,0,0,0,1.328,1.328H281a1.181,1.181,0,0,0,1.328-1.328v-3.355l-7.969-2.587a1.19,1.19,0,0,1-.9-1.23v-5.746c0-3.119,1.7-4.781,4.781-4.781Z" transform="translate(-3175.031 5796.149)" fill="#300635"/>
    <path id="Path_1151" data-name="Path 1151" d="M279.424,465.717H275.7c-4.467,0-7.241-2.779-7.241-7.246v-2.155a2.952,2.952,0,0,1,1.618-2.681,3.6,3.6,0,0,1-1.618-3.1v-5.746c0-4.467,2.774-7.241,7.241-7.241h3.724c4.467,0,7.241,2.774,7.241,7.241v2.194a2.951,2.951,0,0,1-1.22,2.46,3.63,3.63,0,0,1,1.22,2.8v6.242C286.665,462.938,283.89,465.717,279.424,465.717Z" transform="translate(-3172.492 5798.689)" fill="#fff"/>
    <path id="Path_1152" data-name="Path 1152" d="M316.6,442.548a.492.492,0,0,1,.531.531v3.32a.492.492,0,0,1-.531.531h-3.852v18.334a.462.462,0,0,1-.531.531h-3.443a.492.492,0,0,1-.531-.531V446.931H304.39a.492.492,0,0,1-.531-.531v-3.32a.492.492,0,0,1,.531-.531Z" transform="translate(-3190.478 5796.151)" fill="#300635"/>
    <path id="Path_1153" data-name="Path 1153" d="M309.677,465.717h-3.443a2.951,2.951,0,0,1-2.991-2.991V446.852h-1.392a2.951,2.951,0,0,1-2.991-2.991v-3.32a2.952,2.952,0,0,1,2.991-2.991H314.07a2.952,2.952,0,0,1,2.991,2.991v3.32a2.922,2.922,0,0,1-2.991,2.991h-1.392v15.874a2.892,2.892,0,0,1-3,2.991Z" transform="translate(-3187.938 5798.689)" fill="#fff"/>
    <path id="Path_1154" data-name="Path 1154" d="M366.375,454.005a4.42,4.42,0,0,1-1.859,4.053l1.727,7.138c.1.4-.1.6-.492.6H362.5a.521.521,0,0,1-.566-.467l-1.594-6.543h-2.952v6.479a.492.492,0,0,1-.531.531H353.6a.492.492,0,0,1-.531-.531V443.08a.492.492,0,0,1,.531-.531h7.969c3.124,0,4.786,1.663,4.786,4.781Zm-5.647.492a1.19,1.19,0,0,0,1.328-1.328v-4.988a1.2,1.2,0,0,0-1.328-1.328h-3.32v7.669Z" transform="translate(-3215.48 5796.151)" fill="#300635"/>
    <path id="Path_1155" data-name="Path 1155" d="M363.256,465.717H360a2.951,2.951,0,0,1-2.838-1.968,2.951,2.951,0,0,1-2.809,1.968H351.1a2.951,2.951,0,0,1-2.991-2.991V440.541a2.952,2.952,0,0,1,2.991-2.991h7.969c4.467,0,7.246,2.774,7.246,7.241v6.675a7.4,7.4,0,0,1-1.584,4.919l1.382,5.711a2.878,2.878,0,0,1-2.858,3.635Z" transform="translate(-3212.962 5798.689)" fill="#fff"/>
    <path id="Path_1156" data-name="Path 1156" d="M397.286,465.793a.492.492,0,0,1-.531-.467l-1.063-4.186H389.45l-1.033,4.186a.492.492,0,0,1-.531.467h-3.252c-.364,0-.531-.2-.433-.566l5.514-22.215a.492.492,0,0,1,.561-.467h4.634a.517.517,0,0,1,.566.467l5.509,22.215c.1.364-.064.566-.462.566Zm-4.717-17.537-2.086,9.032h4.186Z" transform="translate(-3231.285 5796.154)" fill="#300635"/>
    <path id="Path_1157" data-name="Path 1157" d="M397.96,465.656h-3.222a2.951,2.951,0,0,1-2.922-2.346L391.23,461h-2.4l-.566,2.287a2.952,2.952,0,0,1-2.927,2.356h-3.252a2.843,2.843,0,0,1-2.814-3.64l5.5-22.136a2.952,2.952,0,0,1,2.952-2.371h1.687l.659-.069.605.069h1.687a2.952,2.952,0,0,1,2.952,2.371l5.5,22.161a2.853,2.853,0,0,1-2.848,3.635Z" transform="translate(-3228.737 5798.75)" fill="#fff"/>
    <path id="Path_1158" data-name="Path 1158" d="M429.839,442.548a.492.492,0,0,1,.531.531v3.32a.492.492,0,0,1-.531.531h-3.852v18.334a.462.462,0,0,1-.531.531h-3.443a.492.492,0,0,1-.531-.531V446.931H417.63a.492.492,0,0,1-.531-.531v-3.32a.492.492,0,0,1,.531-.531Z" transform="translate(-3248.013 5796.151)" fill="#300635"/>
    <path id="Path_1159" data-name="Path 1159" d="M422.877,465.717h-3.443a2.951,2.951,0,0,1-2.991-2.991V446.852h-1.392a2.951,2.951,0,0,1-2.991-2.991v-3.32a2.952,2.952,0,0,1,2.991-2.991H427.28a2.951,2.951,0,0,1,2.991,2.991v3.32a2.952,2.952,0,0,1-2.991,2.991h-1.392v15.874a2.892,2.892,0,0,1-3.011,2.991Z" transform="translate(-3245.453 5798.689)" fill="#fff"/>
    <path id="Path_1160" data-name="Path 1160" d="M449.29,465.8a.492.492,0,0,1-.531-.531V443.08a.492.492,0,0,1,.531-.531h3.443a.492.492,0,0,1,.531.531v22.186a.492.492,0,0,1-.531.531Z" transform="translate(-3264.099 5796.151)" fill="#300635"/>
    <rect id="Rectangle_281" data-name="Rectangle 281" width="9.435" height="28.162" rx="4.718" transform="translate(-2817.8 6236.239)" fill="#fff"/>
    <path id="Path_1161" data-name="Path 1161" d="M478.339,442.548a.492.492,0,0,1,.531.531v22.186a.492.492,0,0,1-.531.531h-2.627a.59.59,0,0,1-.6-.433l-6.242-12.687v12.588a.492.492,0,0,1-.531.531H465.22a.492.492,0,0,1-.531-.531V443.08a.492.492,0,0,1,.531-.531h2.622a.6.6,0,0,1,.6.433l6.238,12.687V443.08a.492.492,0,0,1,.531-.531Z" transform="translate(-3272.192 5796.151)" fill="#300635"/>
    <path id="Path_1162" data-name="Path 1162" d="M475.8,465.717h-2.627a3.01,3.01,0,0,1-2.819-1.84l-1.559-3.168v2.017a2.952,2.952,0,0,1-2.991,2.991h-3.124a2.951,2.951,0,0,1-2.991-2.991V440.541a2.952,2.952,0,0,1,2.991-2.991H465.3a3.02,3.02,0,0,1,2.824,1.84l1.559,3.168v-2.017a2.952,2.952,0,0,1,2.991-2.991H475.8a2.952,2.952,0,0,1,2.991,2.991v22.186a2.952,2.952,0,0,1-2.991,2.991Z" transform="translate(-3269.653 5798.689)" fill="#fff"/>
    <path id="Path_1163" data-name="Path 1163" d="M500.26,440.581c0-3.119,1.663-4.781,4.781-4.781h4.383c3.089,0,4.786,1.663,4.786,4.781v3.443a.492.492,0,0,1-.531.531h-3.325a.492.492,0,0,1-.531-.531V441.5a1.19,1.19,0,0,0-1.328-1.328H506.1a1.181,1.181,0,0,0-1.328,1.328v15.141a1.176,1.176,0,0,0,1.328,1.328h2.391a1.176,1.176,0,0,0,1.328-1.328v-4.427H508.1a.492.492,0,0,1-.531-.531v-3.32a.462.462,0,0,1,.531-.531h5.583a.492.492,0,0,1,.531.531v9.228c0,3.124-1.7,4.786-4.786,4.786h-4.373c-3.119,0-4.781-1.663-4.781-4.786Z" transform="translate(-3290.266 5799.578)" fill="#300635"/>
    <path id="Path_1164" data-name="Path 1164" d="M506.894,462.288h-4.373c-4.467,0-7.241-2.779-7.241-7.246v-17c0-4.467,2.774-7.241,7.241-7.241H506.9c4.467,0,7.246,2.774,7.246,7.241v3.443a3.052,3.052,0,0,0,0,4.319v9.228C514.14,459.508,511.376,462.288,506.894,462.288Zm-6.592-6.149a1.4,1.4,0,0,0,.984,1.072,3.409,3.409,0,0,1-.984-1.072Zm8.574.492a3.352,3.352,0,0,1-.374.374,1.287,1.287,0,0,0,.374-.354Zm-4.172-3.67h.128v-.91l-.128-.034Zm0-12.878v2.829a3.969,3.969,0,0,1,.433-.084,3.041,3.041,0,0,1-.305-1.353v-1.392Zm-3.443-4.23a1.407,1.407,0,0,0-.984,1.077,3.482,3.482,0,0,1,1-1.058Zm7.221.192a3.355,3.355,0,0,1,.374.374,1.23,1.23,0,0,0-.354-.354Z" transform="translate(-3287.736 5802.119)" fill="#fff"/>
    <path id="Path_1165" data-name="Path 1165" d="M223.3,444.5a2.4,2.4,0,0,1-2.091,2.361v.064a2.4,2.4,0,0,1,2.091,2.356v6.11c0,3.124-1.692,4.786-4.816,4.786H210.52a.492.492,0,0,1-.531-.531V434.14a.492.492,0,0,1,.531-.531h7.969c3.124,0,4.816,1.663,4.816,4.781Zm-4.427-5.18a1.181,1.181,0,0,0-1.328-1.328h-3.02v6.71h3.02a1.181,1.181,0,0,0,1.328-1.294Zm0,11.093a1.176,1.176,0,0,0-1.328-1.328h-3.02v6.71h3.02a1.181,1.181,0,0,0,1.328-1.333Z" transform="translate(-3142.784 5800.693)" fill="#300635"/>
    <path id="Path_1166" data-name="Path 1166" d="M257.061,444.212c0,.335-.133.566-.531.566h-8.2v5.111h6.242a.492.492,0,0,1,.531.566v3.291a.492.492,0,0,1-.531.561h-6.242v4.919h8.2c.4,0,.531.162.531.531v3.32c0,.33-.133.531-.531.531H244.31a.492.492,0,0,1-.492-.531V440.891a.492.492,0,0,1,.492-.531H256.53c.4,0,.531.2.531.531Z" transform="translate(-3159.973 5797.261)" fill="#300635"/>
    <path id="Path_1167" data-name="Path 1167" d="M283.963,440.36c3.119,0,4.781,1.663,4.781,4.781v2.194a.492.492,0,0,1-.531.531h-3.355a.492.492,0,0,1-.531-.531v-1.4A1.181,1.181,0,0,0,283,444.61h-1.83a1.21,1.21,0,0,0-1.328,1.328v2.824l8.038,2.592a1.185,1.185,0,0,1,.866,1.225v6.242c0,3.124-1.663,4.786-4.781,4.786h-3.724c-3.084,0-4.781-1.663-4.781-4.786v-2.155a.492.492,0,0,1,.531-.531h3.355c.364,0,.531.162.531.531v1.392a1.19,1.19,0,0,0,1.328,1.328H283a1.181,1.181,0,0,0,1.328-1.328V454.7l-7.969-2.588a1.19,1.19,0,0,1-.9-1.23v-5.746c0-3.119,1.7-4.781,4.781-4.781Z" transform="translate(-3176.047 5797.261)" fill="#300635"/>
    <path id="Path_1168" data-name="Path 1168" d="M318.6,440.358a.492.492,0,0,1,.531.531v3.32a.492.492,0,0,1-.531.531h-3.852v18.334a.462.462,0,0,1-.531.531h-3.443a.492.492,0,0,1-.531-.531V444.741H306.39a.492.492,0,0,1-.531-.531v-3.32a.492.492,0,0,1,.531-.531Z" transform="translate(-3191.494 5797.263)" fill="#300635"/>
    <path id="Path_1169" data-name="Path 1169" d="M368.375,451.815a4.42,4.42,0,0,1-1.859,4.053l1.727,7.138c.1.4-.1.6-.492.6H364.5a.521.521,0,0,1-.566-.467l-1.594-6.543h-2.952v6.479a.492.492,0,0,1-.531.531H355.6a.492.492,0,0,1-.531-.531V440.89a.492.492,0,0,1,.531-.531h7.969c3.124,0,4.786,1.663,4.786,4.781Zm-5.647.492a1.19,1.19,0,0,0,1.328-1.328v-5.008a1.19,1.19,0,0,0-1.328-1.328h-3.32v7.669Z" transform="translate(-3216.496 5797.263)" fill="#300635"/>
    <path id="Path_1170" data-name="Path 1170" d="M399.286,463.6a.492.492,0,0,1-.531-.467l-1.063-4.186H391.45l-1.033,4.186a.492.492,0,0,1-.531.467h-3.252c-.364,0-.531-.2-.433-.566l5.514-22.215a.492.492,0,0,1,.561-.467h4.634a.516.516,0,0,1,.566.467l5.51,22.215c.1.364-.064.566-.462.566Zm-4.717-17.522-2.086,9.017h4.186Z" transform="translate(-3232.301 5797.267)" fill="#300635"/>
    <path id="Path_1171" data-name="Path 1171" d="M431.839,440.358a.492.492,0,0,1,.531.531v3.32a.492.492,0,0,1-.531.531h-3.852v18.334a.462.462,0,0,1-.531.531h-3.443a.492.492,0,0,1-.531-.531V444.741H419.63a.492.492,0,0,1-.531-.531v-3.32a.492.492,0,0,1,.531-.531Z" transform="translate(-3249.029 5797.263)" fill="#300635"/>
    <path id="Path_1172" data-name="Path 1172" d="M451.289,463.606a.492.492,0,0,1-.531-.531V440.89a.492.492,0,0,1,.531-.531h3.443a.492.492,0,0,1,.531.531v22.186a.492.492,0,0,1-.531.531Z" transform="translate(-3265.115 5797.263)" fill="#300635"/>
    <path id="Path_1173" data-name="Path 1173" d="M480.339,440.358a.492.492,0,0,1,.531.531v22.186a.492.492,0,0,1-.531.531h-2.627a.59.59,0,0,1-.6-.433l-6.242-12.662V463.1a.492.492,0,0,1-.531.531H467.22a.492.492,0,0,1-.531-.531V440.914a.492.492,0,0,1,.531-.531h2.622a.6.6,0,0,1,.6.433l6.238,12.647V440.89a.492.492,0,0,1,.531-.531Z" transform="translate(-3273.208 5797.263)" fill="#300635"/>
    <path id="Path_1174" data-name="Path 1174" d="M502.26,438.391c0-3.119,1.663-4.781,4.781-4.781h4.383c3.089,0,4.786,1.663,4.786,4.781v3.443a.492.492,0,0,1-.531.531h-3.325a.492.492,0,0,1-.531-.531v-2.524a1.19,1.19,0,0,0-1.328-1.328H508.1a1.181,1.181,0,0,0-1.328,1.328v15.151A1.181,1.181,0,0,0,508.1,455.8h2.391a1.181,1.181,0,0,0,1.328-1.333v-4.427H510.1a.492.492,0,0,1-.531-.531v-3.32a.462.462,0,0,1,.531-.531h5.583a.492.492,0,0,1,.531.531v9.228c0,3.124-1.7,4.786-4.786,4.786h-4.373c-3.119,0-4.781-1.663-4.781-4.786Z" transform="translate(-3291.282 5800.691)" fill="#300635"/>
    <path id="Path_1183" data-name="Path 1183" d="M551.2,336.9H489.51a6.547,6.547,0,0,0-6.543,6.543v19.013l-5.657,7.379-10.33,13.493,13.375-8.727,3.38-2.2a6.562,6.562,0,0,0,5.78,3.483H551.2a6.543,6.543,0,0,0,6.538-6.538v-25.9A6.543,6.543,0,0,0,551.2,336.9Zm6.051,32.467a6.06,6.06,0,0,1-6.051,6.055H489.51a6.09,6.09,0,0,1-5.47-3.443l-.118-.251-3.729,2.435-11.1,7.251,8.584-11.206,5.726-7.487.054-.069V343.467a6.065,6.065,0,0,1,6.056-6.06H551.2a6.06,6.06,0,0,1,6.051,6.06Z" transform="translate(-3273.358 5849.828)" fill="#1a1a1a"/>
    <path id="Path_1184" data-name="Path 1184" d="M514.748,342.266a.517.517,0,0,1-.521.521h0a.522.522,0,0,1-.526-.521h0a.522.522,0,0,1,.526-.526h0a.521.521,0,0,1,.521.526Z" transform="translate(-3297.095 5847.369)" fill="#1a1a1a"/>
    <path id="Path_1185" data-name="Path 1185" d="M522.138,342.266a.521.521,0,0,1-.526.521h0a.517.517,0,0,1-.521-.521h0a.521.521,0,0,1,.521-.526h0a.521.521,0,0,1,.526.526Z" transform="translate(-3300.85 5847.369)" fill="#1a1a1a"/>
    <path id="Path_1186" data-name="Path 1186" d="M529.523,342.266a.522.522,0,0,1-.526.521h0a.522.522,0,0,1-.526-.521h0a.521.521,0,0,1,.526-.526h0a.521.521,0,0,1,.526.526Z" transform="translate(-3304.599 5847.369)" fill="#1a1a1a"/>
    <rect id="Rectangle_282" data-name="Rectangle 282" width="49.846" height="0.162" transform="translate(-2773.129 6189.552)" fill="#1a1a1a"/>
    <path id="Path_1187" data-name="Path 1187" d="M598.727,365.873h16.725a.507.507,0,0,0,0-1.013H598.727a.507.507,0,1,0,0,1.013Z" transform="translate(-3340.038 5835.622)" fill="#1a1a1a"/>
    <path id="Path_1188" data-name="Path 1188" d="M575.077,365.883H582.6a.507.507,0,1,0,0-1.013h-7.521a.507.507,0,1,0,0,1.013Z" transform="translate(-3328.022 5835.617)" fill="#1a1a1a"/>
    <path id="Path_1189" data-name="Path 1189" d="M557.477,365.863h5.239a.507.507,0,0,0,0-1.013h-5.239a.507.507,0,1,0,0,1.013Z" transform="translate(-3319.079 5835.626)" fill="#1a1a1a"/>
    <path id="Path_1190" data-name="Path 1190" d="M518.587,365.863h17.281a.507.507,0,1,0,0-1.013H518.587a.507.507,0,1,0,0,1.013Z" transform="translate(-3299.32 5835.626)" fill="#1a1a1a"/>
    <path id="Path_1191" data-name="Path 1191" d="M598.727,380.783h16.725a.507.507,0,0,0,0-1.013H598.727a.507.507,0,1,0,0,1.013Z" transform="translate(-3340.038 5828.046)" fill="#1a1a1a"/>
    <path id="Path_1192" data-name="Path 1192" d="M575.077,380.793H582.6a.507.507,0,1,0,0-1.013h-7.521a.507.507,0,1,0,0,1.013Z" transform="translate(-3328.022 5828.042)" fill="#1a1a1a"/>
    <path id="Path_1193" data-name="Path 1193" d="M557.477,380.773h5.239a.507.507,0,0,0,0-1.013h-5.239a.507.507,0,1,0,0,1.013Z" transform="translate(-3319.079 5828.051)" fill="#1a1a1a"/>
    <path id="Path_1194" data-name="Path 1194" d="M518.587,380.773h17.281a.507.507,0,1,0,0-1.013H518.587a.507.507,0,1,0,0,1.013Z" transform="translate(-3299.32 5828.051)" fill="#1a1a1a"/>
    <path id="Path_1195" data-name="Path 1195" d="M92.32,359.014V375a4.039,4.039,0,0,0,4.034,4.034h38.055a4.058,4.058,0,0,0,3.566-2.15l2.086,1.358,8.245,5.387L141.91,375.3l-3.468-4.565V359.014a4.034,4.034,0,0,0-4.034-4.034H96.354a4.034,4.034,0,0,0-4.034,4.034Zm.3,0a3.739,3.739,0,0,1,3.734-3.739h38.055a3.744,3.744,0,0,1,3.734,3.739v11.831l.034.039,3.532,4.619,5.3,6.916-6.852-4.476-2.3-1.5-.074.157a3.763,3.763,0,0,1-3.375,2.13H96.354A3.739,3.739,0,0,1,92.62,375Z" transform="translate(-3083 5840.642)" fill="#1a1a1a"/>
    <path id="Path_1196" data-name="Path 1196" d="M176,358.285a.325.325,0,0,0,.325.325h0a.325.325,0,0,0,.325-.325h0a.33.33,0,0,0-.325-.325h0a.33.33,0,0,0-.325.325Z" transform="translate(-3125.516 5839.127)" fill="#1a1a1a"/>
    <path id="Path_1197" data-name="Path 1197" d="M171.44,358.285a.32.32,0,0,0,.32.325h0a.32.32,0,0,0,.325-.325h0a.325.325,0,0,0-.325-.325h0A.325.325,0,0,0,171.44,358.285Z" transform="translate(-3123.199 5839.127)" fill="#1a1a1a"/>
    <path id="Path_1198" data-name="Path 1198" d="M166.88,358.285a.325.325,0,0,0,.325.325h0a.325.325,0,0,0,.325-.325h0a.33.33,0,0,0-.325-.325h0A.33.33,0,0,0,166.88,358.285Z" transform="translate(-3120.883 5839.127)" fill="#1a1a1a"/>
    <rect id="Rectangle_283" data-name="Rectangle 283" width="30.75" height="0.098" transform="translate(-2985.958 6197.363)" fill="#1a1a1a"/>
    <path id="Path_1199" data-name="Path 1199" d="M113.576,372.855h-10.33a.315.315,0,0,1,0-.625h10.33a.315.315,0,0,1,0,.625Z" transform="translate(-3088.411 5831.877)" fill="#1a1a1a"/>
    <path id="Path_1200" data-name="Path 1200" d="M134.044,372.855h-4.639a.315.315,0,0,1,0-.625h4.639a.315.315,0,0,1,0,.625Z" transform="translate(-3101.702 5831.877)" fill="#1a1a1a"/>
    <path id="Path_1201" data-name="Path 1201" d="M146.377,372.845h-3.232a.315.315,0,0,1,0-.625h3.232a.315.315,0,0,1,0,.625Z" transform="translate(-3108.683 5831.882)" fill="#1a1a1a"/>
    <path id="Path_1202" data-name="Path 1202" d="M162.69,372.845H152.015a.315.315,0,0,1,0-.625H162.69a.315.315,0,0,1,0,.625Z" transform="translate(-3113.19 5831.882)" fill="#1a1a1a"/>
    <path id="Path_1203" data-name="Path 1203" d="M113.576,382.055h-10.33a.315.315,0,0,1,0-.625h10.33a.315.315,0,0,1,0,.625Z" transform="translate(-3088.411 5827.203)" fill="#1a1a1a"/>
    <path id="Path_1204" data-name="Path 1204" d="M134.044,382.055h-4.639a.315.315,0,0,1,0-.625h4.639a.315.315,0,0,1,0,.625Z" transform="translate(-3101.702 5827.203)" fill="#1a1a1a"/>
    <path id="Path_1205" data-name="Path 1205" d="M146.377,382.045h-3.232a.315.315,0,0,1,0-.625h3.232a.315.315,0,0,1,0,.625Z" transform="translate(-3108.683 5827.208)" fill="#1a1a1a"/>
    <path id="Path_1206" data-name="Path 1206" d="M162.69,382.045H152.015a.315.315,0,0,1,0-.625H162.69a.315.315,0,0,1,0,.625Z" transform="translate(-3113.19 5827.208)" fill="#1a1a1a"/>
  </g>
</svg>
