<svg xmlns="http://www.w3.org/2000/svg" viewBox="0 0 747.25 1217.37"><defs><style>.cls-1{fill:#fd9d09;}.cls-2{fill:#d5dee6;}.cls-3{fill:#d6e3ee;}.cls-4{fill:#beccd6;}.cls-5{fill:#e4ebed;}.cls-6{fill:#dfe6ea;}.cls-7{fill:#e9eeef;}.cls-8{fill:#e1e7ed;}.cls-9{fill:#d4dde3;}.cls-10{fill:#111;}.cls-11,.cls-15{fill:none;}.cls-11{stroke:#004ddf;}.cls-12{fill:#004ddf;}.cls-13{fill:#231f20;}.cls-14{fill:#f6921e;}.cls-15{stroke:#ec1c24;stroke-width:0.25px;}.cls-16{fill:#ec1c24;}.cls-17{fill:red;}.cls-18{fill:blue;}.cls-19,.cls-20{fill:#fff;}.cls-20{stroke:red;stroke-width:2px;}</style></defs><title>welcome</title><g id="Layer_2" data-name="Layer 2"><g id="Layer_1-2" data-name="Layer 1"><path class="cls-1" d="M92.63,99.06q71,.24,141.93,0a1.37,1.37,0,0,0,0-2.74q-71,.27-141.93,0a1.38,1.38,0,0,0,0,2.75Z"/><path class="cls-1" d="M62.54,99H80.47a1.37,1.37,0,0,0,0-2.74H62.54a1.37,1.37,0,0,0,0,2.74Z"/><path class="cls-1" d="M99,98.17c-.25.6.44-.82.57-1a15.94,15.94,0,0,1,2.33-3c3.13-3.24,7.43-4,11.7-3a1.41,1.41,0,0,0,1.55-.64,33.93,33.93,0,0,1,15-12.81,24.21,24.21,0,0,1,15.79-1.09A7.47,7.47,0,0,1,149,78.39c.24.24.78,1.27.6.79.6,1.65,3.25.93,2.65-.73-2.58-7.08-14.72-5.74-20-4.38-7.86,2-15.14,8.23-19.43,15l1.55-.63a15.17,15.17,0,0,0-18,9c-.69,1.63,2,2.33,2.64.73Z"/><path class="cls-1" d="M147.63,85.09c7.39-10.74,19.26-19.88,32-22.84,7.23-1.69,13.81,1,17.13,7.71,1.81,3.64,3.28,10.1.67,13.74-1,1.34,1,2.62,2.15,1.66a22.68,22.68,0,0,1,6.53-3.82c2.86-1.11,10-1.89,10.21,2.72.13,3-2.53,6.19-4.31,8.36a40.59,40.59,0,0,1-3.8,4.07c-1.29,1.21.65,3.15,1.94,1.94,3.9-3.63,10.49-10.38,8.6-16.27-1.45-4.51-7.71-4.87-11.5-4a23,23,0,0,0-9.6,5.1l2.15,1.67c3-4.16,1.64-11-.15-15.34A16.74,16.74,0,0,0,183.29,59c-9.94.24-19.62,6.38-26.93,12.63a64.17,64.17,0,0,0-11.1,12.06c-1,1.46,1.38,2.83,2.37,1.39Z"/><path class="cls-1" d="M529.63,40.06q71,.24,141.93,0a1.37,1.37,0,0,0,0-2.74q-71,.27-141.93,0a1.38,1.38,0,0,0,0,2.75Z"/><path class="cls-1" d="M499.54,40h17.93a1.37,1.37,0,0,0,0-2.74H499.54a1.37,1.37,0,0,0,0,2.74Z"/><path class="cls-1" d="M536,39.17c-.25.6.44-.82.57-1.05a15.94,15.94,0,0,1,2.33-3c3.13-3.24,7.43-4,11.7-3a1.41,1.41,0,0,0,1.55-.64,33.93,33.93,0,0,1,15-12.81,24.21,24.21,0,0,1,15.79-1.09A7.47,7.47,0,0,1,586,19.39c.24.24.78,1.27.6.79.6,1.65,3.25.93,2.65-.73-2.58-7.08-14.72-5.74-20-4.38-7.86,2-15.14,8.23-19.43,15l1.55-.63a15.17,15.17,0,0,0-18,9c-.69,1.63,2,2.33,2.64.73Z"/><path class="cls-1" d="M584.63,26.09c7.39-10.74,19.26-19.88,32-22.84,7.23-1.69,13.81,1,17.13,7.71,1.81,3.64,3.28,10.1.67,13.74-1,1.34,1,2.62,2.15,1.66a22.68,22.68,0,0,1,6.53-3.82c2.86-1.11,10-1.89,10.21,2.72.13,3-2.53,6.19-4.31,8.36a40.59,40.59,0,0,1-3.8,4.07c-1.29,1.21.65,3.15,1.94,1.94,3.9-3.63,10.49-10.38,8.6-16.27-1.45-4.51-7.71-4.87-11.5-4a23,23,0,0,0-9.6,5.1l2.15,1.67c3-4.16,1.64-11-.15-15.34A16.74,16.74,0,0,0,620.29,0c-9.94.24-19.62,6.38-26.93,12.63a64.17,64.17,0,0,0-11.1,12.06c-1,1.46,1.38,2.83,2.37,1.39Z"/><path class="cls-2" d="M140.35,980.56,12,968.9c-3.58-.32-7.86-.17-9.83,4.18-1,2.27-1.13,5.14-1.2,7.86q-2.76,114.7,2.18,229.43l120.45,3.18c7,.19,14,3.12,17.63-6.58,3.4-9.16.86-31.74,1-42.19q.64-44.1.23-88.2C142.43,1068.56,141.32,980.56,140.35,980.56Z"/><path class="cls-3" d="M285.45,1165.08c0-2-.07-4.29-1.4-5.39a4.1,4.1,0,0,0-2.68-.68L186,1157.54c-1.78,0-3.69,0-5.1,1.32-1.82,1.7-2.12,4.87-2.26,7.67-.69,14.79-.65,29.63.13,44.41,21.11,2.14,42.29-2.08,63.48-2.1a214.33,214.33,0,0,1,22.64,1.31c4.62.49,13.55,4.06,17.49-.14,3.46-3.7,2.59-12.22,2.67-17.14Q285.24,1179,285.45,1165.08Z"/><path class="cls-4" d="M169.5,933.13a8,8,0,0,0-.87-4.11c-.89-1.28-2.33-1.14-3.57-.89-6.74,1.4-13.37,3.71-20.1,5.2-10.82,2.39-21.8,2.64-32.73,2.89l-25.79.59c-3.14.07-6.63-.06-8.86-3.26q3.11,70.28,1.22,140.75c-1.15,42.8-3.65,85.62-2.45,128.42a5.9,5.9,0,0,0,.7,3.23,2.43,2.43,0,0,0,2,.8l57.19,4.08c8.57.62,19.72,4.26,28.12,2,7.46-2,4.6-15.57,4.3-23.87-2-54.58.26-109.21,1.27-163.78C170.45,994.5,170.65,963.78,169.5,933.13Z"/><path class="cls-5" d="M136.3,1208.91a5,5,0,0,1-3.26-1.25c-1-1.05-1.29-2.78-1.5-4.38-2.43-18.35-2.75-37-3.07-55.61q-.43-24.69-.85-49.37c-.06-3.63,0-7.69,2.06-10.29s5.39-2.8,8.37-2.79l56.62.08q-1.09,28.6-2.18,57.22c-.47,12.14-.91,24.35-.19,36.49.44,7.37,6.09,24.56,2.41,30.81-3.9,6.62-20.52,2.29-26.41,2Q152.28,1210.87,136.3,1208.91Z"/><path class="cls-2" d="M305.92,1208.21a244.25,244.25,0,0,1-52.34-.59q-2.54-105.46-5.07-210.95a390,390,0,0,1,46.34-2c5.35.13,9.93-.48,11.77,6.53,1.89,7.19-.46,19.61-.64,27.22-.91,38.55-1,77.12-.69,115.69C305.33,1149.49,306.36,1208.17,305.92,1208.21Z"/><path class="cls-6" d="M43.33,1045.86c-.08,1.82-.33,4-1.65,4.76a3.61,3.61,0,0,1-1.35.39,107.65,107.65,0,0,1-11.47.92,3.85,3.85,0,0,1-3.27-1,6.47,6.47,0,0,1-1-3.78q-.42-7-.83-13.92a1.28,1.28,0,0,1,.16-.88.72.72,0,0,1,.68-.15c5.15.66,10.89.53,15.9,2C45.2,1035.63,43.55,1040.75,43.33,1045.86Z"/><path class="cls-6" d="M25.08,1059.8A1.68,1.68,0,0,0,24,1060a2.05,2.05,0,0,0-.59.9,18.41,18.41,0,0,0-.83,6.94c0,3.9.05,7.8.08,11.71,5.09,0,10.56.06,15.58-1.08,4.38-1,4.75-5.17,4-10.23C40.81,1058.19,31.39,1060.09,25.08,1059.8Z"/><path class="cls-6" d="M26.13,1088.4a66.79,66.79,0,0,0-.5,17,1.54,1.54,0,0,0,.25.84,1,1,0,0,0,.69.27l12,1.16c4.69.45,4.73-12.15,2.63-15.91a6.89,6.89,0,0,0-5-3.33C35.21,1088.23,26.31,1087.49,26.13,1088.4Z"/><path class="cls-6" d="M25.44,1118.36a56.34,56.34,0,0,0,0,19.81,1.4,1.4,0,0,0,.25.69.92.92,0,0,0,.76.24l11-.06c1.31,0,2.76-.08,3.71-1.19s1.09-2.91,1.16-4.52l.42-9.26c.18-3.87.84-4.54-2.13-5.41C35.93,1117.31,30.14,1118.08,25.44,1118.36Z"/><path class="cls-7" d="M170.38,1105.15c-4.54-.4-9-1.85-13.59-1.66a2.25,2.25,0,0,0-2.14,1.09,3.81,3.81,0,0,0-.2,1.52v5.63a2.48,2.48,0,0,0,.2,1.19,1.53,1.53,0,0,0,1.58.6l12.71-.6c2.86-.14,10,1.17,12.36-.63,2.58-1.91.7-4.76-1.25-6C177.2,1104.36,173.49,1105.43,170.38,1105.15Z"/><path class="cls-7" d="M157,1118.56a1,1,0,0,0-.73.21,1.53,1.53,0,0,0-.27,1,49,49,0,0,0,.2,8.3,1.52,1.52,0,0,0,.32.92.92.92,0,0,0,.79.16,160.21,160.21,0,0,1,23.89-.68,1.32,1.32,0,0,0,1.38-.54,2.05,2.05,0,0,0,.15-.93c0-2.08.65-5.49-.85-6.9s-6.42-.71-8.23-.83C168.07,1118.84,162.51,1118.56,157,1118.56Z"/><path class="cls-7" d="M156.88,1132.75a.65.65,0,0,0-.47.2,1.13,1.13,0,0,0-.18.65,42.22,42.22,0,0,0,.28,7.79l22.51,1a1.68,1.68,0,0,0,1.06-.2,2.35,2.35,0,0,0,.71-1.37c2.13-8.19-2.29-7.68-7.83-8.3A64.1,64.1,0,0,0,156.88,1132.75Z"/><path class="cls-8" d="M300.15,1010.86c0,.58-.11,1.28-.54,1.53a1.08,1.08,0,0,1-.43.13,35.24,35.24,0,0,1-3.7.29,1.25,1.25,0,0,1-1.06-.32,2,2,0,0,1-.32-1.22l-.27-4.5a.39.39,0,0,1,.05-.28.25.25,0,0,1,.22,0,32.73,32.73,0,0,1,5.13.66C300.76,1007.55,300.22,1009.2,300.15,1010.86Z"/><path class="cls-8" d="M294.26,1015.35a.6.6,0,0,0-.35.07.64.64,0,0,0-.19.29,5.78,5.78,0,0,0-.27,2.24l0,3.78a23.44,23.44,0,0,0,5-.35c1.42-.32,1.54-1.66,1.3-3.3C299.33,1014.83,296.3,1015.45,294.26,1015.35Z"/><path class="cls-8" d="M294.6,1024.58a22,22,0,0,0-.17,5.5.61.61,0,0,0,.08.27.4.4,0,0,0,.23.08l3.88.38c1.51.14,1.52-3.92.85-5.14a2.23,2.23,0,0,0-1.63-1.07C297.53,1024.53,294.66,1024.29,294.6,1024.58Z"/><path class="cls-8" d="M294.37,1034.25a18.35,18.35,0,0,0,0,6.4.42.42,0,0,0,.08.22.32.32,0,0,0,.25.08l3.53,0a1.48,1.48,0,0,0,1.2-.39,2.47,2.47,0,0,0,.37-1.46c.05-1,.09-2,.13-3,.06-1.25.27-1.47-.68-1.75A15.65,15.65,0,0,0,294.37,1034.25Z"/><path class="cls-8" d="M300.15,1047.58c0,.58-.11,1.28-.54,1.53a.94.94,0,0,1-.43.13,32.75,32.75,0,0,1-3.7.3,1.26,1.26,0,0,1-1.06-.33,2,2,0,0,1-.32-1.22l-.27-4.49a.37.37,0,0,1,.05-.28.22.22,0,0,1,.22,0,32.71,32.71,0,0,1,5.13.65C300.76,1044.28,300.22,1045.93,300.15,1047.58Z"/><path class="cls-8" d="M294.26,1052.08a.48.48,0,0,0-.35.07.55.55,0,0,0-.19.29,5.74,5.74,0,0,0-.27,2.24l0,3.77a24.09,24.09,0,0,0,5-.34c1.42-.33,1.54-1.67,1.3-3.31C299.33,1051.56,296.3,1052.17,294.26,1052.08Z"/><path class="cls-8" d="M294.6,1061.31a21.91,21.91,0,0,0-.17,5.49.57.57,0,0,0,.08.27.35.35,0,0,0,.23.09l3.88.37c1.51.15,1.52-3.92.85-5.14a2.23,2.23,0,0,0-1.63-1.07C297.53,1061.26,294.66,1061,294.6,1061.31Z"/><path class="cls-8" d="M294.37,1071a18.29,18.29,0,0,0,0,6.39.39.39,0,0,0,.08.22.29.29,0,0,0,.25.08l3.53,0a1.47,1.47,0,0,0,1.2-.38,2.49,2.49,0,0,0,.37-1.46c.05-1,.09-2,.13-3,.06-1.25.27-1.46-.68-1.75A15.35,15.35,0,0,0,294.37,1071Z"/><path class="cls-8" d="M290.83,1010.86c0,.58-.1,1.28-.53,1.53a1.07,1.07,0,0,1-.44.13,35.26,35.26,0,0,1-3.69.29,1.24,1.24,0,0,1-1.06-.32,2.1,2.1,0,0,1-.33-1.22c-.09-1.5-.17-3-.27-4.5a.45.45,0,0,1,.06-.28.23.23,0,0,1,.21,0,32.7,32.7,0,0,1,5.14.66C291.44,1007.55,290.91,1009.2,290.83,1010.86Z"/><path class="cls-8" d="M284.94,1015.35a.57.57,0,0,0-.34.07.64.64,0,0,0-.19.29,5.78,5.78,0,0,0-.27,2.24c0,1.26,0,2.52,0,3.78a23.57,23.57,0,0,0,5-.35c1.42-.32,1.53-1.66,1.3-3.3C290,1014.83,287,1015.45,284.94,1015.35Z"/><path class="cls-8" d="M285.28,1024.58a22,22,0,0,0-.16,5.5.5.5,0,0,0,.08.27.37.37,0,0,0,.22.08l3.88.38c1.52.14,1.53-3.92.86-5.14a2.23,2.23,0,0,0-1.64-1.07C288.21,1024.53,285.34,1024.29,285.28,1024.58Z"/><path class="cls-8" d="M285.06,1034.25a18.35,18.35,0,0,0,0,6.4.43.43,0,0,0,.09.22.3.3,0,0,0,.24.08l3.53,0a1.49,1.49,0,0,0,1.21-.39,2.54,2.54,0,0,0,.37-1.46c0-1,.08-2,.13-3,.06-1.25.27-1.47-.68-1.75A15.65,15.65,0,0,0,285.06,1034.25Z"/><path class="cls-8" d="M290.83,1047.58c0,.58-.1,1.28-.53,1.53a.94.94,0,0,1-.44.13,32.77,32.77,0,0,1-3.69.3,1.25,1.25,0,0,1-1.06-.33,2.1,2.1,0,0,1-.33-1.22c-.09-1.5-.17-3-.27-4.49a.42.42,0,0,1,.06-.28.21.21,0,0,1,.21,0,32.69,32.69,0,0,1,5.14.65C291.44,1044.28,290.91,1045.93,290.83,1047.58Z"/><path class="cls-8" d="M284.94,1052.08a.45.45,0,0,0-.34.07.55.55,0,0,0-.19.29,5.74,5.74,0,0,0-.27,2.24c0,1.26,0,2.51,0,3.77a24.23,24.23,0,0,0,5-.34c1.42-.33,1.53-1.67,1.3-3.31C290,1051.56,287,1052.17,284.94,1052.08Z"/><path class="cls-8" d="M285.28,1061.31a21.91,21.91,0,0,0-.16,5.49.48.48,0,0,0,.08.27.33.33,0,0,0,.22.09l3.88.37c1.52.15,1.53-3.92.86-5.14a2.23,2.23,0,0,0-1.64-1.07C288.21,1061.26,285.34,1061,285.28,1061.31Z"/><path class="cls-8" d="M285.06,1071a18.29,18.29,0,0,0,0,6.39.4.4,0,0,0,.09.22.27.27,0,0,0,.24.08l3.53,0a1.48,1.48,0,0,0,1.21-.38,2.56,2.56,0,0,0,.37-1.46c0-1,.08-2,.13-3,.06-1.25.27-1.46-.68-1.75A15.35,15.35,0,0,0,285.06,1071Z"/><path class="cls-9" d="M158.45,947a2.51,2.51,0,0,1-2.09,2.47,9.31,9.31,0,0,1-1.71.2c-4.81.27-9.64.42-14.48.48a10.32,10.32,0,0,1-4.14-.53,2.19,2.19,0,0,1-1.27-2l-1-7.22a.37.37,0,0,1,.2-.45,2.14,2.14,0,0,1,.86-.08c6.5.34,13.76.28,20.1,1.05C160.81,941.69,158.73,944.34,158.45,947Z"/><path class="cls-9" d="M135.39,954.21a5,5,0,0,0-1.37.11,1.78,1.78,0,0,0-.74.47,4.51,4.51,0,0,0-1.05,3.59c0,2,.07,4,.1,6.06,6.43,0,13.35,0,19.69-.55,5.54-.52,6-2.68,5.07-5.3C155.27,953.38,143.36,954.36,135.39,954.21Z"/><path class="cls-9" d="M136.72,969a14.61,14.61,0,0,0-.64,8.82.57.57,0,0,0,.32.43,2.34,2.34,0,0,0,.87.14l15.19.6c5.93.23,6-6.29,3.32-8.24-1.51-1.11-3.86-1.5-6.38-1.72C148.19,968.94,137,968.56,136.72,969Z"/><path class="cls-9" d="M135.84,984.54a12.45,12.45,0,0,0,0,10.26.59.59,0,0,0,.31.36,2.44,2.44,0,0,0,1,.12l13.83,0a11.85,11.85,0,0,0,4.7-.62,2.53,2.53,0,0,0,1.47-2.34c.17-1.6.34-3.19.52-4.79.22-2,1.06-2.35-2.68-2.8C149.1,984,141.78,984.4,135.84,984.54Z"/><path class="cls-9" d="M158.45,1005.93a2.5,2.5,0,0,1-2.09,2.46,9.31,9.31,0,0,1-1.71.2q-7.22.4-14.48.48a10.33,10.33,0,0,1-4.14-.52,2.22,2.22,0,0,1-1.27-2l-1-7.21a.38.38,0,0,1,.2-.46,2,2,0,0,1,.86-.07c6.5.34,13.76.27,20.1,1C160.81,1000.63,158.73,1003.28,158.45,1005.93Z"/><path class="cls-9" d="M122,947a2.51,2.51,0,0,1-2.1,2.47,9.1,9.1,0,0,1-1.7.2c-4.81.27-9.64.42-14.48.48a10.32,10.32,0,0,1-4.14-.53,2.19,2.19,0,0,1-1.27-2l-1-7.22a.37.37,0,0,1,.2-.45,2.14,2.14,0,0,1,.86-.08c6.5.34,13.76.28,20.1,1.05C124.35,941.69,122.27,944.34,122,947Z"/><path class="cls-9" d="M98.93,954.21a5,5,0,0,0-1.37.11,1.78,1.78,0,0,0-.74.47,4.51,4.51,0,0,0-1,3.59c0,2,.07,4,.1,6.06,6.43,0,13.35,0,19.69-.55,5.54-.52,6-2.68,5.07-5.3C118.81,953.38,106.9,954.36,98.93,954.21Z"/><path class="cls-9" d="M100.26,969a14.6,14.6,0,0,0-.63,8.82.53.53,0,0,0,.31.43,2.36,2.36,0,0,0,.88.14L116,979c5.93.23,6-6.29,3.32-8.24-1.51-1.11-3.86-1.5-6.38-1.72C111.73,968.94,100.49,968.56,100.26,969Z"/><path class="cls-9" d="M99.38,984.54a12.45,12.45,0,0,0,0,10.26.59.59,0,0,0,.31.36,2.44,2.44,0,0,0,1,.12l13.84,0a11.82,11.82,0,0,0,4.69-.62,2.53,2.53,0,0,0,1.47-2.34c.17-1.6.34-3.19.52-4.79.22-2,1.06-2.35-2.68-2.8C112.64,984,105.32,984.4,99.38,984.54Z"/><path class="cls-9" d="M122,1005.93a2.5,2.5,0,0,1-2.1,2.46,9.1,9.1,0,0,1-1.7.2q-7.22.4-14.48.48a10.33,10.33,0,0,1-4.14-.52,2.22,2.22,0,0,1-1.27-2l-1-7.21a.38.38,0,0,1,.2-.46,2,2,0,0,1,.86-.07c6.5.34,13.76.27,20.1,1C124.35,1000.63,122.27,1003.28,122,1005.93Z"/><path class="cls-3" d="M353.42,1187.21c0-1.22-.05-2.65-.87-3.32a2.5,2.5,0,0,0-1.64-.42l-58.7-.9a4.23,4.23,0,0,0-3.13.81c-1.12,1-1.31,3-1.39,4.72-.43,9.1-.41,18.23.07,27.32,13,1.31,26-1.28,39.06-1.3a132.26,132.26,0,0,1,13.92.81c2.85.3,8.34,2.5,10.77-.08,2.12-2.28,1.59-7.52,1.64-10.55Z"/><path class="cls-4" d="M240.32,1040.51a3.69,3.69,0,0,0-.53-2.15,2.17,2.17,0,0,0-2.2-.46c-4.14.73-8.23,1.94-12.37,2.72-6.65,1.25-13.4,1.38-20.13,1.51l-15.86.31c-1.93,0-4.08,0-5.45-1.7q1.91,36.79.74,73.71c-.7,22.42-2.24,44.84-1.5,67.26a2.74,2.74,0,0,0,.43,1.69,1.67,1.67,0,0,0,1.2.42l35.19,2.14c5.27.32,12.13,2.22,17.29,1,4.6-1.06,2.83-8.16,2.65-12.5-1.21-28.59.16-57.2.78-85.78C240.91,1072.65,241,1056.57,240.32,1040.51Z"/><path class="cls-2" d="M264.16,1095.66l-78.94-6.08c-2.21-.16-4.84-.09-6.05,2.18a9.25,9.25,0,0,0-.74,4.1q-1.69,59.76,1.34,119.56l74.1,1.66c4.3.09,8.62,1.62,10.84-3.43,2.09-4.78.53-16.54.62-22q.41-23,.15-46C265.43,1141.52,264.75,1095.66,264.16,1095.66Z"/><path class="cls-5" d="M261.66,1214.17a3.12,3.12,0,0,1-2-.77,4.83,4.83,0,0,1-.92-2.7c-1.5-11.29-1.7-22.77-1.89-34.2q-.27-15.2-.52-30.37c0-2.24,0-4.73,1.26-6.33s3.32-1.73,5.16-1.72l34.82.05q-.66,17.59-1.34,35.2c-.28,7.47-.56,15-.12,22.45.27,4.53,3.75,15.1,1.49,19-2.4,4.07-12.63,1.41-16.25,1.21Q271.49,1215.37,261.66,1214.17Z"/><path class="cls-2" d="M366,1213.74a150.72,150.72,0,0,1-32.2-.36q-1.56-64.89-3.11-129.77a238.11,238.11,0,0,1,28.5-1.23c3.29.08,6.11-.29,7.24,4s-.29,12.06-.4,16.74c-.55,23.72-.58,47.45-.42,71.17C365.65,1177.62,366.28,1213.71,366,1213.74Z"/><path class="cls-6" d="M204.48,1113.87c0,1.11-.21,2.44-1,2.93a2.24,2.24,0,0,1-.83.23,64.2,64.2,0,0,1-7,.57,2.39,2.39,0,0,1-2-.62,4,4,0,0,1-.62-2.32l-.51-8.57a.8.8,0,0,1,.1-.54.45.45,0,0,1,.42-.09c3.16.4,6.7.33,9.78,1.25C205.63,1107.57,204.61,1110.72,204.48,1113.87Z"/><path class="cls-6" d="M193.25,1122.44a1,1,0,0,0-.67.13,1.39,1.39,0,0,0-.36.56,11.38,11.38,0,0,0-.51,4.26c0,2.41,0,4.8,0,7.21a45.35,45.35,0,0,0,9.59-.67c2.69-.61,2.92-3.18,2.47-6.29C202.93,1121.45,197.13,1122.62,193.25,1122.44Z"/><path class="cls-6" d="M193.89,1140a41.69,41.69,0,0,0-.3,10.47,1,1,0,0,0,.15.52.58.58,0,0,0,.43.16l7.39.72c2.89.28,2.91-7.48,1.62-9.79a4.22,4.22,0,0,0-3.11-2C199.48,1139.93,194,1139.48,193.89,1140Z"/><path class="cls-6" d="M193.47,1158.47a34.61,34.61,0,0,0,0,12.18,1,1,0,0,0,.15.43.57.57,0,0,0,.47.14l6.74,0a2.82,2.82,0,0,0,2.28-.74,4.59,4.59,0,0,0,.71-2.78c.09-1.9.17-3.79.26-5.69.11-2.38.52-2.79-1.31-3.33C199.93,1157.82,196.36,1158.3,193.47,1158.47Z"/><path class="cls-7" d="M282.63,1150.34c-2.8-.24-5.55-1.14-8.36-1a1.37,1.37,0,0,0-1.31.67,2.21,2.21,0,0,0-.13.93c0,1.16,0,2.31,0,3.47a1.48,1.48,0,0,0,.12.73.94.94,0,0,0,1,.37l7.81-.37c1.76-.08,6.13.72,7.61-.38s.43-2.94-.77-3.73C286.82,1149.85,284.55,1150.51,282.63,1150.34Z"/><path class="cls-7" d="M274.38,1158.59a.6.6,0,0,0-.45.13.93.93,0,0,0-.17.58,30.07,30.07,0,0,0,.12,5.11,1,1,0,0,0,.2.57.6.6,0,0,0,.49.09,98.75,98.75,0,0,1,14.69-.41c.32,0,.69,0,.85-.34a1.18,1.18,0,0,0,.09-.57c0-1.28.41-3.37-.52-4.25s-3.94-.43-5.06-.5C281.21,1158.76,277.79,1158.59,274.38,1158.59Z"/><path class="cls-7" d="M274.32,1167.32a.38.38,0,0,0-.28.12.67.67,0,0,0-.11.4,24.72,24.72,0,0,0,.17,4.79l13.85.62a1,1,0,0,0,.65-.13,1.48,1.48,0,0,0,.44-.84c1.3-5-1.41-4.72-4.82-5.1A39.53,39.53,0,0,0,274.32,1167.32Z"/><path class="cls-8" d="M362.46,1092.33c0,.36-.06.79-.33,1a.92.92,0,0,1-.27.08,21.48,21.48,0,0,1-2.27.18.83.83,0,0,1-.66-.2,1.31,1.31,0,0,1-.19-.75c-.06-.92-.11-1.84-.17-2.77a.31.31,0,0,1,0-.17s.09,0,.14,0a21,21,0,0,1,3.16.4C362.83,1090.3,362.5,1091.32,362.46,1092.33Z"/><path class="cls-8" d="M358.84,1095.1a.4.4,0,0,0-.22,0,.47.47,0,0,0-.12.18,3.94,3.94,0,0,0-.16,1.38c0,.77,0,1.55,0,2.32a13.94,13.94,0,0,0,3.09-.21c.87-.2.94-1,.79-2C362,1094.78,360.09,1095.16,358.84,1095.1Z"/><path class="cls-8" d="M359,1100.78a13.64,13.64,0,0,0-.09,3.38.27.27,0,0,0,0,.16.2.2,0,0,0,.14.06l2.39.23c.93.09.94-2.42.52-3.16a1.35,1.35,0,0,0-1-.66C360.85,1100.75,359.08,1100.6,359,1100.78Z"/><path class="cls-8" d="M358.91,1106.73a11,11,0,0,0,0,3.93.34.34,0,0,0,.05.14.17.17,0,0,0,.15,0h2.18a.91.91,0,0,0,.74-.23,1.55,1.55,0,0,0,.22-.9l.09-1.84c0-.77.16-.9-.42-1.07A9.15,9.15,0,0,0,358.91,1106.73Z"/><path class="cls-8" d="M362.46,1114.93c0,.35-.06.78-.33.94a.92.92,0,0,1-.27.08,21.48,21.48,0,0,1-2.27.18.77.77,0,0,1-.66-.2,1.31,1.31,0,0,1-.19-.75c-.06-.92-.11-1.84-.17-2.77a.31.31,0,0,1,0-.17.14.14,0,0,1,.14,0,21,21,0,0,1,3.16.4C362.83,1112.89,362.5,1113.91,362.46,1114.93Z"/><path class="cls-8" d="M358.84,1117.69a.4.4,0,0,0-.22,0,.47.47,0,0,0-.12.18,3.94,3.94,0,0,0-.16,1.38c0,.78,0,1.55,0,2.32a13.94,13.94,0,0,0,3.09-.21c.87-.2.94-1,.79-2C362,1117.37,360.09,1117.75,358.84,1117.69Z"/><path class="cls-8" d="M359,1123.37a13.64,13.64,0,0,0-.09,3.38.27.27,0,0,0,0,.16.2.2,0,0,0,.14.06l2.39.23c.93.09.94-2.41.52-3.16a1.35,1.35,0,0,0-1-.66C360.85,1123.34,359.08,1123.19,359,1123.37Z"/><path class="cls-8" d="M358.91,1129.32a11,11,0,0,0,0,3.93.34.34,0,0,0,.05.14.21.21,0,0,0,.15,0l2.18,0a.91.91,0,0,0,.74-.23,1.55,1.55,0,0,0,.22-.9l.09-1.84c0-.77.16-.9-.42-1.07A9.15,9.15,0,0,0,358.91,1129.32Z"/><path class="cls-8" d="M356.73,1092.33c0,.36-.06.79-.33,1a.84.84,0,0,1-.27.08,21.48,21.48,0,0,1-2.27.18.8.8,0,0,1-.65-.2,1.24,1.24,0,0,1-.2-.75c-.06-.92-.11-1.84-.17-2.77a.31.31,0,0,1,0-.17s.09,0,.14,0a21,21,0,0,1,3.16.4C357.1,1090.3,356.78,1091.32,356.73,1092.33Z"/><path class="cls-8" d="M353.11,1095.1a.4.4,0,0,0-.22,0,.47.47,0,0,0-.12.18,3.94,3.94,0,0,0-.16,1.38c0,.77,0,1.55,0,2.32a13.94,13.94,0,0,0,3.09-.21c.87-.2.94-1,.8-2C356.23,1094.78,354.36,1095.16,353.11,1095.1Z"/><path class="cls-8" d="M353.31,1100.78a13.64,13.64,0,0,0-.09,3.38.22.22,0,0,0,0,.16s.08,0,.13.06l2.39.23c.93.09.94-2.42.52-3.16a1.35,1.35,0,0,0-1-.66C355.12,1100.75,353.35,1100.6,353.31,1100.78Z"/><path class="cls-8" d="M353.18,1106.73a11.28,11.28,0,0,0,0,3.93.25.25,0,0,0,.06.14.14.14,0,0,0,.14,0h2.18a.91.91,0,0,0,.74-.23,1.63,1.63,0,0,0,.23-.9c0-.61.05-1.23.08-1.84,0-.77.17-.9-.42-1.07A9.15,9.15,0,0,0,353.18,1106.73Z"/><path class="cls-8" d="M356.73,1114.93c0,.35-.06.78-.33.94a.84.84,0,0,1-.27.08,21.48,21.48,0,0,1-2.27.18.74.74,0,0,1-.65-.2,1.24,1.24,0,0,1-.2-.75c-.06-.92-.11-1.84-.17-2.77a.31.31,0,0,1,0-.17.14.14,0,0,1,.14,0,21,21,0,0,1,3.16.4C357.1,1112.89,356.78,1113.91,356.73,1114.93Z"/><path class="cls-8" d="M353.11,1117.69a.4.4,0,0,0-.22,0,.47.47,0,0,0-.12.18,3.94,3.94,0,0,0-.16,1.38c0,.78,0,1.55,0,2.32a13.94,13.94,0,0,0,3.09-.21c.87-.2.94-1,.8-2C356.23,1117.37,354.36,1117.75,353.11,1117.69Z"/><path class="cls-8" d="M353.31,1123.37a13.64,13.64,0,0,0-.09,3.38.22.22,0,0,0,0,.16s.08,0,.13.06l2.39.23c.93.09.94-2.41.52-3.16a1.35,1.35,0,0,0-1-.66C355.12,1123.34,353.35,1123.19,353.31,1123.37Z"/><path class="cls-8" d="M353.18,1129.32a11.28,11.28,0,0,0,0,3.93.25.25,0,0,0,.06.14.17.17,0,0,0,.14,0l2.18,0a.91.91,0,0,0,.74-.23,1.63,1.63,0,0,0,.23-.9c0-.61.05-1.23.08-1.84,0-.77.17-.9-.42-1.07A9.15,9.15,0,0,0,353.18,1129.32Z"/><path class="cls-9" d="M233.52,1049.51a1.54,1.54,0,0,1-1.28,1.52,6,6,0,0,1-1.05.12q-4.44.25-8.91.3a6.36,6.36,0,0,1-2.55-.32,1.37,1.37,0,0,1-.78-1.21c-.22-1.48-.43-3-.65-4.43a.24.24,0,0,1,.13-.28,1.13,1.13,0,0,1,.53,0c4,.21,8.46.17,12.36.65C235,1046.25,233.69,1047.88,233.52,1049.51Z"/><path class="cls-9" d="M219.34,1054a3.21,3.21,0,0,0-.84.07,1.14,1.14,0,0,0-.46.29,2.74,2.74,0,0,0-.64,2.21c0,1.24,0,2.49.06,3.73,3.95,0,8.21,0,12.11-.34,3.4-.32,3.68-1.65,3.12-3.27C231.56,1053.44,224.24,1054.05,219.34,1054Z"/><path class="cls-9" d="M220.15,1063.06a9,9,0,0,0-.39,5.43.39.39,0,0,0,.2.27,1.75,1.75,0,0,0,.54.08l9.34.37c3.64.14,3.68-3.87,2-5.07a8.12,8.12,0,0,0-3.92-1.06C227.21,1063,220.29,1062.78,220.15,1063.06Z"/><path class="cls-9" d="M219.61,1072.61a7.67,7.67,0,0,0,0,6.31.36.36,0,0,0,.19.22,1.43,1.43,0,0,0,.6.08l8.51,0a7.35,7.35,0,0,0,2.88-.38,1.53,1.53,0,0,0,.9-1.44l.33-3c.14-1.23.65-1.44-1.65-1.72A88.51,88.51,0,0,0,219.61,1072.61Z"/><path class="cls-9" d="M233.52,1085.77a1.53,1.53,0,0,1-1.28,1.51,6,6,0,0,1-1.05.12q-4.44.25-8.91.3a6.36,6.36,0,0,1-2.55-.32,1.36,1.36,0,0,1-.78-1.21c-.22-1.48-.43-3-.65-4.43a.24.24,0,0,1,.13-.28,1.28,1.28,0,0,1,.53,0c4,.21,8.46.17,12.36.65C235,1082.51,233.69,1084.14,233.52,1085.77Z"/><path class="cls-9" d="M211.09,1049.51a1.54,1.54,0,0,1-1.28,1.52,5.92,5.92,0,0,1-1.05.12c-3,.17-5.94.27-8.91.3a6.36,6.36,0,0,1-2.55-.32,1.37,1.37,0,0,1-.78-1.21c-.22-1.48-.43-3-.64-4.43a.22.22,0,0,1,.12-.28,1.13,1.13,0,0,1,.53,0c4,.21,8.46.17,12.36.65C212.55,1046.25,211.26,1047.88,211.09,1049.51Z"/><path class="cls-9" d="M196.91,1054a3.37,3.37,0,0,0-.85.07,1.17,1.17,0,0,0-.45.29,2.81,2.81,0,0,0-.64,2.21l.06,3.73c3.95,0,8.21,0,12.11-.34,3.41-.32,3.69-1.65,3.12-3.27C209.14,1053.44,201.81,1054.05,196.91,1054Z"/><path class="cls-9" d="M197.73,1063.06a9,9,0,0,0-.4,5.43.39.39,0,0,0,.2.27,1.75,1.75,0,0,0,.54.08l9.34.37c3.65.14,3.67-3.87,2-5.07a8.09,8.09,0,0,0-3.92-1.06C204.78,1063,197.87,1062.78,197.73,1063.06Z"/><path class="cls-9" d="M197.19,1072.61a7.6,7.6,0,0,0,0,6.31.34.34,0,0,0,.19.22,1.36,1.36,0,0,0,.59.08l8.51,0a7.46,7.46,0,0,0,2.89-.38,1.58,1.58,0,0,0,.9-1.44c.1-1,.21-2,.32-3,.14-1.23.65-1.44-1.65-1.72A88.37,88.37,0,0,0,197.19,1072.61Z"/><path class="cls-9" d="M211.09,1085.77a1.53,1.53,0,0,1-1.28,1.51,5.92,5.92,0,0,1-1.05.12c-3,.17-5.94.27-8.91.3a6.36,6.36,0,0,1-2.55-.32,1.36,1.36,0,0,1-.78-1.21c-.22-1.48-.43-3-.64-4.43a.22.22,0,0,1,.12-.28,1.28,1.28,0,0,1,.53,0c4,.21,8.46.17,12.36.65C212.55,1082.51,211.26,1084.14,211.09,1085.77Z"/><path class="cls-3" d="M445.39,1170.71c0-1.7.08-3.69,1.49-4.63a5.08,5.08,0,0,1,2.82-.58l100.9-1.26c1.88,0,3.9,0,5.4,1.13,1.91,1.46,2.24,4.17,2.38,6.58a310.46,310.46,0,0,1-.13,38.1c-22.33,1.84-44.73-1.78-67.14-1.81-8,0-16,.45-23.94,1.13-4.88.42-14.34,3.48-18.49-.12-3.66-3.17-2.74-10.48-2.83-14.7Q445.61,1182.63,445.39,1170.71Z"/><path class="cls-4" d="M639.81,966.12a4.41,4.41,0,0,1,.93-3c.94-.93,2.45-.83,3.77-.64,7.12,1,14.14,2.7,21.26,3.79,11.43,1.75,23,1.93,34.61,2.11l27.27.43c3.31.05,7,0,9.37-2.37a998.63,998.63,0,0,0-1.28,102.8c1.2,31.26,3.84,62.53,2.58,93.8a3.23,3.23,0,0,1-.74,2.36,3.29,3.29,0,0,1-2.07.59L675,1169c-9.06.45-20.85,3.11-29.73,1.45-7.89-1.46-4.87-11.36-4.55-17.43,2.08-39.86-.27-79.77-1.34-119.63C638.8,1011,638.6,988.51,639.81,966.12Z"/><path class="cls-2" d="M598.83,1043l135.71-8.47c3.79-.23,8.31-.13,10.4,3,1.09,1.65,1.2,3.73,1.26,5.71q2.94,83.36-2.29,166.74l-127.39,2.32c-7.38.13-14.82,2.25-18.63-4.79-3.61-6.65-.92-23.07-1.08-30.66q-.67-32.06-.25-64.1C596.64,1107,597.81,1043,598.83,1043Z"/><path class="cls-5" d="M603.12,1208.31a4.58,4.58,0,0,0,5-4.83c2.57-15.75,2.91-31.76,3.25-47.71l.9-42.35c.06-3.12,0-6.6-2.18-8.83s-5.71-2.4-8.86-2.4l-59.87.07,2.31,49.09c.48,10.42,1,20.89.2,31.31-.46,6.32-6.45,21.07-2.55,26.43,4.12,5.67,21.7,2,27.92,1.68Q586.22,1210,603.12,1208.31Z"/><path class="cls-2" d="M423.74,1207.71a317.76,317.76,0,0,0,55.35-.51q2.69-90.48,5.36-181c-16.27-1.25-32.69-2-49-1.71-5.64.11-10.5-.41-12.44,5.6-2,6.17.49,16.82.68,23.35,1,33.07,1,66.17.72,99.26C424.36,1157.34,423.28,1207.67,423.74,1207.71Z"/><path class="cls-6" d="M701.43,1068.43c.08,1.56.35,3.4,1.75,4.08a4.09,4.09,0,0,0,1.43.33c4,.45,8.07.71,12.12.79a4.74,4.74,0,0,0,3.47-.86,4.85,4.85,0,0,0,1.06-3.24q.43-6,.88-12a.93.93,0,0,0-.17-.75.94.94,0,0,0-.72-.13c-5.44.56-11.51.46-16.82,1.74C699.45,1059.65,701.2,1064,701.43,1068.43Z"/><path class="cls-6" d="M720.73,1080.39a2,2,0,0,1,1.15.18,1.82,1.82,0,0,1,.62.77,13.29,13.29,0,0,1,.88,6l-.09,10c-5.38,0-11.17.06-16.48-.92-4.63-.85-5-4.43-4.25-8.78C704.09,1079,714.06,1080.64,720.73,1080.39Z"/><path class="cls-6" d="M719.63,1104.92a47.05,47.05,0,0,1,.52,14.6,1.13,1.13,0,0,1-.26.72,1.19,1.19,0,0,1-.74.23l-12.71,1c-5,.39-5-10.42-2.78-13.65,1.27-1.84,3.24-2.48,5.35-2.85C710,1104.78,719.43,1104.15,719.63,1104.92Z"/><path class="cls-6" d="M720.36,1130.63a39.57,39.57,0,0,1,0,17,1.22,1.22,0,0,1-.27.6,1.16,1.16,0,0,1-.8.2l-11.58-.05c-1.39,0-2.92-.07-3.93-1s-1.15-2.49-1.23-3.87q-.21-4-.44-8c-.18-3.32-.89-3.89,2.25-4.63C709.26,1129.73,715.39,1130.39,720.36,1130.63Z"/><path class="cls-7" d="M567.07,1119.29c4.81-.34,9.56-1.58,14.38-1.42a2.58,2.58,0,0,1,2.26.93,2.73,2.73,0,0,1,.22,1.3c0,1.62,0,3.23,0,4.84a1.77,1.77,0,0,1-.2,1c-.34.51-1.06.54-1.68.52L568.6,1126c-3-.12-10.54,1-13.08-.54-2.72-1.64-.73-4.09,1.32-5.19C559.87,1118.61,563.79,1119.53,567.07,1119.29Z"/><path class="cls-7" d="M581.26,1130.8a1.13,1.13,0,0,1,.77.18,1.14,1.14,0,0,1,.3.81,33.24,33.24,0,0,1-.22,7.12.88.88,0,0,1-1.17.93,206.88,206.88,0,0,0-25.27-.58c-.53,0-1.17,0-1.45-.46a1.5,1.5,0,0,1-.16-.81c0-1.78-.69-4.7.9-5.92s6.78-.6,8.7-.71C569.52,1131,575.39,1130.8,581.26,1130.8Z"/><path class="cls-7" d="M581.36,1143a.85.85,0,0,1,.49.17.84.84,0,0,1,.18.56,28.28,28.28,0,0,1-.29,6.69l-23.81.85a2.07,2.07,0,0,1-1.11-.17,2,2,0,0,1-.76-1.18c-2.24-7,2.43-6.58,8.29-7.12A84.1,84.1,0,0,1,581.36,1143Z"/><path class="cls-8" d="M429.84,1038.4c0,.5.12,1.1.57,1.32a1.71,1.71,0,0,0,.46.1c1.3.14,2.61.23,3.91.26a1.17,1.17,0,0,0,1.47-1.33c.09-1.28.18-2.57.28-3.85,0-.09,0-.19-.06-.24a.31.31,0,0,0-.23-.05,42.88,42.88,0,0,0-5.43.56C429.21,1035.56,429.77,1037,429.84,1038.4Z"/><path class="cls-8" d="M436.07,1042.26a.66.66,0,0,1,.37,0,.63.63,0,0,1,.21.25,4.45,4.45,0,0,1,.28,1.92l0,3.25a30.47,30.47,0,0,1-5.32-.3c-1.49-.28-1.62-1.43-1.37-2.83C430.7,1041.81,433.92,1042.34,436.07,1042.26Z"/><path class="cls-8" d="M435.72,1050.17a15.57,15.57,0,0,1,.17,4.72.46.46,0,0,1-.09.23.33.33,0,0,1-.24.07l-4.1.32c-1.6.13-1.61-3.36-.9-4.4a2.43,2.43,0,0,1,1.73-.92C432.62,1050.13,435.65,1049.92,435.72,1050.17Z"/><path class="cls-8" d="M436,1058.47a12.87,12.87,0,0,1,0,5.49.48.48,0,0,1-.09.19.37.37,0,0,1-.25.06h-3.74a1.84,1.84,0,0,1-1.27-.33,1.89,1.89,0,0,1-.4-1.26c0-.85-.09-1.7-.14-2.56-.06-1.07-.28-1.26.73-1.5A19.72,19.72,0,0,1,436,1058.47Z"/><path class="cls-8" d="M429.84,1069.9c0,.51.12,1.1.57,1.32a1.41,1.41,0,0,0,.46.11c1.3.14,2.61.23,3.91.25a1.49,1.49,0,0,0,1.12-.28,1.58,1.58,0,0,0,.35-1c.09-1.29.18-2.57.28-3.86,0-.09,0-.18-.06-.24a.26.26,0,0,0-.23,0,41.12,41.12,0,0,0-5.43.56C429.21,1067.07,429.77,1068.49,429.84,1069.9Z"/><path class="cls-8" d="M436.07,1073.76a.76.76,0,0,1,.37.06.57.57,0,0,1,.21.25,4.45,4.45,0,0,1,.28,1.92l0,3.24a30.47,30.47,0,0,1-5.32-.3c-1.49-.27-1.62-1.43-1.37-2.83C430.7,1073.31,433.92,1073.84,436.07,1073.76Z"/><path class="cls-8" d="M435.72,1081.68a15.5,15.5,0,0,1,.17,4.71.4.4,0,0,1-.09.23.38.38,0,0,1-.24.08l-4.1.32c-1.6.12-1.61-3.37-.9-4.41a2.46,2.46,0,0,1,1.73-.92C432.62,1081.63,435.65,1081.43,435.72,1081.68Z"/><path class="cls-8" d="M436,1090a12.82,12.82,0,0,1,0,5.48.42.42,0,0,1-.09.19.38.38,0,0,1-.25.07l-3.74,0a1.79,1.79,0,0,1-1.27-.33,1.86,1.86,0,0,1-.4-1.25c0-.86-.09-1.71-.14-2.56-.06-1.07-.28-1.26.73-1.5A19.72,19.72,0,0,1,436,1090Z"/><path class="cls-8" d="M439.69,1038.4c0,.5.12,1.1.57,1.32a1.71,1.71,0,0,0,.46.1c1.3.14,2.61.23,3.91.26a1.58,1.58,0,0,0,1.12-.28,1.53,1.53,0,0,0,.34-1c.1-1.28.19-2.57.29-3.85,0-.09,0-.19-.06-.24a.31.31,0,0,0-.23-.05,42.51,42.51,0,0,0-5.43.56C439.06,1035.56,439.62,1037,439.69,1038.4Z"/><path class="cls-8" d="M445.92,1042.26a.66.66,0,0,1,.37,0,.69.69,0,0,1,.2.25,4.16,4.16,0,0,1,.28,1.92c0,1.09,0,2.17,0,3.25a30.47,30.47,0,0,1-5.32-.3c-1.49-.28-1.62-1.43-1.37-2.83C440.55,1041.81,443.77,1042.34,445.92,1042.26Z"/><path class="cls-8" d="M445.57,1050.17a15.57,15.57,0,0,1,.17,4.72.46.46,0,0,1-.09.23.33.33,0,0,1-.24.07l-4.1.32c-1.6.13-1.61-3.36-.9-4.4a2.43,2.43,0,0,1,1.73-.92C442.47,1050.13,445.5,1049.92,445.57,1050.17Z"/><path class="cls-8" d="M445.8,1058.47a12.87,12.87,0,0,1,0,5.49.48.48,0,0,1-.09.19.36.36,0,0,1-.25.06h-3.74a1.36,1.36,0,0,1-1.67-1.59c0-.85-.09-1.7-.14-2.56-.06-1.07-.29-1.26.73-1.5A19.72,19.72,0,0,1,445.8,1058.47Z"/><path class="cls-8" d="M439.69,1069.9c0,.51.12,1.1.57,1.32a1.41,1.41,0,0,0,.46.11c1.3.14,2.61.23,3.91.25a1.49,1.49,0,0,0,1.12-.28,1.52,1.52,0,0,0,.34-1c.1-1.29.19-2.57.29-3.86a.32.32,0,0,0-.06-.24.26.26,0,0,0-.23,0,40.78,40.78,0,0,0-5.43.56C439.06,1067.07,439.62,1068.49,439.69,1069.9Z"/><path class="cls-8" d="M445.92,1073.76a.76.76,0,0,1,.37.06.62.62,0,0,1,.2.25,4.16,4.16,0,0,1,.28,1.92c0,1.08,0,2.16,0,3.24a30.47,30.47,0,0,1-5.32-.3c-1.49-.27-1.62-1.43-1.37-2.83C440.55,1073.31,443.77,1073.84,445.92,1073.76Z"/><path class="cls-8" d="M445.57,1081.68a15.5,15.5,0,0,1,.17,4.71.4.4,0,0,1-.09.23.38.38,0,0,1-.24.08l-4.1.32c-1.6.12-1.61-3.37-.9-4.41a2.46,2.46,0,0,1,1.73-.92C442.47,1081.63,445.5,1081.43,445.57,1081.68Z"/><path class="cls-8" d="M445.8,1090a12.82,12.82,0,0,1,0,5.48.42.42,0,0,1-.09.19.37.37,0,0,1-.25.07l-3.74,0a1.79,1.79,0,0,1-1.27-.33,1.81,1.81,0,0,1-.4-1.25c0-.86-.09-1.71-.14-2.56-.06-1.07-.29-1.26.73-1.5A19.72,19.72,0,0,1,445.8,1090Z"/><path class="cls-9" d="M651.5,978.68c.1.8.44,1.76,2.21,2.11a11.45,11.45,0,0,0,1.8.17q7.63.35,15.32.41a12.88,12.88,0,0,0,4.37-.44,1.91,1.91,0,0,0,1.35-1.68l1.11-6.19a.3.3,0,0,0-.21-.39,2.66,2.66,0,0,0-.91-.07c-6.88.3-14.55.24-21.25.9C649,974.13,651.2,976.4,651.5,978.68Z"/><path class="cls-9" d="M675.88,984.87a5.67,5.67,0,0,1,1.45.1,1.78,1.78,0,0,1,.78.4,3.37,3.37,0,0,1,1.11,3.08c0,1.73-.07,3.47-.1,5.2-6.8,0-14.12,0-20.82-.48-5.86-.44-6.34-2.29-5.37-4.55C654.86,984.15,667.45,985,675.88,984.87Z"/><path class="cls-9" d="M674.49,997.58a10.38,10.38,0,0,1,.66,7.56.49.49,0,0,1-.34.37,3.11,3.11,0,0,1-.92.12l-16.06.52c-6.27.2-6.32-5.4-3.51-7.07,1.6-1,4.08-1.29,6.75-1.48C662.34,997.51,674.24,997.18,674.49,997.58Z"/><path class="cls-9" d="M675.41,1010.89a8.86,8.86,0,0,1,0,8.8.58.58,0,0,1-.34.31,3.1,3.1,0,0,1-1,.11l-14.63,0a15.17,15.17,0,0,1-5-.53,2.16,2.16,0,0,1-1.55-2c-.19-1.37-.37-2.74-.55-4.11-.24-1.72-1.13-2,2.84-2.4C661.39,1010.43,669.13,1010.77,675.41,1010.89Z"/><path class="cls-9" d="M651.5,1029.24c.1.8.44,1.76,2.21,2.11a12.79,12.79,0,0,0,1.8.17q7.63.35,15.32.41a13.14,13.14,0,0,0,4.37-.44,1.91,1.91,0,0,0,1.35-1.69l1.11-6.18a.3.3,0,0,0-.21-.39,2.66,2.66,0,0,0-.91-.07c-6.88.29-14.55.24-21.25.9C649,1024.69,651.2,1027,651.5,1029.24Z"/><path class="cls-9" d="M690.06,978.68c.1.8.43,1.76,2.2,2.11a11.58,11.58,0,0,0,1.81.17c5.08.23,10.2.37,15.32.41a12.88,12.88,0,0,0,4.37-.44,1.92,1.92,0,0,0,1.35-1.68l1.11-6.19a.31.31,0,0,0-.22-.39,2.61,2.61,0,0,0-.91-.07c-6.87.3-14.54.24-21.25.9C687.55,974.13,689.76,976.4,690.06,978.68Z"/><path class="cls-9" d="M714.44,984.87a5.71,5.71,0,0,1,1.45.1,1.84,1.84,0,0,1,.78.4,3.39,3.39,0,0,1,1.11,3.08c0,1.73-.07,3.47-.11,5.2-6.8,0-14.12,0-20.81-.48-5.86-.44-6.34-2.29-5.37-4.55C693.42,984.15,706,985,714.44,984.87Z"/><path class="cls-9" d="M713,997.58a10.38,10.38,0,0,1,.67,7.56.5.5,0,0,1-.34.37,3.21,3.21,0,0,1-.92.12l-16.07.52c-6.26.2-6.31-5.4-3.5-7.07,1.59-1,4.08-1.29,6.74-1.48C700.9,997.51,712.79,997.18,713,997.58Z"/><path class="cls-9" d="M714,1010.89a8.86,8.86,0,0,1,0,8.8.58.58,0,0,1-.34.31,3.13,3.13,0,0,1-1,.11l-14.63,0a15.24,15.24,0,0,1-5-.53,2.15,2.15,0,0,1-1.54-2c-.19-1.37-.37-2.74-.56-4.11-.23-1.72-1.12-2,2.84-2.4C699.94,1010.43,707.68,1010.77,714,1010.89Z"/><path class="cls-9" d="M690.06,1029.24c.1.8.43,1.76,2.2,2.11a12.93,12.93,0,0,0,1.81.17c5.08.23,10.2.37,15.32.41a13.14,13.14,0,0,0,4.37-.44,1.92,1.92,0,0,0,1.35-1.69l1.11-6.18a.3.3,0,0,0-.22-.39,2.61,2.61,0,0,0-.91-.07c-6.87.29-14.54.24-21.25.9C687.55,1024.69,689.76,1027,690.06,1029.24Z"/><path class="cls-3" d="M377,1178.8c0-1.43.06-3.11,1.25-3.91a4.43,4.43,0,0,1,2.39-.49l85.26-1.06c1.58,0,3.29,0,4.55,1,1.63,1.23,1.9,3.53,2,5.56a263.91,263.91,0,0,1-.1,32.19c-18.87,1.55-37.81-1.5-56.74-1.52-6.75,0-13.5.37-20.23,1-4.12.35-12.11,2.94-15.62-.1-3.09-2.68-2.31-8.86-2.39-12.42Z"/><path class="cls-2" d="M466.36,1070.92c38.22-2.38,32.11-4.72,70.33-7.1,3.2-.2,7-.11,8.78,2.56a9.25,9.25,0,0,1,1.07,4.83q2.48,70.43-1.94,140.88c-35.88.66-27.42,1.25-63.3,1.91-6.24.11-12.52,1.91-15.74-4-3-5.63-.77-19.49-.91-25.91q-.57-27.08-.21-54.16C464.5,1125,465.5,1070.92,466.36,1070.92Z"/><path class="cls-5" d="M470,1210.57a3.85,3.85,0,0,0,4.25-4.08c2.17-13.3,2.46-26.83,2.75-40.31q.38-17.9.76-35.79c.05-2.63,0-5.57-1.84-7.46s-4.83-2-7.49-2l-50.58.06q1,20.73,1.94,41.47c.41,8.81.82,17.65.17,26.46-.38,5.34-5.44,17.8-2.15,22.33,3.48,4.79,18.34,1.66,23.59,1.42Q455.71,1212,470,1210.57Z"/><path class="cls-2" d="M358.68,1210.06a268.48,268.48,0,0,0,46.76-.42c1.51-51,3-55.65,4.53-106.62-13.74-1.06-27.61-1.73-41.4-1.45-4.78.1-8.88-.34-10.52,4.74s.42,14.21.58,19.73c.81,27.94.85,9.61.61,37.57C359.21,1167.5,358.29,1210,358.68,1210.06Z"/><path class="cls-6" d="M508.71,1092.43c.07,1.32.3,2.88,1.48,3.45a3.51,3.51,0,0,0,1.2.28q5.11.57,10.25.67a4,4,0,0,0,2.93-.73,4.13,4.13,0,0,0,.9-2.74c.25-3.36.49-6.73.74-10.09a.79.79,0,0,0-.15-.64.77.77,0,0,0-.6-.11c-4.6.48-9.73.39-14.22,1.47C507,1085,508.52,1088.73,508.71,1092.43Z"/><path class="cls-6" d="M525,1102.54a1.78,1.78,0,0,1,1,.15,1.51,1.51,0,0,1,.52.65,11,11,0,0,1,.74,5c0,2.83,0,5.66-.07,8.49-4.54,0-9.44.05-13.92-.78-3.92-.73-4.24-3.75-3.59-7.42C511,1101.37,519.38,1102.75,525,1102.54Z"/><path class="cls-6" d="M524.08,1123.27a39.85,39.85,0,0,1,.45,12.33,1,1,0,0,1-.22.61,1,1,0,0,1-.62.19l-10.74.84c-4.2.33-4.23-8.81-2.35-11.53a6.37,6.37,0,0,1,4.51-2.41C516,1123.15,523.92,1122.61,524.08,1123.27Z"/><path class="cls-6" d="M524.7,1145a33.28,33.28,0,0,1,0,14.36.92.92,0,0,1-.23.51,1,1,0,0,1-.67.17l-9.79,0a3.54,3.54,0,0,1-4.35-4.13q-.19-3.36-.37-6.72c-.16-2.8-.75-3.29,1.89-3.92C515.32,1144.23,520.5,1144.79,524.7,1145Z"/><path class="cls-7" d="M439.52,1135.36c4.06-.29,8.08-1.34,12.15-1.2a2.17,2.17,0,0,1,1.91.78,2.29,2.29,0,0,1,.19,1.1c0,1.37,0,2.73,0,4.09a1.49,1.49,0,0,1-.18.86,1.56,1.56,0,0,1-1.41.44l-11.35-.44c-2.56-.1-8.91.85-11.06-.45s-.62-3.46,1.12-4.39C433.44,1134.78,436.75,1135.56,439.52,1135.36Z"/><path class="cls-7" d="M451.52,1145.08a1,1,0,0,1,.64.15.93.93,0,0,1,.25.68,27.63,27.63,0,0,1-.18,6,1,1,0,0,1-.28.66,1,1,0,0,1-.71.12,174.85,174.85,0,0,0-21.35-.49c-.45,0-1,0-1.23-.39a1.32,1.32,0,0,1-.13-.68c0-1.51-.59-4,.76-5s5.73-.5,7.35-.59C441.59,1145.28,446.56,1145.08,451.52,1145.08Z"/><path class="cls-7" d="M451.59,1155.36a.54.54,0,0,1,.58.62,24.87,24.87,0,0,1-.25,5.65l-20.12.72a1.76,1.76,0,0,1-.94-.14,1.72,1.72,0,0,1-.64-1c-1.89-5.93,2-5.56,7-6A70.42,70.42,0,0,1,451.59,1155.36Z"/><path class="cls-8" d="M363.84,1113.3c0,.42.09.93.48,1.11a1,1,0,0,0,.38.09c1.1.12,2.2.2,3.31.22a1.27,1.27,0,0,0,.94-.24,1.28,1.28,0,0,0,.29-.88l.24-3.26a.23.23,0,0,0,0-.2c-.05-.05-.13,0-.2,0a33.22,33.22,0,0,0-4.58.48C363.3,1110.91,363.77,1112.1,363.84,1113.3Z"/><path class="cls-8" d="M369.1,1116.56a.7.7,0,0,1,.32,0,.56.56,0,0,1,.16.21,3.43,3.43,0,0,1,.24,1.62c0,.92,0,1.83,0,2.74a25.85,25.85,0,0,1-4.49-.25c-1.27-.23-1.37-1.21-1.16-2.39C364.56,1116.18,367.28,1116.63,369.1,1116.56Z"/><path class="cls-8" d="M368.8,1123.25a13,13,0,0,1,.14,4,.35.35,0,0,1-.07.2.28.28,0,0,1-.2.06l-3.46.27c-1.36.11-1.37-2.84-.77-3.72a2.09,2.09,0,0,1,1.46-.78A10.83,10.83,0,0,1,368.8,1123.25Z"/><path class="cls-8" d="M369,1130.26a10.64,10.64,0,0,1,0,4.63.33.33,0,0,1-.07.17.33.33,0,0,1-.22,0h-3.16a1.52,1.52,0,0,1-1.07-.28,1.55,1.55,0,0,1-.33-1.06l-.12-2.16c0-.91-.24-1.06.61-1.27A17.18,17.18,0,0,1,369,1130.26Z"/><path class="cls-8" d="M363.84,1139.92c0,.42.09.93.48,1.11a1,1,0,0,0,.38.09c1.1.12,2.2.2,3.31.22a1.27,1.27,0,0,0,.94-.24,1.28,1.28,0,0,0,.29-.88l.24-3.26a.18.18,0,0,0-.24-.24,34.85,34.85,0,0,0-4.58.48C363.3,1137.53,363.77,1138.72,363.84,1139.92Z"/><path class="cls-8" d="M369.1,1143.18a.7.7,0,0,1,.32,0,.56.56,0,0,1,.16.21,3.41,3.41,0,0,1,.24,1.62c0,.92,0,1.83,0,2.74a25.85,25.85,0,0,1-4.49-.25c-1.27-.23-1.37-1.21-1.16-2.39C364.56,1142.8,367.28,1143.25,369.1,1143.18Z"/><path class="cls-8" d="M368.8,1149.87a13,13,0,0,1,.14,4,.35.35,0,0,1-.07.2.28.28,0,0,1-.2.06l-3.46.27c-1.36.11-1.37-2.84-.77-3.72a2.09,2.09,0,0,1,1.46-.78A10.83,10.83,0,0,1,368.8,1149.87Z"/><path class="cls-8" d="M369,1156.88a10.64,10.64,0,0,1,0,4.63.33.33,0,0,1-.07.17.33.33,0,0,1-.22,0h-3.16a1.52,1.52,0,0,1-1.07-.28,1.55,1.55,0,0,1-.33-1.06l-.12-2.16c0-.91-.24-1.06.61-1.27A17.18,17.18,0,0,1,369,1156.88Z"/><path class="cls-8" d="M372.16,1113.3c0,.42.09.93.48,1.11a1,1,0,0,0,.38.09c1.1.12,2.2.2,3.31.22a1.3,1.3,0,0,0,.95-.24,1.39,1.39,0,0,0,.29-.88c.08-1.09.15-2.17.24-3.26a.28.28,0,0,0-.05-.2c-.05-.05-.13,0-.2,0a33.39,33.39,0,0,0-4.58.48C371.62,1110.91,372.09,1112.1,372.16,1113.3Z"/><path class="cls-8" d="M377.42,1116.56a.63.63,0,0,1,.31,0,.5.5,0,0,1,.17.21,3.43,3.43,0,0,1,.24,1.62c0,.92,0,1.83,0,2.74a26,26,0,0,1-4.5-.25c-1.26-.23-1.36-1.21-1.15-2.39C372.89,1116.18,375.6,1116.63,377.42,1116.56Z"/><path class="cls-8" d="M377.12,1123.25a13,13,0,0,1,.14,4,.29.29,0,0,1-.07.2.28.28,0,0,1-.2.06l-3.46.27c-1.36.11-1.37-2.84-.76-3.72a2,2,0,0,1,1.45-.78A10.83,10.83,0,0,1,377.12,1123.25Z"/><path class="cls-8" d="M377.32,1130.26a10.64,10.64,0,0,1,0,4.63.26.26,0,0,1-.07.17.33.33,0,0,1-.22,0h-3.15a1.14,1.14,0,0,1-1.41-1.34l-.12-2.16c-.05-.91-.24-1.06.61-1.27A17.19,17.19,0,0,1,377.32,1130.26Z"/><path class="cls-8" d="M372.16,1139.92c0,.42.09.93.48,1.11a1,1,0,0,0,.38.09c1.1.12,2.2.2,3.31.22a1.3,1.3,0,0,0,.95-.24,1.39,1.39,0,0,0,.29-.88c.08-1.09.15-2.17.24-3.26a.28.28,0,0,0-.05-.2.23.23,0,0,0-.2,0,35,35,0,0,0-4.58.48C371.62,1137.53,372.09,1138.72,372.16,1139.92Z"/><path class="cls-8" d="M377.42,1143.18a.63.63,0,0,1,.31,0,.5.5,0,0,1,.17.21,3.41,3.41,0,0,1,.24,1.62c0,.92,0,1.83,0,2.74a26,26,0,0,1-4.5-.25c-1.26-.23-1.36-1.21-1.15-2.39C372.89,1142.8,375.6,1143.25,377.42,1143.18Z"/><path class="cls-8" d="M377.12,1149.87a13,13,0,0,1,.14,4,.29.29,0,0,1-.07.2.28.28,0,0,1-.2.06l-3.46.27c-1.36.11-1.37-2.84-.76-3.72a2,2,0,0,1,1.45-.78A10.83,10.83,0,0,1,377.12,1149.87Z"/><path class="cls-8" d="M377.32,1156.88a10.64,10.64,0,0,1,0,4.63.26.26,0,0,1-.07.17.33.33,0,0,1-.22,0h-3.15a1.14,1.14,0,0,1-1.41-1.34l-.12-2.16c-.05-.91-.24-1.06.61-1.27A17.19,17.19,0,0,1,377.32,1156.88Z"/><path class="cls-10" d="M664.93,712.74l-.18-1.41c1.83-.25,2.83-.36,2.83-.36l.17,1.42S666.75,712.5,664.93,712.74Z"/><path class="cls-10" d="M124.51,970.43l-1.06,1c1.26,1.37,2.59,2.77,4,4.16l1-1C127.07,973.17,125.75,971.78,124.51,970.43Zm-7.34-8.68-1.12.87c1.14,1.48,2.36,3,3.61,4.46l1.09-.92C119.51,964.69,118.31,963.21,117.17,961.75Zm-6.45-9.33-1.22.75c1,1.59,2,3.21,3.14,4.81l1.18-.81C112.72,955.58,111.68,954,110.72,952.42Zm-5.23-10-1.31.56c.74,1.73,1.57,3.48,2.48,5.21l1.26-.66C107,945.8,106.21,944.08,105.49,942.39ZM102,931.67l-1.39.31a57,57,0,0,0,1.51,5.57l1.36-.44C102.9,935.29,102.4,933.46,102,931.67Zm-1.08-9.81c0-.45,0-.9,0-1.35l-1.42,0c0,.47,0,.93,0,1.4,0,1.45.08,2.92.22,4.4l1.42-.14C101,924.69,100.93,923.26,100.93,921.86Zm.55-12.8a42.41,42.41,0,0,0-1.38,5.63l1.41.25a40.34,40.34,0,0,1,1.33-5.44Zm5-10.44a44.23,44.23,0,0,0-2.82,5l1.29.62a44.67,44.67,0,0,1,2.73-4.9Zm7.27-9a55,55,0,0,0-3.87,4.28l1.1.9a56.26,56.26,0,0,1,3.78-4.17Zm8.83-7.42c-1.6,1.14-3.13,2.32-4.57,3.52l.92,1.1c1.41-1.18,2.91-2.34,4.47-3.46Zm9.78-6c-1.72.92-3.4,1.88-5,2.86l.75,1.22c1.56-1,3.21-1.92,4.91-2.83Zm10.4-4.9c-1.79.74-3.56,1.52-5.26,2.32l.61,1.29c1.67-.78,3.42-1.55,5.2-2.29Zm10.79-3.92c-1.84.59-3.67,1.21-5.43,1.85l.49,1.34c1.74-.63,3.55-1.25,5.38-1.83Zm11.05-3.1q-2.82.69-5.55,1.46l.39,1.37q2.7-.75,5.5-1.44Zm11.22-2.37q-2.85.51-5.63,1.1l.3,1.4c1.84-.39,3.7-.75,5.59-1.1Zm202.73-.47c-1.59.08-3.2.12-4.77.12h-.89l0,1.43h.91c1.59,0,3.23,0,4.85-.12Zm-17-.69-.19,1.41c1.89.26,3.82.46,5.72.59l.11-1.42C365.3,861.2,363.41,861,361.54,860.75Zm28.21-.58c-1.86.32-3.75.59-5.6.8l.15,1.42c1.89-.21,3.8-.49,5.69-.81Zm-202.65,0c-1.91.24-3.81.51-5.68.79l.22,1.42c1.86-.29,3.74-.55,5.64-.8Zm168.27-.47c-1.64-.33-3.3-.72-4.94-1.15l-.36,1.39c1.5.39,3,.75,4.53,1.06l1.08.22.27-1.4ZM198.5,859q-2.88.22-5.71.51l.15,1.43q2.81-.3,5.67-.52Zm202.29-1.35c-1.84.52-3.69,1-5.5,1.41l.32,1.39c1.84-.42,3.71-.9,5.57-1.42Zm-190.85.7c-1.92.07-3.83.16-5.72.26l.08,1.43c1.88-.11,3.78-.19,5.69-.26Zm11.38-.49c-1.86.16-3.77.27-5.67.34l0,1.42c1.92-.06,3.85-.18,5.74-.34Zm11.22-1.55c-1.83.35-3.71.67-5.59.93l.2,1.41c1.9-.26,3.81-.58,5.67-.94Zm112.16.57c-1.69-.56-3.39-1.17-5.06-1.8l-.52,1.33c1.6.62,3.23,1.19,4.84,1.72l.58.2L345,857ZM411.56,854c-1.77.69-3.57,1.34-5.34,1.94l.46,1.35c1.79-.6,3.61-1.26,5.39-1.95Zm-168-.5c-1.78.56-3.61,1.09-5.45,1.55l.36,1.39c1.85-.48,3.71-1,5.53-1.58Zm90.72-.68c-1.56-.71-3.11-1.41-4.64-2.12l-.4-.18-.6,1.3.28.13,4.78,2.17.15.07.58-1.31ZM422,849.48c-1.72.83-3.46,1.63-5.16,2.38l.57,1.3c1.72-.75,3.47-1.55,5.21-2.39Zm-167.87,0c-1.71.78-3.46,1.52-5.23,2.2l.52,1.33c1.79-.69,3.57-1.44,5.3-2.23Zm64.81-3.83-.63,1.28c1.69.84,3.4,1.67,5.14,2.51l.62-1.29Q321.43,846.88,318.91,845.62Zm-54.82-1.49c-1.61,1-3.26,1.93-4.91,2.82l.67,1.26c1.68-.9,3.36-1.86,5-2.87Zm167.94.06q-2.47,1.41-5,2.73l.67,1.26q2.52-1.32,5-2.75Zm-123.25-3.78-.68,1.25q2.49,1.33,5.07,2.66l.65-1.27Q311.26,841.73,308.78,840.41Zm133-2.12q-2.41,1.55-4.84,3l.74,1.22q2.44-1.49,4.87-3Zm-167.89,0h0l-.54-.68-.42.33-.77.62c-1.09.84-2.21,1.66-3.34,2.46l.83,1.17c1.26-.89,2.51-1.82,3.72-2.78l.87-.69Zm24.92-3.41-.71,1.24q2.43,1.41,5,2.83l.69-1.25Q301.24,836.27,298.81,834.86Zm152.42-2.94c-1.53,1.08-3.07,2.14-4.6,3.17h0l-.09.06.8,1.18c1.57-1.07,3.14-2.15,4.71-3.26Zm-169.54-2-.94,1h0q-1.51,1.53-3.11,3l1,1.05c.72-.65,1.43-1.33,2.12-2a0,0,0,0,0,0,0c.68-.66,1.34-1.33,2-2Zm7.37-1-.76,1.2q2.38,1.51,4.87,3l.74-1.22Q291.43,830.46,289.06,829Zm171.36-3.8c-1.51,1.15-3,2.29-4.57,3.42l.85,1.15q2.3-1.69,4.59-3.43Zm-179.61-1.64h0l-1.23-.85-.82,1.17c.67.47,1.35.93,2,1.4h0l2.69,1.81.79-1.19C283.1,825.09,281.94,824.3,280.81,823.53Zm8.2-2.24c-1.12,1.51-2.3,3-3.53,4.44l1.1.93c1.23-1.47,2.44-3,3.57-4.51Zm180.42-3.16c-1.49,1.2-3,2.38-4.49,3.56l.88,1.12q2.26-1.77,4.5-3.56Zm-199-2.21-.88,1.12c1.48,1.15,3,2.31,4.58,3.46l.84-1.15C273.38,818.21,271.87,817.06,270.4,815.92Zm24.77-4.13c-.92,1.64-1.91,3.27-2.93,4.85l1.2.78c1-1.61,2-3.26,3-4.93Zm183.1-.91c-1.36,1.14-2.74,2.28-4.11,3.41l-.29.24.91,1.1,0,0,4.39-3.63Zm-216.62-2.23-.95,1.07c1.39,1.24,2.86,2.49,4.36,3.73l.91-1.09C264.48,811.12,263,809.88,261.65,808.65Zm225.8-4.59-.47-.56L484.07,806l-1.43,1.22.92,1.09c.48-.41,1-.81,1.44-1.23s.9-.75,1.35-1.14l1.56-1.33ZM300,801.56c-.68,1.74-1.44,3.48-2.26,5.2l1.29.61c.83-1.74,1.6-3.52,2.3-5.28Zm-46.58-.77-1,1c1.3,1.36,2.67,2.73,4.06,4.06l1-1C256.09,803.48,254.74,802.13,253.45,800.79Zm243-3.85-.77-.89-1,.87h0l-.93.8-.53.46-1.85,1.6.94,1.08,2.36-2h0l.71-.63h0l.21-.18h0l.45-.38h0l.55-.48ZM246,792.21l-1.13.87c1.14,1.49,2.37,3,3.64,4.45l1.08-.93C248.37,795.15,247.16,793.67,246,792.21Zm57.39-1.44c-.43,1.82-.93,3.65-1.5,5.46l1.36.43c.58-1.84,1.1-3.71,1.53-5.56ZM562,794.63l-.08.92,0,.51c1.86.16,3.79.26,5.75.31l0-.83V795C565.74,794.9,563.83,794.79,562,794.63Zm17.08.9-.07-.88c-1.9.14-3.81.24-5.67.29l0,.59,0,.84c1.89,0,3.82-.15,5.74-.3Zm11.2-2.29c-1.85.32-3.74.6-5.62.83l.18,1.42c1.9-.23,3.82-.52,5.69-.85Zm-39.45-.4-.34,1.39c1.79.44,3.7.82,5.66,1.14l.23-1.42C554.45,793.65,552.59,793.28,550.83,792.84Zm50.53-2.11c-1.78.5-3.63,1-5.51,1.4l.32,1.39c1.9-.43,3.78-.91,5.58-1.42Zm-97.09-2.17L500,792.3l.05.06.88,1,3.81-3.3h0l.5-.43Zm36.09.32-.7,1.25a38.56,38.56,0,0,0,5.29,2.41l.5-1.34A35.2,35.2,0,0,1,540.36,788.88Zm71.91-1.39-.25-.56c-1.65.73-3.42,1.43-5.26,2.08l.48,1.35c1.47-.53,2.91-1.08,4.27-1.65l1.09-.47Zm-372.48-4.7-1.25.69c.89,1.62,1.9,3.28,3,4.93l1.19-.79C241.66,786,240.67,784.38,239.79,782.79Zm292.54-1.3-1.23.73a19.51,19.51,0,0,0,3.77,4.53l1-1.06A18,18,0,0,1,532.33,781.49ZM513,781.12q-2.18,1.83-4.36,3.71l.93,1.09,4.35-3.71Zm108.78.19a40.66,40.66,0,0,1-4.67,3.09l.7,1.24a39.6,39.6,0,0,0,4.85-3.21ZM305.08,779.6c-.11,1.84-.31,3.73-.59,5.62l1.41.21c.29-1.93.5-3.86.61-5.74Zm216.68-5.8c-1.47,1.19-2.94,2.41-4.42,3.64l.92,1.09,4.4-3.63Zm106.53-1.07a13.88,13.88,0,0,1-2.57,4.73l1.11.9a15.51,15.51,0,0,0,2.83-5.22Zm-392.81-.3-1.38.37a42.63,42.63,0,0,0,1.91,5.48l1.31-.55A44.06,44.06,0,0,1,235.48,772.43Zm294.82,3.34a18.7,18.7,0,0,1-.2-2.67V773a20.74,20.74,0,0,1,.11-2.09l-1.42-.14c-.07.75-.11,1.53-.11,2.4v.19a17,17,0,0,0,.25,2.8c0,.16.05.33.08.49l1.4-.26C530.37,776.21,530.33,776,530.3,775.77Zm-224.25-7.63-1.41.21a51.05,51.05,0,0,1,.51,5.61l1.43-.05A51.53,51.53,0,0,0,306.05,768.14Zm224.69-1.46c-1.5,1.16-3,2.33-4.52,3.53l.89,1.12q2.26-1.8,4.5-3.51Zm96.78-5-1.19.78a14.54,14.54,0,0,1,2.16,5l1.4-.3A16.2,16.2,0,0,0,627.52,761.71Zm-392.94-.3-1.42-.19a24.74,24.74,0,0,0-.22,3.36c0,.81,0,1.65.12,2.5l1.42-.13c-.07-.81-.11-1.6-.11-2.37A23.55,23.55,0,0,1,234.58,761.41Zm298.14-1.49a27.16,27.16,0,0,0-2.6,5.2l1.34.5a26.44,26.44,0,0,1,2.46-4.94Zm7.28,0c-1.56,1.07-3.11,2.18-4.67,3.33l.84,1.15q2.33-1.71,4.64-3.31ZM302.82,757l-1.3.59a38.52,38.52,0,0,1,1.93,5.26l1.37-.4A38.69,38.69,0,0,0,302.82,757Zm316.54-3.57-.86,1.14a43.7,43.7,0,0,1,4.27,3.64l1-1A42.8,42.8,0,0,0,619.36,753.45Zm-69.74.22c-1.59,1-3.23,2-4.86,3l.77,1.2c1.63-1.06,3.25-2.07,4.83-3Zm-9.26-2.44a48.32,48.32,0,0,0-4.13,4.07l1.07,1a46.74,46.74,0,0,1,4-3.94Zm-302.62-.73a21.17,21.17,0,0,0-3,5l1.31.56a20.06,20.06,0,0,1,2.83-4.71Zm58.47-3-1,1a30.15,30.15,0,0,1,3.57,4.27l1.18-.81A30.62,30.62,0,0,0,296.21,747.47Zm263.53.74c-1.68.8-3.41,1.68-5.13,2.61l.68,1.26c1.7-.92,3.4-1.79,5.06-2.57Zm49.88-.91-.68,1.25c1.73.94,3.38,1.9,4.9,2.85l.76-1.21C613.05,749.22,611.38,748.25,609.62,747.3Zm-60-2.88c-1.69,1.05-3.3,2.13-4.79,3.21l.84,1.16c1.46-1.06,3-2.12,4.7-3.16Zm-302.74-1a30.53,30.53,0,0,0-5,3l.87,1.14a28,28,0,0,1,4.74-2.91Zm323.51.61c-1.76.55-3.59,1.2-5.42,1.93l.53,1.33c1.8-.72,3.59-1.36,5.32-1.9Zm28.5-1.08-.38,1.38a44.55,44.55,0,0,1,5.32,1.82l.55-1.32A47.45,47.45,0,0,0,598.93,742.9Zm-312.45-1.79-.53,1.33a28.4,28.4,0,0,1,4.93,2.56l.78-1.19A30.27,30.27,0,0,0,286.48,741.11Zm295.22.47a55.59,55.59,0,0,0-5.69.92l.3,1.4a55.94,55.94,0,0,1,5.54-.9Zm5.77-.28,0,1.43a45.14,45.14,0,0,1,5.6.41l.2-1.41A44.3,44.3,0,0,0,587.47,741.3Zm-27.74-2.44c-1.76.87-3.48,1.76-5.1,2.65l.68,1.25c1.61-.88,3.31-1.76,5.05-2.62Zm-301.81.9a51.39,51.39,0,0,0-5.6,1.44l.43,1.36a49.24,49.24,0,0,1,5.45-1.4Zm17.24-1.16-.09,1.43a38.91,38.91,0,0,1,5.54.77l.31-1.4A41.85,41.85,0,0,0,275.16,738.6Zm-5.77-.07c-2,.06-3.91.19-5.75.38l.14,1.42c1.81-.19,3.71-.32,5.65-.37Zm300.84-4.34c-1.8.73-3.56,1.47-5.29,2.24l.58,1.31c1.71-.76,3.47-1.5,5.25-2.23Zm10.75-4c-1.82.63-3.63,1.28-5.4,1.94l.5,1.34c1.76-.66,3.56-1.3,5.36-1.93Zm10.91-3.53q-2.75.82-5.48,1.71l.44,1.36q2.71-.88,5.45-1.71Zm11-3.13c-1.84.48-3.68,1-5.51,1.51l.39,1.38c1.83-.52,3.66-1,5.49-1.51ZM614,720.7c-1.84.43-3.7.89-5.57,1.36l.35,1.38q2.79-.71,5.55-1.36Zm11.18-2.52-5.6,1.22.32,1.4c1.88-.42,3.75-.83,5.58-1.22Zm11.25-2.25c-1.83.34-3.71.71-5.63,1.09l.28,1.41c1.92-.39,3.79-.75,5.61-1.1Zm11.29-2c-1.8.3-3.69.63-5.65,1l.25,1.4q2.94-.52,5.63-1Zm11.33-1.79c-1.68.25-3.58.53-5.67.86l.22,1.41,5.66-.86Z"/><path class="cls-10" d="M133.91,981.84c-.71-.65-1.41-1.3-2.1-2l1-1,2.07,1.95Z"/><path class="cls-11" d="M258.72,584.09a6.79,6.79,0,0,1,.06,9.6L247.45,605a6.78,6.78,0,0,1-9.6-.06l-11.54-11.53a6.8,6.8,0,0,1-.06-9.61l11.33-11.32a6.79,6.79,0,0,1,9.6,0Z"/><polygon class="cls-12" points="239.99 594.04 239.99 577.12 235.39 577.12 235.39 594.04 231.94 594.04 237.69 602.34 243.28 594.04 239.99 594.04"/><polygon class="cls-12" points="252.65 584.68 246.81 576.21 241.31 584.59 244.6 584.59 244.6 601.36 249.2 601.36 249.2 584.64 252.65 584.68"/><path class="cls-13" d="M80.37,899.5l-14.26,25S64.81,927,67.5,927H98.07s2.12.1.9-2.27-15-26.44-15-26.44a1.65,1.65,0,0,0-1.39-1C81.65,897.26,81.42,897.66,80.37,899.5Z"/><polygon class="cls-14" points="82.49 900.87 68.64 924.7 96.29 924.7 82.49 900.87"/><polygon class="cls-13" points="89.19 914.63 84.21 914.63 84.21 909.35 81.44 909.35 81.44 914.63 76.14 914.63 76.14 917.41 81.44 917.41 81.44 922.7 84.21 922.7 84.21 917.41 89.19 917.41 89.19 914.63"/><path d="M93.88,592.68l-14.27,25s-1.29,2.5,1.4,2.5h30.56s2.12.11.91-2.27-15-26.43-15-26.43a1.68,1.68,0,0,0-1.4-1C95.15,590.43,94.93,590.83,93.88,592.68Z"/><polygon class="cls-14" points="95.99 594.05 82.14 617.87 109.79 617.87 95.99 594.05"/><path d="M100,609.53a3.53,3.53,0,0,0-1.13.19l-.67-1.24v-.56l.33-.78s1,0,1-.8-1.27-.49-1.44-.49S97,606,97,606s-.17.3-.09.44a1.06,1.06,0,0,0,.87.47v.44l-.22.44H93.26l.23-.9,1.54-.07-.7-.91H92.79l-1.16,3.7a3.37,3.37,0,0,0-.9-.12,3.46,3.46,0,1,0,3.39,2.68l.76.68s-.17,1.1.8,1.29v1.09h.92v-.43H96v-.7a.88.88,0,0,0,.65-.22,3.48,3.48,0,1,0,3.35-4.39Zm-9.26,5.89a2.51,2.51,0,0,1,0-5,2.63,2.63,0,0,1,.49.05l-.9,2.3s-.16.46.16.63.57-.14.72-.4.6-1.68.78-2.24a2.51,2.51,0,0,1-1.25,4.68Zm5.15-1.76a.41.41,0,1,1,0-.81.41.41,0,1,1,0,.81Zm-.64-1.77h.46v.45Zm1.83-2.71-1.18,3.21,0-.94h-.83v.25l0-.05-2.2-2.52v-.61H97.1Zm.23,1.36.48-1.11.28.6Zm1.09.44.91,1.74-1.8-.06A2.5,2.5,0,0,1,98.42,611Zm1.6,4.44a2.51,2.51,0,0,1-2.46-2h3l-1.39-2.82a2.51,2.51,0,1,1,.87,4.86Z"/><path class="cls-15" d="M261.24,774.49a10.81,10.81,0,1,1-10.81-10.65A10.73,10.73,0,0,1,261.24,774.49Z"/><path class="cls-16" d="M250.43,764.58a9.93,9.93,0,1,0,10,9.93A10,10,0,0,0,250.43,764.58Zm-7.18,11.15V773h14.54v2.76Z"/><path class="cls-17" d="M323.44,706.46a15.58,15.58,0,0,0-1-1.9c-.38-.65-.76-1.3-1.15-1.95-.78-1.29-1.58-2.57-2.38-3.85-1.61-2.57-3.24-5.11-4.89-7.65q-1.23-1.9-2.48-3.81l-1.24-1.91-.6-.91a3.44,3.44,0,0,0-.58-.78,1.6,1.6,0,0,0-1.51-.23,2.25,2.25,0,0,0-.95,1.11c-.69,1.24-1.5,2.43-2.25,3.64q-4.8,7.78-9.62,15.57l-1.2,1.94a5.25,5.25,0,0,0-.79,1.89,1.24,1.24,0,0,0,.54,1.39,3.76,3.76,0,0,0,1.76.21c3,0,6.08,0,9.12,0h16c.74,0,1.49,0,2.23,0a1.29,1.29,0,0,0,1.32-1.09,3.32,3.32,0,0,0-.31-1.64m-27.16,0,9.39-15.62,2.52-4.19,9.72,15.41q1.36,2.16,2.72,4.32l-18.28.06-6.07,0"/><path d="M305.56,694.39l1.85,0c0,1.24,0,2.48,0,3.72a2.14,2.14,0,0,1-.33,1.46,6.3,6.3,0,0,1-1.27,1,.53.53,0,0,0-.28.49c0,.32,0,.64,0,1,0,.66,0,1.32,0,2a7.25,7.25,0,0,1-.05,1.58c-.29,0-.62,0-.91,0l-.92,0v-4.76a1.42,1.42,0,0,1,.08-.65,1.21,1.21,0,0,1,.43-.41c.39-.31.75-.66,1.11-1,.13-.12.29-.2.29-.4v-.77c0-1.07,0-2.14,0-3.21"/><path d="M308.85,694.38h1.61s.2,0,.24,0,0,.28,0,.35v.82c0,1.12,0,2.24,0,3.36v6.68h-1.88q0-5.61,0-11.21"/><circle class="cls-18" cx="301.33" cy="636.78" r="15.43"/><path class="cls-18" d="M301.33,619.2a17.57,17.57,0,1,0,17.57,17.57A17.57,17.57,0,0,0,301.33,619.2Zm0,33.81a16.22,16.22,0,1,1,16.22-16.22A16.22,16.22,0,0,1,301.33,653Z"/><path class="cls-19" d="M299.23,627.73l3.47,3.48v3l-1.74-2V638a7,7,0,0,1,1.86-.45h3.41l-1.77-1.77h3.32l3.28,3.28-3.43,3.43H304.5l1.71-1.93h-3.37a3,3,0,0,0-1.88,1.09v3.9h-2.9V632.22l-2,2V631.1Z"/><polygon class="cls-20" points="505.35 679.3 498.93 685.7 498.93 695.11 505.4 701.25 514.33 701.2 520.8 695.11 520.85 685.7 514.3 679.3 505.35 679.3"/><polygon class="cls-17" points="505.75 680.41 499.93 686.19 499.93 694.67 505.8 700.21 513.89 700.16 519.75 694.67 519.8 686.19 513.87 680.41 505.75 680.41"/><path class="cls-19" d="M501,691.25l1-.1a1.26,1.26,0,0,0,.35.75,1,1,0,0,0,.72.24,1.07,1.07,0,0,0,.72-.21.66.66,0,0,0,.24-.5.46.46,0,0,0-.1-.31.77.77,0,0,0-.36-.22l-.79-.23a2.61,2.61,0,0,1-1.12-.5,1.39,1.39,0,0,1-.45-1,1.39,1.39,0,0,1,.83-1.25,2.28,2.28,0,0,1,1-.18,2,2,0,0,1,1.39.43,1.53,1.53,0,0,1,.49,1.13l-1,0a.9.9,0,0,0-.27-.57,1,1,0,0,0-.63-.17,1.09,1.09,0,0,0-.67.18.38.38,0,0,0-.16.32.39.39,0,0,0,.15.31,2.41,2.41,0,0,0,.91.35,4.48,4.48,0,0,1,1.06.37,1.35,1.35,0,0,1,.54.52,1.58,1.58,0,0,1,.2.82,1.51,1.51,0,0,1-.24.82,1.32,1.32,0,0,1-.66.57A2.54,2.54,0,0,1,503,693a2.06,2.06,0,0,1-1.43-.45A2,2,0,0,1,501,691.25Z"/><path class="cls-19" d="M506.91,692.92v-4.26h-1.45v-.87h3.89v.87H507.9v4.26Z"/><path class="cls-19" d="M509.67,690.39a3.37,3.37,0,0,1,.22-1.32,2.18,2.18,0,0,1,.46-.7,2,2,0,0,1,.63-.47,2.67,2.67,0,0,1,1.06-.2,2.28,2.28,0,0,1,1.73.7,3.27,3.27,0,0,1,0,3.91,2.49,2.49,0,0,1-3.46,0A2.73,2.73,0,0,1,509.67,690.39Zm1,0a2,2,0,0,0,.38,1.32,1.23,1.23,0,0,0,1,.45,1.25,1.25,0,0,0,1-.44,2.06,2.06,0,0,0,.38-1.34A2,2,0,0,0,513,689a1.23,1.23,0,0,0-1-.43,1.22,1.22,0,0,0-1,.44A2,2,0,0,0,510.69,690.35Z"/><path class="cls-19" d="M515.19,692.92v-5.13h1.59a4.83,4.83,0,0,1,1.17.08,1.25,1.25,0,0,1,.71.5,1.64,1.64,0,0,1,.28,1,1.71,1.71,0,0,1-.16.79,1.34,1.34,0,0,1-.42.51,1.47,1.47,0,0,1-.51.24,5.43,5.43,0,0,1-1,.07h-.64v1.94Zm1-4.26v1.45h.54a2.26,2.26,0,0,0,.78-.08.59.59,0,0,0,.31-.25.67.67,0,0,0,.11-.4.66.66,0,0,0-.55-.69,5.34,5.34,0,0,0-.71,0Z"/><path d="M160.06,733.21a1.1,1.1,0,1,0,1.1,1.1A1.1,1.1,0,0,0,160.06,733.21Zm0,1.87a.78.78,0,0,1-.78-.78.77.77,0,0,1,.78-.77.76.76,0,0,1,.77.77A.77.77,0,0,1,160.06,735.08Z"/><path d="M165.85,732.09a1.64,1.64,0,1,0,1.64,1.64A1.63,1.63,0,0,0,165.85,732.09Zm0,2.78a1.16,1.16,0,1,1,1.16-1.16A1.16,1.16,0,0,1,165.85,734.87Z"/><path d="M167.64,732.26a1.69,1.69,0,0,0-1.08-.9v-2.54h-3l-.68,2.14h-2.14v-2h-.43v2h-.85v.64h-.41V732h.41v.87h.19a1.48,1.48,0,0,1,1.75.84h2.33a2,2,0,0,1,1.94-2.1,1.76,1.76,0,0,1,1.73,1h.21v-.16h.18v-.22Zm-1.71-1.3h-2.61l.5-1.53h2.11Z"/><path class="cls-15" d="M171.63,732.08a8.47,8.47,0,1,1-8.46-8.46A8.46,8.46,0,0,1,171.63,732.08Z"/><path class="cls-16" d="M163.17,724.26a7.83,7.83,0,1,0,7.82,7.83A7.82,7.82,0,0,0,163.17,724.26Zm6.3,7.87a6.22,6.22,0,0,1-1.19,3.68l-9.29-8.4a6.31,6.31,0,0,1,10.48,4.72Zm-6.3,6.3a6.3,6.3,0,0,1-4.88-10.29l9.34,8.44A6.3,6.3,0,0,1,163.17,738.43Z"/><path d="M622,608.78a3,3,0,0,0,.67.37,1.92,1.92,0,0,0,.66.12,1.07,1.07,0,0,0,.87-.41,1.62,1.62,0,0,0,.33-1.06,1.29,1.29,0,0,0-.35-1,1.62,1.62,0,0,0-1.1-.32h-.27v-.7l1.39-1.93H622V603h3.1v1l-1.33,1.8a1.42,1.42,0,0,1,1.11.6,2.86,2.86,0,0,1-.13,3.15,1.89,1.89,0,0,1-1.47.61,2.25,2.25,0,0,1-.61-.09,3.61,3.61,0,0,1-.67-.27Z"/><path d="M630.44,607.53H631v.19a.92.92,0,0,1,.31-.16,1,1,0,0,1,.35-.06.82.82,0,0,1,.35.08.83.83,0,0,1,.27.23,1.16,1.16,0,0,1,.36-.23,1.07,1.07,0,0,1,.41-.08.7.7,0,0,1,.58.24,1.14,1.14,0,0,1,.19.71v1.83h-.62v-1.95a.51.51,0,0,0-.07-.3.3.3,0,0,0-.24-.1.37.37,0,0,0-.34.2,1.17,1.17,0,0,0-.12.6v1.55h-.61v-2a.44.44,0,0,0-.07-.29.3.3,0,0,0-.24-.09.4.4,0,0,0-.36.19,1.2,1.2,0,0,0-.11.61v1.55h-.62Z"/><path d="M625.55,609.76h.39v.43h-.39Z"/><path d="M626.92,605.4h2V606H627.4l0,1h.27a1.27,1.27,0,0,1,1,.42,1.57,1.57,0,0,1,.38,1.09,1.53,1.53,0,0,1-.55,1.25,2.3,2.3,0,0,1-1.51.45h-.15v-.58H627a1.61,1.61,0,0,0,1.06-.31,1,1,0,0,0,.38-.86.89.89,0,0,0-.26-.67,1.05,1.05,0,0,0-.73-.24h-.27l-.38,0Z"/><path d="M622.84,599l4.63,3,4.8-2.83S629.31,596.08,622.84,599Z"/><path d="M623,614l4.62-2.76,4.86,2.7A8.15,8.15,0,0,1,623,614Z"/><path class="cls-16" d="M627.77,596.63A10.09,10.09,0,1,0,638,606.72,10.16,10.16,0,0,0,627.77,596.63Zm0,18.11a8,8,0,1,1,8.12-8A8.08,8.08,0,0,1,627.77,614.74Z"/><path class="cls-15" d="M638.86,606.72a11.1,11.1,0,1,1-11.09-11A11,11,0,0,1,638.86,606.72Z"/><path class="cls-11" d="M568,833.7a4.06,4.06,0,0,1,0,5.74l-6.78,6.78a4.07,4.07,0,0,1-5.74,0l-6.9-6.9a4.06,4.06,0,0,1,0-5.74l6.77-6.77a4.06,4.06,0,0,1,5.74,0Z"/><path class="cls-12" d="M561,828.35,557.61,833h2.06v1.25a1,1,0,0,1-1.06.86H555.2c-2.58,0-2.31,3.64-2.31,3.64v3.73h2.7v-3.73a.92.92,0,0,1,.74-1h4.27a2.09,2.09,0,0,0,1.77-2.06V833h1.82Z"/></g></g></svg>