<svg xmlns="http://www.w3.org/2000/svg" width="752.318" height="675.711" viewBox="0 0 752.318 675.711">
  <g id="HEADER-TAPE" transform="translate(118.659 246.951)">
    <g id="Group_425" data-name="Group 425" transform="matrix(0.574, 0.819, -0.819, 0.574, 8161.73, -1867.255)">
      <g id="Group_422" data-name="Group 422" transform="translate(-3286 7517.808)">
        <g id="Group_420" data-name="Group 420" transform="translate(0 0)">
          <g id="Group_418" data-name="Group 418">
            <g id="Group_416" data-name="Group 416">
              <path id="Path_160" data-name="Path 160" d="M24.054,5.808H48.108L24.054,51.352H0Z" transform="translate(0 -5.808)" fill="#e9c100"/>
              <path id="Path_161" data-name="Path 161" d="M24.054,5.808H48.108L24.054,51.352H0Z" transform="translate(24.054 -5.808)" fill="#303030"/>
            </g>
            <g id="Group_417" data-name="Group 417" transform="translate(48.108)">
              <path id="Path_160-2" data-name="Path 160" d="M24.054,5.808H48.108L24.054,51.352H0Z" transform="translate(0 -5.808)" fill="#e9c100"/>
              <path id="Path_161-2" data-name="Path 161" d="M24.054,5.808H48.108L24.054,51.352H0Z" transform="translate(24.054 -5.808)" fill="#303030"/>
            </g>
          </g>
          <g id="Group_419" data-name="Group 419" transform="translate(96.216)">
            <g id="Group_416-2" data-name="Group 416">
              <path id="Path_160-3" data-name="Path 160" d="M24.054,5.808H48.108L24.054,51.352H0Z" transform="translate(0 -5.808)" fill="#e9c100"/>
              <path id="Path_161-3" data-name="Path 161" d="M24.054,5.808H48.108L24.054,51.352H0Z" transform="translate(24.054 -5.808)" fill="#303030"/>
            </g>
            <g id="Group_417-2" data-name="Group 417" transform="translate(48.108)">
              <path id="Path_160-4" data-name="Path 160" d="M24.054,5.808H48.108L24.054,51.352H0Z" transform="translate(0 -5.808)" fill="#e9c100"/>
              <path id="Path_161-4" data-name="Path 161" d="M24.054,5.808H48.108L24.054,51.352H0Z" transform="translate(24.054 -5.808)" fill="#303030"/>
            </g>
          </g>
        </g>
        <g id="Group_421" data-name="Group 421" transform="translate(192.171 0)">
          <g id="Group_418-2" data-name="Group 418" transform="translate(0)">
            <g id="Group_416-3" data-name="Group 416">
              <path id="Path_160-5" data-name="Path 160" d="M24.054,5.808H48.108L24.054,51.352H0Z" transform="translate(0 -5.808)" fill="#e9c100"/>
              <path id="Path_161-5" data-name="Path 161" d="M24.054,5.808H48.108L24.054,51.352H0Z" transform="translate(24.054 -5.808)" fill="#303030"/>
            </g>
            <g id="Group_417-3" data-name="Group 417" transform="translate(48.108)">
              <path id="Path_160-6" data-name="Path 160" d="M24.054,5.808H48.108L24.054,51.352H0Z" transform="translate(0 -5.808)" fill="#e9c100"/>
              <path id="Path_161-6" data-name="Path 161" d="M24.054,5.808H48.108L24.054,51.352H0Z" transform="translate(24.054 -5.808)" fill="#303030"/>
            </g>
          </g>
          <g id="Group_419-2" data-name="Group 419" transform="translate(96.216)">
            <g id="Group_416-4" data-name="Group 416">
              <path id="Path_160-7" data-name="Path 160" d="M24.054,5.808H48.108L24.054,51.352H0Z" transform="translate(0 -5.808)" fill="#e9c100"/>
              <path id="Path_161-7" data-name="Path 161" d="M24.054,5.808H48.108L24.054,51.352H0Z" transform="translate(24.054 -5.808)" fill="#303030"/>
            </g>
            <g id="Group_417-4" data-name="Group 417" transform="translate(48.108)">
              <path id="Path_160-8" data-name="Path 160" d="M24.054,5.808H48.108L24.054,51.352H0Z" transform="translate(0 -5.808)" fill="#e9c100"/>
              <path id="Path_161-8" data-name="Path 161" d="M24.054,5.808H48.108L24.054,51.352H0Z" transform="translate(24.054 -5.808)" fill="#303030"/>
            </g>
          </g>
        </g>
      </g>
      <g id="Group_423" data-name="Group 423" transform="translate(-2901.658 7517.808)">
        <g id="Group_420-2" data-name="Group 420" transform="translate(0 0)">
          <g id="Group_418-3" data-name="Group 418">
            <g id="Group_416-5" data-name="Group 416">
              <path id="Path_160-9" data-name="Path 160" d="M24.054,5.808H48.108L24.054,51.352H0Z" transform="translate(0 -5.808)" fill="#e9c100"/>
              <path id="Path_161-9" data-name="Path 161" d="M24.054,5.808H48.108L24.054,51.352H0Z" transform="translate(24.054 -5.808)" fill="#303030"/>
            </g>
            <g id="Group_417-5" data-name="Group 417" transform="translate(48.108)">
              <path id="Path_160-10" data-name="Path 160" d="M24.054,5.808H48.108L24.054,51.352H0Z" transform="translate(0 -5.808)" fill="#e9c100"/>
              <path id="Path_161-10" data-name="Path 161" d="M24.054,5.808H48.108L24.054,51.352H0Z" transform="translate(24.054 -5.808)" fill="#303030"/>
            </g>
          </g>
          <g id="Group_419-3" data-name="Group 419" transform="translate(96.216)">
            <g id="Group_416-6" data-name="Group 416">
              <path id="Path_160-11" data-name="Path 160" d="M24.054,5.808H48.108L24.054,51.352H0Z" transform="translate(0 -5.808)" fill="#e9c100"/>
              <path id="Path_161-11" data-name="Path 161" d="M24.054,5.808H48.108L24.054,51.352H0Z" transform="translate(24.054 -5.808)" fill="#303030"/>
            </g>
            <g id="Group_417-6" data-name="Group 417" transform="translate(48.108)">
              <path id="Path_160-12" data-name="Path 160" d="M24.054,5.808H48.108L24.054,51.352H0Z" transform="translate(0 -5.808)" fill="#e9c100"/>
              <path id="Path_161-12" data-name="Path 161" d="M24.054,5.808H48.108L24.054,51.352H0Z" transform="translate(24.054 -5.808)" fill="#303030"/>
            </g>
          </g>
        </g>
        <g id="Group_421-2" data-name="Group 421" transform="translate(192.171 0)">
          <g id="Group_418-4" data-name="Group 418" transform="translate(0)">
            <g id="Group_416-7" data-name="Group 416">
              <path id="Path_160-13" data-name="Path 160" d="M24.054,5.808H48.108L24.054,51.352H0Z" transform="translate(0 -5.808)" fill="#e9c100"/>
              <path id="Path_161-13" data-name="Path 161" d="M24.054,5.808H48.108L24.054,51.352H0Z" transform="translate(24.054 -5.808)" fill="#303030"/>
            </g>
            <g id="Group_417-7" data-name="Group 417" transform="translate(48.108)">
              <path id="Path_160-14" data-name="Path 160" d="M24.054,5.808H48.108L24.054,51.352H0Z" transform="translate(0 -5.808)" fill="#e9c100"/>
              <path id="Path_161-14" data-name="Path 161" d="M24.054,5.808H48.108L24.054,51.352H0Z" transform="translate(24.054 -5.808)" fill="#303030"/>
            </g>
          </g>
          <g id="Group_419-4" data-name="Group 419" transform="translate(96.216)">
            <g id="Group_416-8" data-name="Group 416">
              <path id="Path_160-15" data-name="Path 160" d="M24.054,5.808H48.108L24.054,51.352H0Z" transform="translate(0 -5.808)" fill="#e9c100"/>
              <path id="Path_161-15" data-name="Path 161" d="M24.054,5.808H48.108L24.054,51.352H0Z" transform="translate(24.054 -5.808)" fill="#303030"/>
            </g>
            <g id="Group_417-8" data-name="Group 417" transform="translate(48.108)">
              <path id="Path_160-16" data-name="Path 160" d="M24.054,5.808H48.108L24.054,51.352H0Z" transform="translate(0 -5.808)" fill="#e9c100"/>
              <path id="Path_161-16" data-name="Path 161" d="M24.054,5.808H48.108L24.054,51.352H0Z" transform="translate(24.054 -5.808)" fill="#303030"/>
            </g>
          </g>
        </g>
      </g>
    </g>
    <g id="Group_426" data-name="Group 426" transform="translate(5761.349 -5865.174) rotate(22)">
      <g id="Group_422-2" data-name="Group 422" transform="translate(-3286 7517.808)">
        <g id="Group_420-3" data-name="Group 420" transform="translate(0 0)">
          <g id="Group_418-5" data-name="Group 418">
            <g id="Group_416-9" data-name="Group 416">
              <path id="Path_160-17" data-name="Path 160" d="M24.054,5.808H48.108L24.054,51.352H0Z" transform="translate(0 -5.808)" fill="#e9c100"/>
              <path id="Path_161-17" data-name="Path 161" d="M24.054,5.808H48.108L24.054,51.352H0Z" transform="translate(24.054 -5.808)" fill="#303030"/>
            </g>
            <g id="Group_417-9" data-name="Group 417" transform="translate(48.108)">
              <path id="Path_160-18" data-name="Path 160" d="M24.054,5.808H48.108L24.054,51.352H0Z" transform="translate(0 -5.808)" fill="#e9c100"/>
              <path id="Path_161-18" data-name="Path 161" d="M24.054,5.808H48.108L24.054,51.352H0Z" transform="translate(24.054 -5.808)" fill="#303030"/>
            </g>
          </g>
          <g id="Group_419-5" data-name="Group 419" transform="translate(96.216)">
            <g id="Group_416-10" data-name="Group 416">
              <path id="Path_160-19" data-name="Path 160" d="M24.054,5.808H48.108L24.054,51.352H0Z" transform="translate(0 -5.808)" fill="#e9c100"/>
              <path id="Path_161-19" data-name="Path 161" d="M24.054,5.808H48.108L24.054,51.352H0Z" transform="translate(24.054 -5.808)" fill="#303030"/>
            </g>
            <g id="Group_417-10" data-name="Group 417" transform="translate(48.108)">
              <path id="Path_160-20" data-name="Path 160" d="M24.054,5.808H48.108L24.054,51.352H0Z" transform="translate(0 -5.808)" fill="#e9c100"/>
              <path id="Path_161-20" data-name="Path 161" d="M24.054,5.808H48.108L24.054,51.352H0Z" transform="translate(24.054 -5.808)" fill="#303030"/>
            </g>
          </g>
        </g>
        <g id="Group_421-3" data-name="Group 421" transform="translate(192.171 0)">
          <g id="Group_418-6" data-name="Group 418" transform="translate(0)">
            <g id="Group_416-11" data-name="Group 416">
              <path id="Path_160-21" data-name="Path 160" d="M24.054,5.808H48.108L24.054,51.352H0Z" transform="translate(0 -5.808)" fill="#e9c100"/>
              <path id="Path_161-21" data-name="Path 161" d="M24.054,5.808H48.108L24.054,51.352H0Z" transform="translate(24.054 -5.808)" fill="#303030"/>
            </g>
            <g id="Group_417-11" data-name="Group 417" transform="translate(48.108)">
              <path id="Path_160-22" data-name="Path 160" d="M24.054,5.808H48.108L24.054,51.352H0Z" transform="translate(0 -5.808)" fill="#e9c100"/>
              <path id="Path_161-22" data-name="Path 161" d="M24.054,5.808H48.108L24.054,51.352H0Z" transform="translate(24.054 -5.808)" fill="#303030"/>
            </g>
          </g>
          <g id="Group_419-6" data-name="Group 419" transform="translate(96.216)">
            <g id="Group_416-12" data-name="Group 416">
              <path id="Path_160-23" data-name="Path 160" d="M24.054,5.808H48.108L24.054,51.352H0Z" transform="translate(0 -5.808)" fill="#e9c100"/>
              <path id="Path_161-23" data-name="Path 161" d="M24.054,5.808H48.108L24.054,51.352H0Z" transform="translate(24.054 -5.808)" fill="#303030"/>
            </g>
            <g id="Group_417-12" data-name="Group 417" transform="translate(48.108)">
              <path id="Path_160-24" data-name="Path 160" d="M24.054,5.808H48.108L24.054,51.352H0Z" transform="translate(0 -5.808)" fill="#e9c100"/>
              <path id="Path_161-24" data-name="Path 161" d="M24.054,5.808H48.108L24.054,51.352H0Z" transform="translate(24.054 -5.808)" fill="#303030"/>
            </g>
          </g>
        </g>
      </g>
      <g id="Group_423-2" data-name="Group 423" transform="translate(-2901.658 7517.808)">
        <g id="Group_420-4" data-name="Group 420" transform="translate(0 0)">
          <g id="Group_418-7" data-name="Group 418">
            <g id="Group_416-13" data-name="Group 416">
              <path id="Path_160-25" data-name="Path 160" d="M24.054,5.808H48.108L24.054,51.352H0Z" transform="translate(0 -5.808)" fill="#e9c100"/>
              <path id="Path_161-25" data-name="Path 161" d="M24.054,5.808H48.108L24.054,51.352H0Z" transform="translate(24.054 -5.808)" fill="#303030"/>
            </g>
            <g id="Group_417-13" data-name="Group 417" transform="translate(48.108)">
              <path id="Path_160-26" data-name="Path 160" d="M24.054,5.808H48.108L24.054,51.352H0Z" transform="translate(0 -5.808)" fill="#e9c100"/>
              <path id="Path_161-26" data-name="Path 161" d="M24.054,5.808H48.108L24.054,51.352H0Z" transform="translate(24.054 -5.808)" fill="#303030"/>
            </g>
          </g>
          <g id="Group_419-7" data-name="Group 419" transform="translate(96.216)">
            <g id="Group_416-14" data-name="Group 416">
              <path id="Path_160-27" data-name="Path 160" d="M24.054,5.808H48.108L24.054,51.352H0Z" transform="translate(0 -5.808)" fill="#e9c100"/>
              <path id="Path_161-27" data-name="Path 161" d="M24.054,5.808H48.108L24.054,51.352H0Z" transform="translate(24.054 -5.808)" fill="#303030"/>
            </g>
            <g id="Group_417-14" data-name="Group 417" transform="translate(48.108)">
              <path id="Path_160-28" data-name="Path 160" d="M24.054,5.808H48.108L24.054,51.352H0Z" transform="translate(0 -5.808)" fill="#e9c100"/>
              <path id="Path_161-28" data-name="Path 161" d="M24.054,5.808H48.108L24.054,51.352H0Z" transform="translate(24.054 -5.808)" fill="#303030"/>
            </g>
          </g>
        </g>
        <g id="Group_421-4" data-name="Group 421" transform="translate(192.171 0)">
          <g id="Group_418-8" data-name="Group 418" transform="translate(0)">
            <g id="Group_416-15" data-name="Group 416">
              <path id="Path_160-29" data-name="Path 160" d="M24.054,5.808H48.108L24.054,51.352H0Z" transform="translate(0 -5.808)" fill="#e9c100"/>
              <path id="Path_161-29" data-name="Path 161" d="M24.054,5.808H48.108L24.054,51.352H0Z" transform="translate(24.054 -5.808)" fill="#303030"/>
            </g>
            <g id="Group_417-15" data-name="Group 417" transform="translate(48.108)">
              <path id="Path_160-30" data-name="Path 160" d="M24.054,5.808H48.108L24.054,51.352H0Z" transform="translate(0 -5.808)" fill="#e9c100"/>
              <path id="Path_161-30" data-name="Path 161" d="M24.054,5.808H48.108L24.054,51.352H0Z" transform="translate(24.054 -5.808)" fill="#303030"/>
            </g>
          </g>
          <g id="Group_419-8" data-name="Group 419" transform="translate(96.216)">
            <g id="Group_416-16" data-name="Group 416">
              <path id="Path_160-31" data-name="Path 160" d="M24.054,5.808H48.108L24.054,51.352H0Z" transform="translate(0 -5.808)" fill="#e9c100"/>
              <path id="Path_161-31" data-name="Path 161" d="M24.054,5.808H48.108L24.054,51.352H0Z" transform="translate(24.054 -5.808)" fill="#303030"/>
            </g>
            <g id="Group_417-16" data-name="Group 417" transform="translate(48.108)">
              <path id="Path_160-32" data-name="Path 160" d="M24.054,5.808H48.108L24.054,51.352H0Z" transform="translate(0 -5.808)" fill="#e9c100"/>
              <path id="Path_161-32" data-name="Path 161" d="M24.054,5.808H48.108L24.054,51.352H0Z" transform="translate(24.054 -5.808)" fill="#303030"/>
            </g>
          </g>
        </g>
      </g>
    </g>
  </g>
</svg>
