<svg xmlns="http://www.w3.org/2000/svg" xmlns:xlink="http://www.w3.org/1999/xlink" viewBox="0 0 1034.43 408.82"><defs><style>.cls-1{fill:none;}.cls-2{clip-path:url(#clip-path);}.cls-3{fill:#191919;}.cls-4{fill:#f4c500;}</style><clipPath id="clip-path"><rect class="cls-1" x="277" y="96.13" width="714.41" height="205.97" transform="translate(1268.41 398.23) rotate(180)"/></clipPath></defs><title>login_tape</title><g id="Layer_2" data-name="Layer 2"><g id="Layer_1-2" data-name="Layer 1"><g class="cls-2"><polygon class="cls-3" points="816.8 368.6 841.99 380.56 801.32 408.82 776.13 396.86 816.8 368.6"/><polygon class="cls-4" points="791.61 356.64 816.8 368.6 776.13 396.86 750.94 384.89 791.61 356.64"/><polygon class="cls-3" points="766.42 344.67 791.61 356.64 750.94 384.89 725.75 372.93 766.42 344.67"/><polygon class="cls-4" points="741.23 332.71 766.42 344.67 725.75 372.93 700.56 360.97 741.23 332.71"/><polygon class="cls-3" points="716.04 320.75 741.23 332.71 700.56 360.97 675.37 349 716.04 320.75"/><polygon class="cls-4" points="690.85 308.79 716.04 320.75 675.37 349 650.18 337.04 690.85 308.79"/><polygon class="cls-3" points="665.66 296.82 690.85 308.79 650.18 337.04 624.99 325.08 665.66 296.82"/><polygon class="cls-4" points="640.48 284.86 665.66 296.82 624.99 325.08 599.8 313.12 640.48 284.86"/><polygon class="cls-3" points="615.29 272.9 640.48 284.86 599.8 313.12 574.62 301.15 615.29 272.9"/><polygon class="cls-4" points="590.1 260.94 615.29 272.9 574.62 301.15 549.43 289.19 590.1 260.94"/><polygon class="cls-3" points="564.91 248.97 590.1 260.94 549.43 289.19 524.24 277.23 564.91 248.97"/><polygon class="cls-4" points="539.72 237.01 564.91 248.97 524.24 277.23 499.05 265.27 539.72 237.01"/><polygon class="cls-3" points="514.53 225.05 539.72 237.01 499.05 265.27 473.86 253.3 514.53 225.05"/><polygon class="cls-4" points="489.34 213.09 514.53 225.05 473.86 253.3 448.67 241.34 489.34 213.09"/><polygon class="cls-3" points="464.15 201.12 489.34 213.09 448.67 241.34 423.49 229.38 464.15 201.12"/><polygon class="cls-4" points="438.97 189.16 464.15 201.12 423.49 229.38 398.3 217.41 438.97 189.16"/><polygon class="cls-3" points="418.5 179.44 443.69 191.4 403.02 219.66 377.83 207.7 418.5 179.44"/><polygon class="cls-4" points="393.31 167.48 418.5 179.44 377.83 207.7 352.64 195.73 393.31 167.48"/><polygon class="cls-3" points="368.12 155.51 393.31 167.48 352.64 195.73 327.45 183.77 368.12 155.51"/><polygon class="cls-4" points="342.94 143.55 368.12 155.51 327.45 183.77 302.26 171.81 342.94 143.55"/><polygon class="cls-3" points="317.75 131.59 342.94 143.55 302.26 171.81 277.07 159.84 317.75 131.59"/><polygon class="cls-4" points="292.56 119.63 317.75 131.59 277.07 159.84 251.89 147.88 292.56 119.63"/><polygon class="cls-3" points="267.37 107.66 292.56 119.63 251.89 147.88 226.7 135.92 267.37 107.66"/><polygon class="cls-4" points="242.18 95.7 267.37 107.66 226.7 135.92 201.51 123.96 242.18 95.7"/><polygon class="cls-3" points="216.99 83.74 242.18 95.7 201.51 123.96 176.32 111.99 216.99 83.74"/><polygon class="cls-4" points="191.8 71.78 216.99 83.74 176.32 111.99 151.13 100.03 191.8 71.78"/><polygon class="cls-3" points="166.61 59.81 191.8 71.78 151.13 100.03 125.94 88.07 166.61 59.81"/><polygon class="cls-4" points="141.43 47.85 166.61 59.81 125.94 88.07 100.75 76.11 141.43 47.85"/><polygon class="cls-3" points="116.24 35.89 141.43 47.85 100.75 76.11 75.57 64.14 116.24 35.89"/><polygon class="cls-4" points="91.05 23.93 116.24 35.89 75.57 64.14 50.38 52.18 91.05 23.93"/><polygon class="cls-3" points="65.86 11.96 91.05 23.93 50.38 52.18 25.19 40.22 65.86 11.96"/><polygon class="cls-4" points="40.67 0 65.86 11.96 25.19 40.22 0 28.26 40.67 0"/><polygon class="cls-3" points="1007.56 278 1034.43 283.91 999.91 320.91 973.03 315 1007.56 278"/><polygon class="cls-4" points="980.68 272.09 1007.56 278 973.03 315 946.16 309.08 980.68 272.09"/><polygon class="cls-3" points="953.81 266.18 980.68 272.09 946.16 309.08 919.29 303.18 953.81 266.18"/><polygon class="cls-4" points="926.94 260.27 953.81 266.18 919.29 303.18 892.42 297.26 926.94 260.27"/><polygon class="cls-3" points="900.07 254.36 926.94 260.27 892.42 297.26 865.54 291.35 900.07 254.36"/><polygon class="cls-4" points="873.19 248.45 900.07 254.36 865.54 291.35 838.67 285.44 873.19 248.45"/><polygon class="cls-3" points="846.32 242.54 873.19 248.45 838.67 285.44 811.8 279.53 846.32 242.54"/><polygon class="cls-4" points="819.45 236.63 846.32 242.54 811.8 279.53 784.92 273.62 819.45 236.63"/><polygon class="cls-3" points="792.57 230.72 819.45 236.63 784.92 273.62 758.05 267.71 792.57 230.72"/><polygon class="cls-4" points="765.7 224.81 792.57 230.72 758.05 267.71 731.18 261.8 765.7 224.81"/><polygon class="cls-3" points="738.83 218.9 765.7 224.81 731.18 261.8 704.31 255.89 738.83 218.9"/><polygon class="cls-4" points="711.96 212.99 738.83 218.9 704.31 255.89 677.43 249.98 711.96 212.99"/><polygon class="cls-3" points="685.08 207.07 711.96 212.99 677.43 249.98 650.56 244.07 685.08 207.07"/><polygon class="cls-4" points="658.21 201.16 685.08 207.07 650.56 244.07 623.69 238.16 658.21 201.16"/><polygon class="cls-3" points="631.34 195.25 658.21 201.16 623.69 238.16 596.82 232.25 631.34 195.25"/><polygon class="cls-4" points="604.46 189.34 631.34 195.25 596.82 232.25 569.94 226.34 604.46 189.34"/><polygon class="cls-3" points="582.63 184.54 609.5 190.45 574.98 227.45 548.11 221.54 582.63 184.54"/><polygon class="cls-4" points="555.76 178.63 582.63 184.54 548.11 221.54 521.24 215.63 555.76 178.63"/><polygon class="cls-3" points="528.88 172.72 555.76 178.63 521.24 215.63 494.36 209.72 528.88 172.72"/><polygon class="cls-4" points="502.01 166.81 528.88 172.72 494.36 209.72 467.49 203.81 502.01 166.81"/><polygon class="cls-3" points="475.14 160.9 502.01 166.81 467.49 203.81 440.62 197.9 475.14 160.9"/><polygon class="cls-4" points="448.27 154.99 475.14 160.9 440.62 197.9 413.74 191.99 448.27 154.99"/><polygon class="cls-3" points="421.39 149.08 448.27 154.99 413.74 191.99 386.87 186.08 421.39 149.08"/><polygon class="cls-4" points="394.52 143.17 421.39 149.08 386.87 186.08 360 180.17 394.52 143.17"/><polygon class="cls-3" points="367.65 137.26 394.52 143.17 360 180.17 333.13 174.26 367.65 137.26"/><polygon class="cls-4" points="340.77 131.35 367.65 137.26 333.13 174.26 306.25 168.35 340.77 131.35"/><polygon class="cls-3" points="313.9 125.44 340.77 131.35 306.25 168.35 279.38 162.44 313.9 125.44"/><polygon class="cls-4" points="287.03 119.53 313.9 125.44 279.38 162.44 252.51 156.53 287.03 119.53"/><polygon class="cls-3" points="260.16 113.62 287.03 119.53 252.51 156.53 225.63 150.62 260.16 113.62"/><polygon class="cls-4" points="233.28 107.71 260.16 113.62 225.63 150.62 198.76 144.71 233.28 107.71"/><polygon class="cls-3" points="206.41 101.8 233.28 107.71 198.76 144.71 171.89 138.79 206.41 101.8"/><polygon class="cls-4" points="179.54 95.89 206.41 101.8 171.89 138.79 145.02 132.88 179.54 95.89"/></g></g></g></svg>