<svg xmlns="http://www.w3.org/2000/svg" xmlns:xlink="http://www.w3.org/1999/xlink" viewBox="0 0 1034.43 408.82"><defs><style>.cls-1{fill:none;}.cls-2{clip-path:url(#clip-path);}.cls-3{fill:#191919;}.cls-4{fill:#f4c500;}</style><clipPath id="clip-path"><rect class="cls-1" x="43.02" y="106.71" width="714.41" height="205.97"/></clipPath></defs><title>register_tape</title><g id="Layer_2" data-name="Layer 2"><g id="Layer_1-2" data-name="Layer 1"><g class="cls-2"><polygon class="cls-3" points="217.63 40.22 192.44 28.26 233.12 0 258.3 11.96 217.63 40.22"/><polygon class="cls-4" points="242.82 52.18 217.63 40.22 258.3 11.96 283.49 23.93 242.82 52.18"/><polygon class="cls-3" points="268.01 64.14 242.82 52.18 283.49 23.93 308.68 35.89 268.01 64.14"/><polygon class="cls-4" points="293.2 76.11 268.01 64.14 308.68 35.89 333.87 47.85 293.2 76.11"/><polygon class="cls-3" points="318.39 88.07 293.2 76.11 333.87 47.85 359.06 59.81 318.39 88.07"/><polygon class="cls-4" points="343.58 100.03 318.39 88.07 359.06 59.81 384.25 71.78 343.58 100.03"/><polygon class="cls-3" points="368.76 111.99 343.58 100.03 384.25 71.78 409.44 83.74 368.76 111.99"/><polygon class="cls-4" points="393.95 123.96 368.76 111.99 409.44 83.74 434.62 95.7 393.95 123.96"/><polygon class="cls-3" points="419.14 135.92 393.95 123.96 434.62 95.7 459.81 107.66 419.14 135.92"/><polygon class="cls-4" points="444.33 147.88 419.14 135.92 459.81 107.66 485 119.63 444.33 147.88"/><polygon class="cls-3" points="469.52 159.84 444.33 147.88 485 119.63 510.19 131.59 469.52 159.84"/><polygon class="cls-4" points="494.71 171.81 469.52 159.84 510.19 131.59 535.38 143.55 494.71 171.81"/><polygon class="cls-3" points="519.9 183.77 494.71 171.81 535.38 143.55 560.57 155.51 519.9 183.77"/><polygon class="cls-4" points="545.09 195.73 519.9 183.77 560.57 155.51 585.76 167.48 545.09 195.73"/><polygon class="cls-3" points="570.27 207.7 545.09 195.73 585.76 167.48 610.95 179.44 570.27 207.7"/><polygon class="cls-4" points="595.46 219.66 570.27 207.7 610.95 179.44 636.13 191.4 595.46 219.66"/><polygon class="cls-3" points="615.93 229.38 590.74 217.41 631.41 189.16 656.6 201.12 615.93 229.38"/><polygon class="cls-4" points="641.12 241.34 615.93 229.38 656.6 201.12 681.79 213.09 641.12 241.34"/><polygon class="cls-3" points="666.31 253.3 641.12 241.34 681.79 213.09 706.98 225.05 666.31 253.3"/><polygon class="cls-4" points="691.5 265.27 666.31 253.3 706.98 225.05 732.17 237.01 691.5 265.27"/><polygon class="cls-3" points="716.68 277.23 691.5 265.27 732.17 237.01 757.35 248.97 716.68 277.23"/><polygon class="cls-4" points="741.87 289.19 716.68 277.23 757.35 248.97 782.54 260.94 741.87 289.19"/><polygon class="cls-3" points="767.06 301.15 741.87 289.19 782.54 260.94 807.73 272.9 767.06 301.15"/><polygon class="cls-4" points="792.25 313.12 767.06 301.15 807.73 272.9 832.92 284.86 792.25 313.12"/><polygon class="cls-3" points="817.44 325.08 792.25 313.12 832.92 284.86 858.11 296.82 817.44 325.08"/><polygon class="cls-4" points="842.63 337.04 817.44 325.08 858.11 296.82 883.3 308.79 842.63 337.04"/><polygon class="cls-3" points="867.82 349 842.63 337.04 883.3 308.79 908.49 320.75 867.82 349"/><polygon class="cls-4" points="893 360.97 867.82 349 908.49 320.75 933.67 332.71 893 360.97"/><polygon class="cls-3" points="918.19 372.93 893 360.97 933.67 332.71 958.86 344.67 918.19 372.93"/><polygon class="cls-4" points="943.38 384.89 918.19 372.93 958.86 344.67 984.05 356.64 943.38 384.89"/><polygon class="cls-3" points="968.57 396.86 943.38 384.89 984.05 356.64 1009.24 368.6 968.57 396.86"/><polygon class="cls-4" points="993.76 408.82 968.57 396.86 1009.24 368.6 1034.43 380.56 993.76 408.82"/><polygon class="cls-3" points="26.87 130.82 0 124.91 34.52 87.91 61.4 93.82 26.87 130.82"/><polygon class="cls-4" points="53.75 136.73 26.87 130.82 61.4 93.82 88.27 99.73 53.75 136.73"/><polygon class="cls-3" points="80.62 142.64 53.75 136.73 88.27 99.73 115.14 105.64 80.62 142.64"/><polygon class="cls-4" points="107.49 148.55 80.62 142.64 115.14 105.64 142.01 111.55 107.49 148.55"/><polygon class="cls-3" points="134.36 154.46 107.49 148.55 142.01 111.55 168.89 117.46 134.36 154.46"/><polygon class="cls-4" points="161.24 160.37 134.36 154.46 168.89 117.46 195.76 123.37 161.24 160.37"/><polygon class="cls-3" points="188.11 166.28 161.24 160.37 195.76 123.37 222.63 129.28 188.11 166.28"/><polygon class="cls-4" points="214.98 172.19 188.11 166.28 222.63 129.28 249.5 135.19 214.98 172.19"/><polygon class="cls-3" points="241.86 178.1 214.98 172.19 249.5 135.19 276.38 141.1 241.86 178.1"/><polygon class="cls-4" points="268.73 184.01 241.86 178.1 276.38 141.1 303.25 147.01 268.73 184.01"/><polygon class="cls-3" points="295.6 189.92 268.73 184.01 303.25 147.01 330.12 152.93 295.6 189.92"/><polygon class="cls-4" points="322.47 195.83 295.6 189.92 330.12 152.93 357 158.84 322.47 195.83"/><polygon class="cls-3" points="349.35 201.74 322.47 195.83 357 158.84 383.87 164.75 349.35 201.74"/><polygon class="cls-4" points="376.22 207.65 349.35 201.74 383.87 164.75 410.74 170.66 376.22 207.65"/><polygon class="cls-3" points="403.09 213.56 376.22 207.65 410.74 170.66 437.61 176.57 403.09 213.56"/><polygon class="cls-4" points="429.96 219.47 403.09 213.56 437.61 176.57 464.49 182.48 429.96 219.47"/><polygon class="cls-3" points="451.8 224.28 424.93 218.37 459.45 181.37 486.32 187.28 451.8 224.28"/><polygon class="cls-4" points="478.67 230.19 451.8 224.28 486.32 187.28 513.19 193.19 478.67 230.19"/><polygon class="cls-3" points="505.55 236.1 478.67 230.19 513.19 193.19 540.07 199.1 505.55 236.1"/><polygon class="cls-4" points="532.42 242.01 505.55 236.1 540.07 199.1 566.94 205.01 532.42 242.01"/><polygon class="cls-3" points="559.29 247.92 532.42 242.01 566.94 205.01 593.81 210.92 559.29 247.92"/><polygon class="cls-4" points="586.16 253.83 559.29 247.92 593.81 210.92 620.69 216.83 586.16 253.83"/><polygon class="cls-3" points="613.04 259.74 586.16 253.83 620.69 216.83 647.56 222.74 613.04 259.74"/><polygon class="cls-4" points="639.91 265.65 613.04 259.74 647.56 222.74 674.43 228.65 639.91 265.65"/><polygon class="cls-3" points="666.78 271.56 639.91 265.65 674.43 228.65 701.3 234.56 666.78 271.56"/><polygon class="cls-4" points="693.65 277.47 666.78 271.56 701.3 234.56 728.18 240.47 693.65 277.47"/><polygon class="cls-3" points="720.53 283.38 693.65 277.47 728.18 240.47 755.05 246.38 720.53 283.38"/><polygon class="cls-4" points="747.4 289.29 720.53 283.38 755.05 246.38 781.92 252.29 747.4 289.29"/><polygon class="cls-3" points="774.27 295.2 747.4 289.29 781.92 252.29 808.8 258.2 774.27 295.2"/><polygon class="cls-4" points="801.15 301.11 774.27 295.2 808.8 258.2 835.67 264.11 801.15 301.11"/><polygon class="cls-3" points="828.02 307.02 801.15 301.11 835.67 264.11 862.54 270.02 828.02 307.02"/><polygon class="cls-4" points="854.89 312.93 828.02 307.02 862.54 270.02 889.41 275.93 854.89 312.93"/></g></g></g></svg>